%TF.GenerationSoftware,KiCad,Pcbnew,7.0.7-rc1*%
%TF.CreationDate,2024-03-01T23:28:45-05:00*%
%TF.ProjectId,COMPCBSTATIC,434f4d50-4342-4535-9441-5449432e6b69,rev?*%
%TF.SameCoordinates,Original*%
%TF.FileFunction,Soldermask,Top*%
%TF.FilePolarity,Negative*%
%FSLAX46Y46*%
G04 Gerber Fmt 4.6, Leading zero omitted, Abs format (unit mm)*
G04 Created by KiCad (PCBNEW 7.0.7-rc1) date 2024-03-01 23:28:45*
%MOMM*%
%LPD*%
G01*
G04 APERTURE LIST*
G04 Aperture macros list*
%AMRoundRect*
0 Rectangle with rounded corners*
0 $1 Rounding radius*
0 $2 $3 $4 $5 $6 $7 $8 $9 X,Y pos of 4 corners*
0 Add a 4 corners polygon primitive as box body*
4,1,4,$2,$3,$4,$5,$6,$7,$8,$9,$2,$3,0*
0 Add four circle primitives for the rounded corners*
1,1,$1+$1,$2,$3*
1,1,$1+$1,$4,$5*
1,1,$1+$1,$6,$7*
1,1,$1+$1,$8,$9*
0 Add four rect primitives between the rounded corners*
20,1,$1+$1,$2,$3,$4,$5,0*
20,1,$1+$1,$4,$5,$6,$7,0*
20,1,$1+$1,$6,$7,$8,$9,0*
20,1,$1+$1,$8,$9,$2,$3,0*%
G04 Aperture macros list end*
%ADD10R,0.400000X1.350000*%
%ADD11O,0.890000X1.550000*%
%ADD12R,1.200000X1.550000*%
%ADD13O,1.250000X0.950000*%
%ADD14R,1.500000X1.550000*%
%ADD15RoundRect,0.243750X0.456250X-0.243750X0.456250X0.243750X-0.456250X0.243750X-0.456250X-0.243750X0*%
%ADD16RoundRect,0.250000X1.125000X1.125000X-1.125000X1.125000X-1.125000X-1.125000X1.125000X-1.125000X0*%
%ADD17C,2.750000*%
%ADD18C,5.500000*%
%ADD19RoundRect,0.150000X0.150000X0.700000X-0.150000X0.700000X-0.150000X-0.700000X0.150000X-0.700000X0*%
%ADD20RoundRect,0.250000X0.250000X1.100000X-0.250000X1.100000X-0.250000X-1.100000X0.250000X-1.100000X0*%
%ADD21RoundRect,0.250000X0.262500X0.450000X-0.262500X0.450000X-0.262500X-0.450000X0.262500X-0.450000X0*%
%ADD22C,1.712000*%
%ADD23C,4.220000*%
%ADD24R,0.762000X2.032000*%
%ADD25RoundRect,0.250000X-0.262500X-0.450000X0.262500X-0.450000X0.262500X0.450000X-0.262500X0.450000X0*%
G04 APERTURE END LIST*
D10*
%TO.C,J2*%
X70300000Y-62200000D03*
X69650000Y-62200000D03*
X69000000Y-62200000D03*
X68350000Y-62200000D03*
X67700000Y-62200000D03*
D11*
X72500000Y-59500000D03*
D12*
X71900000Y-59500000D03*
D13*
X71500000Y-62200000D03*
D14*
X70000000Y-59500000D03*
X68000000Y-59500000D03*
D13*
X66500000Y-62200000D03*
D12*
X66100000Y-59500000D03*
D11*
X65500000Y-59500000D03*
%TD*%
D15*
%TO.C,D1*%
X79000000Y-79875000D03*
X79000000Y-78000000D03*
%TD*%
D16*
%TO.C,J4*%
X65500000Y-132000000D03*
D17*
X60100000Y-132000000D03*
X54700000Y-132000000D03*
X49300000Y-132000000D03*
X43900000Y-132000000D03*
X38500000Y-132000000D03*
%TD*%
D18*
%TO.C,H2*%
X77000000Y-132000000D03*
%TD*%
%TO.C,H1*%
X27000000Y-132000000D03*
%TD*%
D19*
%TO.C,J1*%
X55125000Y-62850000D03*
X53875000Y-62850000D03*
X52625000Y-62850000D03*
X51375000Y-62850000D03*
X50125000Y-62850000D03*
X48875000Y-62850000D03*
D20*
X56975000Y-59650000D03*
X47025000Y-59650000D03*
%TD*%
D21*
%TO.C,R2*%
X38762500Y-72750000D03*
X36937500Y-72750000D03*
%TD*%
D15*
%TO.C,D2*%
X25000000Y-79937500D03*
X25000000Y-78062500D03*
%TD*%
D22*
%TO.C,J3*%
X50650000Y-67000000D03*
X53350000Y-67000000D03*
X53750000Y-69090000D03*
X52000000Y-70240000D03*
X50250000Y-69090000D03*
X52000000Y-68340000D03*
D23*
X58250000Y-68340000D03*
X45750000Y-68340000D03*
%TD*%
D24*
%TO.C,SW1*%
X34460000Y-67078000D03*
X37000000Y-67078000D03*
X39540000Y-67078000D03*
X39540000Y-59077000D03*
X34460000Y-59077000D03*
%TD*%
D25*
%TO.C,R1*%
X64987500Y-72750000D03*
X66812500Y-72750000D03*
%TD*%
D18*
%TO.C,H3*%
X27000000Y-62000000D03*
%TD*%
%TO.C,H4*%
X77000000Y-62000000D03*
%TD*%
M02*
