%TF.GenerationSoftware,KiCad,Pcbnew,7.0.7-rc1*%
%TF.CreationDate,2024-03-01T23:28:45-05:00*%
%TF.ProjectId,COMPCBSTATIC,434f4d50-4342-4535-9441-5449432e6b69,rev?*%
%TF.SameCoordinates,Original*%
%TF.FileFunction,Copper,L1,Top*%
%TF.FilePolarity,Positive*%
%FSLAX46Y46*%
G04 Gerber Fmt 4.6, Leading zero omitted, Abs format (unit mm)*
G04 Created by KiCad (PCBNEW 7.0.7-rc1) date 2024-03-01 23:28:45*
%MOMM*%
%LPD*%
G01*
G04 APERTURE LIST*
G04 Aperture macros list*
%AMRoundRect*
0 Rectangle with rounded corners*
0 $1 Rounding radius*
0 $2 $3 $4 $5 $6 $7 $8 $9 X,Y pos of 4 corners*
0 Add a 4 corners polygon primitive as box body*
4,1,4,$2,$3,$4,$5,$6,$7,$8,$9,$2,$3,0*
0 Add four circle primitives for the rounded corners*
1,1,$1+$1,$2,$3*
1,1,$1+$1,$4,$5*
1,1,$1+$1,$6,$7*
1,1,$1+$1,$8,$9*
0 Add four rect primitives between the rounded corners*
20,1,$1+$1,$2,$3,$4,$5,0*
20,1,$1+$1,$4,$5,$6,$7,0*
20,1,$1+$1,$6,$7,$8,$9,0*
20,1,$1+$1,$8,$9,$2,$3,0*%
G04 Aperture macros list end*
%TA.AperFunction,SMDPad,CuDef*%
%ADD10R,0.400000X1.350000*%
%TD*%
%TA.AperFunction,ComponentPad*%
%ADD11O,0.890000X1.550000*%
%TD*%
%TA.AperFunction,SMDPad,CuDef*%
%ADD12R,1.200000X1.550000*%
%TD*%
%TA.AperFunction,ComponentPad*%
%ADD13O,1.250000X0.950000*%
%TD*%
%TA.AperFunction,SMDPad,CuDef*%
%ADD14R,1.500000X1.550000*%
%TD*%
%TA.AperFunction,SMDPad,CuDef*%
%ADD15RoundRect,0.243750X0.456250X-0.243750X0.456250X0.243750X-0.456250X0.243750X-0.456250X-0.243750X0*%
%TD*%
%TA.AperFunction,ComponentPad*%
%ADD16RoundRect,0.250000X1.125000X1.125000X-1.125000X1.125000X-1.125000X-1.125000X1.125000X-1.125000X0*%
%TD*%
%TA.AperFunction,ComponentPad*%
%ADD17C,2.750000*%
%TD*%
%TA.AperFunction,ComponentPad*%
%ADD18C,5.500000*%
%TD*%
%TA.AperFunction,SMDPad,CuDef*%
%ADD19RoundRect,0.150000X0.150000X0.700000X-0.150000X0.700000X-0.150000X-0.700000X0.150000X-0.700000X0*%
%TD*%
%TA.AperFunction,SMDPad,CuDef*%
%ADD20RoundRect,0.250000X0.250000X1.100000X-0.250000X1.100000X-0.250000X-1.100000X0.250000X-1.100000X0*%
%TD*%
%TA.AperFunction,SMDPad,CuDef*%
%ADD21RoundRect,0.250000X0.262500X0.450000X-0.262500X0.450000X-0.262500X-0.450000X0.262500X-0.450000X0*%
%TD*%
%TA.AperFunction,ComponentPad*%
%ADD22C,1.508000*%
%TD*%
%TA.AperFunction,ComponentPad*%
%ADD23C,4.016000*%
%TD*%
%TA.AperFunction,SMDPad,CuDef*%
%ADD24R,0.762000X2.032000*%
%TD*%
%TA.AperFunction,SMDPad,CuDef*%
%ADD25RoundRect,0.250000X-0.262500X-0.450000X0.262500X-0.450000X0.262500X0.450000X-0.262500X0.450000X0*%
%TD*%
%TA.AperFunction,ViaPad*%
%ADD26C,0.800000*%
%TD*%
%TA.AperFunction,Conductor*%
%ADD27C,0.500000*%
%TD*%
%TA.AperFunction,Conductor*%
%ADD28C,1.200000*%
%TD*%
%TA.AperFunction,Conductor*%
%ADD29C,0.700000*%
%TD*%
G04 APERTURE END LIST*
D10*
%TO.P,J2,1,VBUS*%
%TO.N,Net-(J2-VBUS)*%
X70300000Y-62200000D03*
%TO.P,J2,2,D-*%
%TO.N,unconnected-(J2-D--Pad2)*%
X69650000Y-62200000D03*
%TO.P,J2,3,D+*%
%TO.N,unconnected-(J2-D+-Pad3)*%
X69000000Y-62200000D03*
%TO.P,J2,4,ID*%
%TO.N,unconnected-(J2-ID-Pad4)*%
X68350000Y-62200000D03*
%TO.P,J2,5,GND*%
%TO.N,GND*%
X67700000Y-62200000D03*
D11*
%TO.P,J2,6,Shield*%
%TO.N,unconnected-(J2-Shield-Pad6)*%
X72500000Y-59500000D03*
D12*
X71900000Y-59500000D03*
D13*
X71500000Y-62200000D03*
D14*
X70000000Y-59500000D03*
X68000000Y-59500000D03*
D13*
X66500000Y-62200000D03*
D12*
X66100000Y-59500000D03*
D11*
X65500000Y-59500000D03*
%TD*%
D15*
%TO.P,D1,1,K*%
%TO.N,GND*%
X79000000Y-79875000D03*
%TO.P,D1,2,A*%
%TO.N,Net-(D1-A)*%
X79000000Y-78000000D03*
%TD*%
D16*
%TO.P,J4,1,Pin_1*%
%TO.N,Net-(J1-Pin_1)*%
X65500000Y-132000000D03*
D17*
%TO.P,J4,2,Pin_2*%
%TO.N,Net-(J1-Pin_2)*%
X60100000Y-132000000D03*
%TO.P,J4,3,Pin_3*%
%TO.N,Net-(J1-Pin_3)*%
X54700000Y-132000000D03*
%TO.P,J4,4,Pin_4*%
%TO.N,Net-(J1-Pin_4)*%
X49300000Y-132000000D03*
%TO.P,J4,5,Pin_5*%
%TO.N,Net-(J1-Pin_5)*%
X43900000Y-132000000D03*
%TO.P,J4,6,Pin_6*%
%TO.N,GND*%
X38500000Y-132000000D03*
%TD*%
D18*
%TO.P,H2,1,1*%
%TO.N,GND*%
X77000000Y-132000000D03*
%TD*%
%TO.P,H1,1,1*%
%TO.N,GND*%
X27000000Y-132000000D03*
%TD*%
D19*
%TO.P,J1,1,Pin_1*%
%TO.N,Net-(J1-Pin_1)*%
X55125000Y-62850000D03*
%TO.P,J1,2,Pin_2*%
%TO.N,Net-(J1-Pin_2)*%
X53875000Y-62850000D03*
%TO.P,J1,3,Pin_3*%
%TO.N,Net-(J1-Pin_3)*%
X52625000Y-62850000D03*
%TO.P,J1,4,Pin_4*%
%TO.N,Net-(J1-Pin_4)*%
X51375000Y-62850000D03*
%TO.P,J1,5,Pin_5*%
%TO.N,Net-(J1-Pin_5)*%
X50125000Y-62850000D03*
%TO.P,J1,6,Pin_6*%
%TO.N,GND*%
X48875000Y-62850000D03*
D20*
%TO.P,J1,MP*%
%TO.N,N/C*%
X56975000Y-59650000D03*
X47025000Y-59650000D03*
%TD*%
D21*
%TO.P,R2,1*%
%TO.N,Net-(J1-Pin_5)*%
X38762500Y-72750000D03*
%TO.P,R2,2*%
%TO.N,Net-(D2-A)*%
X36937500Y-72750000D03*
%TD*%
D15*
%TO.P,D2,1,K*%
%TO.N,GND*%
X25000000Y-79937500D03*
%TO.P,D2,2,A*%
%TO.N,Net-(D2-A)*%
X25000000Y-78062500D03*
%TD*%
D22*
%TO.P,J3,1,1*%
%TO.N,GND*%
X50650000Y-67000000D03*
%TO.P,J3,2,2*%
%TO.N,Net-(J3-Pad2)*%
X53350000Y-67000000D03*
%TO.P,J3,3,3*%
%TO.N,Net-(J1-Pin_4)*%
X53750000Y-69090000D03*
%TO.P,J3,4,4*%
%TO.N,Net-(J1-Pin_3)*%
X52000000Y-70240000D03*
%TO.P,J3,5,5*%
%TO.N,Net-(J1-Pin_2)*%
X50250000Y-69090000D03*
%TO.P,J3,6,6*%
%TO.N,Net-(J1-Pin_1)*%
X52000000Y-68340000D03*
D23*
%TO.P,J3,S1,SHIELD*%
%TO.N,GND*%
X58250000Y-68340000D03*
%TO.P,J3,S2,SHIELD*%
X45750000Y-68340000D03*
%TD*%
D24*
%TO.P,SW1,1,1*%
%TO.N,Net-(J1-Pin_5)*%
X34460000Y-67078000D03*
%TO.P,SW1,2,2*%
%TO.N,Net-(J2-VBUS)*%
X37000000Y-67078000D03*
%TO.P,SW1,3,3*%
%TO.N,unconnected-(SW1-Pad3)*%
X39540000Y-67078000D03*
%TO.P,SW1,4*%
%TO.N,N/C*%
X39540000Y-59077000D03*
%TO.P,SW1,5*%
X34460000Y-59077000D03*
%TD*%
D25*
%TO.P,R1,1*%
%TO.N,Net-(J3-Pad2)*%
X64987500Y-72750000D03*
%TO.P,R1,2*%
%TO.N,Net-(D1-A)*%
X66812500Y-72750000D03*
%TD*%
D18*
%TO.P,H3,1,1*%
%TO.N,GND*%
X27000000Y-62000000D03*
%TD*%
%TO.P,H4,1,1*%
%TO.N,GND*%
X77000000Y-62000000D03*
%TD*%
D26*
%TO.N,GND*%
X49000000Y-59000000D03*
X30000000Y-79937500D03*
%TO.N,Net-(D1-A)*%
X75000000Y-74000000D03*
X79000000Y-74000000D03*
%TO.N,Net-(J1-Pin_2)*%
X68500000Y-77500000D03*
X52000000Y-61000000D03*
%TO.N,Net-(J1-Pin_1)*%
X55000000Y-64000000D03*
%TO.N,Net-(J1-Pin_3)*%
X58000000Y-72500000D03*
%TO.N,Net-(J3-Pad2)*%
X65000000Y-67000000D03*
%TO.N,Net-(J1-Pin_5)*%
X36730000Y-70270000D03*
%TO.N,Net-(J2-VBUS)*%
X44500000Y-62000000D03*
X70000000Y-63900500D03*
X62000000Y-61000000D03*
%TD*%
D27*
%TO.N,GND*%
X69125000Y-64750000D02*
X74250000Y-64750000D01*
X54450000Y-61450000D02*
X52000000Y-59000000D01*
X34152500Y-79937500D02*
X45750000Y-68340000D01*
X25000000Y-79937500D02*
X30000000Y-79937500D01*
X67700000Y-62200000D02*
X67700000Y-63325000D01*
D28*
X78698915Y-79875000D02*
X77000000Y-78176085D01*
D27*
X67250000Y-63125000D02*
X58675000Y-63125000D01*
X67700000Y-63325000D02*
X69125000Y-64750000D01*
X74250000Y-64750000D02*
X77000000Y-62000000D01*
D29*
X48875000Y-64500000D02*
X48875000Y-62850000D01*
X48875000Y-64500000D02*
X48875000Y-65215000D01*
X48875000Y-65215000D02*
X45750000Y-68340000D01*
D27*
X52000000Y-59000000D02*
X49000000Y-59000000D01*
D29*
X50650000Y-67000000D02*
X48875000Y-65225000D01*
D27*
X67700000Y-62675000D02*
X67250000Y-63125000D01*
X58675000Y-63125000D02*
X57000000Y-61450000D01*
D29*
X48875000Y-65225000D02*
X48875000Y-64500000D01*
D27*
X30000000Y-79937500D02*
X34152500Y-79937500D01*
D28*
X79000000Y-79875000D02*
X78698915Y-79875000D01*
D27*
X57000000Y-61450000D02*
X54450000Y-61450000D01*
D28*
X77000000Y-78176085D02*
X77000000Y-62000000D01*
D27*
X67700000Y-62200000D02*
X67700000Y-62675000D01*
D28*
%TO.N,Net-(D1-A)*%
X68062500Y-74000000D02*
X66812500Y-72750000D01*
X79000000Y-78000000D02*
X79000000Y-74000000D01*
X75000000Y-74000000D02*
X68062500Y-74000000D01*
D29*
%TO.N,Net-(D2-A)*%
X36937500Y-72750000D02*
X30312500Y-72750000D01*
X30312500Y-72750000D02*
X25000000Y-78062500D01*
D28*
%TO.N,Net-(J1-Pin_2)*%
X58020101Y-74500000D02*
X55520101Y-72000000D01*
D29*
X52614949Y-61000000D02*
X52000000Y-61000000D01*
D28*
X55520101Y-72000000D02*
X51562312Y-72000000D01*
D29*
X53875000Y-62260051D02*
X52614949Y-61000000D01*
X53875000Y-62850000D02*
X53875000Y-62260051D01*
D28*
X65000000Y-77500000D02*
X62000000Y-74500000D01*
X50250000Y-70687688D02*
X50250000Y-69090000D01*
X51562312Y-72000000D02*
X50250000Y-70687688D01*
X62000000Y-74500000D02*
X58020101Y-74500000D01*
X68500000Y-77500000D02*
X65000000Y-77500000D01*
D27*
%TO.N,unconnected-(J2-Shield-Pad6)*%
X66100000Y-59500000D02*
X68000000Y-59500000D01*
X71500000Y-62200000D02*
X71500000Y-59900000D01*
X71900000Y-59500000D02*
X70000000Y-59500000D01*
X71500000Y-59900000D02*
X71900000Y-59500000D01*
X68000000Y-59500000D02*
X70000000Y-59500000D01*
D28*
%TO.N,Net-(J1-Pin_1)*%
X62000000Y-72000000D02*
X62000000Y-68118888D01*
X70500000Y-77520101D02*
X68379899Y-75400000D01*
X70500000Y-127000000D02*
X70500000Y-77520101D01*
X65500000Y-132000000D02*
X70500000Y-127000000D01*
D29*
X55125000Y-62850000D02*
X55125000Y-63875000D01*
X55125000Y-63875000D02*
X55000000Y-64000000D01*
D28*
X65400000Y-75400000D02*
X62000000Y-72000000D01*
X68379899Y-75400000D02*
X65400000Y-75400000D01*
X56731112Y-62850000D02*
X55125000Y-62850000D01*
X62000000Y-68118888D02*
X56731112Y-62850000D01*
%TO.N,Net-(J1-Pin_3)*%
X57766312Y-72196000D02*
X55304000Y-69733688D01*
X58000000Y-72500000D02*
X58000000Y-72196000D01*
D29*
X52154000Y-70394000D02*
X52000000Y-70240000D01*
X52625000Y-63625000D02*
X53796000Y-64796000D01*
X55554000Y-69130135D02*
X54290135Y-70394000D01*
X54290135Y-70394000D02*
X52154000Y-70394000D01*
X54262927Y-64796000D02*
X55554000Y-66087073D01*
X52625000Y-62850000D02*
X52625000Y-63625000D01*
D28*
X58000000Y-72196000D02*
X57766312Y-72196000D01*
D29*
X55554000Y-66087073D02*
X55554000Y-69130135D01*
D28*
X55304000Y-69733688D02*
X55304000Y-69592067D01*
D29*
X53796000Y-64796000D02*
X54262927Y-64796000D01*
%TO.N,Net-(J1-Pin_4)*%
X54654000Y-68186000D02*
X53750000Y-69090000D01*
X54654000Y-66459865D02*
X54654000Y-68186000D01*
X53890135Y-65696000D02*
X54654000Y-66459865D01*
X52696000Y-65696000D02*
X53890135Y-65696000D01*
X51375000Y-64375000D02*
X52696000Y-65696000D01*
X51375000Y-62850000D02*
X51375000Y-64375000D01*
D28*
%TO.N,Net-(J3-Pad2)*%
X64987500Y-72750000D02*
X64987500Y-67012500D01*
X64987500Y-67012500D02*
X65000000Y-67000000D01*
D29*
%TO.N,Net-(J1-Pin_5)*%
X34460000Y-68000000D02*
X36730000Y-70270000D01*
X50125000Y-62850000D02*
X50125000Y-62260051D01*
X49314950Y-61450000D02*
X48100000Y-61450000D01*
X50125000Y-62260051D02*
X49314950Y-61450000D01*
X41850000Y-70025000D02*
X39125000Y-72750000D01*
X39125000Y-72750000D02*
X38762500Y-72750000D01*
X36730000Y-70270000D02*
X38460000Y-72000000D01*
X41850000Y-67700000D02*
X41850000Y-70025000D01*
X48100000Y-61450000D02*
X41850000Y-67700000D01*
D27*
%TO.N,Net-(J2-VBUS)*%
X70300000Y-62200000D02*
X70300000Y-63600500D01*
X70300000Y-62200000D02*
X70300000Y-61025000D01*
D28*
X44500000Y-62000000D02*
X41000000Y-62000000D01*
X41000000Y-62000000D02*
X37000000Y-66000000D01*
D27*
X70275000Y-61000000D02*
X62000000Y-61000000D01*
D28*
X37000000Y-66000000D02*
X37000000Y-68000000D01*
D27*
X70300000Y-61025000D02*
X70275000Y-61000000D01*
X70300000Y-63600500D02*
X70000000Y-63900500D01*
%TD*%
%TA.AperFunction,Conductor*%
%TO.N,GND*%
G36*
X33521539Y-58020185D02*
G01*
X33567294Y-58072989D01*
X33578500Y-58124500D01*
X33578501Y-60140865D01*
X33578501Y-60140876D01*
X33584908Y-60200483D01*
X33635202Y-60335328D01*
X33635206Y-60335335D01*
X33721452Y-60450544D01*
X33721455Y-60450547D01*
X33836664Y-60536793D01*
X33836671Y-60536797D01*
X33971517Y-60587091D01*
X33971516Y-60587091D01*
X33978444Y-60587835D01*
X34031127Y-60593500D01*
X34888872Y-60593499D01*
X34948483Y-60587091D01*
X35083331Y-60536796D01*
X35198546Y-60450546D01*
X35284796Y-60335331D01*
X35335091Y-60200483D01*
X35341500Y-60140873D01*
X35341499Y-58124499D01*
X35361184Y-58057461D01*
X35413987Y-58011706D01*
X35465499Y-58000500D01*
X38534500Y-58000500D01*
X38601539Y-58020185D01*
X38647294Y-58072989D01*
X38658500Y-58124500D01*
X38658501Y-60140865D01*
X38658501Y-60140876D01*
X38664908Y-60200483D01*
X38715202Y-60335328D01*
X38715206Y-60335335D01*
X38801452Y-60450544D01*
X38801455Y-60450547D01*
X38916664Y-60536793D01*
X38916671Y-60536797D01*
X39051517Y-60587091D01*
X39051516Y-60587091D01*
X39058444Y-60587835D01*
X39111127Y-60593500D01*
X39968872Y-60593499D01*
X40028483Y-60587091D01*
X40163331Y-60536796D01*
X40278546Y-60450546D01*
X40364796Y-60335331D01*
X40415091Y-60200483D01*
X40421500Y-60140873D01*
X40421499Y-58124499D01*
X40441184Y-58057461D01*
X40493987Y-58011706D01*
X40545499Y-58000500D01*
X46009979Y-58000500D01*
X46077018Y-58020185D01*
X46122773Y-58072989D01*
X46132717Y-58142147D01*
X46115518Y-58189594D01*
X46109834Y-58198811D01*
X46090187Y-58230663D01*
X46090185Y-58230668D01*
X46073439Y-58281204D01*
X46035001Y-58397203D01*
X46035001Y-58397204D01*
X46035000Y-58397204D01*
X46024500Y-58499983D01*
X46024500Y-60800001D01*
X46024501Y-60800018D01*
X46035000Y-60902796D01*
X46035001Y-60902799D01*
X46077060Y-61029722D01*
X46090186Y-61069334D01*
X46182288Y-61218656D01*
X46306344Y-61342712D01*
X46455666Y-61434814D01*
X46607893Y-61485257D01*
X46665335Y-61525027D01*
X46692158Y-61589543D01*
X46679843Y-61658319D01*
X46656567Y-61690642D01*
X45649293Y-62697916D01*
X45587970Y-62731401D01*
X45518278Y-62726417D01*
X45462345Y-62684545D01*
X45437928Y-62619081D01*
X45452780Y-62550808D01*
X45454225Y-62548234D01*
X45458665Y-62540544D01*
X45505604Y-62459244D01*
X45574344Y-62260633D01*
X45604254Y-62052602D01*
X45594254Y-61842670D01*
X45544704Y-61638424D01*
X45541733Y-61631919D01*
X45457401Y-61447256D01*
X45457398Y-61447251D01*
X45457397Y-61447250D01*
X45457396Y-61447247D01*
X45335486Y-61276048D01*
X45335484Y-61276046D01*
X45335479Y-61276040D01*
X45183379Y-61131014D01*
X45006574Y-61017388D01*
X44972695Y-61003825D01*
X44872196Y-60963591D01*
X44811455Y-60939274D01*
X44605086Y-60899500D01*
X44605085Y-60899500D01*
X41102238Y-60899500D01*
X41081673Y-60897783D01*
X41078869Y-60897311D01*
X41078866Y-60897311D01*
X41009903Y-60898952D01*
X40986915Y-60899500D01*
X40947575Y-60899500D01*
X40943909Y-60899849D01*
X40936712Y-60900536D01*
X40932300Y-60900799D01*
X40868750Y-60902313D01*
X40833736Y-60909929D01*
X40826447Y-60911066D01*
X40790786Y-60914471D01*
X40790782Y-60914471D01*
X40790782Y-60914472D01*
X40782106Y-60917019D01*
X40729792Y-60932379D01*
X40725504Y-60933474D01*
X40663394Y-60946985D01*
X40663381Y-60946989D01*
X40630441Y-60961095D01*
X40623506Y-60963587D01*
X40609742Y-60967629D01*
X40589129Y-60973682D01*
X40589119Y-60973686D01*
X40532617Y-61002814D01*
X40528614Y-61004700D01*
X40470193Y-61029717D01*
X40470184Y-61029722D01*
X40440515Y-61049802D01*
X40434173Y-61053564D01*
X40402321Y-61069986D01*
X40402313Y-61069991D01*
X40352351Y-61109282D01*
X40348777Y-61111892D01*
X40296141Y-61147518D01*
X40296129Y-61147527D01*
X40270792Y-61172863D01*
X40265278Y-61177758D01*
X40237113Y-61199908D01*
X40195482Y-61247951D01*
X40192467Y-61251190D01*
X36294120Y-65149536D01*
X36278381Y-65162852D01*
X36276047Y-65164514D01*
X36212572Y-65231085D01*
X36184753Y-65258905D01*
X36184751Y-65258907D01*
X36177806Y-65267318D01*
X36174872Y-65270623D01*
X36131019Y-65316616D01*
X36131012Y-65316625D01*
X36111644Y-65346760D01*
X36107294Y-65352716D01*
X36084478Y-65380352D01*
X36084475Y-65380355D01*
X36054006Y-65436153D01*
X36051749Y-65439959D01*
X36017388Y-65493425D01*
X36004072Y-65526686D01*
X36000928Y-65533360D01*
X35983754Y-65564813D01*
X35983749Y-65564823D01*
X35964391Y-65625378D01*
X35962895Y-65629541D01*
X35939275Y-65688541D01*
X35939274Y-65688542D01*
X35932491Y-65723730D01*
X35930667Y-65730875D01*
X35919758Y-65765007D01*
X35919757Y-65765010D01*
X35912209Y-65828131D01*
X35911527Y-65832503D01*
X35899500Y-65894916D01*
X35899500Y-65930751D01*
X35899061Y-65938117D01*
X35894808Y-65973686D01*
X35894808Y-65973693D01*
X35899341Y-66037087D01*
X35899499Y-66041510D01*
X35899499Y-67937348D01*
X35879814Y-68004387D01*
X35827010Y-68050142D01*
X35757852Y-68060086D01*
X35694296Y-68031061D01*
X35687818Y-68025029D01*
X35377818Y-67715029D01*
X35344333Y-67653706D01*
X35341499Y-67627348D01*
X35341499Y-66014129D01*
X35341498Y-66014123D01*
X35341497Y-66014116D01*
X35335091Y-65954517D01*
X35333419Y-65950035D01*
X35284797Y-65819671D01*
X35284793Y-65819664D01*
X35198547Y-65704455D01*
X35198544Y-65704452D01*
X35083335Y-65618206D01*
X35083328Y-65618202D01*
X34948482Y-65567908D01*
X34948483Y-65567908D01*
X34888883Y-65561501D01*
X34888881Y-65561500D01*
X34888873Y-65561500D01*
X34888864Y-65561500D01*
X34031129Y-65561500D01*
X34031123Y-65561501D01*
X33971516Y-65567908D01*
X33836671Y-65618202D01*
X33836664Y-65618206D01*
X33721455Y-65704452D01*
X33721452Y-65704455D01*
X33635206Y-65819664D01*
X33635202Y-65819671D01*
X33584908Y-65954517D01*
X33578501Y-66014116D01*
X33578501Y-66014123D01*
X33578500Y-66014135D01*
X33578500Y-68141870D01*
X33578501Y-68141876D01*
X33584908Y-68201483D01*
X33635202Y-68336328D01*
X33635203Y-68336329D01*
X33635204Y-68336331D01*
X33721454Y-68451546D01*
X33737494Y-68463553D01*
X33767661Y-68496034D01*
X33793200Y-68535989D01*
X33793204Y-68535993D01*
X33793205Y-68535994D01*
X35901282Y-70644070D01*
X35920988Y-70669751D01*
X35997465Y-70802214D01*
X36124129Y-70942888D01*
X36277268Y-71054150D01*
X36277269Y-71054151D01*
X36317728Y-71072164D01*
X36354974Y-71097763D01*
X36605349Y-71348138D01*
X36638834Y-71409461D01*
X36633850Y-71479153D01*
X36591978Y-71535086D01*
X36530270Y-71559176D01*
X36527542Y-71559455D01*
X36522202Y-71560001D01*
X36522200Y-71560001D01*
X36355668Y-71615185D01*
X36355663Y-71615187D01*
X36206342Y-71707289D01*
X36082287Y-71831344D01*
X36076580Y-71840598D01*
X36024632Y-71887322D01*
X35971042Y-71899500D01*
X30349587Y-71899500D01*
X30344552Y-71899295D01*
X30289335Y-71894798D01*
X30289328Y-71894799D01*
X30209107Y-71905729D01*
X30128592Y-71914485D01*
X30127631Y-71914697D01*
X30106971Y-71919538D01*
X30106041Y-71919770D01*
X30106033Y-71919772D01*
X30106032Y-71919773D01*
X30029999Y-71947705D01*
X29953275Y-71973557D01*
X29952296Y-71974010D01*
X29933197Y-71983162D01*
X29932384Y-71983565D01*
X29864132Y-72027192D01*
X29845061Y-72038667D01*
X29796809Y-72067700D01*
X29794756Y-72068935D01*
X29794020Y-72069494D01*
X29777328Y-72082542D01*
X29776514Y-72083197D01*
X29719250Y-72140459D01*
X29660456Y-72196153D01*
X29659822Y-72196899D01*
X29645593Y-72214116D01*
X24821530Y-77038181D01*
X24760207Y-77071666D01*
X24733849Y-77074500D01*
X24494144Y-77074500D01*
X24392223Y-77084913D01*
X24227077Y-77139637D01*
X24227066Y-77139642D01*
X24079000Y-77230971D01*
X24078996Y-77230974D01*
X23955974Y-77353996D01*
X23955971Y-77354000D01*
X23864642Y-77502066D01*
X23864637Y-77502077D01*
X23809913Y-77667223D01*
X23799500Y-77769144D01*
X23799500Y-78355855D01*
X23809913Y-78457776D01*
X23864637Y-78622922D01*
X23864642Y-78622933D01*
X23955971Y-78770999D01*
X23955974Y-78771003D01*
X24078999Y-78894028D01*
X24080183Y-78894758D01*
X24080823Y-78895470D01*
X24084664Y-78898507D01*
X24084145Y-78899163D01*
X24126906Y-78946708D01*
X24138125Y-79015671D01*
X24110279Y-79079752D01*
X24084877Y-79101762D01*
X24084977Y-79101888D01*
X24082177Y-79104101D01*
X24080184Y-79105829D01*
X24079315Y-79106364D01*
X24079309Y-79106369D01*
X23956370Y-79229308D01*
X23865096Y-79377285D01*
X23865094Y-79377290D01*
X23810407Y-79542326D01*
X23800000Y-79644184D01*
X23800000Y-79687500D01*
X26200000Y-79687500D01*
X26200000Y-79644197D01*
X26199999Y-79644184D01*
X26189592Y-79542326D01*
X26134905Y-79377290D01*
X26134903Y-79377285D01*
X26043629Y-79229308D01*
X25920690Y-79106369D01*
X25920685Y-79106365D01*
X25919822Y-79105833D01*
X25919353Y-79105312D01*
X25915023Y-79101888D01*
X25915608Y-79101148D01*
X25873096Y-79053886D01*
X25861873Y-78984924D01*
X25889716Y-78920841D01*
X25915398Y-78898586D01*
X25915336Y-78898507D01*
X25917106Y-78897107D01*
X25919820Y-78894755D01*
X25921003Y-78894026D01*
X26044026Y-78771003D01*
X26135362Y-78622925D01*
X26190087Y-78457775D01*
X26200500Y-78355848D01*
X26200499Y-78116149D01*
X26220185Y-78049110D01*
X26236814Y-78028473D01*
X28655287Y-75610000D01*
X47914785Y-75610000D01*
X47933602Y-75813082D01*
X47989417Y-76009247D01*
X47989422Y-76009260D01*
X48080327Y-76191821D01*
X48203237Y-76354581D01*
X48353958Y-76491980D01*
X48353960Y-76491982D01*
X48480148Y-76570113D01*
X48527363Y-76599348D01*
X48558863Y-76611551D01*
X48561927Y-76612844D01*
X48562002Y-76612870D01*
X48562004Y-76612871D01*
X48563021Y-76613223D01*
X48564499Y-76613735D01*
X48637113Y-76641865D01*
X48717544Y-76673024D01*
X48750395Y-76679165D01*
X48753608Y-76679854D01*
X48760070Y-76681422D01*
X48760075Y-76681424D01*
X48760079Y-76681424D01*
X48760081Y-76681425D01*
X48770493Y-76682922D01*
X48816035Y-76691435D01*
X48918024Y-76710500D01*
X48918026Y-76710500D01*
X48953437Y-76710500D01*
X48961643Y-76711086D01*
X48961649Y-76710972D01*
X48967537Y-76711252D01*
X48967541Y-76711253D01*
X48967544Y-76711252D01*
X48967548Y-76711253D01*
X48975954Y-76710853D01*
X48975964Y-76710855D01*
X48981938Y-76710570D01*
X48984891Y-76710500D01*
X49121975Y-76710500D01*
X49121976Y-76710500D01*
X49165198Y-76702420D01*
X49173646Y-76701435D01*
X49176902Y-76701280D01*
X49176904Y-76701279D01*
X49178781Y-76701190D01*
X49178827Y-76701185D01*
X49211914Y-76699608D01*
X49242294Y-76688008D01*
X49322456Y-76673024D01*
X49367381Y-76655619D01*
X49375145Y-76653186D01*
X49380593Y-76651865D01*
X49380596Y-76651863D01*
X49383340Y-76651198D01*
X49383370Y-76651190D01*
X49412586Y-76644101D01*
X49438999Y-76627875D01*
X49501313Y-76603735D01*
X49512635Y-76599349D01*
X49512640Y-76599346D01*
X49557244Y-76571728D01*
X49564092Y-76568064D01*
X49571251Y-76564795D01*
X49571254Y-76564792D01*
X49575575Y-76562820D01*
X49577528Y-76561928D01*
X49578782Y-76561747D01*
X49582029Y-76559872D01*
X49599245Y-76552010D01*
X49621028Y-76532234D01*
X49686041Y-76491981D01*
X49728053Y-76453681D01*
X49733809Y-76449036D01*
X49741985Y-76443215D01*
X49741989Y-76443210D01*
X49742077Y-76443148D01*
X49744906Y-76442168D01*
X49751622Y-76436350D01*
X49765296Y-76426612D01*
X49782053Y-76404453D01*
X49836764Y-76354579D01*
X49873691Y-76305678D01*
X49878278Y-76300278D01*
X49881207Y-76297203D01*
X49882284Y-76296074D01*
X49886302Y-76293752D01*
X49894799Y-76282949D01*
X49904839Y-76272419D01*
X49916455Y-76249050D01*
X49959673Y-76191821D01*
X49986822Y-76137297D01*
X49994339Y-76129189D01*
X49995541Y-76126187D01*
X50006342Y-76105235D01*
X50012993Y-76094884D01*
X50019607Y-76071455D01*
X50050582Y-76009250D01*
X50067598Y-75949443D01*
X50074343Y-75938750D01*
X50075596Y-75932253D01*
X50082240Y-75909626D01*
X50085947Y-75900365D01*
X50087948Y-75877921D01*
X50106397Y-75813083D01*
X50113368Y-75737845D01*
X50114217Y-75731880D01*
X50117510Y-75714799D01*
X50117510Y-75714794D01*
X50121179Y-75695758D01*
X50119173Y-75675195D01*
X50125215Y-75610000D01*
X50124288Y-75600000D01*
X53894785Y-75600000D01*
X53913602Y-75803082D01*
X53969417Y-75999247D01*
X53969422Y-75999260D01*
X54060327Y-76181821D01*
X54183237Y-76344581D01*
X54333958Y-76481980D01*
X54333960Y-76481982D01*
X54447060Y-76552010D01*
X54507363Y-76589348D01*
X54538863Y-76601551D01*
X54541927Y-76602844D01*
X54542002Y-76602870D01*
X54542004Y-76602871D01*
X54543021Y-76603223D01*
X54544499Y-76603735D01*
X54606808Y-76627873D01*
X54697544Y-76663024D01*
X54730395Y-76669165D01*
X54733608Y-76669854D01*
X54740070Y-76671422D01*
X54740075Y-76671424D01*
X54740079Y-76671424D01*
X54740081Y-76671425D01*
X54750493Y-76672922D01*
X54777696Y-76678007D01*
X54898024Y-76700500D01*
X54898026Y-76700500D01*
X54933437Y-76700500D01*
X54941643Y-76701086D01*
X54941649Y-76700972D01*
X54947537Y-76701252D01*
X54947541Y-76701253D01*
X54947544Y-76701252D01*
X54947548Y-76701253D01*
X54955954Y-76700853D01*
X54955964Y-76700855D01*
X54961938Y-76700570D01*
X54964891Y-76700500D01*
X55101975Y-76700500D01*
X55101976Y-76700500D01*
X55145198Y-76692420D01*
X55153646Y-76691435D01*
X55156902Y-76691280D01*
X55156904Y-76691279D01*
X55158781Y-76691190D01*
X55158827Y-76691185D01*
X55191914Y-76689608D01*
X55222294Y-76678008D01*
X55302456Y-76663024D01*
X55347381Y-76645619D01*
X55355145Y-76643186D01*
X55360593Y-76641865D01*
X55360596Y-76641863D01*
X55363340Y-76641198D01*
X55363370Y-76641190D01*
X55392586Y-76634101D01*
X55418999Y-76617875D01*
X55480030Y-76594232D01*
X55492635Y-76589349D01*
X55492640Y-76589346D01*
X55533893Y-76563802D01*
X55541801Y-76561552D01*
X55542965Y-76560880D01*
X55542408Y-76559988D01*
X55545827Y-76557852D01*
X55547829Y-76556774D01*
X55547672Y-76556430D01*
X55553786Y-76553638D01*
X55557528Y-76551928D01*
X55558782Y-76551747D01*
X55562029Y-76549872D01*
X55579245Y-76542010D01*
X55601028Y-76522234D01*
X55666041Y-76481981D01*
X55708053Y-76443681D01*
X55713809Y-76439036D01*
X55721985Y-76433215D01*
X55721989Y-76433210D01*
X55722077Y-76433148D01*
X55724906Y-76432168D01*
X55731622Y-76426350D01*
X55745296Y-76416612D01*
X55762053Y-76394453D01*
X55816764Y-76344579D01*
X55853691Y-76295678D01*
X55858278Y-76290278D01*
X55861207Y-76287203D01*
X55862284Y-76286074D01*
X55866302Y-76283752D01*
X55874799Y-76272949D01*
X55884839Y-76262419D01*
X55896455Y-76239050D01*
X55939673Y-76181821D01*
X55966822Y-76127297D01*
X55974339Y-76119189D01*
X55975541Y-76116187D01*
X55986342Y-76095235D01*
X55992993Y-76084884D01*
X55999607Y-76061455D01*
X56030582Y-75999250D01*
X56047598Y-75939443D01*
X56054343Y-75928750D01*
X56055596Y-75922253D01*
X56062240Y-75899626D01*
X56065947Y-75890365D01*
X56067948Y-75867921D01*
X56086397Y-75803083D01*
X56093368Y-75727845D01*
X56094217Y-75721880D01*
X56097510Y-75704799D01*
X56097510Y-75704794D01*
X56101179Y-75685758D01*
X56099173Y-75665195D01*
X56105215Y-75600000D01*
X56099173Y-75534804D01*
X56102180Y-75519433D01*
X56096147Y-75488132D01*
X56094219Y-75478127D01*
X56093368Y-75472148D01*
X56086397Y-75396917D01*
X56067948Y-75332076D01*
X56068091Y-75314986D01*
X56062239Y-75300369D01*
X56055597Y-75277746D01*
X56055152Y-75275440D01*
X56047599Y-75260558D01*
X56030582Y-75200750D01*
X56030581Y-75200747D01*
X56030580Y-75200744D01*
X55999608Y-75138546D01*
X55996365Y-75120359D01*
X55986342Y-75104762D01*
X55975891Y-75084490D01*
X55966824Y-75072705D01*
X55939673Y-75018179D01*
X55939670Y-75018175D01*
X55939669Y-75018173D01*
X55896456Y-74960949D01*
X55889456Y-74942420D01*
X55874797Y-74927047D01*
X55868144Y-74918588D01*
X55862316Y-74913957D01*
X55858299Y-74909744D01*
X55853692Y-74904322D01*
X55843043Y-74890220D01*
X55816766Y-74855422D01*
X55816764Y-74855420D01*
X55762055Y-74805547D01*
X55751101Y-74787519D01*
X55731623Y-74773649D01*
X55726369Y-74769096D01*
X55722065Y-74766842D01*
X55713832Y-74760978D01*
X55708024Y-74756291D01*
X55693766Y-74743293D01*
X55666041Y-74718019D01*
X55666034Y-74718015D01*
X55666032Y-74718013D01*
X55601029Y-74677765D01*
X55586113Y-74661124D01*
X55562029Y-74650126D01*
X55559533Y-74648685D01*
X55557586Y-74648097D01*
X55544104Y-74641940D01*
X55537214Y-74638253D01*
X55508789Y-74620653D01*
X55492637Y-74610652D01*
X55444805Y-74592122D01*
X55418993Y-74582122D01*
X55400320Y-74567772D01*
X55360264Y-74558055D01*
X55358216Y-74557558D01*
X55355155Y-74556815D01*
X55347370Y-74554375D01*
X55316645Y-74542473D01*
X55302456Y-74536976D01*
X55302447Y-74536974D01*
X55302446Y-74536974D01*
X55222284Y-74521988D01*
X55200247Y-74510783D01*
X55153641Y-74508563D01*
X55145191Y-74507577D01*
X55101980Y-74499500D01*
X55101976Y-74499500D01*
X54964834Y-74499500D01*
X54961884Y-74499430D01*
X54947540Y-74498746D01*
X54941649Y-74499028D01*
X54941643Y-74498913D01*
X54933437Y-74499500D01*
X54898024Y-74499500D01*
X54837999Y-74510720D01*
X54750491Y-74527078D01*
X54740072Y-74528576D01*
X54733593Y-74530148D01*
X54730373Y-74530839D01*
X54697548Y-74536975D01*
X54697538Y-74536977D01*
X54544496Y-74596266D01*
X54541915Y-74597159D01*
X54538811Y-74598468D01*
X54507363Y-74610651D01*
X54507361Y-74610652D01*
X54333957Y-74718020D01*
X54183237Y-74855418D01*
X54060327Y-75018178D01*
X53969422Y-75200739D01*
X53969417Y-75200752D01*
X53913602Y-75396917D01*
X53894785Y-75599999D01*
X53894785Y-75600000D01*
X50124288Y-75600000D01*
X50119173Y-75544804D01*
X50122180Y-75529433D01*
X50115722Y-75495927D01*
X50114219Y-75488127D01*
X50113368Y-75482148D01*
X50106397Y-75406917D01*
X50087948Y-75342076D01*
X50088091Y-75324986D01*
X50082239Y-75310369D01*
X50075597Y-75287746D01*
X50075152Y-75285440D01*
X50067599Y-75270558D01*
X50050582Y-75210750D01*
X50050581Y-75210747D01*
X50050580Y-75210744D01*
X50019608Y-75148546D01*
X50016365Y-75130359D01*
X50006342Y-75114762D01*
X49995891Y-75094490D01*
X49986824Y-75082705D01*
X49959673Y-75028179D01*
X49959670Y-75028175D01*
X49959669Y-75028173D01*
X49916456Y-74970949D01*
X49909456Y-74952420D01*
X49894797Y-74937047D01*
X49888144Y-74928588D01*
X49882316Y-74923957D01*
X49878299Y-74919744D01*
X49873692Y-74914322D01*
X49863043Y-74900220D01*
X49836766Y-74865422D01*
X49836764Y-74865420D01*
X49782055Y-74815547D01*
X49771101Y-74797519D01*
X49751623Y-74783649D01*
X49746369Y-74779096D01*
X49742065Y-74776842D01*
X49733832Y-74770978D01*
X49728024Y-74766291D01*
X49713766Y-74753293D01*
X49686041Y-74728019D01*
X49686034Y-74728015D01*
X49686032Y-74728013D01*
X49621029Y-74687765D01*
X49606113Y-74671124D01*
X49582029Y-74660126D01*
X49579533Y-74658685D01*
X49577586Y-74658097D01*
X49564104Y-74651940D01*
X49557214Y-74648253D01*
X49547018Y-74641940D01*
X49512637Y-74620652D01*
X49455373Y-74598468D01*
X49438993Y-74592122D01*
X49420320Y-74577772D01*
X49380264Y-74568055D01*
X49378216Y-74567558D01*
X49375155Y-74566815D01*
X49367370Y-74564375D01*
X49336645Y-74552473D01*
X49322456Y-74546976D01*
X49322447Y-74546974D01*
X49322446Y-74546974D01*
X49242284Y-74531988D01*
X49220247Y-74520783D01*
X49173641Y-74518563D01*
X49165191Y-74517577D01*
X49121980Y-74509500D01*
X49121976Y-74509500D01*
X48984834Y-74509500D01*
X48981884Y-74509430D01*
X48967540Y-74508746D01*
X48961649Y-74509028D01*
X48961643Y-74508913D01*
X48953437Y-74509500D01*
X48918024Y-74509500D01*
X48874816Y-74517577D01*
X48770491Y-74537078D01*
X48760072Y-74538576D01*
X48753593Y-74540148D01*
X48750373Y-74540839D01*
X48717548Y-74546975D01*
X48717538Y-74546977D01*
X48564496Y-74606266D01*
X48561915Y-74607159D01*
X48558811Y-74608468D01*
X48527363Y-74620651D01*
X48527361Y-74620652D01*
X48353957Y-74728020D01*
X48203237Y-74865418D01*
X48080327Y-75028178D01*
X47989422Y-75210739D01*
X47989417Y-75210752D01*
X47933602Y-75406917D01*
X47914785Y-75609999D01*
X47914785Y-75610000D01*
X28655287Y-75610000D01*
X30628469Y-73636818D01*
X30689792Y-73603334D01*
X30716150Y-73600500D01*
X35971042Y-73600500D01*
X36038081Y-73620185D01*
X36076580Y-73659402D01*
X36082288Y-73668656D01*
X36206344Y-73792712D01*
X36355666Y-73884814D01*
X36522203Y-73939999D01*
X36624991Y-73950500D01*
X37250008Y-73950499D01*
X37250016Y-73950498D01*
X37250019Y-73950498D01*
X37342175Y-73941084D01*
X37352797Y-73939999D01*
X37519334Y-73884814D01*
X37668656Y-73792712D01*
X37762319Y-73699049D01*
X37823642Y-73665564D01*
X37893334Y-73670548D01*
X37937680Y-73699048D01*
X38031344Y-73792712D01*
X38180666Y-73884814D01*
X38347203Y-73939999D01*
X38449991Y-73950500D01*
X39075008Y-73950499D01*
X39075016Y-73950498D01*
X39075019Y-73950498D01*
X39167175Y-73941084D01*
X39177797Y-73939999D01*
X39344334Y-73884814D01*
X39493656Y-73792712D01*
X39617712Y-73668656D01*
X39709814Y-73519334D01*
X39764999Y-73352797D01*
X39765067Y-73352123D01*
X39765227Y-73351731D01*
X39766416Y-73346180D01*
X39767406Y-73346391D01*
X39791462Y-73287431D01*
X39800736Y-73277050D01*
X42425185Y-70652601D01*
X42428852Y-70649221D01*
X42471100Y-70613337D01*
X42520098Y-70548880D01*
X42570842Y-70485754D01*
X42570842Y-70485752D01*
X42570844Y-70485751D01*
X42571424Y-70484843D01*
X42582449Y-70467069D01*
X42583051Y-70466069D01*
X42583052Y-70466066D01*
X42583054Y-70466064D01*
X42617060Y-70392560D01*
X42653036Y-70320021D01*
X42653037Y-70320014D01*
X42653434Y-70318935D01*
X42660389Y-70299183D01*
X42660727Y-70298177D01*
X42660732Y-70298167D01*
X42678141Y-70219073D01*
X42697684Y-70140495D01*
X42697683Y-70140495D01*
X42697685Y-70140491D01*
X42697830Y-70139426D01*
X42700371Y-70118677D01*
X42700500Y-70117497D01*
X42700500Y-70036531D01*
X42702693Y-69955564D01*
X42702608Y-69954520D01*
X42700500Y-69932352D01*
X42700500Y-68103649D01*
X42720185Y-68036610D01*
X42736814Y-68015973D01*
X43096574Y-67656213D01*
X43157893Y-67622731D01*
X43227584Y-67627715D01*
X43283518Y-67669586D01*
X43307935Y-67735051D01*
X43306055Y-67767132D01*
X43256855Y-68025046D01*
X43256854Y-68025053D01*
X43237041Y-68339994D01*
X43237041Y-68340005D01*
X43256854Y-68654946D01*
X43256855Y-68654950D01*
X43315992Y-68964952D01*
X43413509Y-69265079D01*
X43547880Y-69550632D01*
X43716969Y-69817075D01*
X43808603Y-69927841D01*
X44427100Y-69309344D01*
X44488423Y-69275859D01*
X44558114Y-69280843D01*
X44612633Y-69320861D01*
X44642632Y-69359404D01*
X44777441Y-69483505D01*
X44813430Y-69543390D01*
X44811330Y-69613228D01*
X44781138Y-69662414D01*
X44159245Y-70284306D01*
X44403490Y-70461761D01*
X44403501Y-70461768D01*
X44680034Y-70613793D01*
X44680042Y-70613797D01*
X44973449Y-70729964D01*
X45279118Y-70808447D01*
X45279127Y-70808449D01*
X45592198Y-70847999D01*
X45592212Y-70848000D01*
X45907788Y-70848000D01*
X45907801Y-70847999D01*
X46220872Y-70808449D01*
X46220881Y-70808447D01*
X46526550Y-70729964D01*
X46819957Y-70613797D01*
X46819965Y-70613793D01*
X47096498Y-70461768D01*
X47096509Y-70461761D01*
X47340752Y-70284306D01*
X47340753Y-70284306D01*
X46718861Y-69662415D01*
X46685376Y-69601092D01*
X46690360Y-69531401D01*
X46722556Y-69483507D01*
X46857368Y-69359404D01*
X46887367Y-69320861D01*
X46944071Y-69280051D01*
X47013844Y-69276375D01*
X47072898Y-69309344D01*
X47691395Y-69927842D01*
X47783033Y-69817070D01*
X47952119Y-69550632D01*
X48086490Y-69265079D01*
X48184007Y-68964952D01*
X48243144Y-68654950D01*
X48243145Y-68654946D01*
X48262959Y-68340005D01*
X48262959Y-68339994D01*
X48243145Y-68025053D01*
X48243144Y-68025049D01*
X48184007Y-67715047D01*
X48086490Y-67414920D01*
X47952119Y-67129367D01*
X47783030Y-66862924D01*
X47691394Y-66752156D01*
X47072898Y-67370653D01*
X47011575Y-67404138D01*
X46941883Y-67399154D01*
X46887364Y-67359134D01*
X46857373Y-67320602D01*
X46857370Y-67320599D01*
X46857368Y-67320596D01*
X46722556Y-67196492D01*
X46686567Y-67136608D01*
X46688668Y-67066770D01*
X46718860Y-67017584D01*
X47340753Y-66395692D01*
X47096514Y-66218241D01*
X47096504Y-66218234D01*
X46819965Y-66066206D01*
X46819957Y-66066202D01*
X46526550Y-65950035D01*
X46220881Y-65871552D01*
X46220872Y-65871550D01*
X45907801Y-65832000D01*
X45592198Y-65832000D01*
X45279128Y-65871550D01*
X45182810Y-65896280D01*
X45112981Y-65893885D01*
X45055532Y-65854118D01*
X45028702Y-65789605D01*
X45041010Y-65720828D01*
X45064286Y-65688501D01*
X47863321Y-62889466D01*
X47924642Y-62855983D01*
X47994334Y-62860967D01*
X48050267Y-62902839D01*
X48074684Y-62968303D01*
X48075000Y-62977149D01*
X48075000Y-63615644D01*
X48077899Y-63652489D01*
X48077900Y-63652495D01*
X48123716Y-63810193D01*
X48123717Y-63810196D01*
X48207314Y-63951552D01*
X48207321Y-63951561D01*
X48323438Y-64067678D01*
X48323447Y-64067685D01*
X48464801Y-64151281D01*
X48622514Y-64197100D01*
X48622511Y-64197100D01*
X48624998Y-64197295D01*
X48625000Y-64197295D01*
X48625000Y-62724000D01*
X48644685Y-62656961D01*
X48697489Y-62611206D01*
X48749000Y-62600000D01*
X49001000Y-62600000D01*
X49068039Y-62619685D01*
X49113794Y-62672489D01*
X49125000Y-62724000D01*
X49125000Y-64197295D01*
X49125001Y-64197295D01*
X49127486Y-64197100D01*
X49285198Y-64151281D01*
X49433271Y-64063712D01*
X49434459Y-64065721D01*
X49488602Y-64044452D01*
X49557121Y-64058119D01*
X49566743Y-64064301D01*
X49574829Y-64069083D01*
X49714602Y-64151744D01*
X49738648Y-64158730D01*
X49872426Y-64197597D01*
X49872429Y-64197597D01*
X49872431Y-64197598D01*
X49884722Y-64198565D01*
X49909304Y-64200500D01*
X49909306Y-64200500D01*
X50340696Y-64200500D01*
X50359131Y-64199049D01*
X50377569Y-64197598D01*
X50377572Y-64197597D01*
X50378215Y-64197480D01*
X50378580Y-64197518D01*
X50383886Y-64197101D01*
X50383963Y-64198085D01*
X50447701Y-64204796D01*
X50502201Y-64248517D01*
X50524411Y-64314763D01*
X50524500Y-64319461D01*
X50524500Y-64337911D01*
X50524295Y-64342945D01*
X50519798Y-64398163D01*
X50530729Y-64478392D01*
X50539486Y-64558913D01*
X50539710Y-64559930D01*
X50544525Y-64580473D01*
X50544773Y-64581470D01*
X50572700Y-64657486D01*
X50598557Y-64734223D01*
X50599001Y-64735185D01*
X50608146Y-64754266D01*
X50608564Y-64755109D01*
X50608567Y-64755114D01*
X50608568Y-64755116D01*
X50612741Y-64761644D01*
X50652184Y-64823353D01*
X50693930Y-64892736D01*
X50694538Y-64893536D01*
X50707578Y-64910216D01*
X50708201Y-64910991D01*
X50765459Y-64968249D01*
X50821152Y-65027042D01*
X50821983Y-65027747D01*
X50839118Y-65041907D01*
X52068391Y-66271180D01*
X52071784Y-66274860D01*
X52078803Y-66283123D01*
X52107662Y-66317100D01*
X52158443Y-66355702D01*
X52199901Y-66411943D01*
X52204370Y-66481670D01*
X52195785Y-66506820D01*
X52166654Y-66569293D01*
X52166652Y-66569297D01*
X52166653Y-66569297D01*
X52125211Y-66723961D01*
X52119516Y-66745213D01*
X52083150Y-66804874D01*
X52020303Y-66835402D01*
X51950928Y-66827107D01*
X51897050Y-66782621D01*
X51879966Y-66745212D01*
X51832878Y-66569475D01*
X51832875Y-66569466D01*
X51740144Y-66370606D01*
X51740143Y-66370604D01*
X51695996Y-66307556D01*
X51695996Y-66307555D01*
X51258949Y-66744603D01*
X51197626Y-66778088D01*
X51127934Y-66773104D01*
X51072001Y-66731232D01*
X51066952Y-66723961D01*
X51052223Y-66701042D01*
X51031761Y-66669202D01*
X50923100Y-66575048D01*
X50923099Y-66575047D01*
X50916398Y-66569241D01*
X50918698Y-66566585D01*
X50883960Y-66526428D01*
X50874074Y-66457261D01*
X50903152Y-66393729D01*
X50909116Y-66387329D01*
X51342443Y-65954002D01*
X51279395Y-65909856D01*
X51279393Y-65909855D01*
X51080533Y-65817124D01*
X51080524Y-65817121D01*
X50868592Y-65760335D01*
X50868582Y-65760333D01*
X50650001Y-65741210D01*
X50649999Y-65741210D01*
X50431417Y-65760333D01*
X50431407Y-65760335D01*
X50219475Y-65817121D01*
X50219466Y-65817124D01*
X50020602Y-65909857D01*
X49957555Y-65954001D01*
X49957555Y-65954002D01*
X50390883Y-66387330D01*
X50424368Y-66448653D01*
X50419384Y-66518345D01*
X50382357Y-66567805D01*
X50383602Y-66569241D01*
X50376900Y-66575047D01*
X50376900Y-66575048D01*
X50355473Y-66593613D01*
X50268237Y-66669203D01*
X50233046Y-66723962D01*
X50180242Y-66769717D01*
X50111084Y-66779661D01*
X50047528Y-66750636D01*
X50041050Y-66744604D01*
X49604001Y-66307555D01*
X49559857Y-66370602D01*
X49467124Y-66569466D01*
X49467121Y-66569475D01*
X49410335Y-66781407D01*
X49410333Y-66781417D01*
X49391210Y-66999999D01*
X49391210Y-67000000D01*
X49410333Y-67218582D01*
X49410335Y-67218592D01*
X49467121Y-67430524D01*
X49467125Y-67430533D01*
X49559855Y-67629394D01*
X49559856Y-67629396D01*
X49685305Y-67808557D01*
X49707632Y-67874763D01*
X49690622Y-67942530D01*
X49639673Y-67990343D01*
X49636137Y-67992061D01*
X49620355Y-67999420D01*
X49620349Y-67999423D01*
X49440547Y-68125322D01*
X49440541Y-68125327D01*
X49285327Y-68280541D01*
X49285322Y-68280547D01*
X49159423Y-68460349D01*
X49159419Y-68460357D01*
X49066655Y-68659291D01*
X49066653Y-68659295D01*
X49066653Y-68659297D01*
X49060200Y-68683379D01*
X49009839Y-68871324D01*
X49009838Y-68871331D01*
X48990708Y-69089997D01*
X48990708Y-69090002D01*
X49009838Y-69308668D01*
X49009839Y-69308675D01*
X49066654Y-69520706D01*
X49077232Y-69543390D01*
X49137535Y-69672711D01*
X49137882Y-69673454D01*
X49149500Y-69725859D01*
X49149500Y-70585451D01*
X49147783Y-70606016D01*
X49147311Y-70608818D01*
X49147311Y-70608821D01*
X49147311Y-70608822D01*
X49147419Y-70613339D01*
X49149500Y-70700771D01*
X49149500Y-70740108D01*
X49150536Y-70750975D01*
X49150799Y-70755388D01*
X49151915Y-70802214D01*
X49152313Y-70818933D01*
X49159931Y-70853955D01*
X49161064Y-70861223D01*
X49162164Y-70872733D01*
X49164472Y-70896905D01*
X49164473Y-70896913D01*
X49182380Y-70957897D01*
X49183475Y-70962186D01*
X49196985Y-71024296D01*
X49196988Y-71024303D01*
X49211093Y-71057244D01*
X49213589Y-71064186D01*
X49223681Y-71098557D01*
X49223683Y-71098562D01*
X49252814Y-71155069D01*
X49254696Y-71159063D01*
X49262697Y-71177747D01*
X49279718Y-71217495D01*
X49279721Y-71217500D01*
X49299807Y-71247177D01*
X49303568Y-71253517D01*
X49319988Y-71285369D01*
X49359289Y-71335344D01*
X49361896Y-71338913D01*
X49381370Y-71367687D01*
X49397520Y-71391549D01*
X49397526Y-71391556D01*
X49422859Y-71416889D01*
X49427758Y-71422409D01*
X49449905Y-71450571D01*
X49449909Y-71450575D01*
X49497951Y-71492204D01*
X49501191Y-71495221D01*
X50711845Y-72705875D01*
X50725170Y-72721627D01*
X50726826Y-72723952D01*
X50760111Y-72755689D01*
X50793396Y-72787427D01*
X50821216Y-72815246D01*
X50821218Y-72815247D01*
X50829633Y-72822196D01*
X50832939Y-72825130D01*
X50878934Y-72868986D01*
X50909078Y-72888358D01*
X50915038Y-72892711D01*
X50942664Y-72915521D01*
X50942665Y-72915521D01*
X50942667Y-72915523D01*
X50991497Y-72942186D01*
X50998452Y-72945984D01*
X51002259Y-72948243D01*
X51013234Y-72955296D01*
X51055740Y-72982613D01*
X51089003Y-72995929D01*
X51095681Y-72999075D01*
X51127129Y-73016247D01*
X51187702Y-73035609D01*
X51191818Y-73037089D01*
X51250855Y-73060725D01*
X51286041Y-73067506D01*
X51293186Y-73069330D01*
X51327320Y-73080242D01*
X51372224Y-73085610D01*
X51390435Y-73087788D01*
X51394809Y-73088469D01*
X51457227Y-73100500D01*
X51493064Y-73100500D01*
X51500430Y-73100939D01*
X51504430Y-73101417D01*
X51536003Y-73105192D01*
X51599398Y-73100657D01*
X51603821Y-73100500D01*
X55012897Y-73100500D01*
X55079936Y-73120185D01*
X55100578Y-73136819D01*
X57169634Y-75205875D01*
X57182959Y-75221627D01*
X57184615Y-75223952D01*
X57212833Y-75250858D01*
X57251185Y-75287427D01*
X57264128Y-75300369D01*
X57279000Y-75315241D01*
X57279005Y-75315245D01*
X57287423Y-75322196D01*
X57290730Y-75325132D01*
X57336723Y-75368986D01*
X57366871Y-75388361D01*
X57372813Y-75392701D01*
X57400456Y-75415524D01*
X57456257Y-75445993D01*
X57460051Y-75448245D01*
X57513527Y-75482612D01*
X57513526Y-75482612D01*
X57517650Y-75484263D01*
X57546809Y-75495936D01*
X57553463Y-75499072D01*
X57584919Y-75516248D01*
X57645492Y-75535611D01*
X57649626Y-75537098D01*
X57708644Y-75560725D01*
X57743837Y-75567508D01*
X57750966Y-75569327D01*
X57785109Y-75580242D01*
X57830013Y-75585610D01*
X57848224Y-75587788D01*
X57852598Y-75588469D01*
X57915016Y-75600500D01*
X57950853Y-75600500D01*
X57958219Y-75600939D01*
X57962219Y-75601417D01*
X57993792Y-75605192D01*
X58057193Y-75600657D01*
X58061614Y-75600500D01*
X61492796Y-75600500D01*
X61559835Y-75620185D01*
X61580477Y-75636819D01*
X64149533Y-78205875D01*
X64162858Y-78221627D01*
X64164514Y-78223952D01*
X64197799Y-78255689D01*
X64231084Y-78287427D01*
X64243750Y-78300092D01*
X64258899Y-78315241D01*
X64258904Y-78315245D01*
X64267322Y-78322196D01*
X64270629Y-78325132D01*
X64316622Y-78368986D01*
X64346770Y-78388361D01*
X64352712Y-78392701D01*
X64380355Y-78415524D01*
X64436156Y-78445993D01*
X64439950Y-78448245D01*
X64493426Y-78482612D01*
X64493425Y-78482612D01*
X64497549Y-78484263D01*
X64526708Y-78495936D01*
X64533362Y-78499072D01*
X64564818Y-78516248D01*
X64625391Y-78535611D01*
X64629525Y-78537098D01*
X64688543Y-78560725D01*
X64723736Y-78567508D01*
X64730865Y-78569327D01*
X64765008Y-78580242D01*
X64809215Y-78585527D01*
X64828120Y-78587787D01*
X64832496Y-78588469D01*
X64854287Y-78592669D01*
X64894915Y-78600500D01*
X64930745Y-78600500D01*
X64938112Y-78600939D01*
X64941541Y-78601348D01*
X64973692Y-78605193D01*
X65037101Y-78600657D01*
X65041524Y-78600500D01*
X68552419Y-78600500D01*
X68552425Y-78600500D01*
X68709218Y-78585528D01*
X68910875Y-78526316D01*
X69097682Y-78430011D01*
X69198850Y-78350450D01*
X69263712Y-78324484D01*
X69332319Y-78337706D01*
X69382886Y-78385921D01*
X69399500Y-78447922D01*
X69399500Y-126492795D01*
X69379815Y-126559834D01*
X69363181Y-126580476D01*
X65855475Y-130088181D01*
X65794152Y-130121666D01*
X65767794Y-130124500D01*
X64324998Y-130124500D01*
X64324981Y-130124501D01*
X64222203Y-130135000D01*
X64222200Y-130135001D01*
X64055668Y-130190185D01*
X64055663Y-130190187D01*
X63906342Y-130282289D01*
X63782289Y-130406342D01*
X63690187Y-130555663D01*
X63690185Y-130555666D01*
X63690186Y-130555666D01*
X63635001Y-130722203D01*
X63635001Y-130722204D01*
X63635000Y-130722204D01*
X63624500Y-130824983D01*
X63624500Y-133175001D01*
X63624501Y-133175018D01*
X63635000Y-133277796D01*
X63635001Y-133277799D01*
X63690185Y-133444331D01*
X63690187Y-133444336D01*
X63718857Y-133490817D01*
X63782288Y-133593656D01*
X63906344Y-133717712D01*
X64055666Y-133809814D01*
X64222203Y-133864999D01*
X64324991Y-133875500D01*
X66675008Y-133875499D01*
X66777797Y-133864999D01*
X66944334Y-133809814D01*
X67093656Y-133717712D01*
X67217712Y-133593656D01*
X67309814Y-133444334D01*
X67364999Y-133277797D01*
X67375500Y-133175009D01*
X67375499Y-132000002D01*
X73745227Y-132000002D01*
X73764306Y-132351900D01*
X73764308Y-132351917D01*
X73821319Y-132699667D01*
X73821325Y-132699693D01*
X73915600Y-133039243D01*
X73915602Y-133039250D01*
X74046043Y-133366634D01*
X74046052Y-133366652D01*
X74211124Y-133678011D01*
X74408896Y-133969702D01*
X74531914Y-134114532D01*
X75607413Y-133039032D01*
X75668736Y-133005547D01*
X75738427Y-133010531D01*
X75789381Y-133046179D01*
X75865130Y-133134870D01*
X75928855Y-133189296D01*
X75953816Y-133210615D01*
X75992009Y-133269122D01*
X75992507Y-133338990D01*
X75960965Y-133392586D01*
X74882625Y-134470926D01*
X74882625Y-134470928D01*
X74892900Y-134480660D01*
X75173460Y-134693938D01*
X75173464Y-134693941D01*
X75475445Y-134875635D01*
X75795273Y-135023603D01*
X76129256Y-135136136D01*
X76473437Y-135211896D01*
X76823788Y-135249999D01*
X76823795Y-135250000D01*
X77176205Y-135250000D01*
X77176211Y-135249999D01*
X77526562Y-135211896D01*
X77870743Y-135136136D01*
X78204726Y-135023603D01*
X78524554Y-134875635D01*
X78826535Y-134693941D01*
X78826539Y-134693938D01*
X79107093Y-134480665D01*
X79107105Y-134480654D01*
X79117373Y-134470927D01*
X79117373Y-134470926D01*
X78039033Y-133392586D01*
X78005548Y-133331263D01*
X78010532Y-133261571D01*
X78046180Y-133210617D01*
X78134870Y-133134870D01*
X78210617Y-133046180D01*
X78269121Y-133007990D01*
X78338989Y-133007490D01*
X78392586Y-133039033D01*
X79468084Y-134114532D01*
X79468085Y-134114531D01*
X79591102Y-133969704D01*
X79788875Y-133678011D01*
X79953947Y-133366652D01*
X79953956Y-133366634D01*
X80084397Y-133039250D01*
X80084399Y-133039243D01*
X80178674Y-132699693D01*
X80178680Y-132699667D01*
X80235691Y-132351917D01*
X80235693Y-132351900D01*
X80254773Y-132000002D01*
X80254773Y-131999997D01*
X80235693Y-131648099D01*
X80235691Y-131648082D01*
X80178680Y-131300332D01*
X80178674Y-131300306D01*
X80084399Y-130960756D01*
X80084397Y-130960749D01*
X79953956Y-130633365D01*
X79953947Y-130633347D01*
X79788875Y-130321988D01*
X79591099Y-130030291D01*
X79468085Y-129885467D01*
X79468084Y-129885466D01*
X78392586Y-130960965D01*
X78331263Y-130994450D01*
X78261571Y-130989466D01*
X78210615Y-130953816D01*
X78189296Y-130928855D01*
X78134870Y-130865130D01*
X78046179Y-130789381D01*
X78007989Y-130730878D01*
X78007489Y-130661010D01*
X78039032Y-130607413D01*
X79117374Y-129529072D01*
X79107099Y-129519340D01*
X79107087Y-129519330D01*
X78826539Y-129306061D01*
X78826535Y-129306058D01*
X78524554Y-129124364D01*
X78204726Y-128976396D01*
X77870743Y-128863863D01*
X77526562Y-128788103D01*
X77176211Y-128750000D01*
X76823788Y-128750000D01*
X76473437Y-128788103D01*
X76129256Y-128863863D01*
X75795273Y-128976396D01*
X75475445Y-129124364D01*
X75173464Y-129306058D01*
X75173460Y-129306061D01*
X74892906Y-129519334D01*
X74882625Y-129529071D01*
X74882625Y-129529073D01*
X75960966Y-130607413D01*
X75994451Y-130668736D01*
X75989467Y-130738428D01*
X75953817Y-130789384D01*
X75865130Y-130865130D01*
X75789384Y-130953817D01*
X75730877Y-130992010D01*
X75661009Y-130992508D01*
X75607413Y-130960966D01*
X74531914Y-129885466D01*
X74531913Y-129885466D01*
X74408896Y-130030296D01*
X74211124Y-130321988D01*
X74046052Y-130633347D01*
X74046043Y-130633365D01*
X73915602Y-130960749D01*
X73915600Y-130960756D01*
X73821325Y-131300306D01*
X73821319Y-131300332D01*
X73764308Y-131648082D01*
X73764306Y-131648099D01*
X73745227Y-131999997D01*
X73745227Y-132000002D01*
X67375499Y-132000002D01*
X67375499Y-131732202D01*
X67395184Y-131665164D01*
X67411813Y-131644527D01*
X71205879Y-127850461D01*
X71221631Y-127837138D01*
X71223952Y-127835486D01*
X71287427Y-127768914D01*
X71315241Y-127741101D01*
X71322203Y-127732667D01*
X71325107Y-127729395D01*
X71368986Y-127683378D01*
X71388356Y-127653236D01*
X71392710Y-127647275D01*
X71415522Y-127619647D01*
X71415524Y-127619645D01*
X71445988Y-127563853D01*
X71448248Y-127560044D01*
X71459946Y-127541840D01*
X71482613Y-127506572D01*
X71495930Y-127473306D01*
X71499069Y-127466641D01*
X71516248Y-127435182D01*
X71535615Y-127374594D01*
X71537089Y-127370495D01*
X71560725Y-127311457D01*
X71567507Y-127276265D01*
X71569330Y-127269126D01*
X71580241Y-127234994D01*
X71580242Y-127234992D01*
X71587792Y-127171833D01*
X71588464Y-127167528D01*
X71600500Y-127105085D01*
X71600500Y-127069246D01*
X71600939Y-127061881D01*
X71601602Y-127056333D01*
X71605192Y-127026308D01*
X71600657Y-126962907D01*
X71600500Y-126958485D01*
X71600500Y-80125000D01*
X77800000Y-80125000D01*
X77800000Y-80168315D01*
X77810407Y-80270173D01*
X77865094Y-80435209D01*
X77865096Y-80435214D01*
X77956370Y-80583191D01*
X78079308Y-80706129D01*
X78227285Y-80797403D01*
X78227290Y-80797405D01*
X78392326Y-80852092D01*
X78494184Y-80862499D01*
X78494197Y-80862500D01*
X78750000Y-80862500D01*
X78750000Y-80125000D01*
X79250000Y-80125000D01*
X79250000Y-80862500D01*
X79505803Y-80862500D01*
X79505815Y-80862499D01*
X79607673Y-80852092D01*
X79772709Y-80797405D01*
X79772714Y-80797403D01*
X79920691Y-80706129D01*
X80043629Y-80583191D01*
X80134903Y-80435214D01*
X80134905Y-80435209D01*
X80189592Y-80270173D01*
X80199999Y-80168315D01*
X80200000Y-80168302D01*
X80200000Y-80125000D01*
X79250000Y-80125000D01*
X78750000Y-80125000D01*
X77800000Y-80125000D01*
X71600500Y-80125000D01*
X71600500Y-78293355D01*
X77799500Y-78293355D01*
X77809913Y-78395276D01*
X77864637Y-78560422D01*
X77864642Y-78560433D01*
X77955971Y-78708499D01*
X77955974Y-78708503D01*
X78078999Y-78831528D01*
X78080183Y-78832258D01*
X78080823Y-78832970D01*
X78084664Y-78836007D01*
X78084145Y-78836663D01*
X78126906Y-78884208D01*
X78138125Y-78953171D01*
X78110279Y-79017252D01*
X78084877Y-79039262D01*
X78084977Y-79039388D01*
X78082177Y-79041601D01*
X78080184Y-79043329D01*
X78079315Y-79043864D01*
X78079309Y-79043869D01*
X77956370Y-79166808D01*
X77865096Y-79314785D01*
X77865094Y-79314790D01*
X77810407Y-79479826D01*
X77800000Y-79581684D01*
X77800000Y-79625000D01*
X80200000Y-79625000D01*
X80200000Y-79581697D01*
X80199999Y-79581684D01*
X80189592Y-79479826D01*
X80134905Y-79314790D01*
X80134903Y-79314785D01*
X80043629Y-79166808D01*
X79920690Y-79043869D01*
X79920685Y-79043865D01*
X79919822Y-79043333D01*
X79919353Y-79042812D01*
X79915023Y-79039388D01*
X79915608Y-79038648D01*
X79873096Y-78991386D01*
X79861873Y-78922424D01*
X79889716Y-78858341D01*
X79915398Y-78836086D01*
X79915336Y-78836007D01*
X79917106Y-78834607D01*
X79919820Y-78832255D01*
X79921003Y-78831526D01*
X80044026Y-78708503D01*
X80135362Y-78560425D01*
X80190087Y-78395275D01*
X80200500Y-78293348D01*
X80200500Y-77706652D01*
X80190087Y-77604725D01*
X80135362Y-77439575D01*
X80135358Y-77439568D01*
X80118961Y-77412984D01*
X80100500Y-77347888D01*
X80100500Y-73947580D01*
X80099880Y-73941084D01*
X80085528Y-73790782D01*
X80026316Y-73589125D01*
X79930011Y-73402318D01*
X79930009Y-73402316D01*
X79930008Y-73402313D01*
X79800094Y-73237116D01*
X79800090Y-73237112D01*
X79641253Y-73099478D01*
X79459249Y-72994398D01*
X79459245Y-72994396D01*
X79459244Y-72994396D01*
X79260633Y-72925656D01*
X79052602Y-72895746D01*
X79052598Y-72895746D01*
X78842672Y-72905745D01*
X78638421Y-72955296D01*
X78638417Y-72955298D01*
X78447256Y-73042598D01*
X78447251Y-73042601D01*
X78276046Y-73164515D01*
X78276040Y-73164520D01*
X78131014Y-73316620D01*
X78017388Y-73493425D01*
X77939274Y-73688544D01*
X77899500Y-73894914D01*
X77899500Y-77347888D01*
X77881039Y-77412984D01*
X77864641Y-77439568D01*
X77864637Y-77439577D01*
X77809913Y-77604723D01*
X77799500Y-77706644D01*
X77799500Y-78293355D01*
X71600500Y-78293355D01*
X71600500Y-77622339D01*
X71602218Y-77601772D01*
X71602687Y-77598978D01*
X71602689Y-77598968D01*
X71600500Y-77507018D01*
X71600500Y-77467676D01*
X71599462Y-77456809D01*
X71599199Y-77452399D01*
X71598894Y-77439575D01*
X71597687Y-77388857D01*
X71590069Y-77353843D01*
X71588934Y-77346564D01*
X71585528Y-77310883D01*
X71567617Y-77249885D01*
X71566525Y-77245606D01*
X71563341Y-77230971D01*
X71553013Y-77183489D01*
X71538901Y-77150535D01*
X71536411Y-77143608D01*
X71526316Y-77109226D01*
X71497183Y-77052717D01*
X71495303Y-77048726D01*
X71470279Y-76990289D01*
X71450190Y-76960607D01*
X71446438Y-76954284D01*
X71430011Y-76922419D01*
X71390706Y-76872440D01*
X71388099Y-76868868D01*
X71352480Y-76816240D01*
X71352478Y-76816237D01*
X71327130Y-76790889D01*
X71322245Y-76785384D01*
X71300092Y-76757215D01*
X71252048Y-76715584D01*
X71248808Y-76712567D01*
X69848422Y-75312181D01*
X69814937Y-75250858D01*
X69819921Y-75181166D01*
X69861793Y-75125233D01*
X69927257Y-75100816D01*
X69936103Y-75100500D01*
X75052419Y-75100500D01*
X75052425Y-75100500D01*
X75209218Y-75085528D01*
X75410875Y-75026316D01*
X75597682Y-74930011D01*
X75599492Y-74928588D01*
X75692534Y-74855418D01*
X75762886Y-74800092D01*
X75900519Y-74641256D01*
X75912416Y-74620651D01*
X75976861Y-74509028D01*
X76005604Y-74459244D01*
X76074344Y-74260633D01*
X76104254Y-74052602D01*
X76094254Y-73842670D01*
X76044704Y-73638424D01*
X76043971Y-73636819D01*
X75957401Y-73447256D01*
X75957398Y-73447251D01*
X75957397Y-73447250D01*
X75957396Y-73447247D01*
X75835486Y-73276048D01*
X75835484Y-73276046D01*
X75835479Y-73276040D01*
X75683379Y-73131014D01*
X75506574Y-73017388D01*
X75460830Y-72999075D01*
X75330868Y-72947046D01*
X75311455Y-72939274D01*
X75105086Y-72899500D01*
X75105085Y-72899500D01*
X68569704Y-72899500D01*
X68502665Y-72879815D01*
X68482023Y-72863181D01*
X67851762Y-72232920D01*
X67818277Y-72171597D01*
X67816085Y-72157836D01*
X67814999Y-72147204D01*
X67814998Y-72147200D01*
X67791714Y-72076933D01*
X67759814Y-71980666D01*
X67667712Y-71831344D01*
X67543656Y-71707288D01*
X67394334Y-71615186D01*
X67227797Y-71560001D01*
X67227795Y-71560000D01*
X67125010Y-71549500D01*
X66499998Y-71549500D01*
X66499980Y-71549501D01*
X66397203Y-71560000D01*
X66397200Y-71560001D01*
X66251003Y-71608447D01*
X66181175Y-71610849D01*
X66121133Y-71575117D01*
X66089940Y-71512597D01*
X66087999Y-71490751D01*
X66087999Y-67173802D01*
X66088438Y-67166435D01*
X66094987Y-67111663D01*
X66105193Y-67026308D01*
X66090200Y-66816673D01*
X66035804Y-66613665D01*
X65943972Y-66424619D01*
X65818021Y-66256370D01*
X65776070Y-66218234D01*
X65662506Y-66114996D01*
X65582460Y-66066206D01*
X65483045Y-66005610D01*
X65483043Y-66005609D01*
X65483041Y-66005608D01*
X65286127Y-65932163D01*
X65286118Y-65932161D01*
X65078876Y-65897312D01*
X65078868Y-65897311D01*
X65078867Y-65897311D01*
X64973811Y-65899812D01*
X64868755Y-65902313D01*
X64868745Y-65902314D01*
X64663399Y-65946983D01*
X64663386Y-65946987D01*
X64470193Y-66029718D01*
X64470189Y-66029720D01*
X64470188Y-66029721D01*
X64338090Y-66119127D01*
X64296135Y-66147523D01*
X64281617Y-66162040D01*
X64265885Y-66175349D01*
X64263547Y-66177013D01*
X64200072Y-66243585D01*
X64172253Y-66271405D01*
X64172251Y-66271407D01*
X64165306Y-66279818D01*
X64162372Y-66283123D01*
X64118519Y-66329116D01*
X64118512Y-66329125D01*
X64099144Y-66359260D01*
X64094794Y-66365216D01*
X64071978Y-66392852D01*
X64071975Y-66392855D01*
X64041506Y-66448653D01*
X64039249Y-66452459D01*
X64004888Y-66505925D01*
X63991572Y-66539186D01*
X63988428Y-66545860D01*
X63971254Y-66577313D01*
X63971249Y-66577323D01*
X63951891Y-66637878D01*
X63950395Y-66642041D01*
X63926775Y-66701041D01*
X63926774Y-66701042D01*
X63919991Y-66736230D01*
X63918167Y-66743375D01*
X63907258Y-66777507D01*
X63907257Y-66777510D01*
X63899709Y-66840631D01*
X63899027Y-66845003D01*
X63887000Y-66907416D01*
X63887000Y-66943251D01*
X63886561Y-66950617D01*
X63882308Y-66986186D01*
X63882308Y-66986193D01*
X63886842Y-67049589D01*
X63887000Y-67054013D01*
X63887000Y-72031296D01*
X63867315Y-72098335D01*
X63814511Y-72144090D01*
X63745353Y-72154034D01*
X63681797Y-72125009D01*
X63675319Y-72118977D01*
X63136819Y-71580477D01*
X63103334Y-71519154D01*
X63100500Y-71492796D01*
X63100500Y-68221126D01*
X63102218Y-68200559D01*
X63102689Y-68197757D01*
X63102689Y-68197755D01*
X63100499Y-68105804D01*
X63100499Y-68103649D01*
X63100500Y-68066463D01*
X63099462Y-68055597D01*
X63099199Y-68051186D01*
X63097687Y-67987643D01*
X63090070Y-67952634D01*
X63088933Y-67945340D01*
X63088170Y-67937348D01*
X63085528Y-67909670D01*
X63067613Y-67848660D01*
X63066524Y-67844391D01*
X63063548Y-67830708D01*
X63053013Y-67782276D01*
X63038901Y-67749322D01*
X63036411Y-67742395D01*
X63026316Y-67708013D01*
X62997183Y-67651504D01*
X62995303Y-67647513D01*
X62970279Y-67589076D01*
X62950193Y-67559400D01*
X62946435Y-67553065D01*
X62930013Y-67521209D01*
X62930011Y-67521206D01*
X62890715Y-67471239D01*
X62888103Y-67467662D01*
X62852479Y-67415026D01*
X62852477Y-67415023D01*
X62827130Y-67389676D01*
X62822245Y-67384171D01*
X62800092Y-67356002D01*
X62772899Y-67332439D01*
X62752048Y-67314371D01*
X62748808Y-67311354D01*
X57581578Y-62144124D01*
X57568249Y-62128366D01*
X57566600Y-62126050D01*
X57566597Y-62126047D01*
X57500027Y-62062572D01*
X57486115Y-62048661D01*
X57472213Y-62034759D01*
X57472207Y-62034754D01*
X57472204Y-62034751D01*
X57463791Y-62027804D01*
X57460481Y-62024866D01*
X57414491Y-61981015D01*
X57414483Y-61981009D01*
X57384356Y-61961647D01*
X57378398Y-61957297D01*
X57350759Y-61934478D01*
X57350757Y-61934476D01*
X57294949Y-61904002D01*
X57291162Y-61901755D01*
X57270757Y-61888642D01*
X57237687Y-61867388D01*
X57237688Y-61867388D01*
X57204417Y-61854068D01*
X57197742Y-61850923D01*
X57166296Y-61833752D01*
X57166297Y-61833752D01*
X57105737Y-61814393D01*
X57101573Y-61812896D01*
X57042565Y-61789273D01*
X57007384Y-61782492D01*
X57000237Y-61780668D01*
X56966103Y-61769757D01*
X56902979Y-61762209D01*
X56898607Y-61761527D01*
X56855462Y-61753212D01*
X56836197Y-61749500D01*
X56836195Y-61749500D01*
X56800357Y-61749500D01*
X56793001Y-61749061D01*
X56784177Y-61748007D01*
X56780952Y-61747621D01*
X56750291Y-61734488D01*
X56736309Y-61743475D01*
X56710223Y-61748183D01*
X56704428Y-61748597D01*
X56694012Y-61749342D01*
X56689601Y-61749500D01*
X55845809Y-61749500D01*
X55778770Y-61729815D01*
X55758128Y-61713181D01*
X55676870Y-61631923D01*
X55676862Y-61631917D01*
X55535396Y-61548255D01*
X55535393Y-61548254D01*
X55377573Y-61502402D01*
X55377567Y-61502401D01*
X55340696Y-61499500D01*
X55340694Y-61499500D01*
X54909306Y-61499500D01*
X54909304Y-61499500D01*
X54872432Y-61502401D01*
X54872426Y-61502402D01*
X54714606Y-61548254D01*
X54714605Y-61548254D01*
X54580300Y-61627681D01*
X54512576Y-61644863D01*
X54446314Y-61622702D01*
X54434107Y-61612201D01*
X54433972Y-61612361D01*
X54428108Y-61607379D01*
X54410875Y-61593138D01*
X53835124Y-61017387D01*
X53242556Y-60424818D01*
X53239153Y-60421126D01*
X53203285Y-60378899D01*
X53138840Y-60329909D01*
X53075708Y-60279162D01*
X53075707Y-60279161D01*
X53075703Y-60279158D01*
X53075697Y-60279155D01*
X53074803Y-60278583D01*
X53056968Y-60267520D01*
X53056013Y-60266946D01*
X52982509Y-60232939D01*
X52909976Y-60196966D01*
X52908930Y-60196582D01*
X52889109Y-60189602D01*
X52888113Y-60189266D01*
X52809022Y-60171858D01*
X52730443Y-60152315D01*
X52729533Y-60152191D01*
X52708455Y-60149610D01*
X52707450Y-60149501D01*
X52707446Y-60149500D01*
X52707441Y-60149500D01*
X52626480Y-60149500D01*
X52545513Y-60147306D01*
X52544469Y-60147391D01*
X52522301Y-60149500D01*
X52330067Y-60149500D01*
X52286209Y-60140178D01*
X52285986Y-60140865D01*
X52279801Y-60138855D01*
X52144624Y-60110123D01*
X52094646Y-60099500D01*
X51905354Y-60099500D01*
X51872897Y-60106398D01*
X51720197Y-60138855D01*
X51720192Y-60138857D01*
X51547270Y-60215848D01*
X51547265Y-60215851D01*
X51394129Y-60327111D01*
X51267466Y-60467785D01*
X51172821Y-60631715D01*
X51172818Y-60631722D01*
X51118136Y-60800018D01*
X51114326Y-60811744D01*
X51094540Y-61000000D01*
X51114326Y-61188256D01*
X51114327Y-61188259D01*
X51168751Y-61355761D01*
X51170746Y-61425602D01*
X51134665Y-61485435D01*
X51085416Y-61513155D01*
X50964605Y-61548254D01*
X50830300Y-61627681D01*
X50762576Y-61644863D01*
X50696314Y-61622702D01*
X50684112Y-61612206D01*
X50683977Y-61612365D01*
X50678049Y-61607330D01*
X50660882Y-61593144D01*
X50312827Y-61245089D01*
X49942557Y-60874818D01*
X49939154Y-60871126D01*
X49903287Y-60828899D01*
X49865271Y-60800001D01*
X49838831Y-60779902D01*
X49801679Y-60750038D01*
X49775708Y-60729161D01*
X49774752Y-60728550D01*
X49757007Y-60717543D01*
X49756016Y-60716947D01*
X49682505Y-60682937D01*
X49609975Y-60646965D01*
X49608961Y-60646592D01*
X49589042Y-60639580D01*
X49588119Y-60639269D01*
X49588117Y-60639268D01*
X49588114Y-60639267D01*
X49588113Y-60639267D01*
X49509026Y-60621859D01*
X49430444Y-60602315D01*
X49429534Y-60602191D01*
X49408456Y-60599610D01*
X49407451Y-60599501D01*
X49407447Y-60599500D01*
X49407442Y-60599500D01*
X49326481Y-60599500D01*
X49245514Y-60597306D01*
X49244470Y-60597391D01*
X49222302Y-60599500D01*
X48149499Y-60599500D01*
X48082460Y-60579815D01*
X48036705Y-60527011D01*
X48025499Y-60475500D01*
X48025499Y-58499998D01*
X48025498Y-58499981D01*
X48014999Y-58397203D01*
X48014998Y-58397200D01*
X48003821Y-58363471D01*
X47959814Y-58230666D01*
X47934481Y-58189595D01*
X47916042Y-58122204D01*
X47936965Y-58055541D01*
X47990607Y-58010771D01*
X48040021Y-58000500D01*
X55959979Y-58000500D01*
X56027018Y-58020185D01*
X56072773Y-58072989D01*
X56082717Y-58142147D01*
X56065518Y-58189594D01*
X56059834Y-58198811D01*
X56040187Y-58230663D01*
X56040185Y-58230668D01*
X56023439Y-58281204D01*
X55985001Y-58397203D01*
X55985001Y-58397204D01*
X55985000Y-58397204D01*
X55974500Y-58499983D01*
X55974500Y-60800001D01*
X55974501Y-60800018D01*
X55985000Y-60902796D01*
X55985001Y-60902799D01*
X56027060Y-61029722D01*
X56040186Y-61069334D01*
X56132288Y-61218656D01*
X56256344Y-61342712D01*
X56405666Y-61434814D01*
X56572203Y-61489999D01*
X56674991Y-61500500D01*
X56701369Y-61500499D01*
X56749540Y-61514642D01*
X56775131Y-61502214D01*
X56795674Y-61500499D01*
X57275008Y-61500499D01*
X57275016Y-61500498D01*
X57275019Y-61500498D01*
X57331302Y-61494748D01*
X57377797Y-61489999D01*
X57544334Y-61434814D01*
X57693656Y-61342712D01*
X57817712Y-61218656D01*
X57909814Y-61069334D01*
X57964999Y-60902797D01*
X57975500Y-60800009D01*
X57975499Y-58499992D01*
X57964999Y-58397203D01*
X57909814Y-58230666D01*
X57884481Y-58189595D01*
X57866042Y-58122204D01*
X57886965Y-58055541D01*
X57940607Y-58010771D01*
X57990021Y-58000500D01*
X65261892Y-58000500D01*
X65328931Y-58020185D01*
X65374686Y-58072989D01*
X65384630Y-58142147D01*
X65355605Y-58205703D01*
X65296827Y-58243477D01*
X65280669Y-58247070D01*
X65261793Y-58249961D01*
X65261781Y-58249964D01*
X65081464Y-58316746D01*
X65081460Y-58316748D01*
X64918267Y-58418467D01*
X64778895Y-58550949D01*
X64669041Y-58708781D01*
X64593209Y-58885491D01*
X64554500Y-59073851D01*
X64554499Y-59877951D01*
X64569077Y-60021310D01*
X64590121Y-60088379D01*
X64591409Y-60158237D01*
X64554724Y-60217701D01*
X64491714Y-60247892D01*
X64471808Y-60249500D01*
X62539337Y-60249500D01*
X62472298Y-60229815D01*
X62466452Y-60225818D01*
X62452734Y-60215851D01*
X62452729Y-60215848D01*
X62279807Y-60138857D01*
X62279802Y-60138855D01*
X62134000Y-60107865D01*
X62094646Y-60099500D01*
X61905354Y-60099500D01*
X61872897Y-60106398D01*
X61720197Y-60138855D01*
X61720192Y-60138857D01*
X61547270Y-60215848D01*
X61547265Y-60215851D01*
X61394129Y-60327111D01*
X61267466Y-60467785D01*
X61172821Y-60631715D01*
X61172818Y-60631722D01*
X61118136Y-60800018D01*
X61114326Y-60811744D01*
X61094540Y-61000000D01*
X61114326Y-61188256D01*
X61114327Y-61188259D01*
X61172818Y-61368277D01*
X61172821Y-61368284D01*
X61267467Y-61532216D01*
X61368895Y-61644863D01*
X61394129Y-61672888D01*
X61547265Y-61784148D01*
X61547270Y-61784151D01*
X61720192Y-61861142D01*
X61720197Y-61861144D01*
X61905354Y-61900500D01*
X61905355Y-61900500D01*
X62094644Y-61900500D01*
X62094646Y-61900500D01*
X62279803Y-61861144D01*
X62452730Y-61784151D01*
X62457524Y-61780668D01*
X62466452Y-61774182D01*
X62532258Y-61750702D01*
X62539337Y-61750500D01*
X65298521Y-61750500D01*
X65365560Y-61770185D01*
X65411315Y-61822989D01*
X65421259Y-61892147D01*
X65418562Y-61905581D01*
X65380777Y-62051511D01*
X65380776Y-62051517D01*
X65370728Y-62249662D01*
X65370728Y-62249663D01*
X65400768Y-62445764D01*
X65400771Y-62445777D01*
X65469673Y-62631815D01*
X65469677Y-62631824D01*
X65574616Y-62800184D01*
X65574621Y-62800191D01*
X65698025Y-62930011D01*
X65711309Y-62943986D01*
X65874146Y-63057324D01*
X66056465Y-63135563D01*
X66250801Y-63175500D01*
X66699474Y-63175500D01*
X66847380Y-63160459D01*
X66959364Y-63125324D01*
X67029222Y-63124036D01*
X67088686Y-63160721D01*
X67095751Y-63169326D01*
X67142809Y-63232187D01*
X67142812Y-63232190D01*
X67257906Y-63318350D01*
X67257913Y-63318354D01*
X67392620Y-63368596D01*
X67392627Y-63368598D01*
X67452155Y-63374999D01*
X67452172Y-63375000D01*
X67500000Y-63375000D01*
X67500000Y-63214435D01*
X67519685Y-63147396D01*
X67572489Y-63101641D01*
X67641647Y-63091697D01*
X67705203Y-63120722D01*
X67723266Y-63140123D01*
X67792454Y-63232546D01*
X67850311Y-63275858D01*
X67892182Y-63331789D01*
X67899972Y-63374972D01*
X67900000Y-63375000D01*
X67947828Y-63375000D01*
X67947839Y-63374999D01*
X68009395Y-63368380D01*
X68035909Y-63368380D01*
X68042514Y-63369090D01*
X68042517Y-63369091D01*
X68102127Y-63375500D01*
X68597872Y-63375499D01*
X68657483Y-63369091D01*
X68657486Y-63369089D01*
X68661744Y-63368632D01*
X68688254Y-63368632D01*
X68692514Y-63369089D01*
X68692517Y-63369091D01*
X68752127Y-63375500D01*
X69053070Y-63375499D01*
X69120108Y-63395183D01*
X69165863Y-63447987D01*
X69175807Y-63517146D01*
X69171000Y-63537817D01*
X69122129Y-63688228D01*
X69114326Y-63712244D01*
X69094540Y-63900500D01*
X69114326Y-64088756D01*
X69114327Y-64088759D01*
X69172818Y-64268777D01*
X69172821Y-64268784D01*
X69267467Y-64432716D01*
X69394129Y-64573387D01*
X69394129Y-64573388D01*
X69547265Y-64684648D01*
X69547270Y-64684651D01*
X69720192Y-64761642D01*
X69720197Y-64761644D01*
X69905354Y-64801000D01*
X69905355Y-64801000D01*
X70094644Y-64801000D01*
X70094646Y-64801000D01*
X70279803Y-64761644D01*
X70452730Y-64684651D01*
X70605871Y-64573388D01*
X70732533Y-64432716D01*
X70827179Y-64268784D01*
X70885674Y-64088756D01*
X70885674Y-64088754D01*
X70887682Y-64082575D01*
X70889807Y-64083265D01*
X70910859Y-64040075D01*
X70931302Y-64015714D01*
X70931305Y-64015707D01*
X70935274Y-64009675D01*
X70935325Y-64009708D01*
X70939372Y-64003356D01*
X70939320Y-64003324D01*
X70943112Y-63997175D01*
X70975575Y-63927558D01*
X71010036Y-63858940D01*
X71010040Y-63858933D01*
X71010042Y-63858921D01*
X71012509Y-63852146D01*
X71012567Y-63852167D01*
X71015043Y-63845046D01*
X71014986Y-63845028D01*
X71017257Y-63838173D01*
X71032792Y-63762934D01*
X71050498Y-63688228D01*
X71050500Y-63688221D01*
X71050500Y-63688210D01*
X71051338Y-63681048D01*
X71051398Y-63681055D01*
X71052164Y-63673555D01*
X71052105Y-63673550D01*
X71052734Y-63666360D01*
X71050500Y-63589583D01*
X71050500Y-63286411D01*
X71070185Y-63219372D01*
X71122989Y-63173617D01*
X71192147Y-63163673D01*
X71199443Y-63164945D01*
X71250801Y-63175500D01*
X71250802Y-63175500D01*
X71699474Y-63175500D01*
X71847380Y-63160459D01*
X71922726Y-63136819D01*
X72036678Y-63101067D01*
X72210146Y-63004784D01*
X72360682Y-62875553D01*
X72482122Y-62718666D01*
X72569495Y-62540544D01*
X72618334Y-62351917D01*
X72619222Y-62348488D01*
X72619223Y-62348482D01*
X72619224Y-62348480D01*
X72629272Y-62150337D01*
X72606242Y-62000002D01*
X73745227Y-62000002D01*
X73764306Y-62351900D01*
X73764308Y-62351917D01*
X73821319Y-62699667D01*
X73821325Y-62699693D01*
X73915600Y-63039243D01*
X73915602Y-63039250D01*
X74046043Y-63366634D01*
X74046052Y-63366652D01*
X74211124Y-63678011D01*
X74408896Y-63969702D01*
X74531914Y-64114532D01*
X75607413Y-63039032D01*
X75668736Y-63005547D01*
X75738427Y-63010531D01*
X75789381Y-63046179D01*
X75865130Y-63134870D01*
X75905473Y-63169326D01*
X75953816Y-63210615D01*
X75992009Y-63269122D01*
X75992507Y-63338990D01*
X75960965Y-63392586D01*
X74882625Y-64470926D01*
X74882625Y-64470928D01*
X74892900Y-64480660D01*
X75173460Y-64693938D01*
X75173464Y-64693941D01*
X75475445Y-64875635D01*
X75795273Y-65023603D01*
X76129256Y-65136136D01*
X76473437Y-65211896D01*
X76823788Y-65249999D01*
X76823795Y-65250000D01*
X77176205Y-65250000D01*
X77176211Y-65249999D01*
X77526562Y-65211896D01*
X77870743Y-65136136D01*
X78204726Y-65023603D01*
X78524554Y-64875635D01*
X78826535Y-64693941D01*
X78826539Y-64693938D01*
X79107093Y-64480665D01*
X79107105Y-64480654D01*
X79117373Y-64470927D01*
X79117373Y-64470926D01*
X78039033Y-63392586D01*
X78005548Y-63331263D01*
X78010532Y-63261571D01*
X78046180Y-63210617D01*
X78134870Y-63134870D01*
X78210617Y-63046180D01*
X78269121Y-63007990D01*
X78338989Y-63007490D01*
X78392586Y-63039033D01*
X79468084Y-64114532D01*
X79468085Y-64114531D01*
X79591102Y-63969704D01*
X79788875Y-63678011D01*
X79953947Y-63366652D01*
X79953956Y-63366634D01*
X80084397Y-63039250D01*
X80084399Y-63039243D01*
X80178674Y-62699693D01*
X80178680Y-62699667D01*
X80235691Y-62351917D01*
X80235693Y-62351900D01*
X80254773Y-62000002D01*
X80254773Y-61999997D01*
X80235693Y-61648099D01*
X80235691Y-61648082D01*
X80178680Y-61300332D01*
X80178674Y-61300306D01*
X80084399Y-60960756D01*
X80084397Y-60960749D01*
X79953956Y-60633365D01*
X79953947Y-60633347D01*
X79788875Y-60321988D01*
X79591099Y-60030291D01*
X79468085Y-59885467D01*
X79468084Y-59885466D01*
X78392586Y-60960965D01*
X78331263Y-60994450D01*
X78261571Y-60989466D01*
X78210615Y-60953816D01*
X78167042Y-60902799D01*
X78134870Y-60865130D01*
X78046179Y-60789381D01*
X78007989Y-60730878D01*
X78007489Y-60661010D01*
X78039032Y-60607413D01*
X79117374Y-59529072D01*
X79107099Y-59519340D01*
X79107087Y-59519330D01*
X78826539Y-59306061D01*
X78826535Y-59306058D01*
X78524554Y-59124364D01*
X78204726Y-58976396D01*
X77870743Y-58863863D01*
X77526562Y-58788103D01*
X77176211Y-58750000D01*
X76823788Y-58750000D01*
X76473437Y-58788103D01*
X76129256Y-58863863D01*
X75795273Y-58976396D01*
X75475445Y-59124364D01*
X75173464Y-59306058D01*
X75173460Y-59306061D01*
X74892906Y-59519334D01*
X74882625Y-59529071D01*
X74882625Y-59529073D01*
X75960966Y-60607413D01*
X75994451Y-60668736D01*
X75989467Y-60738428D01*
X75953817Y-60789384D01*
X75865130Y-60865130D01*
X75789384Y-60953817D01*
X75730877Y-60992010D01*
X75661009Y-60992508D01*
X75607413Y-60960966D01*
X74531914Y-59885466D01*
X74531913Y-59885466D01*
X74408896Y-60030296D01*
X74211124Y-60321988D01*
X74046052Y-60633347D01*
X74046043Y-60633365D01*
X73915602Y-60960749D01*
X73915600Y-60960756D01*
X73821325Y-61300306D01*
X73821319Y-61300332D01*
X73764308Y-61648082D01*
X73764306Y-61648099D01*
X73745227Y-61999997D01*
X73745227Y-62000002D01*
X72606242Y-62000002D01*
X72599230Y-61954227D01*
X72530325Y-61768180D01*
X72483875Y-61693657D01*
X72425383Y-61599815D01*
X72425378Y-61599809D01*
X72284625Y-61451735D01*
X72252705Y-61389584D01*
X72250500Y-61366304D01*
X72250500Y-60899499D01*
X72270185Y-60832460D01*
X72322989Y-60786705D01*
X72374500Y-60775499D01*
X72474449Y-60775499D01*
X72477589Y-60775579D01*
X72503924Y-60776913D01*
X72548136Y-60779156D01*
X72738214Y-60750037D01*
X72918540Y-60683252D01*
X73081731Y-60581534D01*
X73221106Y-60449049D01*
X73330958Y-60291219D01*
X73406791Y-60114508D01*
X73445500Y-59926148D01*
X73445500Y-59122050D01*
X73444011Y-59107402D01*
X73430922Y-58978689D01*
X73373358Y-58795222D01*
X73373356Y-58795218D01*
X73373355Y-58795214D01*
X73280034Y-58627080D01*
X73280029Y-58627074D01*
X73154779Y-58481174D01*
X73154778Y-58481173D01*
X73002718Y-58363471D01*
X73002716Y-58363470D01*
X73002715Y-58363469D01*
X72830071Y-58278783D01*
X72830069Y-58278782D01*
X72830066Y-58278781D01*
X72830068Y-58278781D01*
X72697824Y-58244541D01*
X72637858Y-58208681D01*
X72606800Y-58146094D01*
X72614509Y-58076651D01*
X72658538Y-58022400D01*
X72724908Y-58000564D01*
X72728905Y-58000500D01*
X76998560Y-58000500D01*
X77001423Y-58000566D01*
X77040986Y-58002394D01*
X77172950Y-58008495D01*
X77372549Y-58018302D01*
X77378048Y-58018819D01*
X77563357Y-58044668D01*
X77749828Y-58072329D01*
X77754871Y-58073294D01*
X77939341Y-58116681D01*
X78120221Y-58161989D01*
X78124797Y-58163327D01*
X78305568Y-58223916D01*
X78480339Y-58286450D01*
X78484471Y-58288100D01*
X78542986Y-58313936D01*
X78659474Y-58365370D01*
X78826973Y-58444592D01*
X78830601Y-58446457D01*
X78998128Y-58539770D01*
X78998142Y-58539778D01*
X79156964Y-58634972D01*
X79160119Y-58636996D01*
X79318603Y-58745559D01*
X79467377Y-58855897D01*
X79470001Y-58857957D01*
X79618027Y-58980876D01*
X79755321Y-59105314D01*
X79757514Y-59107402D01*
X79892596Y-59242484D01*
X79894687Y-59244680D01*
X79950320Y-59306061D01*
X80019129Y-59381980D01*
X80142034Y-59529989D01*
X80144109Y-59532632D01*
X80254443Y-59681400D01*
X80363002Y-59839879D01*
X80365032Y-59843044D01*
X80460221Y-60001857D01*
X80476059Y-60030291D01*
X80536530Y-60138857D01*
X80553527Y-60169371D01*
X80555410Y-60173034D01*
X80634638Y-60340547D01*
X80711899Y-60515527D01*
X80713558Y-60519685D01*
X80776093Y-60694459D01*
X80836662Y-60875173D01*
X80838018Y-60879812D01*
X80883317Y-61060654D01*
X80926696Y-61245090D01*
X80927672Y-61250189D01*
X80955337Y-61436689D01*
X80981177Y-61621933D01*
X80981697Y-61627459D01*
X80991512Y-61827238D01*
X80999434Y-61998575D01*
X80999500Y-62001439D01*
X80999500Y-82875500D01*
X80979815Y-82942539D01*
X80927011Y-82988294D01*
X80875500Y-82999500D01*
X72024760Y-82999500D01*
X72024554Y-82999459D01*
X72000000Y-82999459D01*
X71999901Y-82999500D01*
X71999617Y-82999616D01*
X71999615Y-82999618D01*
X71999459Y-82999999D01*
X71999476Y-83024616D01*
X71999471Y-83024616D01*
X71999500Y-83024759D01*
X71999500Y-112975467D01*
X71999416Y-112975889D01*
X71999459Y-113000001D01*
X71999500Y-113000099D01*
X71999616Y-113000382D01*
X71999618Y-113000384D01*
X71999808Y-113000462D01*
X72000000Y-113000541D01*
X72000002Y-113000539D01*
X72024616Y-113000524D01*
X72024616Y-113000528D01*
X72024760Y-113000500D01*
X80875500Y-113000500D01*
X80942539Y-113020185D01*
X80988294Y-113072989D01*
X80999500Y-113124500D01*
X80999500Y-131998560D01*
X80999434Y-132001424D01*
X80991512Y-132172761D01*
X80981697Y-132372539D01*
X80981177Y-132378065D01*
X80955337Y-132563310D01*
X80927672Y-132749809D01*
X80926696Y-132754908D01*
X80883317Y-132939345D01*
X80838018Y-133120186D01*
X80836662Y-133124825D01*
X80776093Y-133305540D01*
X80713557Y-133480314D01*
X80711899Y-133484470D01*
X80634638Y-133659452D01*
X80555410Y-133826964D01*
X80553527Y-133830627D01*
X80460221Y-133998142D01*
X80365032Y-134156954D01*
X80363002Y-134160118D01*
X80254437Y-134318608D01*
X80144121Y-134467350D01*
X80142021Y-134470025D01*
X80019132Y-134618016D01*
X79894695Y-134755310D01*
X79892596Y-134757514D01*
X79757514Y-134892596D01*
X79755310Y-134894695D01*
X79618016Y-135019132D01*
X79470025Y-135142021D01*
X79467350Y-135144121D01*
X79318608Y-135254437D01*
X79160118Y-135363002D01*
X79156954Y-135365032D01*
X78998142Y-135460221D01*
X78830627Y-135553527D01*
X78826964Y-135555410D01*
X78659452Y-135634638D01*
X78484470Y-135711899D01*
X78480314Y-135713557D01*
X78305540Y-135776093D01*
X78124825Y-135836662D01*
X78120186Y-135838018D01*
X77939345Y-135883317D01*
X77754908Y-135926696D01*
X77749809Y-135927672D01*
X77563310Y-135955337D01*
X77378065Y-135981177D01*
X77372539Y-135981697D01*
X77172761Y-135991512D01*
X77001424Y-135999434D01*
X76998560Y-135999500D01*
X27001440Y-135999500D01*
X26998576Y-135999434D01*
X26827238Y-135991512D01*
X26627459Y-135981697D01*
X26621933Y-135981177D01*
X26436689Y-135955337D01*
X26250189Y-135927672D01*
X26245090Y-135926696D01*
X26060654Y-135883317D01*
X25879812Y-135838018D01*
X25875173Y-135836662D01*
X25694459Y-135776093D01*
X25519685Y-135713558D01*
X25515527Y-135711899D01*
X25340547Y-135634638D01*
X25173034Y-135555410D01*
X25169371Y-135553527D01*
X25001857Y-135460221D01*
X24843044Y-135365032D01*
X24839879Y-135363002D01*
X24730371Y-135287989D01*
X24681392Y-135254437D01*
X24532632Y-135144109D01*
X24529989Y-135142034D01*
X24381980Y-135019129D01*
X24244688Y-134894695D01*
X24242484Y-134892596D01*
X24107402Y-134757514D01*
X24105314Y-134755321D01*
X23980867Y-134618016D01*
X23857957Y-134470001D01*
X23855897Y-134467377D01*
X23745559Y-134318603D01*
X23636995Y-134160118D01*
X23634966Y-134156954D01*
X23609539Y-134114532D01*
X23539778Y-133998142D01*
X23512261Y-133948740D01*
X23446457Y-133830601D01*
X23444588Y-133826964D01*
X23389443Y-133710370D01*
X23365370Y-133659474D01*
X23288100Y-133484471D01*
X23286450Y-133480339D01*
X23223906Y-133305540D01*
X23163327Y-133124797D01*
X23161989Y-133120221D01*
X23116675Y-132939315D01*
X23111402Y-132916895D01*
X23073294Y-132754871D01*
X23072329Y-132749828D01*
X23044662Y-132563310D01*
X23018819Y-132378048D01*
X23018302Y-132372549D01*
X23008487Y-132172761D01*
X23000566Y-132001423D01*
X23000533Y-132000002D01*
X23745227Y-132000002D01*
X23764306Y-132351900D01*
X23764308Y-132351917D01*
X23821319Y-132699667D01*
X23821325Y-132699693D01*
X23915600Y-133039243D01*
X23915602Y-133039250D01*
X24046043Y-133366634D01*
X24046052Y-133366652D01*
X24211124Y-133678011D01*
X24408896Y-133969702D01*
X24531914Y-134114532D01*
X25607413Y-133039032D01*
X25668736Y-133005547D01*
X25738427Y-133010531D01*
X25789381Y-133046179D01*
X25865130Y-133134870D01*
X25928855Y-133189296D01*
X25953816Y-133210615D01*
X25992009Y-133269122D01*
X25992507Y-133338990D01*
X25960965Y-133392586D01*
X24882625Y-134470926D01*
X24882625Y-134470928D01*
X24892900Y-134480660D01*
X25173460Y-134693938D01*
X25173464Y-134693941D01*
X25475445Y-134875635D01*
X25795273Y-135023603D01*
X26129256Y-135136136D01*
X26473437Y-135211896D01*
X26823788Y-135249999D01*
X26823795Y-135250000D01*
X27176205Y-135250000D01*
X27176211Y-135249999D01*
X27526562Y-135211896D01*
X27870743Y-135136136D01*
X28204726Y-135023603D01*
X28524554Y-134875635D01*
X28826535Y-134693941D01*
X28826539Y-134693938D01*
X29107093Y-134480665D01*
X29107105Y-134480654D01*
X29117373Y-134470927D01*
X29117373Y-134470926D01*
X28039033Y-133392586D01*
X28005548Y-133331263D01*
X28010532Y-133261571D01*
X28046180Y-133210617D01*
X28134870Y-133134870D01*
X28210617Y-133046180D01*
X28269121Y-133007990D01*
X28338989Y-133007490D01*
X28392586Y-133039033D01*
X29468084Y-134114532D01*
X29468085Y-134114531D01*
X29591102Y-133969704D01*
X29788875Y-133678011D01*
X29953947Y-133366652D01*
X29953956Y-133366634D01*
X30084397Y-133039250D01*
X30084399Y-133039243D01*
X30178674Y-132699693D01*
X30178680Y-132699667D01*
X30235691Y-132351917D01*
X30235693Y-132351900D01*
X30254773Y-132000002D01*
X30254773Y-132000001D01*
X36620211Y-132000001D01*
X36639345Y-132267523D01*
X36639346Y-132267530D01*
X36696354Y-132529593D01*
X36790084Y-132780894D01*
X36790086Y-132780898D01*
X36918617Y-133016285D01*
X36918622Y-133016293D01*
X37009180Y-133137264D01*
X37009181Y-133137265D01*
X37621739Y-132524706D01*
X37683062Y-132491221D01*
X37752753Y-132496205D01*
X37803928Y-132532111D01*
X37894713Y-132638991D01*
X37963348Y-132691166D01*
X38004805Y-132747407D01*
X38009275Y-132817134D01*
X37975988Y-132877563D01*
X37362733Y-133490817D01*
X37362734Y-133490818D01*
X37483706Y-133581377D01*
X37483714Y-133581382D01*
X37719101Y-133709913D01*
X37719105Y-133709915D01*
X37970406Y-133803645D01*
X38232469Y-133860653D01*
X38232476Y-133860654D01*
X38499999Y-133879789D01*
X38500001Y-133879789D01*
X38767523Y-133860654D01*
X38767530Y-133860653D01*
X39029593Y-133803645D01*
X39280894Y-133709915D01*
X39280898Y-133709913D01*
X39516294Y-133581377D01*
X39637264Y-133490818D01*
X39637265Y-133490817D01*
X39027468Y-132881021D01*
X38993983Y-132819698D01*
X38998967Y-132750007D01*
X39029875Y-132703316D01*
X39032645Y-132700691D01*
X39032650Y-132700689D01*
X39170825Y-132569804D01*
X39188652Y-132543510D01*
X39242566Y-132499068D01*
X39311949Y-132490830D01*
X39374771Y-132521409D01*
X39378968Y-132525415D01*
X39990817Y-133137265D01*
X39990818Y-133137264D01*
X40081377Y-133016294D01*
X40209913Y-132780898D01*
X40209915Y-132780894D01*
X40303645Y-132529593D01*
X40360653Y-132267530D01*
X40360654Y-132267523D01*
X40379789Y-132000001D01*
X42019709Y-132000001D01*
X42038848Y-132267594D01*
X42038849Y-132267601D01*
X42095872Y-132529734D01*
X42189627Y-132781102D01*
X42189629Y-132781106D01*
X42318195Y-133016556D01*
X42318200Y-133016564D01*
X42478964Y-133231321D01*
X42478980Y-133231339D01*
X42668660Y-133421019D01*
X42668678Y-133421035D01*
X42883435Y-133581799D01*
X42883443Y-133581804D01*
X43118893Y-133710370D01*
X43118897Y-133710372D01*
X43118899Y-133710373D01*
X43370261Y-133804126D01*
X43370264Y-133804126D01*
X43370265Y-133804127D01*
X43396399Y-133809812D01*
X43632407Y-133861152D01*
X43879385Y-133878816D01*
X43899999Y-133880291D01*
X43900000Y-133880291D01*
X43900001Y-133880291D01*
X43919140Y-133878922D01*
X44167593Y-133861152D01*
X44429739Y-133804126D01*
X44681101Y-133710373D01*
X44916562Y-133581801D01*
X45131329Y-133421029D01*
X45321029Y-133231329D01*
X45481801Y-133016562D01*
X45610373Y-132781101D01*
X45704126Y-132529739D01*
X45761152Y-132267593D01*
X45780291Y-132000001D01*
X47419709Y-132000001D01*
X47438848Y-132267594D01*
X47438849Y-132267601D01*
X47495872Y-132529734D01*
X47589627Y-132781102D01*
X47589629Y-132781106D01*
X47718195Y-133016556D01*
X47718200Y-133016564D01*
X47878964Y-133231321D01*
X47878980Y-133231339D01*
X48068660Y-133421019D01*
X48068678Y-133421035D01*
X48283435Y-133581799D01*
X48283443Y-133581804D01*
X48518893Y-133710370D01*
X48518897Y-133710372D01*
X48518899Y-133710373D01*
X48770261Y-133804126D01*
X48770264Y-133804126D01*
X48770265Y-133804127D01*
X48796399Y-133809812D01*
X49032407Y-133861152D01*
X49279385Y-133878816D01*
X49299999Y-133880291D01*
X49300000Y-133880291D01*
X49300001Y-133880291D01*
X49319139Y-133878922D01*
X49567593Y-133861152D01*
X49829739Y-133804126D01*
X50081101Y-133710373D01*
X50316562Y-133581801D01*
X50531329Y-133421029D01*
X50721029Y-133231329D01*
X50881801Y-133016562D01*
X51010373Y-132781101D01*
X51104126Y-132529739D01*
X51161152Y-132267593D01*
X51180291Y-132000001D01*
X52819709Y-132000001D01*
X52838848Y-132267594D01*
X52838849Y-132267601D01*
X52895872Y-132529734D01*
X52989627Y-132781102D01*
X52989629Y-132781106D01*
X53118195Y-133016556D01*
X53118200Y-133016564D01*
X53278964Y-133231321D01*
X53278980Y-133231339D01*
X53468660Y-133421019D01*
X53468678Y-133421035D01*
X53683435Y-133581799D01*
X53683443Y-133581804D01*
X53918893Y-133710370D01*
X53918897Y-133710372D01*
X53918899Y-133710373D01*
X54170261Y-133804126D01*
X54170264Y-133804126D01*
X54170265Y-133804127D01*
X54196399Y-133809812D01*
X54432407Y-133861152D01*
X54679385Y-133878816D01*
X54699999Y-133880291D01*
X54700000Y-133880291D01*
X54700001Y-133880291D01*
X54719140Y-133878922D01*
X54967593Y-133861152D01*
X55229739Y-133804126D01*
X55481101Y-133710373D01*
X55716562Y-133581801D01*
X55931329Y-133421029D01*
X56121029Y-133231329D01*
X56281801Y-133016562D01*
X56410373Y-132781101D01*
X56504126Y-132529739D01*
X56561152Y-132267593D01*
X56580291Y-132000001D01*
X58219709Y-132000001D01*
X58238848Y-132267594D01*
X58238849Y-132267601D01*
X58295872Y-132529734D01*
X58389627Y-132781102D01*
X58389629Y-132781106D01*
X58518195Y-133016556D01*
X58518200Y-133016564D01*
X58678964Y-133231321D01*
X58678980Y-133231339D01*
X58868660Y-133421019D01*
X58868678Y-133421035D01*
X59083435Y-133581799D01*
X59083443Y-133581804D01*
X59318893Y-133710370D01*
X59318897Y-133710372D01*
X59318899Y-133710373D01*
X59570261Y-133804126D01*
X59570264Y-133804126D01*
X59570265Y-133804127D01*
X59596399Y-133809812D01*
X59832407Y-133861152D01*
X60079385Y-133878816D01*
X60099999Y-133880291D01*
X60100000Y-133880291D01*
X60100001Y-133880291D01*
X60119139Y-133878922D01*
X60367593Y-133861152D01*
X60629739Y-133804126D01*
X60881101Y-133710373D01*
X61116562Y-133581801D01*
X61331329Y-133421029D01*
X61521029Y-133231329D01*
X61681801Y-133016562D01*
X61810373Y-132781101D01*
X61904126Y-132529739D01*
X61961152Y-132267593D01*
X61980291Y-132000000D01*
X61961152Y-131732407D01*
X61911475Y-131504044D01*
X61904127Y-131470265D01*
X61903240Y-131467887D01*
X61810373Y-131218899D01*
X61790696Y-131182864D01*
X61681804Y-130983443D01*
X61681799Y-130983435D01*
X61521035Y-130768678D01*
X61521019Y-130768660D01*
X61331339Y-130578980D01*
X61331321Y-130578964D01*
X61116564Y-130418200D01*
X61116556Y-130418195D01*
X60881106Y-130289629D01*
X60881102Y-130289627D01*
X60629734Y-130195872D01*
X60367601Y-130138849D01*
X60367594Y-130138848D01*
X60100001Y-130119709D01*
X60099999Y-130119709D01*
X59832405Y-130138848D01*
X59832398Y-130138849D01*
X59570265Y-130195872D01*
X59318897Y-130289627D01*
X59318893Y-130289629D01*
X59083443Y-130418195D01*
X59083435Y-130418200D01*
X58868678Y-130578964D01*
X58868660Y-130578980D01*
X58678980Y-130768660D01*
X58678964Y-130768678D01*
X58518200Y-130983435D01*
X58518195Y-130983443D01*
X58389629Y-131218893D01*
X58389627Y-131218897D01*
X58295872Y-131470265D01*
X58238849Y-131732398D01*
X58238848Y-131732405D01*
X58219709Y-131999998D01*
X58219709Y-132000001D01*
X56580291Y-132000001D01*
X56580291Y-132000000D01*
X56561152Y-131732407D01*
X56511475Y-131504044D01*
X56504127Y-131470265D01*
X56503240Y-131467887D01*
X56410373Y-131218899D01*
X56390696Y-131182864D01*
X56281804Y-130983443D01*
X56281799Y-130983435D01*
X56121035Y-130768678D01*
X56121019Y-130768660D01*
X55931339Y-130578980D01*
X55931321Y-130578964D01*
X55716564Y-130418200D01*
X55716556Y-130418195D01*
X55481106Y-130289629D01*
X55481102Y-130289627D01*
X55229734Y-130195872D01*
X54967601Y-130138849D01*
X54967594Y-130138848D01*
X54700001Y-130119709D01*
X54699999Y-130119709D01*
X54432405Y-130138848D01*
X54432398Y-130138849D01*
X54170265Y-130195872D01*
X53918897Y-130289627D01*
X53918893Y-130289629D01*
X53683443Y-130418195D01*
X53683435Y-130418200D01*
X53468678Y-130578964D01*
X53468660Y-130578980D01*
X53278980Y-130768660D01*
X53278964Y-130768678D01*
X53118200Y-130983435D01*
X53118195Y-130983443D01*
X52989629Y-131218893D01*
X52989627Y-131218897D01*
X52895872Y-131470265D01*
X52838849Y-131732398D01*
X52838848Y-131732405D01*
X52819709Y-131999998D01*
X52819709Y-132000001D01*
X51180291Y-132000001D01*
X51180291Y-132000000D01*
X51161152Y-131732407D01*
X51111475Y-131504044D01*
X51104127Y-131470265D01*
X51103240Y-131467887D01*
X51010373Y-131218899D01*
X50990696Y-131182864D01*
X50881804Y-130983443D01*
X50881799Y-130983435D01*
X50721035Y-130768678D01*
X50721019Y-130768660D01*
X50531339Y-130578980D01*
X50531321Y-130578964D01*
X50316564Y-130418200D01*
X50316556Y-130418195D01*
X50081106Y-130289629D01*
X50081102Y-130289627D01*
X49829734Y-130195872D01*
X49567601Y-130138849D01*
X49567594Y-130138848D01*
X49300001Y-130119709D01*
X49299999Y-130119709D01*
X49032405Y-130138848D01*
X49032398Y-130138849D01*
X48770265Y-130195872D01*
X48518897Y-130289627D01*
X48518893Y-130289629D01*
X48283443Y-130418195D01*
X48283435Y-130418200D01*
X48068678Y-130578964D01*
X48068660Y-130578980D01*
X47878980Y-130768660D01*
X47878964Y-130768678D01*
X47718200Y-130983435D01*
X47718195Y-130983443D01*
X47589629Y-131218893D01*
X47589627Y-131218897D01*
X47495872Y-131470265D01*
X47438849Y-131732398D01*
X47438848Y-131732405D01*
X47419709Y-131999998D01*
X47419709Y-132000001D01*
X45780291Y-132000001D01*
X45780291Y-132000000D01*
X45761152Y-131732407D01*
X45711475Y-131504044D01*
X45704127Y-131470265D01*
X45703240Y-131467887D01*
X45610373Y-131218899D01*
X45590696Y-131182864D01*
X45481804Y-130983443D01*
X45481799Y-130983435D01*
X45321035Y-130768678D01*
X45321019Y-130768660D01*
X45131339Y-130578980D01*
X45131321Y-130578964D01*
X44916564Y-130418200D01*
X44916556Y-130418195D01*
X44681106Y-130289629D01*
X44681102Y-130289627D01*
X44429734Y-130195872D01*
X44167601Y-130138849D01*
X44167594Y-130138848D01*
X43900001Y-130119709D01*
X43899999Y-130119709D01*
X43632405Y-130138848D01*
X43632398Y-130138849D01*
X43370265Y-130195872D01*
X43118897Y-130289627D01*
X43118893Y-130289629D01*
X42883443Y-130418195D01*
X42883435Y-130418200D01*
X42668678Y-130578964D01*
X42668660Y-130578980D01*
X42478980Y-130768660D01*
X42478964Y-130768678D01*
X42318200Y-130983435D01*
X42318195Y-130983443D01*
X42189629Y-131218893D01*
X42189627Y-131218897D01*
X42095872Y-131470265D01*
X42038849Y-131732398D01*
X42038848Y-131732405D01*
X42019709Y-131999998D01*
X42019709Y-132000001D01*
X40379789Y-132000001D01*
X40379789Y-131999998D01*
X40360654Y-131732476D01*
X40360653Y-131732469D01*
X40303645Y-131470406D01*
X40209915Y-131219105D01*
X40209913Y-131219101D01*
X40081382Y-130983714D01*
X40081377Y-130983706D01*
X39990818Y-130862734D01*
X39990817Y-130862733D01*
X39378259Y-131475292D01*
X39316936Y-131508777D01*
X39247244Y-131503793D01*
X39196070Y-131467887D01*
X39105288Y-131361010D01*
X39105287Y-131361009D01*
X39105286Y-131361008D01*
X39036648Y-131308831D01*
X38995192Y-131252590D01*
X38990723Y-131182864D01*
X39024010Y-131122435D01*
X39637265Y-130509181D01*
X39637264Y-130509180D01*
X39516293Y-130418622D01*
X39516285Y-130418617D01*
X39280898Y-130290086D01*
X39280894Y-130290084D01*
X39029593Y-130196354D01*
X38767530Y-130139346D01*
X38767523Y-130139345D01*
X38500001Y-130120211D01*
X38499999Y-130120211D01*
X38232476Y-130139345D01*
X38232469Y-130139346D01*
X37970406Y-130196354D01*
X37719105Y-130290084D01*
X37719101Y-130290086D01*
X37483714Y-130418617D01*
X37483706Y-130418622D01*
X37362733Y-130509180D01*
X37972530Y-131118977D01*
X38006015Y-131180300D01*
X38001031Y-131249992D01*
X37970124Y-131296681D01*
X37829175Y-131430195D01*
X37811346Y-131456492D01*
X37757431Y-131500933D01*
X37688049Y-131509170D01*
X37625227Y-131478589D01*
X37621032Y-131474585D01*
X37009180Y-130862733D01*
X36918622Y-130983706D01*
X36918617Y-130983714D01*
X36790086Y-131219101D01*
X36790084Y-131219105D01*
X36696354Y-131470406D01*
X36639346Y-131732469D01*
X36639345Y-131732476D01*
X36620211Y-131999998D01*
X36620211Y-132000001D01*
X30254773Y-132000001D01*
X30254773Y-131999997D01*
X30235693Y-131648099D01*
X30235691Y-131648082D01*
X30178680Y-131300332D01*
X30178674Y-131300306D01*
X30084399Y-130960756D01*
X30084397Y-130960749D01*
X29953956Y-130633365D01*
X29953947Y-130633347D01*
X29788875Y-130321988D01*
X29591099Y-130030291D01*
X29468085Y-129885467D01*
X29468084Y-129885466D01*
X28392586Y-130960965D01*
X28331263Y-130994450D01*
X28261571Y-130989466D01*
X28210615Y-130953816D01*
X28189296Y-130928855D01*
X28134870Y-130865130D01*
X28046179Y-130789381D01*
X28007989Y-130730878D01*
X28007489Y-130661010D01*
X28039032Y-130607413D01*
X29117374Y-129529072D01*
X29107099Y-129519340D01*
X29107087Y-129519330D01*
X28826539Y-129306061D01*
X28826535Y-129306058D01*
X28524554Y-129124364D01*
X28204726Y-128976396D01*
X27870743Y-128863863D01*
X27526562Y-128788103D01*
X27176211Y-128750000D01*
X26823788Y-128750000D01*
X26473437Y-128788103D01*
X26129256Y-128863863D01*
X25795273Y-128976396D01*
X25475445Y-129124364D01*
X25173464Y-129306058D01*
X25173460Y-129306061D01*
X24892906Y-129519334D01*
X24882625Y-129529071D01*
X24882625Y-129529073D01*
X25960966Y-130607413D01*
X25994451Y-130668736D01*
X25989467Y-130738428D01*
X25953817Y-130789384D01*
X25865130Y-130865130D01*
X25789384Y-130953817D01*
X25730877Y-130992010D01*
X25661009Y-130992508D01*
X25607413Y-130960966D01*
X24531914Y-129885466D01*
X24531913Y-129885466D01*
X24408896Y-130030296D01*
X24211124Y-130321988D01*
X24046052Y-130633347D01*
X24046043Y-130633365D01*
X23915602Y-130960749D01*
X23915600Y-130960756D01*
X23821325Y-131300306D01*
X23821319Y-131300332D01*
X23764308Y-131648082D01*
X23764306Y-131648099D01*
X23745227Y-131999997D01*
X23745227Y-132000002D01*
X23000533Y-132000002D01*
X23000500Y-131998560D01*
X23000500Y-124410000D01*
X47904785Y-124410000D01*
X47923602Y-124613082D01*
X47979417Y-124809247D01*
X47979422Y-124809260D01*
X48070327Y-124991821D01*
X48193237Y-125154581D01*
X48343958Y-125291980D01*
X48343960Y-125291982D01*
X48470148Y-125370113D01*
X48517363Y-125399348D01*
X48548863Y-125411551D01*
X48551927Y-125412844D01*
X48552002Y-125412870D01*
X48552004Y-125412871D01*
X48553021Y-125413223D01*
X48554499Y-125413735D01*
X48627113Y-125441865D01*
X48707544Y-125473024D01*
X48740395Y-125479165D01*
X48743608Y-125479854D01*
X48750070Y-125481422D01*
X48750075Y-125481424D01*
X48750079Y-125481424D01*
X48750081Y-125481425D01*
X48760493Y-125482922D01*
X48806035Y-125491435D01*
X48908024Y-125510500D01*
X48908026Y-125510500D01*
X48943437Y-125510500D01*
X48951643Y-125511086D01*
X48951649Y-125510972D01*
X48957537Y-125511252D01*
X48957541Y-125511253D01*
X48957544Y-125511252D01*
X48957548Y-125511253D01*
X48965954Y-125510853D01*
X48965964Y-125510855D01*
X48971938Y-125510570D01*
X48974891Y-125510500D01*
X49111975Y-125510500D01*
X49111976Y-125510500D01*
X49155198Y-125502420D01*
X49163646Y-125501435D01*
X49166902Y-125501280D01*
X49166904Y-125501279D01*
X49168781Y-125501190D01*
X49168827Y-125501185D01*
X49201914Y-125499608D01*
X49232294Y-125488008D01*
X49312456Y-125473024D01*
X49357381Y-125455619D01*
X49365145Y-125453186D01*
X49370593Y-125451865D01*
X49370596Y-125451863D01*
X49373340Y-125451198D01*
X49373370Y-125451190D01*
X49402586Y-125444101D01*
X49428999Y-125427875D01*
X49491313Y-125403735D01*
X49502635Y-125399349D01*
X49502640Y-125399346D01*
X49547244Y-125371728D01*
X49554092Y-125368064D01*
X49561251Y-125364795D01*
X49561254Y-125364792D01*
X49565575Y-125362820D01*
X49567528Y-125361928D01*
X49568782Y-125361747D01*
X49572029Y-125359872D01*
X49589245Y-125352010D01*
X49611028Y-125332234D01*
X49676041Y-125291981D01*
X49718053Y-125253681D01*
X49723809Y-125249036D01*
X49731985Y-125243215D01*
X49731989Y-125243210D01*
X49732077Y-125243148D01*
X49734906Y-125242168D01*
X49741622Y-125236350D01*
X49755296Y-125226612D01*
X49772053Y-125204453D01*
X49826764Y-125154579D01*
X49863691Y-125105678D01*
X49868278Y-125100278D01*
X49871207Y-125097203D01*
X49872284Y-125096074D01*
X49876302Y-125093752D01*
X49884799Y-125082949D01*
X49894839Y-125072419D01*
X49906455Y-125049050D01*
X49949673Y-124991821D01*
X49976822Y-124937297D01*
X49984339Y-124929189D01*
X49985541Y-124926187D01*
X49996342Y-124905235D01*
X50002993Y-124894884D01*
X50009607Y-124871455D01*
X50040582Y-124809250D01*
X50057598Y-124749443D01*
X50064343Y-124738750D01*
X50065596Y-124732253D01*
X50072240Y-124709626D01*
X50075947Y-124700365D01*
X50077948Y-124677921D01*
X50096397Y-124613083D01*
X50103368Y-124537845D01*
X50104217Y-124531880D01*
X50107510Y-124514799D01*
X50107510Y-124514794D01*
X50111179Y-124495758D01*
X50109173Y-124475195D01*
X50115215Y-124410000D01*
X50114288Y-124400000D01*
X53894785Y-124400000D01*
X53913602Y-124603082D01*
X53969417Y-124799247D01*
X53969422Y-124799260D01*
X54060327Y-124981821D01*
X54183237Y-125144581D01*
X54333958Y-125281980D01*
X54333960Y-125281982D01*
X54447060Y-125352010D01*
X54507363Y-125389348D01*
X54538863Y-125401551D01*
X54541927Y-125402844D01*
X54542002Y-125402870D01*
X54542004Y-125402871D01*
X54543021Y-125403223D01*
X54544499Y-125403735D01*
X54606808Y-125427873D01*
X54697544Y-125463024D01*
X54730395Y-125469165D01*
X54733608Y-125469854D01*
X54740070Y-125471422D01*
X54740075Y-125471424D01*
X54740079Y-125471424D01*
X54740081Y-125471425D01*
X54750493Y-125472922D01*
X54777696Y-125478007D01*
X54898024Y-125500500D01*
X54898026Y-125500500D01*
X54933437Y-125500500D01*
X54941643Y-125501086D01*
X54941649Y-125500972D01*
X54947537Y-125501252D01*
X54947541Y-125501253D01*
X54947544Y-125501252D01*
X54947548Y-125501253D01*
X54955954Y-125500853D01*
X54955964Y-125500855D01*
X54961938Y-125500570D01*
X54964891Y-125500500D01*
X55101975Y-125500500D01*
X55101976Y-125500500D01*
X55145198Y-125492420D01*
X55153646Y-125491435D01*
X55156902Y-125491280D01*
X55156904Y-125491279D01*
X55158781Y-125491190D01*
X55158827Y-125491185D01*
X55191914Y-125489608D01*
X55222294Y-125478008D01*
X55302456Y-125463024D01*
X55347381Y-125445619D01*
X55355145Y-125443186D01*
X55360593Y-125441865D01*
X55360596Y-125441863D01*
X55363340Y-125441198D01*
X55363370Y-125441190D01*
X55392586Y-125434101D01*
X55418999Y-125417875D01*
X55480030Y-125394232D01*
X55492635Y-125389349D01*
X55492640Y-125389346D01*
X55533893Y-125363802D01*
X55541801Y-125361552D01*
X55542965Y-125360880D01*
X55542408Y-125359988D01*
X55545827Y-125357852D01*
X55547829Y-125356774D01*
X55547672Y-125356430D01*
X55553786Y-125353638D01*
X55557528Y-125351928D01*
X55558782Y-125351747D01*
X55562029Y-125349872D01*
X55579245Y-125342010D01*
X55601028Y-125322234D01*
X55666041Y-125281981D01*
X55708053Y-125243681D01*
X55713809Y-125239036D01*
X55721985Y-125233215D01*
X55721989Y-125233210D01*
X55722077Y-125233148D01*
X55724906Y-125232168D01*
X55731622Y-125226350D01*
X55745296Y-125216612D01*
X55762053Y-125194453D01*
X55816764Y-125144579D01*
X55853691Y-125095678D01*
X55858278Y-125090278D01*
X55861207Y-125087203D01*
X55862284Y-125086074D01*
X55866302Y-125083752D01*
X55874799Y-125072949D01*
X55884839Y-125062419D01*
X55896455Y-125039050D01*
X55939673Y-124981821D01*
X55966822Y-124927297D01*
X55974339Y-124919189D01*
X55975541Y-124916187D01*
X55986342Y-124895235D01*
X55992993Y-124884884D01*
X55999607Y-124861455D01*
X56030582Y-124799250D01*
X56047598Y-124739443D01*
X56054343Y-124728750D01*
X56055596Y-124722253D01*
X56062240Y-124699626D01*
X56065947Y-124690365D01*
X56067948Y-124667921D01*
X56086397Y-124603083D01*
X56093368Y-124527845D01*
X56094217Y-124521880D01*
X56097510Y-124504799D01*
X56097510Y-124504794D01*
X56101179Y-124485758D01*
X56099173Y-124465195D01*
X56105215Y-124400000D01*
X56099173Y-124334804D01*
X56102180Y-124319433D01*
X56096147Y-124288132D01*
X56094219Y-124278127D01*
X56093368Y-124272148D01*
X56086397Y-124196917D01*
X56067948Y-124132076D01*
X56068091Y-124114986D01*
X56062239Y-124100369D01*
X56055597Y-124077746D01*
X56055152Y-124075440D01*
X56047599Y-124060558D01*
X56030582Y-124000750D01*
X56030581Y-124000747D01*
X56030580Y-124000744D01*
X55999608Y-123938546D01*
X55996365Y-123920359D01*
X55986342Y-123904762D01*
X55975891Y-123884490D01*
X55966824Y-123872705D01*
X55939673Y-123818179D01*
X55939670Y-123818175D01*
X55939669Y-123818173D01*
X55896456Y-123760949D01*
X55889456Y-123742420D01*
X55874797Y-123727047D01*
X55868144Y-123718588D01*
X55862316Y-123713957D01*
X55858299Y-123709744D01*
X55853692Y-123704322D01*
X55843043Y-123690220D01*
X55816766Y-123655422D01*
X55816764Y-123655420D01*
X55762055Y-123605547D01*
X55751101Y-123587519D01*
X55731623Y-123573649D01*
X55726369Y-123569096D01*
X55722065Y-123566842D01*
X55713832Y-123560978D01*
X55708024Y-123556291D01*
X55693766Y-123543293D01*
X55666041Y-123518019D01*
X55666034Y-123518015D01*
X55666032Y-123518013D01*
X55601029Y-123477765D01*
X55586113Y-123461124D01*
X55562029Y-123450126D01*
X55559533Y-123448685D01*
X55557586Y-123448097D01*
X55544104Y-123441940D01*
X55537214Y-123438253D01*
X55508789Y-123420653D01*
X55492637Y-123410652D01*
X55444805Y-123392122D01*
X55418993Y-123382122D01*
X55400320Y-123367772D01*
X55360264Y-123358055D01*
X55358216Y-123357558D01*
X55355155Y-123356815D01*
X55347370Y-123354375D01*
X55316645Y-123342473D01*
X55302456Y-123336976D01*
X55302447Y-123336974D01*
X55302446Y-123336974D01*
X55222284Y-123321988D01*
X55200247Y-123310783D01*
X55153641Y-123308563D01*
X55145191Y-123307577D01*
X55101980Y-123299500D01*
X55101976Y-123299500D01*
X54964834Y-123299500D01*
X54961884Y-123299430D01*
X54947540Y-123298746D01*
X54941649Y-123299028D01*
X54941643Y-123298913D01*
X54933437Y-123299500D01*
X54898024Y-123299500D01*
X54837999Y-123310720D01*
X54750491Y-123327078D01*
X54740072Y-123328576D01*
X54733593Y-123330148D01*
X54730373Y-123330839D01*
X54697548Y-123336975D01*
X54697538Y-123336977D01*
X54544496Y-123396266D01*
X54541915Y-123397159D01*
X54538811Y-123398468D01*
X54507363Y-123410651D01*
X54507361Y-123410652D01*
X54333957Y-123518020D01*
X54183237Y-123655418D01*
X54060327Y-123818178D01*
X53969422Y-124000739D01*
X53969417Y-124000752D01*
X53913602Y-124196917D01*
X53894785Y-124399999D01*
X53894785Y-124400000D01*
X50114288Y-124400000D01*
X50109173Y-124344804D01*
X50112180Y-124329433D01*
X50105582Y-124295201D01*
X50104219Y-124288127D01*
X50103368Y-124282148D01*
X50096397Y-124206917D01*
X50077948Y-124142076D01*
X50078091Y-124124986D01*
X50072239Y-124110369D01*
X50065597Y-124087746D01*
X50065152Y-124085440D01*
X50057599Y-124070558D01*
X50040582Y-124010750D01*
X50040581Y-124010747D01*
X50040580Y-124010744D01*
X50009608Y-123948546D01*
X50006365Y-123930359D01*
X49996342Y-123914762D01*
X49985891Y-123894490D01*
X49976824Y-123882705D01*
X49949673Y-123828179D01*
X49949670Y-123828175D01*
X49949669Y-123828173D01*
X49906456Y-123770949D01*
X49899456Y-123752420D01*
X49884797Y-123737047D01*
X49878144Y-123728588D01*
X49872316Y-123723957D01*
X49868299Y-123719744D01*
X49863692Y-123714322D01*
X49853043Y-123700220D01*
X49826766Y-123665422D01*
X49826764Y-123665420D01*
X49772055Y-123615547D01*
X49761101Y-123597519D01*
X49741623Y-123583649D01*
X49736369Y-123579096D01*
X49732065Y-123576842D01*
X49723832Y-123570978D01*
X49718024Y-123566291D01*
X49703766Y-123553293D01*
X49676041Y-123528019D01*
X49676034Y-123528015D01*
X49676032Y-123528013D01*
X49611029Y-123487765D01*
X49596113Y-123471124D01*
X49572029Y-123460126D01*
X49569533Y-123458685D01*
X49567586Y-123458097D01*
X49554104Y-123451940D01*
X49547214Y-123448253D01*
X49537018Y-123441940D01*
X49502637Y-123420652D01*
X49445373Y-123398468D01*
X49428993Y-123392122D01*
X49410320Y-123377772D01*
X49370264Y-123368055D01*
X49368216Y-123367558D01*
X49365155Y-123366815D01*
X49357370Y-123364375D01*
X49326645Y-123352473D01*
X49312456Y-123346976D01*
X49312447Y-123346974D01*
X49312446Y-123346974D01*
X49232284Y-123331988D01*
X49210247Y-123320783D01*
X49163641Y-123318563D01*
X49155191Y-123317577D01*
X49111980Y-123309500D01*
X49111976Y-123309500D01*
X48974834Y-123309500D01*
X48971884Y-123309430D01*
X48957540Y-123308746D01*
X48951649Y-123309028D01*
X48951643Y-123308913D01*
X48943437Y-123309500D01*
X48908024Y-123309500D01*
X48864816Y-123317577D01*
X48760491Y-123337078D01*
X48750072Y-123338576D01*
X48743593Y-123340148D01*
X48740373Y-123340839D01*
X48707548Y-123346975D01*
X48707538Y-123346977D01*
X48554496Y-123406266D01*
X48551915Y-123407159D01*
X48548811Y-123408468D01*
X48517363Y-123420651D01*
X48517361Y-123420652D01*
X48343957Y-123528020D01*
X48193237Y-123665418D01*
X48070327Y-123828178D01*
X47979422Y-124010739D01*
X47979417Y-124010752D01*
X47923602Y-124206917D01*
X47904785Y-124409999D01*
X47904785Y-124410000D01*
X23000500Y-124410000D01*
X23000500Y-113124500D01*
X23020185Y-113057461D01*
X23072989Y-113011706D01*
X23124500Y-113000500D01*
X31975240Y-113000500D01*
X31975383Y-113000528D01*
X31975384Y-113000524D01*
X31999997Y-113000539D01*
X32000000Y-113000541D01*
X32000383Y-113000383D01*
X32000500Y-113000099D01*
X32000499Y-113000099D01*
X32000541Y-113000000D01*
X32000540Y-112999998D01*
X32006892Y-112985028D01*
X32000521Y-112964747D01*
X32000499Y-112962417D01*
X32000499Y-100000000D01*
X37994537Y-100000000D01*
X38002481Y-100298310D01*
X38002481Y-100372751D01*
X38006443Y-100447091D01*
X38014387Y-100745396D01*
X38038194Y-101042846D01*
X38040621Y-101088379D01*
X38042158Y-101117203D01*
X38042159Y-101117209D01*
X38050073Y-101191245D01*
X38073881Y-101488688D01*
X38113486Y-101784450D01*
X38121401Y-101858490D01*
X38133244Y-101931996D01*
X38172850Y-102227762D01*
X38172851Y-102227763D01*
X38228142Y-102521002D01*
X38239984Y-102594502D01*
X38249660Y-102639243D01*
X38255720Y-102667264D01*
X38310775Y-102959251D01*
X38311013Y-102960510D01*
X38381835Y-103250404D01*
X38397573Y-103323172D01*
X38417156Y-103394980D01*
X38487977Y-103684866D01*
X38574131Y-103970591D01*
X38593715Y-104042401D01*
X38593715Y-104042402D01*
X38617094Y-104113074D01*
X38703246Y-104398787D01*
X38804477Y-104679499D01*
X38827860Y-104750181D01*
X38827860Y-104750182D01*
X38854976Y-104819531D01*
X38956206Y-105100237D01*
X38956205Y-105100236D01*
X39072232Y-105375161D01*
X39091734Y-105425037D01*
X39099341Y-105444491D01*
X39099349Y-105444510D01*
X39099349Y-105444509D01*
X39130108Y-105512296D01*
X39246138Y-105787228D01*
X39376644Y-106055612D01*
X39407404Y-106123399D01*
X39407405Y-106123399D01*
X39441717Y-106189432D01*
X39572223Y-106457814D01*
X39572222Y-106457814D01*
X39716819Y-106718856D01*
X39748619Y-106780053D01*
X39751146Y-106784915D01*
X39783773Y-106840286D01*
X39788940Y-106849055D01*
X39933539Y-107110100D01*
X39933539Y-107110101D01*
X40091815Y-107363061D01*
X40129616Y-107427213D01*
X40170773Y-107489254D01*
X40329053Y-107742221D01*
X40500557Y-107986384D01*
X40500575Y-107986410D01*
X40541731Y-108048450D01*
X40586124Y-108108203D01*
X40757650Y-108352399D01*
X40810185Y-108419313D01*
X40941921Y-108587108D01*
X40986323Y-108646873D01*
X40986332Y-108646885D01*
X41033850Y-108704199D01*
X41218119Y-108938905D01*
X41414635Y-109163491D01*
X41462142Y-109220793D01*
X41476614Y-109236470D01*
X41512639Y-109275495D01*
X41709144Y-109500067D01*
X41917329Y-109713870D01*
X41967827Y-109768571D01*
X42021167Y-109820510D01*
X42229349Y-110034309D01*
X42448612Y-110236723D01*
X42501955Y-110288665D01*
X42501954Y-110288664D01*
X42557975Y-110337683D01*
X42777238Y-110540098D01*
X42777239Y-110540098D01*
X42777243Y-110540102D01*
X43006981Y-110730570D01*
X43063002Y-110779590D01*
X43063001Y-110779589D01*
X43121543Y-110825551D01*
X43303508Y-110976411D01*
X43351282Y-111016019D01*
X43351285Y-111016021D01*
X43351292Y-111016027D01*
X43590816Y-111193979D01*
X43649380Y-111239957D01*
X43710304Y-111282751D01*
X43719544Y-111289616D01*
X43949833Y-111460707D01*
X44198487Y-111625658D01*
X44259427Y-111668463D01*
X44259432Y-111668466D01*
X44259433Y-111668467D01*
X44322555Y-111707961D01*
X44526135Y-111843011D01*
X44571219Y-111872919D01*
X44828297Y-112024400D01*
X44891413Y-112063892D01*
X44891414Y-112063892D01*
X44956549Y-112099972D01*
X45213645Y-112251465D01*
X45213645Y-112251464D01*
X45478458Y-112389068D01*
X45543561Y-112425131D01*
X45543565Y-112425133D01*
X45543576Y-112425139D01*
X45610514Y-112457688D01*
X45875313Y-112595285D01*
X46147042Y-112718586D01*
X46213997Y-112751144D01*
X46213998Y-112751144D01*
X46214004Y-112751147D01*
X46282599Y-112780096D01*
X46554337Y-112903401D01*
X46832261Y-113012071D01*
X46900848Y-113041018D01*
X46970890Y-113066276D01*
X47101325Y-113117278D01*
X47248801Y-113174943D01*
X47361498Y-113212224D01*
X47532141Y-113268676D01*
X47563720Y-113280064D01*
X47602145Y-113293922D01*
X47644848Y-113306797D01*
X47673397Y-113315405D01*
X47956736Y-113409139D01*
X48244649Y-113487655D01*
X48308851Y-113507015D01*
X48315914Y-113509145D01*
X48315913Y-113509145D01*
X48365914Y-113521360D01*
X48388232Y-113526812D01*
X48523406Y-113563675D01*
X48676121Y-113605323D01*
X48676129Y-113605324D01*
X48676130Y-113605325D01*
X48967795Y-113668403D01*
X49040119Y-113686073D01*
X49113266Y-113699864D01*
X49404946Y-113762946D01*
X49699564Y-113810413D01*
X49727109Y-113815607D01*
X49772709Y-113824206D01*
X49772714Y-113824206D01*
X49772716Y-113824207D01*
X49846500Y-113834086D01*
X50067923Y-113869761D01*
X50141115Y-113881554D01*
X50281385Y-113896548D01*
X50437823Y-113913271D01*
X50511627Y-113923155D01*
X50585844Y-113929095D01*
X50882559Y-113960814D01*
X51180576Y-113976697D01*
X51254757Y-113982636D01*
X51329153Y-113984616D01*
X51627167Y-114000500D01*
X51627170Y-114000500D01*
X51925573Y-114000500D01*
X52000000Y-114002482D01*
X52074427Y-114000500D01*
X52372830Y-114000500D01*
X52372833Y-114000500D01*
X52670849Y-113984616D01*
X52745243Y-113982636D01*
X52819426Y-113976697D01*
X53117441Y-113960814D01*
X53414170Y-113929093D01*
X53488373Y-113923155D01*
X53562154Y-113913274D01*
X53788800Y-113889045D01*
X53858885Y-113881554D01*
X53927562Y-113870488D01*
X54153497Y-113834087D01*
X54227284Y-113824207D01*
X54227285Y-113824206D01*
X54227291Y-113824206D01*
X54260639Y-113817917D01*
X54300426Y-113810414D01*
X54595054Y-113762946D01*
X54886722Y-113699866D01*
X54959881Y-113686073D01*
X55032193Y-113668405D01*
X55323870Y-113605325D01*
X55323870Y-113605324D01*
X55323879Y-113605323D01*
X55323878Y-113605323D01*
X55363772Y-113594443D01*
X55611782Y-113526808D01*
X55640117Y-113519886D01*
X55684092Y-113509144D01*
X55715183Y-113499767D01*
X55755330Y-113487661D01*
X56043264Y-113409139D01*
X56326633Y-113315395D01*
X56397853Y-113293922D01*
X56397854Y-113293921D01*
X56397854Y-113293922D01*
X56417066Y-113286993D01*
X56467845Y-113268680D01*
X56671610Y-113201271D01*
X56751199Y-113174943D01*
X56836193Y-113141708D01*
X57029132Y-113066267D01*
X57099152Y-113041018D01*
X57167742Y-113012070D01*
X57445660Y-112903402D01*
X57445660Y-112903403D01*
X57526582Y-112866682D01*
X57717410Y-112780091D01*
X57785996Y-112751147D01*
X57785997Y-112751146D01*
X57786010Y-112751141D01*
X57831063Y-112729232D01*
X57852939Y-112718593D01*
X58014107Y-112645461D01*
X58124688Y-112595285D01*
X58124687Y-112595285D01*
X58124691Y-112595283D01*
X58389512Y-112457674D01*
X58456439Y-112425131D01*
X58456440Y-112425131D01*
X58482890Y-112410478D01*
X58521532Y-112389072D01*
X58786355Y-112251464D01*
X58786355Y-112251465D01*
X58869121Y-112202694D01*
X59043473Y-112099958D01*
X59108572Y-112063900D01*
X59108573Y-112063900D01*
X59108586Y-112063892D01*
X59171703Y-112024400D01*
X59362910Y-111911731D01*
X59428781Y-111872919D01*
X59436410Y-111867858D01*
X59677464Y-111707948D01*
X59740573Y-111668463D01*
X59801494Y-111625670D01*
X60050164Y-111460709D01*
X60050167Y-111460707D01*
X60050176Y-111460701D01*
X60159208Y-111379695D01*
X60289704Y-111282745D01*
X60350623Y-111239955D01*
X60350624Y-111239954D01*
X60350630Y-111239950D01*
X60409183Y-111193979D01*
X60648717Y-111016020D01*
X60674894Y-110994316D01*
X60878472Y-110825537D01*
X60937002Y-110779586D01*
X60993019Y-110730570D01*
X61222757Y-110540102D01*
X61222762Y-110540098D01*
X61222761Y-110540098D01*
X61442040Y-110337668D01*
X61498049Y-110288661D01*
X61551388Y-110236723D01*
X61770652Y-110034308D01*
X61978855Y-109820486D01*
X62032172Y-109768572D01*
X62082648Y-109713892D01*
X62290852Y-109500071D01*
X62487367Y-109275486D01*
X62537846Y-109220806D01*
X62537846Y-109220805D01*
X62537858Y-109220793D01*
X62585356Y-109163500D01*
X62781881Y-108938905D01*
X62966149Y-108704199D01*
X63013677Y-108646873D01*
X63013677Y-108646874D01*
X63023574Y-108633551D01*
X63058079Y-108587106D01*
X63242343Y-108352407D01*
X63242344Y-108352407D01*
X63264624Y-108320686D01*
X63413881Y-108108195D01*
X63458269Y-108048450D01*
X63499398Y-107986447D01*
X63670947Y-107742221D01*
X63829234Y-107489241D01*
X63870386Y-107427209D01*
X63908167Y-107363089D01*
X64066461Y-107110100D01*
X64066461Y-107110101D01*
X64081811Y-107082388D01*
X64211080Y-106849017D01*
X64248852Y-106784919D01*
X64248852Y-106784920D01*
X64283181Y-106718855D01*
X64427773Y-106457821D01*
X64427777Y-106457814D01*
X64558286Y-106189424D01*
X64592610Y-106123370D01*
X64592610Y-106123369D01*
X64623355Y-106055612D01*
X64753859Y-105787235D01*
X64754902Y-105784764D01*
X64869897Y-105512283D01*
X64900654Y-105444503D01*
X64900653Y-105444503D01*
X64900659Y-105444492D01*
X64900659Y-105444491D01*
X64927767Y-105375161D01*
X65043792Y-105100242D01*
X65044577Y-105098066D01*
X65145026Y-104819523D01*
X65172134Y-104750194D01*
X65172136Y-104750193D01*
X65195522Y-104679499D01*
X65296753Y-104398792D01*
X65382905Y-104113074D01*
X65406283Y-104042406D01*
X65406285Y-104042402D01*
X65425868Y-103970591D01*
X65512021Y-103684873D01*
X65512405Y-103683304D01*
X65582843Y-103394981D01*
X65582844Y-103394980D01*
X65602429Y-103323163D01*
X65618157Y-103250434D01*
X65688987Y-102960512D01*
X65744286Y-102667227D01*
X65760016Y-102594502D01*
X65771853Y-102521023D01*
X65809048Y-102323758D01*
X65827150Y-102227762D01*
X65845018Y-102094324D01*
X65866755Y-101931994D01*
X65878599Y-101858487D01*
X65886510Y-101784474D01*
X65926119Y-101488689D01*
X65949927Y-101191234D01*
X65957842Y-101117203D01*
X65961805Y-101042845D01*
X65985613Y-100745396D01*
X65985621Y-100745084D01*
X65993557Y-100447053D01*
X65997519Y-100372753D01*
X65998178Y-100273543D01*
X66005463Y-100000000D01*
X65998178Y-99726456D01*
X65997519Y-99627247D01*
X65993557Y-99552908D01*
X65985613Y-99254599D01*
X65961805Y-98957153D01*
X65961499Y-98951423D01*
X65957842Y-98882797D01*
X65949928Y-98808773D01*
X65926119Y-98511311D01*
X65886511Y-98215534D01*
X65878598Y-98141510D01*
X65866755Y-98068000D01*
X65847289Y-97922640D01*
X65827150Y-97772238D01*
X65803921Y-97649050D01*
X65771855Y-97478987D01*
X65760017Y-97405504D01*
X65760017Y-97405501D01*
X65754190Y-97378560D01*
X65744285Y-97332765D01*
X65688987Y-97039488D01*
X65618161Y-96749584D01*
X65602430Y-96676841D01*
X65602427Y-96676829D01*
X65582843Y-96605019D01*
X65536442Y-96415089D01*
X65512023Y-96315134D01*
X65512023Y-96315135D01*
X65512021Y-96315127D01*
X65425868Y-96029408D01*
X65406283Y-95957594D01*
X65382905Y-95886925D01*
X65296753Y-95601208D01*
X65195522Y-95320500D01*
X65172138Y-95249812D01*
X65145023Y-95180468D01*
X65043792Y-94899758D01*
X64927768Y-94624839D01*
X64916283Y-94595468D01*
X64900654Y-94555497D01*
X64900648Y-94555484D01*
X64900649Y-94555484D01*
X64886347Y-94523968D01*
X64869892Y-94487703D01*
X64753862Y-94212772D01*
X64753861Y-94212771D01*
X64623356Y-93944387D01*
X64592596Y-93876601D01*
X64558282Y-93810567D01*
X64427777Y-93542186D01*
X64427778Y-93542187D01*
X64283180Y-93281143D01*
X64248856Y-93215088D01*
X64248854Y-93215085D01*
X64211054Y-93150935D01*
X64066461Y-92889900D01*
X64066461Y-92889899D01*
X63908184Y-92636938D01*
X63870392Y-92572800D01*
X63829226Y-92510745D01*
X63670947Y-92257779D01*
X63499420Y-92013582D01*
X63458264Y-91951543D01*
X63458264Y-91951542D01*
X63413875Y-91891796D01*
X63242344Y-91647593D01*
X63242343Y-91647593D01*
X63058078Y-91412892D01*
X63013674Y-91353123D01*
X63013673Y-91353122D01*
X63013668Y-91353115D01*
X62966143Y-91295793D01*
X62781877Y-91061090D01*
X62585375Y-90836521D01*
X62537862Y-90779212D01*
X62537858Y-90779207D01*
X62522848Y-90762947D01*
X62487360Y-90724504D01*
X62290856Y-90499933D01*
X62082670Y-90286129D01*
X62032173Y-90231429D01*
X61978832Y-90179489D01*
X61770651Y-89965691D01*
X61551387Y-89763276D01*
X61498045Y-89711335D01*
X61498046Y-89711335D01*
X61442024Y-89662316D01*
X61222762Y-89459902D01*
X61222761Y-89459902D01*
X61222757Y-89459898D01*
X60993015Y-89269426D01*
X60937002Y-89220414D01*
X60923442Y-89209768D01*
X60878455Y-89174448D01*
X60648708Y-88983973D01*
X60409183Y-88806020D01*
X60350624Y-88760046D01*
X60350623Y-88760045D01*
X60350617Y-88760041D01*
X60350611Y-88760036D01*
X60350612Y-88760036D01*
X60289696Y-88717248D01*
X60056731Y-88544170D01*
X60050164Y-88539291D01*
X60048508Y-88538192D01*
X59801512Y-88374340D01*
X59740586Y-88331545D01*
X59677440Y-88292035D01*
X59428781Y-88127081D01*
X59171702Y-87975599D01*
X59108579Y-87936103D01*
X59043451Y-87900027D01*
X58786369Y-87748544D01*
X58786370Y-87748544D01*
X58786359Y-87748538D01*
X58679703Y-87693116D01*
X58521564Y-87610942D01*
X58456439Y-87574868D01*
X58456439Y-87574869D01*
X58389485Y-87542311D01*
X58135012Y-87410080D01*
X58124691Y-87404717D01*
X58124687Y-87404715D01*
X57852956Y-87281413D01*
X57785996Y-87248853D01*
X57717397Y-87219902D01*
X57445663Y-87096599D01*
X57445660Y-87096597D01*
X57167751Y-86987933D01*
X57099157Y-86958984D01*
X57099155Y-86958983D01*
X57099152Y-86958982D01*
X57029109Y-86933723D01*
X56751197Y-86825057D01*
X56751192Y-86825055D01*
X56751193Y-86825055D01*
X56467871Y-86731328D01*
X56397850Y-86706077D01*
X56326591Y-86684590D01*
X56198401Y-86642182D01*
X56043264Y-86590861D01*
X55755381Y-86512352D01*
X55684099Y-86490859D01*
X55684100Y-86490859D01*
X55684094Y-86490857D01*
X55684089Y-86490856D01*
X55657176Y-86484281D01*
X55611760Y-86473185D01*
X55323878Y-86394677D01*
X55323879Y-86394677D01*
X55032218Y-86331599D01*
X54984584Y-86319962D01*
X54959881Y-86313927D01*
X54959876Y-86313926D01*
X54886706Y-86300129D01*
X54695850Y-86258853D01*
X54595054Y-86237054D01*
X54595048Y-86237053D01*
X54300460Y-86189590D01*
X54227285Y-86175793D01*
X54153474Y-86165909D01*
X53858885Y-86118446D01*
X53562181Y-86086728D01*
X53488368Y-86076844D01*
X53464864Y-86074963D01*
X53414147Y-86070903D01*
X53160452Y-86043783D01*
X53117441Y-86039186D01*
X53000055Y-86032929D01*
X52819453Y-86023303D01*
X52771915Y-86019498D01*
X52745243Y-86017364D01*
X52716953Y-86016610D01*
X52670824Y-86015382D01*
X52455548Y-86003908D01*
X52372833Y-85999500D01*
X52074393Y-85999500D01*
X52000000Y-85997519D01*
X51925607Y-85999500D01*
X51627167Y-85999500D01*
X51554532Y-86003371D01*
X51329175Y-86015382D01*
X51281589Y-86016649D01*
X51254757Y-86017364D01*
X51229592Y-86019378D01*
X51180546Y-86023303D01*
X50995798Y-86033150D01*
X50882559Y-86039186D01*
X50843704Y-86043339D01*
X50585852Y-86070903D01*
X50533735Y-86075075D01*
X50511632Y-86076844D01*
X50437818Y-86086728D01*
X50141115Y-86118446D01*
X49846525Y-86165909D01*
X49772715Y-86175793D01*
X49699539Y-86189590D01*
X49404952Y-86237053D01*
X49404946Y-86237054D01*
X49324384Y-86254477D01*
X49113293Y-86300129D01*
X49040128Y-86313925D01*
X49040126Y-86313925D01*
X49040119Y-86313927D01*
X49016537Y-86319688D01*
X48967780Y-86331599D01*
X48676121Y-86394677D01*
X48388239Y-86473185D01*
X48336756Y-86485763D01*
X48315911Y-86490856D01*
X48315905Y-86490857D01*
X48315900Y-86490859D01*
X48244631Y-86512349D01*
X48180748Y-86529770D01*
X47956736Y-86590861D01*
X47855690Y-86624288D01*
X47673408Y-86684590D01*
X47602156Y-86706075D01*
X47602157Y-86706075D01*
X47602147Y-86706078D01*
X47560257Y-86721184D01*
X47532128Y-86731328D01*
X47248807Y-86825055D01*
X47248808Y-86825055D01*
X46970889Y-86933723D01*
X46900848Y-86958982D01*
X46900849Y-86958981D01*
X46832248Y-86987933D01*
X46554340Y-87096597D01*
X46554337Y-87096599D01*
X46421163Y-87157028D01*
X46282602Y-87219902D01*
X46214004Y-87248853D01*
X46147043Y-87281413D01*
X46006660Y-87345114D01*
X45875309Y-87404717D01*
X45827472Y-87429574D01*
X45610515Y-87542310D01*
X45543547Y-87574876D01*
X45543546Y-87574877D01*
X45478435Y-87610943D01*
X45354118Y-87675542D01*
X45213641Y-87748538D01*
X45213629Y-87748544D01*
X45213631Y-87748544D01*
X44956549Y-87900027D01*
X44907397Y-87927254D01*
X44891419Y-87936105D01*
X44891414Y-87936107D01*
X44891416Y-87936107D01*
X44828297Y-87975599D01*
X44571214Y-88127084D01*
X44571215Y-88127084D01*
X44322559Y-88292035D01*
X44282786Y-88316921D01*
X44259427Y-88331537D01*
X44259423Y-88331540D01*
X44259424Y-88331539D01*
X44198487Y-88374341D01*
X43951980Y-88537868D01*
X43949836Y-88539291D01*
X43943269Y-88544170D01*
X43710304Y-88717248D01*
X43649376Y-88760046D01*
X43590816Y-88806020D01*
X43351292Y-88983973D01*
X43121544Y-89174447D01*
X43073706Y-89212006D01*
X43062998Y-89220414D01*
X43062992Y-89220418D01*
X43062991Y-89220420D01*
X43006981Y-89269429D01*
X42777239Y-89459901D01*
X42777238Y-89459902D01*
X42557975Y-89662316D01*
X42501944Y-89711345D01*
X42448611Y-89763276D01*
X42229349Y-89965691D01*
X42021167Y-90179489D01*
X41967827Y-90231429D01*
X41917329Y-90286129D01*
X41819891Y-90386197D01*
X41709148Y-90499929D01*
X41709136Y-90499943D01*
X41709135Y-90499943D01*
X41512639Y-90724505D01*
X41476614Y-90763529D01*
X41462142Y-90779207D01*
X41462138Y-90779212D01*
X41462137Y-90779213D01*
X41414624Y-90836521D01*
X41296619Y-90971381D01*
X41218119Y-91061095D01*
X41218116Y-91061099D01*
X41218116Y-91061098D01*
X41033856Y-91295793D01*
X40986325Y-91353124D01*
X40986325Y-91353125D01*
X40941915Y-91412899D01*
X40757650Y-91647601D01*
X40586124Y-91891796D01*
X40541733Y-91951547D01*
X40500580Y-92013582D01*
X40329053Y-92257779D01*
X40326991Y-92261075D01*
X40170773Y-92510745D01*
X40130944Y-92570785D01*
X40129614Y-92572791D01*
X40129609Y-92572800D01*
X40091815Y-92636938D01*
X39933539Y-92889899D01*
X39933539Y-92889900D01*
X39788940Y-93150946D01*
X39751147Y-93215082D01*
X39751147Y-93215081D01*
X39716819Y-93281143D01*
X39572223Y-93542186D01*
X39441717Y-93810567D01*
X39410704Y-93870251D01*
X39407399Y-93876612D01*
X39400291Y-93892276D01*
X39376644Y-93944387D01*
X39246138Y-94212772D01*
X39130108Y-94487703D01*
X39099346Y-94555497D01*
X39089029Y-94581880D01*
X39072232Y-94624838D01*
X38956205Y-94899764D01*
X38956206Y-94899763D01*
X38854976Y-95180468D01*
X38827860Y-95249818D01*
X38827860Y-95249819D01*
X38804477Y-95320500D01*
X38703246Y-95601213D01*
X38617094Y-95886924D01*
X38593713Y-95957604D01*
X38574131Y-96029408D01*
X38487977Y-96315134D01*
X38487977Y-96315135D01*
X38417156Y-96605019D01*
X38397573Y-96676828D01*
X38397573Y-96676829D01*
X38381835Y-96749595D01*
X38340030Y-96920712D01*
X38311013Y-97039488D01*
X38283630Y-97184710D01*
X38255720Y-97332735D01*
X38239983Y-97405504D01*
X38228142Y-97478997D01*
X38172851Y-97772237D01*
X38172850Y-97772238D01*
X38133244Y-98068003D01*
X38121401Y-98141510D01*
X38113486Y-98215549D01*
X38073881Y-98511312D01*
X38050073Y-98808754D01*
X38042158Y-98882797D01*
X38040594Y-98912136D01*
X38038194Y-98957153D01*
X38014387Y-99254604D01*
X38006443Y-99552908D01*
X38002481Y-99627249D01*
X38002481Y-99701689D01*
X37994537Y-100000000D01*
X32000499Y-100000000D01*
X32000499Y-83008338D01*
X32000539Y-83000002D01*
X32000541Y-83000000D01*
X32000383Y-82999617D01*
X32000382Y-82999616D01*
X32000099Y-82999500D01*
X32000000Y-82999459D01*
X31975446Y-82999459D01*
X31975240Y-82999500D01*
X23124500Y-82999500D01*
X23057461Y-82979815D01*
X23011706Y-82927011D01*
X23000500Y-82875500D01*
X23000500Y-80187500D01*
X23800000Y-80187500D01*
X23800000Y-80230815D01*
X23810407Y-80332673D01*
X23865094Y-80497709D01*
X23865096Y-80497714D01*
X23956370Y-80645691D01*
X24079308Y-80768629D01*
X24227285Y-80859903D01*
X24227290Y-80859905D01*
X24392326Y-80914592D01*
X24494184Y-80924999D01*
X24494197Y-80925000D01*
X24750000Y-80925000D01*
X24750000Y-80187500D01*
X25250000Y-80187500D01*
X25250000Y-80925000D01*
X25505803Y-80925000D01*
X25505815Y-80924999D01*
X25607673Y-80914592D01*
X25772709Y-80859905D01*
X25772714Y-80859903D01*
X25920691Y-80768629D01*
X26043629Y-80645691D01*
X26134903Y-80497714D01*
X26134905Y-80497709D01*
X26189592Y-80332673D01*
X26199999Y-80230815D01*
X26200000Y-80230802D01*
X26200000Y-80187500D01*
X25250000Y-80187500D01*
X24750000Y-80187500D01*
X23800000Y-80187500D01*
X23000500Y-80187500D01*
X23000500Y-62001439D01*
X23000533Y-62000002D01*
X23745227Y-62000002D01*
X23764306Y-62351900D01*
X23764308Y-62351917D01*
X23821319Y-62699667D01*
X23821325Y-62699693D01*
X23915600Y-63039243D01*
X23915602Y-63039250D01*
X24046043Y-63366634D01*
X24046052Y-63366652D01*
X24211124Y-63678011D01*
X24408896Y-63969702D01*
X24531914Y-64114532D01*
X25607413Y-63039032D01*
X25668736Y-63005547D01*
X25738427Y-63010531D01*
X25789381Y-63046179D01*
X25865130Y-63134870D01*
X25905473Y-63169326D01*
X25953816Y-63210615D01*
X25992009Y-63269122D01*
X25992507Y-63338990D01*
X25960965Y-63392586D01*
X24882625Y-64470926D01*
X24882625Y-64470928D01*
X24892900Y-64480660D01*
X25173460Y-64693938D01*
X25173464Y-64693941D01*
X25475445Y-64875635D01*
X25795273Y-65023603D01*
X26129256Y-65136136D01*
X26473437Y-65211896D01*
X26823788Y-65249999D01*
X26823795Y-65250000D01*
X27176205Y-65250000D01*
X27176211Y-65249999D01*
X27526562Y-65211896D01*
X27870743Y-65136136D01*
X28204726Y-65023603D01*
X28524554Y-64875635D01*
X28826535Y-64693941D01*
X28826539Y-64693938D01*
X29107093Y-64480665D01*
X29107105Y-64480654D01*
X29117373Y-64470927D01*
X29117373Y-64470926D01*
X28039033Y-63392586D01*
X28005548Y-63331263D01*
X28010532Y-63261571D01*
X28046180Y-63210617D01*
X28134870Y-63134870D01*
X28210617Y-63046180D01*
X28269121Y-63007990D01*
X28338989Y-63007490D01*
X28392586Y-63039033D01*
X29468084Y-64114532D01*
X29468085Y-64114531D01*
X29591102Y-63969704D01*
X29788875Y-63678011D01*
X29953947Y-63366652D01*
X29953956Y-63366634D01*
X30084397Y-63039250D01*
X30084399Y-63039243D01*
X30178674Y-62699693D01*
X30178680Y-62699667D01*
X30235691Y-62351917D01*
X30235693Y-62351900D01*
X30254773Y-62000002D01*
X30254773Y-61999997D01*
X30235693Y-61648099D01*
X30235691Y-61648082D01*
X30178680Y-61300332D01*
X30178674Y-61300306D01*
X30084399Y-60960756D01*
X30084397Y-60960749D01*
X29953956Y-60633365D01*
X29953947Y-60633347D01*
X29788875Y-60321988D01*
X29591099Y-60030291D01*
X29468085Y-59885467D01*
X29468084Y-59885466D01*
X28392586Y-60960965D01*
X28331263Y-60994450D01*
X28261571Y-60989466D01*
X28210615Y-60953816D01*
X28167042Y-60902799D01*
X28134870Y-60865130D01*
X28046179Y-60789381D01*
X28007989Y-60730878D01*
X28007489Y-60661010D01*
X28039032Y-60607413D01*
X29117374Y-59529072D01*
X29107099Y-59519340D01*
X29107087Y-59519330D01*
X28826539Y-59306061D01*
X28826535Y-59306058D01*
X28524554Y-59124364D01*
X28204726Y-58976396D01*
X27870743Y-58863863D01*
X27526562Y-58788103D01*
X27176211Y-58750000D01*
X26823788Y-58750000D01*
X26473437Y-58788103D01*
X26129256Y-58863863D01*
X25795273Y-58976396D01*
X25475445Y-59124364D01*
X25173464Y-59306058D01*
X25173460Y-59306061D01*
X24892906Y-59519334D01*
X24882625Y-59529071D01*
X24882625Y-59529073D01*
X25960966Y-60607413D01*
X25994451Y-60668736D01*
X25989467Y-60738428D01*
X25953817Y-60789384D01*
X25865130Y-60865130D01*
X25789384Y-60953817D01*
X25730877Y-60992010D01*
X25661009Y-60992508D01*
X25607413Y-60960966D01*
X24531914Y-59885466D01*
X24531913Y-59885466D01*
X24408896Y-60030296D01*
X24211124Y-60321988D01*
X24046052Y-60633347D01*
X24046043Y-60633365D01*
X23915602Y-60960749D01*
X23915600Y-60960756D01*
X23821325Y-61300306D01*
X23821319Y-61300332D01*
X23764308Y-61648082D01*
X23764306Y-61648099D01*
X23745227Y-61999997D01*
X23745227Y-62000002D01*
X23000533Y-62000002D01*
X23000566Y-61998576D01*
X23007392Y-61850923D01*
X23008490Y-61827168D01*
X23010775Y-61780668D01*
X23018302Y-61627446D01*
X23018818Y-61621955D01*
X23044670Y-61436633D01*
X23072331Y-61250162D01*
X23073292Y-61245137D01*
X23116689Y-61060626D01*
X23161993Y-60879764D01*
X23163323Y-60875216D01*
X23223915Y-60694431D01*
X23286457Y-60519641D01*
X23288100Y-60515527D01*
X23365368Y-60340530D01*
X23444615Y-60172977D01*
X23446444Y-60169423D01*
X23539781Y-60001852D01*
X23634990Y-59843005D01*
X23636979Y-59839904D01*
X23745570Y-59681381D01*
X23855924Y-59532586D01*
X23857928Y-59530033D01*
X23980875Y-59381973D01*
X24105351Y-59244636D01*
X24107361Y-59242526D01*
X24242526Y-59107361D01*
X24244636Y-59105351D01*
X24381973Y-58980875D01*
X24530033Y-58857928D01*
X24532586Y-58855924D01*
X24681381Y-58745570D01*
X24839904Y-58636979D01*
X24843005Y-58634990D01*
X25001858Y-58539778D01*
X25169423Y-58446444D01*
X25172977Y-58444615D01*
X25340530Y-58365368D01*
X25515538Y-58288095D01*
X25519641Y-58286457D01*
X25694431Y-58223915D01*
X25875216Y-58163323D01*
X25879764Y-58161993D01*
X26060626Y-58116689D01*
X26245137Y-58073292D01*
X26250162Y-58072331D01*
X26436651Y-58044667D01*
X26621955Y-58018818D01*
X26627446Y-58018302D01*
X26826958Y-58008500D01*
X26968945Y-58001935D01*
X26998577Y-58000566D01*
X27001440Y-58000500D01*
X33454500Y-58000500D01*
X33521539Y-58020185D01*
G37*
%TD.AperFunction*%
%TA.AperFunction,Conductor*%
G36*
X60830210Y-68973363D02*
G01*
X60881686Y-69020607D01*
X60899499Y-69084641D01*
X60899500Y-71897763D01*
X60897783Y-71918328D01*
X60897311Y-71921130D01*
X60897311Y-71921133D01*
X60899500Y-72013083D01*
X60899500Y-72052420D01*
X60900536Y-72063287D01*
X60900799Y-72067700D01*
X60901529Y-72098335D01*
X60902313Y-72131245D01*
X60909931Y-72166267D01*
X60911064Y-72173535D01*
X60913296Y-72196899D01*
X60914472Y-72209217D01*
X60914473Y-72209225D01*
X60932380Y-72270209D01*
X60933475Y-72274498D01*
X60946985Y-72336608D01*
X60946988Y-72336615D01*
X60961093Y-72369556D01*
X60963589Y-72376498D01*
X60973681Y-72410869D01*
X60973683Y-72410874D01*
X61002814Y-72467381D01*
X61004701Y-72471385D01*
X61029718Y-72529807D01*
X61029721Y-72529812D01*
X61049807Y-72559489D01*
X61053568Y-72565829D01*
X61069988Y-72597681D01*
X61109289Y-72647656D01*
X61111901Y-72651232D01*
X61147520Y-72703861D01*
X61147526Y-72703868D01*
X61172859Y-72729201D01*
X61177758Y-72734721D01*
X61199905Y-72762883D01*
X61199909Y-72762887D01*
X61247951Y-72804516D01*
X61251191Y-72807533D01*
X61631477Y-73187819D01*
X61664962Y-73249142D01*
X61659978Y-73318834D01*
X61618106Y-73374767D01*
X61552642Y-73399184D01*
X61543796Y-73399500D01*
X58952482Y-73399500D01*
X58885443Y-73379815D01*
X58839688Y-73327011D01*
X58829744Y-73257853D01*
X58858769Y-73194297D01*
X58862737Y-73189932D01*
X58863851Y-73188762D01*
X58868986Y-73183378D01*
X58982613Y-73006572D01*
X59060725Y-72811457D01*
X59100500Y-72605085D01*
X59100500Y-72283565D01*
X59101761Y-72265939D01*
X59104254Y-72248602D01*
X59100570Y-72171258D01*
X59100500Y-72168308D01*
X59100500Y-72143582D01*
X59100500Y-72143575D01*
X59098145Y-72118926D01*
X59097937Y-72116011D01*
X59097095Y-72098335D01*
X59094254Y-72038670D01*
X59090126Y-72021655D01*
X59087191Y-72004207D01*
X59085528Y-71986782D01*
X59063716Y-71912503D01*
X59062955Y-71909660D01*
X59044704Y-71834424D01*
X59037428Y-71818491D01*
X59031247Y-71801917D01*
X59026317Y-71785129D01*
X59026316Y-71785125D01*
X58990839Y-71716308D01*
X58989550Y-71713654D01*
X58957395Y-71643245D01*
X58953746Y-71638122D01*
X58947240Y-71628985D01*
X58938035Y-71613884D01*
X58930011Y-71598318D01*
X58911765Y-71575117D01*
X58882155Y-71537464D01*
X58880403Y-71535125D01*
X58835486Y-71472048D01*
X58822810Y-71459961D01*
X58810913Y-71446874D01*
X58800092Y-71433114D01*
X58800085Y-71433107D01*
X58741584Y-71382415D01*
X58739401Y-71380431D01*
X58683380Y-71327016D01*
X58683378Y-71327014D01*
X58683372Y-71327010D01*
X58668651Y-71317549D01*
X58654488Y-71306947D01*
X58641256Y-71295481D01*
X58574203Y-71256767D01*
X58571684Y-71255231D01*
X58542029Y-71236173D01*
X58506572Y-71213387D01*
X58490320Y-71206880D01*
X58474414Y-71199154D01*
X58459244Y-71190396D01*
X58459243Y-71190395D01*
X58459242Y-71190395D01*
X58386087Y-71165076D01*
X58383322Y-71164045D01*
X58311457Y-71135275D01*
X58294268Y-71131962D01*
X58277178Y-71127382D01*
X58268739Y-71124461D01*
X58221617Y-71094963D01*
X58186335Y-71059681D01*
X58152850Y-70998358D01*
X58157834Y-70928666D01*
X58199706Y-70872733D01*
X58265170Y-70848316D01*
X58274016Y-70848000D01*
X58407788Y-70848000D01*
X58407801Y-70847999D01*
X58720872Y-70808449D01*
X58720881Y-70808447D01*
X59026550Y-70729964D01*
X59319957Y-70613797D01*
X59319965Y-70613793D01*
X59596498Y-70461768D01*
X59596509Y-70461761D01*
X59840752Y-70284306D01*
X59840753Y-70284306D01*
X59218861Y-69662415D01*
X59185376Y-69601092D01*
X59190360Y-69531401D01*
X59222556Y-69483507D01*
X59357368Y-69359404D01*
X59387367Y-69320861D01*
X59444071Y-69280051D01*
X59513844Y-69276375D01*
X59572898Y-69309344D01*
X60191395Y-69927842D01*
X60283033Y-69817070D01*
X60452119Y-69550632D01*
X60586490Y-69265079D01*
X60657568Y-69046323D01*
X60697005Y-68988648D01*
X60761363Y-68961449D01*
X60830210Y-68973363D01*
G37*
%TD.AperFunction*%
%TD*%
M02*
