M48
; DRILL file {KiCad 7.0.7-rc1} date 2024 March 01, Friday 23:28:43
; FORMAT={-:-/ absolute / inch / decimal}
; #@! TF.CreationDate,2024-03-01T23:28:43-05:00
; #@! TF.GenerationSoftware,Kicad,Pcbnew,7.0.7-rc1
; #@! TF.FileFunction,Plated,1,2,PTH
FMAT,2
INCH
; #@! TA.AperFunction,Plated,PTH,ViaDrill
T1C0.0157
; #@! TA.AperFunction,Plated,PTH,ComponentDrill
T2C0.0197
; #@! TA.AperFunction,Plated,PTH,ComponentDrill
T3C0.0217
; #@! TA.AperFunction,Plated,PTH,ComponentDrill
T4C0.0394
; #@! TA.AperFunction,Plated,PTH,ComponentDrill
T5C0.0689
; #@! TA.AperFunction,Plated,PTH,ComponentDrill
T6C0.1181
; #@! TA.AperFunction,Plated,PTH,ComponentDrill
T7C0.1260
%
G90
G05
T1
X1.1811Y-3.1471
X1.4461Y-2.7665
X1.752Y-2.4409
X1.9291Y-2.3228
X2.0472Y-2.4016
X2.1654Y-2.5197
X2.2835Y-2.8543
X2.4409Y-2.4016
X2.5591Y-2.6378
X2.6969Y-3.0512
X2.7559Y-2.5158
X2.9528Y-2.9134
X3.1102Y-2.9134
T4
X1.9783Y-2.7201
X1.9941Y-2.6378
X2.0472Y-2.6906
X2.0472Y-2.7654
X2.1004Y-2.6378
X2.1161Y-2.7201
T5
X1.5157Y-5.1969
X1.7283Y-5.1969
X1.9409Y-5.1969
X2.1535Y-5.1969
X2.3661Y-5.1969
X2.5787Y-5.1969
T6
X1.8012Y-2.6906
X2.2933Y-2.6906
T7
X1.063Y-2.4409
X1.063Y-5.1969
X3.0315Y-2.4409
X3.0315Y-5.1969
T2
G00X2.5787Y-2.3553
M15
G01X2.5787Y-2.3297
M16
G05
G00X2.8543Y-2.3553
M15
G01X2.8543Y-2.3297
M16
G05
T3
G00X2.624Y-2.4488
M15
G01X2.6122Y-2.4488
M16
G05
G00X2.8209Y-2.4488
M15
G01X2.8091Y-2.4488
M16
G05
T0
M30
