%TF.GenerationSoftware,KiCad,Pcbnew,7.0.7-rc1*%
%TF.CreationDate,2024-03-01T23:28:45-05:00*%
%TF.ProjectId,COMPCBSTATIC,434f4d50-4342-4535-9441-5449432e6b69,rev?*%
%TF.SameCoordinates,Original*%
%TF.FileFunction,Profile,NP*%
%FSLAX46Y46*%
G04 Gerber Fmt 4.6, Leading zero omitted, Abs format (unit mm)*
G04 Created by KiCad (PCBNEW 7.0.7-rc1) date 2024-03-01 23:28:45*
%MOMM*%
%LPD*%
G01*
G04 APERTURE LIST*
%TA.AperFunction,Profile*%
%ADD10C,0.100000*%
%TD*%
%TA.AperFunction,Profile*%
%ADD11C,0.150000*%
%TD*%
G04 APERTURE END LIST*
D10*
X23000000Y-83000000D02*
X23000000Y-62000000D01*
X23000000Y-83000000D02*
X32000000Y-83000000D01*
X81000000Y-62000000D02*
X81000000Y-83000000D01*
X77000000Y-136000000D02*
G75*
G03*
X81000000Y-132000000I0J4000000D01*
G01*
X66000000Y-100000000D02*
G75*
G03*
X66000000Y-100000000I-14000000J0D01*
G01*
D11*
X56100000Y-124400000D02*
G75*
G03*
X56100000Y-124400000I-1100000J0D01*
G01*
X50120000Y-75610000D02*
G75*
G03*
X50120000Y-75610000I-1100000J0D01*
G01*
D10*
X27000000Y-58000000D02*
G75*
G03*
X23000000Y-62000000I0J-4000000D01*
G01*
X72000000Y-83000000D02*
X81000000Y-83000000D01*
X27000000Y-58000000D02*
X77000000Y-58000000D01*
X72000000Y-83000000D02*
X72000000Y-113000000D01*
X77000000Y-136000000D02*
X27000000Y-136000000D01*
X81000000Y-62000000D02*
G75*
G03*
X77000000Y-58000000I-4000000J0D01*
G01*
D11*
X56100000Y-75600000D02*
G75*
G03*
X56100000Y-75600000I-1100000J0D01*
G01*
D10*
X23000000Y-113000000D02*
X32000000Y-113000000D01*
X72000000Y-113000000D02*
X81000000Y-113000000D01*
D11*
X50110000Y-124410000D02*
G75*
G03*
X50110000Y-124410000I-1100000J0D01*
G01*
D10*
X32000000Y-113000000D02*
X32000000Y-83000000D01*
X81000000Y-113000000D02*
X81000000Y-132000000D01*
X23000000Y-132000000D02*
G75*
G03*
X27000000Y-136000000I4000000J0D01*
G01*
X23000000Y-132000000D02*
X23000000Y-113000000D01*
M02*
