%TF.GenerationSoftware,KiCad,Pcbnew,7.0.7-rc1*%
%TF.CreationDate,2024-03-01T23:28:45-05:00*%
%TF.ProjectId,COMPCBSTATIC,434f4d50-4342-4535-9441-5449432e6b69,rev?*%
%TF.SameCoordinates,Original*%
%TF.FileFunction,Copper,L2,Bot*%
%TF.FilePolarity,Positive*%
%FSLAX46Y46*%
G04 Gerber Fmt 4.6, Leading zero omitted, Abs format (unit mm)*
G04 Created by KiCad (PCBNEW 7.0.7-rc1) date 2024-03-01 23:28:45*
%MOMM*%
%LPD*%
G01*
G04 APERTURE LIST*
G04 Aperture macros list*
%AMRoundRect*
0 Rectangle with rounded corners*
0 $1 Rounding radius*
0 $2 $3 $4 $5 $6 $7 $8 $9 X,Y pos of 4 corners*
0 Add a 4 corners polygon primitive as box body*
4,1,4,$2,$3,$4,$5,$6,$7,$8,$9,$2,$3,0*
0 Add four circle primitives for the rounded corners*
1,1,$1+$1,$2,$3*
1,1,$1+$1,$4,$5*
1,1,$1+$1,$6,$7*
1,1,$1+$1,$8,$9*
0 Add four rect primitives between the rounded corners*
20,1,$1+$1,$2,$3,$4,$5,0*
20,1,$1+$1,$4,$5,$6,$7,0*
20,1,$1+$1,$6,$7,$8,$9,0*
20,1,$1+$1,$8,$9,$2,$3,0*%
G04 Aperture macros list end*
%TA.AperFunction,ComponentPad*%
%ADD10O,0.890000X1.550000*%
%TD*%
%TA.AperFunction,ComponentPad*%
%ADD11O,1.250000X0.950000*%
%TD*%
%TA.AperFunction,ComponentPad*%
%ADD12RoundRect,0.250000X1.125000X1.125000X-1.125000X1.125000X-1.125000X-1.125000X1.125000X-1.125000X0*%
%TD*%
%TA.AperFunction,ComponentPad*%
%ADD13C,2.750000*%
%TD*%
%TA.AperFunction,ComponentPad*%
%ADD14C,5.500000*%
%TD*%
%TA.AperFunction,ComponentPad*%
%ADD15C,1.508000*%
%TD*%
%TA.AperFunction,ComponentPad*%
%ADD16C,4.016000*%
%TD*%
%TA.AperFunction,ViaPad*%
%ADD17C,0.800000*%
%TD*%
%TA.AperFunction,Conductor*%
%ADD18C,1.200000*%
%TD*%
%TA.AperFunction,Conductor*%
%ADD19C,0.500000*%
%TD*%
%TA.AperFunction,Conductor*%
%ADD20C,0.700000*%
%TD*%
G04 APERTURE END LIST*
D10*
%TO.P,J2,6,Shield*%
%TO.N,unconnected-(J2-Shield-Pad6)*%
X72500000Y-59500000D03*
D11*
X71500000Y-62200000D03*
X66500000Y-62200000D03*
D10*
X65500000Y-59500000D03*
%TD*%
D12*
%TO.P,J4,1,Pin_1*%
%TO.N,Net-(J1-Pin_1)*%
X65500000Y-132000000D03*
D13*
%TO.P,J4,2,Pin_2*%
%TO.N,Net-(J1-Pin_2)*%
X60100000Y-132000000D03*
%TO.P,J4,3,Pin_3*%
%TO.N,Net-(J1-Pin_3)*%
X54700000Y-132000000D03*
%TO.P,J4,4,Pin_4*%
%TO.N,Net-(J1-Pin_4)*%
X49300000Y-132000000D03*
%TO.P,J4,5,Pin_5*%
%TO.N,Net-(J1-Pin_5)*%
X43900000Y-132000000D03*
%TO.P,J4,6,Pin_6*%
%TO.N,GND*%
X38500000Y-132000000D03*
%TD*%
D14*
%TO.P,H2,1,1*%
%TO.N,GND*%
X77000000Y-132000000D03*
%TD*%
%TO.P,H1,1,1*%
%TO.N,GND*%
X27000000Y-132000000D03*
%TD*%
D15*
%TO.P,J3,1,1*%
%TO.N,GND*%
X50650000Y-67000000D03*
%TO.P,J3,2,2*%
%TO.N,Net-(J3-Pad2)*%
X53350000Y-67000000D03*
%TO.P,J3,3,3*%
%TO.N,Net-(J1-Pin_4)*%
X53750000Y-69090000D03*
%TO.P,J3,4,4*%
%TO.N,Net-(J1-Pin_3)*%
X52000000Y-70240000D03*
%TO.P,J3,5,5*%
%TO.N,Net-(J1-Pin_2)*%
X50250000Y-69090000D03*
%TO.P,J3,6,6*%
%TO.N,Net-(J1-Pin_1)*%
X52000000Y-68340000D03*
D16*
%TO.P,J3,S1,SHIELD*%
%TO.N,GND*%
X58250000Y-68340000D03*
%TO.P,J3,S2,SHIELD*%
X45750000Y-68340000D03*
%TD*%
D14*
%TO.P,H3,1,1*%
%TO.N,GND*%
X27000000Y-62000000D03*
%TD*%
%TO.P,H4,1,1*%
%TO.N,GND*%
X77000000Y-62000000D03*
%TD*%
D17*
%TO.N,GND*%
X49000000Y-59000000D03*
X30000000Y-79937500D03*
%TO.N,Net-(D1-A)*%
X75000000Y-74000000D03*
X79000000Y-74000000D03*
%TO.N,Net-(J1-Pin_2)*%
X68500000Y-77500000D03*
X52000000Y-61000000D03*
%TO.N,Net-(J1-Pin_1)*%
X55000000Y-64000000D03*
%TO.N,Net-(J1-Pin_3)*%
X58000000Y-72500000D03*
%TO.N,Net-(J3-Pad2)*%
X65000000Y-67000000D03*
%TO.N,Net-(J1-Pin_5)*%
X36730000Y-70270000D03*
%TO.N,Net-(J2-VBUS)*%
X44500000Y-62000000D03*
X70000000Y-63900500D03*
X62000000Y-61000000D03*
%TD*%
D18*
%TO.N,GND*%
X31531250Y-81468750D02*
X30000000Y-79937500D01*
D19*
X43500000Y-59000000D02*
X39955000Y-62545000D01*
D18*
X32600000Y-126400000D02*
X32600000Y-82537500D01*
X71400000Y-126400000D02*
X71400000Y-69500000D01*
D20*
X39955000Y-62545000D02*
X45750000Y-68340000D01*
D18*
X71400000Y-67600000D02*
X77000000Y-62000000D01*
X58250000Y-68340000D02*
X59410000Y-69500000D01*
D19*
X49000000Y-59000000D02*
X43500000Y-59000000D01*
D18*
X32600000Y-82537500D02*
X31531250Y-81468750D01*
X77000000Y-132000000D02*
X71400000Y-126400000D01*
D20*
X27000000Y-62000000D02*
X39410000Y-62000000D01*
D18*
X31531250Y-66531250D02*
X27000000Y-62000000D01*
X71400000Y-69500000D02*
X71400000Y-67600000D01*
X27000000Y-132000000D02*
X38500000Y-132000000D01*
X59410000Y-69500000D02*
X71400000Y-69500000D01*
D20*
X39410000Y-62000000D02*
X39955000Y-62545000D01*
D18*
X31531250Y-81468750D02*
X31531250Y-66531250D01*
X27000000Y-132000000D02*
X32600000Y-126400000D01*
%TO.N,Net-(D1-A)*%
X79000000Y-74000000D02*
X75000000Y-74000000D01*
D20*
%TO.N,Net-(J1-Pin_2)*%
X49346000Y-68186000D02*
X50250000Y-69090000D01*
D18*
X69500000Y-78500000D02*
X68500000Y-77500000D01*
D20*
X49346000Y-63654000D02*
X49346000Y-68186000D01*
D18*
X69500000Y-122600000D02*
X69500000Y-78500000D01*
X60100000Y-132000000D02*
X69500000Y-122600000D01*
D20*
X52000000Y-61000000D02*
X49346000Y-63654000D01*
D19*
%TO.N,unconnected-(J2-Shield-Pad6)*%
X71500000Y-60500000D02*
X72500000Y-59500000D01*
X71500000Y-62200000D02*
X71500000Y-60500000D01*
X66500000Y-62200000D02*
X66500000Y-60500000D01*
X66500000Y-60500000D02*
X65500000Y-59500000D01*
D20*
%TO.N,Net-(J1-Pin_1)*%
X52000000Y-66505865D02*
X52000000Y-68340000D01*
X55000000Y-64000000D02*
X54505865Y-64000000D01*
X54505865Y-64000000D02*
X52000000Y-66505865D01*
D18*
%TO.N,Net-(J1-Pin_3)*%
X66606655Y-120093345D02*
X66606655Y-81106655D01*
X66606655Y-81106655D02*
X58000000Y-72500000D01*
X54700000Y-132000000D02*
X66606655Y-120093345D01*
%TO.N,Net-(J1-Pin_4)*%
X51937688Y-72500000D02*
X53750000Y-70687688D01*
X36500000Y-82500000D02*
X46500000Y-72500000D01*
X46500000Y-72500000D02*
X51937688Y-72500000D01*
X53750000Y-70687688D02*
X53750000Y-69090000D01*
X49300000Y-132000000D02*
X36500000Y-119200000D01*
X36500000Y-119200000D02*
X36500000Y-82500000D01*
%TO.N,Net-(J3-Pad2)*%
X54818000Y-65532000D02*
X53350000Y-67000000D01*
X65000000Y-67000000D02*
X63532000Y-65532000D01*
X63532000Y-65532000D02*
X54818000Y-65532000D01*
%TO.N,Net-(J1-Pin_5)*%
X34000000Y-73000000D02*
X36730000Y-70270000D01*
X34500000Y-81000000D02*
X34500000Y-122600000D01*
X43900000Y-132000000D02*
X34700000Y-122800000D01*
X34000000Y-73000000D02*
X34000000Y-80500000D01*
X34000000Y-80500000D02*
X34500000Y-81000000D01*
X34500000Y-122600000D02*
X34700000Y-122800000D01*
D19*
%TO.N,Net-(J2-VBUS)*%
X70000000Y-63900500D02*
X64900500Y-63900500D01*
D18*
X44500000Y-62000000D02*
X49302943Y-62000000D01*
X51502943Y-59800000D02*
X60800000Y-59800000D01*
X49302943Y-62000000D02*
X51502943Y-59800000D01*
D19*
X64900500Y-63900500D02*
X62000000Y-61000000D01*
D18*
X60800000Y-59800000D02*
X62000000Y-61000000D01*
%TD*%
%TA.AperFunction,Conductor*%
%TO.N,GND*%
G36*
X65328931Y-58020185D02*
G01*
X65374686Y-58072989D01*
X65384630Y-58142147D01*
X65355605Y-58205703D01*
X65296827Y-58243477D01*
X65280669Y-58247070D01*
X65261793Y-58249961D01*
X65261781Y-58249964D01*
X65081464Y-58316746D01*
X65081460Y-58316748D01*
X64918267Y-58418467D01*
X64778895Y-58550949D01*
X64669041Y-58708781D01*
X64593209Y-58885491D01*
X64554500Y-59073851D01*
X64554499Y-59877951D01*
X64569077Y-60021310D01*
X64626641Y-60204777D01*
X64626648Y-60204792D01*
X64654776Y-60255469D01*
X64719966Y-60372920D01*
X64719969Y-60372923D01*
X64719970Y-60372925D01*
X64845220Y-60518825D01*
X64845221Y-60518826D01*
X64993195Y-60633365D01*
X64997285Y-60636531D01*
X65169929Y-60721217D01*
X65169933Y-60721218D01*
X65169931Y-60721218D01*
X65356078Y-60769415D01*
X65356081Y-60769415D01*
X65356087Y-60769417D01*
X65548136Y-60779156D01*
X65606724Y-60770180D01*
X65675969Y-60779485D01*
X65729193Y-60824751D01*
X65749495Y-60891606D01*
X65749500Y-60892750D01*
X65749499Y-61372883D01*
X65729814Y-61439923D01*
X65706271Y-61466968D01*
X65639316Y-61524447D01*
X65517879Y-61681331D01*
X65517877Y-61681335D01*
X65430503Y-61859459D01*
X65380777Y-62051511D01*
X65380776Y-62051517D01*
X65370728Y-62249662D01*
X65370728Y-62249663D01*
X65400768Y-62445764D01*
X65400771Y-62445777D01*
X65469673Y-62631815D01*
X65469677Y-62631824D01*
X65574616Y-62800184D01*
X65574617Y-62800185D01*
X65574618Y-62800186D01*
X65574620Y-62800189D01*
X65646259Y-62875553D01*
X65708060Y-62940568D01*
X65739980Y-63002720D01*
X65733232Y-63072263D01*
X65689957Y-63127118D01*
X65623895Y-63149868D01*
X65618185Y-63150000D01*
X65262729Y-63150000D01*
X65195690Y-63130315D01*
X65175048Y-63113681D01*
X63136875Y-61075507D01*
X63103390Y-61014184D01*
X63100591Y-60990783D01*
X63097687Y-60868755D01*
X63053013Y-60663388D01*
X62992455Y-60521973D01*
X62970281Y-60470191D01*
X62970280Y-60470189D01*
X62970279Y-60470187D01*
X62852477Y-60296135D01*
X61650466Y-59094124D01*
X61637137Y-59078366D01*
X61635488Y-59076050D01*
X61635485Y-59076047D01*
X61568915Y-59012572D01*
X61555003Y-58998661D01*
X61541101Y-58984759D01*
X61541095Y-58984754D01*
X61541092Y-58984751D01*
X61532679Y-58977804D01*
X61529369Y-58974866D01*
X61483379Y-58931015D01*
X61483371Y-58931009D01*
X61453244Y-58911647D01*
X61447286Y-58907297D01*
X61427715Y-58891139D01*
X61419645Y-58884476D01*
X61363837Y-58854002D01*
X61360050Y-58851755D01*
X61339645Y-58838642D01*
X61306575Y-58817388D01*
X61306576Y-58817388D01*
X61273305Y-58804068D01*
X61266630Y-58800923D01*
X61235184Y-58783752D01*
X61235185Y-58783752D01*
X61174625Y-58764393D01*
X61170461Y-58762896D01*
X61111453Y-58739273D01*
X61076272Y-58732492D01*
X61069125Y-58730668D01*
X61034991Y-58719757D01*
X60971867Y-58712209D01*
X60967495Y-58711527D01*
X60919681Y-58702313D01*
X60905085Y-58699500D01*
X60905083Y-58699500D01*
X60869248Y-58699500D01*
X60861882Y-58699061D01*
X60826310Y-58694808D01*
X60826309Y-58694808D01*
X60762907Y-58699342D01*
X60758487Y-58699500D01*
X51605181Y-58699500D01*
X51584617Y-58697783D01*
X51583689Y-58697626D01*
X51581812Y-58697311D01*
X51581810Y-58697311D01*
X51520509Y-58698770D01*
X51489859Y-58699500D01*
X51450518Y-58699500D01*
X51446852Y-58699849D01*
X51439655Y-58700536D01*
X51435243Y-58700799D01*
X51371693Y-58702313D01*
X51336679Y-58709929D01*
X51329390Y-58711066D01*
X51293729Y-58714471D01*
X51293725Y-58714471D01*
X51293725Y-58714472D01*
X51285049Y-58717019D01*
X51232735Y-58732379D01*
X51228447Y-58733474D01*
X51166337Y-58746985D01*
X51166321Y-58746990D01*
X51133382Y-58761095D01*
X51126442Y-58763590D01*
X51092071Y-58773683D01*
X51092068Y-58773684D01*
X51092063Y-58773686D01*
X51092062Y-58773687D01*
X51035569Y-58802810D01*
X51031567Y-58804695D01*
X50973134Y-58829719D01*
X50943464Y-58849799D01*
X50937120Y-58853563D01*
X50905264Y-58869986D01*
X50855297Y-58909281D01*
X50851723Y-58911891D01*
X50799077Y-58947523D01*
X50799076Y-58947524D01*
X50773735Y-58972863D01*
X50768221Y-58977758D01*
X50740056Y-58999908D01*
X50698425Y-59047951D01*
X50695409Y-59051190D01*
X49785003Y-59961598D01*
X48883420Y-60863181D01*
X48822097Y-60896666D01*
X48795739Y-60899500D01*
X44447575Y-60899500D01*
X44290782Y-60914472D01*
X44290778Y-60914473D01*
X44089127Y-60973683D01*
X43902313Y-61069991D01*
X43737116Y-61199905D01*
X43737112Y-61199909D01*
X43599478Y-61358746D01*
X43494398Y-61540750D01*
X43425656Y-61739365D01*
X43425656Y-61739367D01*
X43400330Y-61915520D01*
X43395746Y-61947401D01*
X43405745Y-62157327D01*
X43455296Y-62361578D01*
X43455298Y-62361582D01*
X43542598Y-62552743D01*
X43542601Y-62552748D01*
X43542602Y-62552750D01*
X43542604Y-62552753D01*
X43664514Y-62723952D01*
X43664515Y-62723953D01*
X43664520Y-62723959D01*
X43816620Y-62868985D01*
X43957797Y-62959714D01*
X43993428Y-62982613D01*
X44188543Y-63060725D01*
X44248408Y-63072263D01*
X44394914Y-63100500D01*
X44394915Y-63100500D01*
X48470968Y-63100500D01*
X48538007Y-63120185D01*
X48583762Y-63172989D01*
X48593706Y-63242147D01*
X48583507Y-63276564D01*
X48578939Y-63286439D01*
X48552877Y-63338990D01*
X48542963Y-63358981D01*
X48542582Y-63360017D01*
X48535580Y-63379906D01*
X48535267Y-63380833D01*
X48517858Y-63459926D01*
X48498314Y-63538513D01*
X48498191Y-63539416D01*
X48495607Y-63560516D01*
X48495500Y-63561501D01*
X48495500Y-63642468D01*
X48493306Y-63723438D01*
X48493389Y-63724447D01*
X48495500Y-63746649D01*
X48495500Y-68090379D01*
X48475815Y-68157418D01*
X48423011Y-68203173D01*
X48353853Y-68213117D01*
X48290297Y-68184092D01*
X48252523Y-68125314D01*
X48247745Y-68098165D01*
X48243145Y-68025053D01*
X48243144Y-68025049D01*
X48184007Y-67715047D01*
X48086490Y-67414920D01*
X47952119Y-67129367D01*
X47783030Y-66862924D01*
X47691394Y-66752156D01*
X47072898Y-67370653D01*
X47011575Y-67404138D01*
X46941883Y-67399154D01*
X46887364Y-67359134D01*
X46857373Y-67320602D01*
X46857370Y-67320599D01*
X46857368Y-67320596D01*
X46722556Y-67196492D01*
X46686567Y-67136608D01*
X46688668Y-67066770D01*
X46718860Y-67017584D01*
X47340753Y-66395692D01*
X47096514Y-66218241D01*
X47096504Y-66218234D01*
X46819965Y-66066206D01*
X46819957Y-66066202D01*
X46526550Y-65950035D01*
X46220881Y-65871552D01*
X46220872Y-65871550D01*
X45907801Y-65832000D01*
X45592198Y-65832000D01*
X45279127Y-65871550D01*
X45279118Y-65871552D01*
X44973449Y-65950035D01*
X44680042Y-66066202D01*
X44680034Y-66066206D01*
X44403495Y-66218234D01*
X44403485Y-66218241D01*
X44159246Y-66395692D01*
X44159245Y-66395692D01*
X44781138Y-67017584D01*
X44814623Y-67078907D01*
X44809639Y-67148598D01*
X44777441Y-67196494D01*
X44642630Y-67320598D01*
X44642628Y-67320599D01*
X44612633Y-67359137D01*
X44555922Y-67399949D01*
X44486149Y-67403622D01*
X44427100Y-67370654D01*
X43808603Y-66752156D01*
X43808602Y-66752156D01*
X43716973Y-66862918D01*
X43716971Y-66862921D01*
X43547880Y-67129367D01*
X43413509Y-67414920D01*
X43315992Y-67715047D01*
X43256855Y-68025049D01*
X43256854Y-68025053D01*
X43237041Y-68339994D01*
X43237041Y-68340005D01*
X43256854Y-68654946D01*
X43256855Y-68654950D01*
X43315992Y-68964952D01*
X43413509Y-69265079D01*
X43547880Y-69550632D01*
X43716969Y-69817075D01*
X43808603Y-69927841D01*
X44427100Y-69309344D01*
X44488423Y-69275859D01*
X44558114Y-69280843D01*
X44612633Y-69320861D01*
X44642632Y-69359404D01*
X44777441Y-69483505D01*
X44813430Y-69543390D01*
X44811330Y-69613228D01*
X44781138Y-69662414D01*
X44159245Y-70284306D01*
X44403490Y-70461761D01*
X44403501Y-70461768D01*
X44680034Y-70613793D01*
X44680042Y-70613797D01*
X44973449Y-70729964D01*
X45279118Y-70808447D01*
X45279127Y-70808449D01*
X45592198Y-70847999D01*
X45592212Y-70848000D01*
X45907788Y-70848000D01*
X45907801Y-70847999D01*
X46220872Y-70808449D01*
X46220881Y-70808447D01*
X46526550Y-70729964D01*
X46819957Y-70613797D01*
X46819965Y-70613793D01*
X47096498Y-70461768D01*
X47096509Y-70461761D01*
X47340752Y-70284306D01*
X47340753Y-70284306D01*
X46718861Y-69662415D01*
X46685376Y-69601092D01*
X46690360Y-69531401D01*
X46722556Y-69483507D01*
X46857368Y-69359404D01*
X46887367Y-69320861D01*
X46944071Y-69280051D01*
X47013844Y-69276375D01*
X47072898Y-69309344D01*
X47691395Y-69927842D01*
X47783033Y-69817070D01*
X47952119Y-69550632D01*
X48086490Y-69265079D01*
X48184007Y-68964952D01*
X48243144Y-68654950D01*
X48243145Y-68654945D01*
X48261725Y-68359606D01*
X48285579Y-68293934D01*
X48341152Y-68251585D01*
X48410798Y-68246003D01*
X48472406Y-68278961D01*
X48506416Y-68339995D01*
X48508752Y-68353978D01*
X48510485Y-68369906D01*
X48510710Y-68370930D01*
X48515525Y-68391473D01*
X48515773Y-68392470D01*
X48543700Y-68468486D01*
X48569557Y-68545223D01*
X48570001Y-68546185D01*
X48579146Y-68565266D01*
X48579564Y-68566109D01*
X48623184Y-68634353D01*
X48664930Y-68703736D01*
X48665538Y-68704536D01*
X48678578Y-68721216D01*
X48679201Y-68721991D01*
X48736459Y-68779249D01*
X48792152Y-68838042D01*
X48792983Y-68838747D01*
X48810119Y-68852908D01*
X48954389Y-68997178D01*
X48987874Y-69058501D01*
X48990708Y-69084859D01*
X48990708Y-69090002D01*
X49009838Y-69308668D01*
X49009839Y-69308675D01*
X49023431Y-69359400D01*
X49066653Y-69520703D01*
X49066654Y-69520706D01*
X49066655Y-69520708D01*
X49159419Y-69719642D01*
X49159423Y-69719650D01*
X49285322Y-69899452D01*
X49285327Y-69899458D01*
X49440541Y-70054672D01*
X49440547Y-70054677D01*
X49620349Y-70180576D01*
X49620351Y-70180577D01*
X49620354Y-70180579D01*
X49819297Y-70273347D01*
X50031326Y-70330161D01*
X50187521Y-70343826D01*
X50249998Y-70349292D01*
X50250000Y-70349292D01*
X50250002Y-70349292D01*
X50304668Y-70344509D01*
X50468674Y-70330161D01*
X50599442Y-70295121D01*
X50669290Y-70296782D01*
X50727153Y-70335944D01*
X50754658Y-70400172D01*
X50755063Y-70404087D01*
X50759838Y-70458669D01*
X50759839Y-70458674D01*
X50816653Y-70670703D01*
X50816654Y-70670706D01*
X50816655Y-70670708D01*
X50909419Y-70869642D01*
X50909423Y-70869650D01*
X51035322Y-71049452D01*
X51035327Y-71049458D01*
X51173688Y-71187819D01*
X51207173Y-71249142D01*
X51202189Y-71318834D01*
X51160317Y-71374767D01*
X51094853Y-71399184D01*
X51086007Y-71399500D01*
X46602238Y-71399500D01*
X46581674Y-71397783D01*
X46580746Y-71397626D01*
X46578869Y-71397311D01*
X46578867Y-71397311D01*
X46517566Y-71398770D01*
X46486916Y-71399500D01*
X46447575Y-71399500D01*
X46443909Y-71399849D01*
X46436712Y-71400536D01*
X46432300Y-71400799D01*
X46368751Y-71402313D01*
X46333737Y-71409929D01*
X46326448Y-71411066D01*
X46290790Y-71414470D01*
X46290781Y-71414472D01*
X46229792Y-71432379D01*
X46225504Y-71433474D01*
X46163394Y-71446985D01*
X46163379Y-71446989D01*
X46130439Y-71461095D01*
X46123499Y-71463590D01*
X46089128Y-71473683D01*
X46089125Y-71473684D01*
X46089120Y-71473686D01*
X46089119Y-71473687D01*
X46032626Y-71502810D01*
X46028624Y-71504695D01*
X45970187Y-71529721D01*
X45940517Y-71549801D01*
X45934175Y-71553564D01*
X45902317Y-71569989D01*
X45902313Y-71569992D01*
X45852345Y-71609287D01*
X45848770Y-71611898D01*
X45796139Y-71647519D01*
X45796130Y-71647526D01*
X45770792Y-71672863D01*
X45765278Y-71677758D01*
X45737113Y-71699908D01*
X45695482Y-71747951D01*
X45692467Y-71751190D01*
X35812181Y-81631476D01*
X35750858Y-81664961D01*
X35681166Y-81659977D01*
X35625233Y-81618105D01*
X35600816Y-81552641D01*
X35600500Y-81543795D01*
X35600500Y-81102238D01*
X35602218Y-81081671D01*
X35602687Y-81078877D01*
X35602689Y-81078867D01*
X35600500Y-80986916D01*
X35600500Y-80947575D01*
X35599462Y-80936708D01*
X35599199Y-80932298D01*
X35598689Y-80910869D01*
X35597687Y-80868755D01*
X35597685Y-80868749D01*
X35597685Y-80868741D01*
X35590071Y-80833747D01*
X35588933Y-80826452D01*
X35585528Y-80790782D01*
X35567613Y-80729772D01*
X35566524Y-80725503D01*
X35562982Y-80709218D01*
X35553013Y-80663388D01*
X35538901Y-80630434D01*
X35536411Y-80623507D01*
X35526316Y-80589125D01*
X35497183Y-80532616D01*
X35495303Y-80528625D01*
X35470279Y-80470188D01*
X35450193Y-80440512D01*
X35446435Y-80434177D01*
X35430013Y-80402321D01*
X35430011Y-80402318D01*
X35426428Y-80397762D01*
X35390710Y-80352345D01*
X35388103Y-80348774D01*
X35352479Y-80296138D01*
X35352477Y-80296135D01*
X35327130Y-80270788D01*
X35322245Y-80265283D01*
X35300092Y-80237114D01*
X35252048Y-80195483D01*
X35248808Y-80192466D01*
X35136818Y-80080476D01*
X35103334Y-80019153D01*
X35100500Y-79992795D01*
X35100500Y-73507204D01*
X35120185Y-73440165D01*
X35136819Y-73419523D01*
X36325257Y-72231085D01*
X37545241Y-71011101D01*
X37645524Y-70889645D01*
X37746247Y-70705183D01*
X37810242Y-70504992D01*
X37835192Y-70296309D01*
X37820200Y-70086673D01*
X37765804Y-69883665D01*
X37744593Y-69840000D01*
X37673973Y-69694622D01*
X37649863Y-69662415D01*
X37548021Y-69526370D01*
X37541790Y-69520706D01*
X37500154Y-69482856D01*
X37392505Y-69384996D01*
X37392503Y-69384995D01*
X37392504Y-69384995D01*
X37213048Y-69275611D01*
X37213040Y-69275608D01*
X37016127Y-69202163D01*
X37016118Y-69202161D01*
X36808875Y-69167312D01*
X36808867Y-69167311D01*
X36808866Y-69167311D01*
X36703810Y-69169812D01*
X36598754Y-69172313D01*
X36598746Y-69172314D01*
X36393397Y-69216984D01*
X36393386Y-69216987D01*
X36200191Y-69299718D01*
X36026137Y-69417521D01*
X36026132Y-69417525D01*
X33294120Y-72149536D01*
X33278381Y-72162852D01*
X33276047Y-72164514D01*
X33212572Y-72231085D01*
X33184753Y-72258905D01*
X33184751Y-72258907D01*
X33177806Y-72267318D01*
X33174872Y-72270623D01*
X33131019Y-72316616D01*
X33131012Y-72316625D01*
X33111644Y-72346760D01*
X33107294Y-72352716D01*
X33084478Y-72380352D01*
X33084475Y-72380355D01*
X33054006Y-72436153D01*
X33051749Y-72439959D01*
X33017388Y-72493425D01*
X33004072Y-72526686D01*
X33000928Y-72533360D01*
X32983754Y-72564813D01*
X32983749Y-72564823D01*
X32964391Y-72625378D01*
X32962895Y-72629541D01*
X32939275Y-72688541D01*
X32939274Y-72688542D01*
X32932491Y-72723730D01*
X32930667Y-72730875D01*
X32919758Y-72765007D01*
X32919757Y-72765010D01*
X32912209Y-72828131D01*
X32911527Y-72832503D01*
X32899500Y-72894916D01*
X32899500Y-72930751D01*
X32899061Y-72938117D01*
X32894808Y-72973686D01*
X32894808Y-72973691D01*
X32898821Y-73029812D01*
X32899342Y-73037089D01*
X32899500Y-73041513D01*
X32899499Y-80397762D01*
X32897784Y-80418313D01*
X32897312Y-80421118D01*
X32897311Y-80421133D01*
X32899499Y-80513084D01*
X32899499Y-80552419D01*
X32900536Y-80563287D01*
X32900799Y-80567700D01*
X32902128Y-80623498D01*
X32902313Y-80631245D01*
X32909931Y-80666267D01*
X32911064Y-80673535D01*
X32913189Y-80695780D01*
X32914472Y-80709217D01*
X32914473Y-80709225D01*
X32932380Y-80770209D01*
X32933475Y-80774498D01*
X32946985Y-80836608D01*
X32946988Y-80836615D01*
X32961093Y-80869556D01*
X32963589Y-80876498D01*
X32973681Y-80910869D01*
X32973683Y-80910874D01*
X33002814Y-80967381D01*
X33004696Y-80971375D01*
X33012697Y-80990059D01*
X33029718Y-81029807D01*
X33029721Y-81029812D01*
X33049807Y-81059489D01*
X33053568Y-81065829D01*
X33069988Y-81097681D01*
X33109289Y-81147656D01*
X33111901Y-81151232D01*
X33147520Y-81203861D01*
X33147526Y-81203868D01*
X33172859Y-81229201D01*
X33177758Y-81234721D01*
X33199905Y-81262883D01*
X33199909Y-81262887D01*
X33247951Y-81304516D01*
X33251191Y-81307533D01*
X33363181Y-81419523D01*
X33396665Y-81480846D01*
X33399499Y-81507204D01*
X33399500Y-122497762D01*
X33397783Y-122518327D01*
X33397311Y-122521129D01*
X33397311Y-122521133D01*
X33399499Y-122613084D01*
X33399499Y-122652419D01*
X33400536Y-122663287D01*
X33400799Y-122667700D01*
X33400836Y-122669248D01*
X33402313Y-122731245D01*
X33409931Y-122766267D01*
X33411064Y-122773535D01*
X33414472Y-122809217D01*
X33414473Y-122809225D01*
X33432380Y-122870209D01*
X33433475Y-122874498D01*
X33446985Y-122936608D01*
X33446988Y-122936615D01*
X33461093Y-122969556D01*
X33463589Y-122976498D01*
X33473681Y-123010869D01*
X33473683Y-123010874D01*
X33502814Y-123067381D01*
X33504701Y-123071385D01*
X33529718Y-123129807D01*
X33529721Y-123129812D01*
X33549807Y-123159489D01*
X33553568Y-123165829D01*
X33569988Y-123197681D01*
X33609289Y-123247656D01*
X33611896Y-123251225D01*
X33631370Y-123279999D01*
X33647520Y-123303861D01*
X33647526Y-123303868D01*
X33672859Y-123329201D01*
X33677758Y-123334721D01*
X33699905Y-123362883D01*
X33699909Y-123362887D01*
X33747943Y-123404509D01*
X33751183Y-123407526D01*
X33864962Y-123521305D01*
X33864965Y-123521307D01*
X42001289Y-131657631D01*
X42034774Y-131718954D01*
X42037292Y-131754158D01*
X42019709Y-131999998D01*
X42019709Y-132000001D01*
X42038848Y-132267594D01*
X42038849Y-132267601D01*
X42095872Y-132529734D01*
X42189627Y-132781102D01*
X42189629Y-132781106D01*
X42318195Y-133016556D01*
X42318200Y-133016564D01*
X42478964Y-133231321D01*
X42478980Y-133231339D01*
X42668660Y-133421019D01*
X42668678Y-133421035D01*
X42883435Y-133581799D01*
X42883443Y-133581804D01*
X43118893Y-133710370D01*
X43118897Y-133710372D01*
X43118899Y-133710373D01*
X43370261Y-133804126D01*
X43370264Y-133804126D01*
X43370265Y-133804127D01*
X43396399Y-133809812D01*
X43632407Y-133861152D01*
X43879385Y-133878816D01*
X43899999Y-133880291D01*
X43900000Y-133880291D01*
X43900001Y-133880291D01*
X43919140Y-133878922D01*
X44167593Y-133861152D01*
X44429739Y-133804126D01*
X44681101Y-133710373D01*
X44916562Y-133581801D01*
X45131329Y-133421029D01*
X45321029Y-133231329D01*
X45481801Y-133016562D01*
X45610373Y-132781101D01*
X45704126Y-132529739D01*
X45761152Y-132267593D01*
X45780291Y-132000000D01*
X45761152Y-131732407D01*
X45711475Y-131504044D01*
X45704127Y-131470265D01*
X45703240Y-131467887D01*
X45610373Y-131218899D01*
X45590696Y-131182864D01*
X45481804Y-130983443D01*
X45481799Y-130983435D01*
X45321035Y-130768678D01*
X45321019Y-130768660D01*
X45131339Y-130578980D01*
X45131321Y-130578964D01*
X44916564Y-130418200D01*
X44916556Y-130418195D01*
X44681106Y-130289629D01*
X44681102Y-130289627D01*
X44429734Y-130195872D01*
X44167601Y-130138849D01*
X44167594Y-130138848D01*
X43900001Y-130119709D01*
X43899999Y-130119709D01*
X43654158Y-130137292D01*
X43585885Y-130122440D01*
X43557631Y-130101289D01*
X35636819Y-122180477D01*
X35603334Y-122119154D01*
X35600500Y-122092796D01*
X35600500Y-120156204D01*
X35620185Y-120089165D01*
X35672989Y-120043410D01*
X35742147Y-120033466D01*
X35805703Y-120062491D01*
X35812181Y-120068523D01*
X47401289Y-131657631D01*
X47434774Y-131718954D01*
X47437292Y-131754158D01*
X47419709Y-131999998D01*
X47419709Y-132000001D01*
X47438848Y-132267594D01*
X47438849Y-132267601D01*
X47495872Y-132529734D01*
X47589627Y-132781102D01*
X47589629Y-132781106D01*
X47718195Y-133016556D01*
X47718200Y-133016564D01*
X47878964Y-133231321D01*
X47878980Y-133231339D01*
X48068660Y-133421019D01*
X48068678Y-133421035D01*
X48283435Y-133581799D01*
X48283443Y-133581804D01*
X48518893Y-133710370D01*
X48518897Y-133710372D01*
X48518899Y-133710373D01*
X48770261Y-133804126D01*
X48770264Y-133804126D01*
X48770265Y-133804127D01*
X48796399Y-133809812D01*
X49032407Y-133861152D01*
X49279385Y-133878816D01*
X49299999Y-133880291D01*
X49300000Y-133880291D01*
X49300001Y-133880291D01*
X49319139Y-133878922D01*
X49567593Y-133861152D01*
X49829739Y-133804126D01*
X50081101Y-133710373D01*
X50316562Y-133581801D01*
X50531329Y-133421029D01*
X50721029Y-133231329D01*
X50881801Y-133016562D01*
X51010373Y-132781101D01*
X51104126Y-132529739D01*
X51161152Y-132267593D01*
X51180291Y-132000000D01*
X51161152Y-131732407D01*
X51111475Y-131504044D01*
X51104127Y-131470265D01*
X51103240Y-131467887D01*
X51010373Y-131218899D01*
X50990696Y-131182864D01*
X50881804Y-130983443D01*
X50881799Y-130983435D01*
X50721035Y-130768678D01*
X50721019Y-130768660D01*
X50531339Y-130578980D01*
X50531321Y-130578964D01*
X50316564Y-130418200D01*
X50316556Y-130418195D01*
X50081106Y-130289629D01*
X50081102Y-130289627D01*
X49829734Y-130195872D01*
X49567601Y-130138849D01*
X49567594Y-130138848D01*
X49300001Y-130119709D01*
X49299999Y-130119709D01*
X49054158Y-130137292D01*
X48985885Y-130122440D01*
X48957631Y-130101289D01*
X43266342Y-124410000D01*
X47904785Y-124410000D01*
X47923602Y-124613082D01*
X47979417Y-124809247D01*
X47979422Y-124809260D01*
X48070327Y-124991821D01*
X48193237Y-125154581D01*
X48343958Y-125291980D01*
X48343960Y-125291982D01*
X48470148Y-125370113D01*
X48517363Y-125399348D01*
X48548863Y-125411551D01*
X48551927Y-125412844D01*
X48552002Y-125412870D01*
X48552004Y-125412871D01*
X48553021Y-125413223D01*
X48554499Y-125413735D01*
X48627113Y-125441865D01*
X48707544Y-125473024D01*
X48740395Y-125479165D01*
X48743608Y-125479854D01*
X48750070Y-125481422D01*
X48750075Y-125481424D01*
X48750079Y-125481424D01*
X48750081Y-125481425D01*
X48760493Y-125482922D01*
X48806035Y-125491435D01*
X48908024Y-125510500D01*
X48908026Y-125510500D01*
X48943437Y-125510500D01*
X48951643Y-125511086D01*
X48951649Y-125510972D01*
X48957537Y-125511252D01*
X48957541Y-125511253D01*
X48957544Y-125511252D01*
X48957548Y-125511253D01*
X48965954Y-125510853D01*
X48965964Y-125510855D01*
X48971938Y-125510570D01*
X48974891Y-125510500D01*
X49111975Y-125510500D01*
X49111976Y-125510500D01*
X49155198Y-125502420D01*
X49163646Y-125501435D01*
X49166902Y-125501280D01*
X49166904Y-125501279D01*
X49168781Y-125501190D01*
X49168827Y-125501185D01*
X49201914Y-125499608D01*
X49232294Y-125488008D01*
X49312456Y-125473024D01*
X49357381Y-125455619D01*
X49365145Y-125453186D01*
X49370593Y-125451865D01*
X49370596Y-125451863D01*
X49373340Y-125451198D01*
X49373370Y-125451190D01*
X49402586Y-125444101D01*
X49428999Y-125427875D01*
X49491313Y-125403735D01*
X49502635Y-125399349D01*
X49502640Y-125399346D01*
X49547244Y-125371728D01*
X49554092Y-125368064D01*
X49561251Y-125364795D01*
X49561254Y-125364792D01*
X49565575Y-125362820D01*
X49567528Y-125361928D01*
X49568782Y-125361747D01*
X49572029Y-125359872D01*
X49589245Y-125352010D01*
X49611028Y-125332234D01*
X49676041Y-125291981D01*
X49718053Y-125253681D01*
X49723809Y-125249036D01*
X49731985Y-125243215D01*
X49731989Y-125243210D01*
X49732077Y-125243148D01*
X49734906Y-125242168D01*
X49741622Y-125236350D01*
X49755296Y-125226612D01*
X49772053Y-125204453D01*
X49826764Y-125154579D01*
X49863691Y-125105678D01*
X49868278Y-125100278D01*
X49871207Y-125097203D01*
X49872284Y-125096074D01*
X49876302Y-125093752D01*
X49884799Y-125082949D01*
X49894839Y-125072419D01*
X49906455Y-125049050D01*
X49949673Y-124991821D01*
X49976822Y-124937297D01*
X49984339Y-124929189D01*
X49985541Y-124926187D01*
X49996342Y-124905235D01*
X50002993Y-124894884D01*
X50009607Y-124871455D01*
X50040582Y-124809250D01*
X50057598Y-124749443D01*
X50064343Y-124738750D01*
X50065596Y-124732253D01*
X50072240Y-124709626D01*
X50075947Y-124700365D01*
X50077948Y-124677921D01*
X50096397Y-124613083D01*
X50103368Y-124537845D01*
X50104217Y-124531880D01*
X50107510Y-124514799D01*
X50107510Y-124514794D01*
X50111179Y-124495758D01*
X50109173Y-124475195D01*
X50115215Y-124410000D01*
X50114288Y-124400000D01*
X53894785Y-124400000D01*
X53913602Y-124603082D01*
X53969417Y-124799247D01*
X53969422Y-124799260D01*
X54060327Y-124981821D01*
X54183237Y-125144581D01*
X54333958Y-125281980D01*
X54333960Y-125281982D01*
X54447060Y-125352010D01*
X54507363Y-125389348D01*
X54538863Y-125401551D01*
X54541927Y-125402844D01*
X54542002Y-125402870D01*
X54542004Y-125402871D01*
X54543021Y-125403223D01*
X54544499Y-125403735D01*
X54606808Y-125427873D01*
X54697544Y-125463024D01*
X54730395Y-125469165D01*
X54733608Y-125469854D01*
X54740070Y-125471422D01*
X54740075Y-125471424D01*
X54740079Y-125471424D01*
X54740081Y-125471425D01*
X54750493Y-125472922D01*
X54777696Y-125478007D01*
X54898024Y-125500500D01*
X54898026Y-125500500D01*
X54933437Y-125500500D01*
X54941643Y-125501086D01*
X54941649Y-125500972D01*
X54947537Y-125501252D01*
X54947541Y-125501253D01*
X54947544Y-125501252D01*
X54947548Y-125501253D01*
X54955954Y-125500853D01*
X54955964Y-125500855D01*
X54961938Y-125500570D01*
X54964891Y-125500500D01*
X55101975Y-125500500D01*
X55101976Y-125500500D01*
X55145198Y-125492420D01*
X55153646Y-125491435D01*
X55156902Y-125491280D01*
X55156904Y-125491279D01*
X55158781Y-125491190D01*
X55158827Y-125491185D01*
X55191914Y-125489608D01*
X55222294Y-125478008D01*
X55302456Y-125463024D01*
X55347381Y-125445619D01*
X55355145Y-125443186D01*
X55360593Y-125441865D01*
X55360596Y-125441863D01*
X55363340Y-125441198D01*
X55363370Y-125441190D01*
X55392586Y-125434101D01*
X55418999Y-125417875D01*
X55480030Y-125394232D01*
X55492635Y-125389349D01*
X55492640Y-125389346D01*
X55533893Y-125363802D01*
X55541801Y-125361552D01*
X55542965Y-125360880D01*
X55542408Y-125359988D01*
X55545827Y-125357852D01*
X55547829Y-125356774D01*
X55547672Y-125356430D01*
X55553786Y-125353638D01*
X55557528Y-125351928D01*
X55558782Y-125351747D01*
X55562029Y-125349872D01*
X55579245Y-125342010D01*
X55601028Y-125322234D01*
X55666041Y-125281981D01*
X55708053Y-125243681D01*
X55713809Y-125239036D01*
X55721985Y-125233215D01*
X55721989Y-125233210D01*
X55722077Y-125233148D01*
X55724906Y-125232168D01*
X55731622Y-125226350D01*
X55745296Y-125216612D01*
X55762053Y-125194453D01*
X55816764Y-125144579D01*
X55853691Y-125095678D01*
X55858278Y-125090278D01*
X55861207Y-125087203D01*
X55862284Y-125086074D01*
X55866302Y-125083752D01*
X55874799Y-125072949D01*
X55884839Y-125062419D01*
X55896455Y-125039050D01*
X55939673Y-124981821D01*
X55966822Y-124927297D01*
X55974339Y-124919189D01*
X55975541Y-124916187D01*
X55986342Y-124895235D01*
X55992993Y-124884884D01*
X55999607Y-124861455D01*
X56030582Y-124799250D01*
X56047598Y-124739443D01*
X56054343Y-124728750D01*
X56055596Y-124722253D01*
X56062240Y-124699626D01*
X56065947Y-124690365D01*
X56067948Y-124667921D01*
X56086397Y-124603083D01*
X56093368Y-124527845D01*
X56094217Y-124521880D01*
X56097510Y-124504799D01*
X56097510Y-124504794D01*
X56101179Y-124485758D01*
X56099173Y-124465195D01*
X56105215Y-124400000D01*
X56099173Y-124334804D01*
X56102180Y-124319433D01*
X56096147Y-124288132D01*
X56094219Y-124278127D01*
X56093368Y-124272148D01*
X56086397Y-124196917D01*
X56067948Y-124132076D01*
X56068091Y-124114986D01*
X56062239Y-124100369D01*
X56055597Y-124077746D01*
X56055152Y-124075440D01*
X56047599Y-124060558D01*
X56030582Y-124000750D01*
X56030581Y-124000747D01*
X56030580Y-124000744D01*
X55999608Y-123938546D01*
X55996365Y-123920359D01*
X55986342Y-123904762D01*
X55975891Y-123884490D01*
X55966824Y-123872705D01*
X55939673Y-123818179D01*
X55939670Y-123818175D01*
X55939669Y-123818173D01*
X55896456Y-123760949D01*
X55889456Y-123742420D01*
X55874797Y-123727047D01*
X55868144Y-123718588D01*
X55862316Y-123713957D01*
X55858299Y-123709744D01*
X55853692Y-123704322D01*
X55843043Y-123690220D01*
X55816766Y-123655422D01*
X55816764Y-123655420D01*
X55762055Y-123605547D01*
X55751101Y-123587519D01*
X55731623Y-123573649D01*
X55726369Y-123569096D01*
X55722065Y-123566842D01*
X55713832Y-123560978D01*
X55708024Y-123556291D01*
X55693766Y-123543293D01*
X55666041Y-123518019D01*
X55666034Y-123518015D01*
X55666032Y-123518013D01*
X55601029Y-123477765D01*
X55586113Y-123461124D01*
X55562029Y-123450126D01*
X55559533Y-123448685D01*
X55557586Y-123448097D01*
X55544104Y-123441940D01*
X55537214Y-123438253D01*
X55532745Y-123435486D01*
X55492637Y-123410652D01*
X55444805Y-123392122D01*
X55418993Y-123382122D01*
X55400320Y-123367772D01*
X55360264Y-123358055D01*
X55358216Y-123357558D01*
X55355155Y-123356815D01*
X55347370Y-123354375D01*
X55316645Y-123342473D01*
X55302456Y-123336976D01*
X55302447Y-123336974D01*
X55302446Y-123336974D01*
X55222284Y-123321988D01*
X55200247Y-123310783D01*
X55153641Y-123308563D01*
X55145191Y-123307577D01*
X55101980Y-123299500D01*
X55101976Y-123299500D01*
X54964834Y-123299500D01*
X54961884Y-123299430D01*
X54947540Y-123298746D01*
X54941649Y-123299028D01*
X54941643Y-123298913D01*
X54933437Y-123299500D01*
X54898024Y-123299500D01*
X54837999Y-123310720D01*
X54750491Y-123327078D01*
X54740072Y-123328576D01*
X54733593Y-123330148D01*
X54730373Y-123330839D01*
X54697548Y-123336975D01*
X54697538Y-123336977D01*
X54544496Y-123396266D01*
X54541915Y-123397159D01*
X54538811Y-123398468D01*
X54507363Y-123410651D01*
X54507361Y-123410652D01*
X54333957Y-123518020D01*
X54183237Y-123655418D01*
X54060327Y-123818178D01*
X53969422Y-124000739D01*
X53969417Y-124000752D01*
X53913602Y-124196917D01*
X53894785Y-124399999D01*
X53894785Y-124400000D01*
X50114288Y-124400000D01*
X50109173Y-124344804D01*
X50112180Y-124329433D01*
X50105582Y-124295201D01*
X50104219Y-124288127D01*
X50103368Y-124282148D01*
X50096397Y-124206917D01*
X50077948Y-124142076D01*
X50078091Y-124124986D01*
X50072239Y-124110369D01*
X50065597Y-124087746D01*
X50065152Y-124085440D01*
X50057599Y-124070558D01*
X50040582Y-124010750D01*
X50040581Y-124010747D01*
X50040580Y-124010744D01*
X50009608Y-123948546D01*
X50006365Y-123930359D01*
X49996342Y-123914762D01*
X49985891Y-123894490D01*
X49976824Y-123882705D01*
X49949673Y-123828179D01*
X49949670Y-123828175D01*
X49949669Y-123828173D01*
X49906456Y-123770949D01*
X49899456Y-123752420D01*
X49884797Y-123737047D01*
X49878144Y-123728588D01*
X49872316Y-123723957D01*
X49868299Y-123719744D01*
X49863692Y-123714322D01*
X49853043Y-123700220D01*
X49826766Y-123665422D01*
X49826764Y-123665420D01*
X49772055Y-123615547D01*
X49761101Y-123597519D01*
X49741623Y-123583649D01*
X49736369Y-123579096D01*
X49732065Y-123576842D01*
X49723832Y-123570978D01*
X49718024Y-123566291D01*
X49703766Y-123553293D01*
X49676041Y-123528019D01*
X49676034Y-123528015D01*
X49676032Y-123528013D01*
X49611029Y-123487765D01*
X49596113Y-123471124D01*
X49572029Y-123460126D01*
X49569533Y-123458685D01*
X49567586Y-123458097D01*
X49554104Y-123451940D01*
X49547214Y-123448253D01*
X49537018Y-123441940D01*
X49502637Y-123420652D01*
X49445373Y-123398468D01*
X49428993Y-123392122D01*
X49410320Y-123377772D01*
X49370264Y-123368055D01*
X49368216Y-123367558D01*
X49365155Y-123366815D01*
X49357370Y-123364375D01*
X49326645Y-123352473D01*
X49312456Y-123346976D01*
X49312447Y-123346974D01*
X49312446Y-123346974D01*
X49232284Y-123331988D01*
X49210247Y-123320783D01*
X49163641Y-123318563D01*
X49155191Y-123317577D01*
X49111980Y-123309500D01*
X49111976Y-123309500D01*
X48974834Y-123309500D01*
X48971884Y-123309430D01*
X48957540Y-123308746D01*
X48951649Y-123309028D01*
X48951643Y-123308913D01*
X48943437Y-123309500D01*
X48908024Y-123309500D01*
X48864816Y-123317577D01*
X48760491Y-123337078D01*
X48750072Y-123338576D01*
X48743593Y-123340148D01*
X48740373Y-123340839D01*
X48707548Y-123346975D01*
X48707538Y-123346977D01*
X48554496Y-123406266D01*
X48551915Y-123407159D01*
X48548811Y-123408468D01*
X48517363Y-123420651D01*
X48517361Y-123420652D01*
X48343957Y-123528020D01*
X48193237Y-123665418D01*
X48070327Y-123828178D01*
X47979422Y-124010739D01*
X47979417Y-124010752D01*
X47923602Y-124206917D01*
X47904785Y-124409999D01*
X47904785Y-124410000D01*
X43266342Y-124410000D01*
X37636819Y-118780477D01*
X37603334Y-118719154D01*
X37600500Y-118692796D01*
X37600500Y-100000000D01*
X37994537Y-100000000D01*
X38002481Y-100298310D01*
X38002481Y-100372751D01*
X38006443Y-100447091D01*
X38014387Y-100745396D01*
X38038194Y-101042846D01*
X38040621Y-101088379D01*
X38042158Y-101117203D01*
X38042159Y-101117209D01*
X38050073Y-101191245D01*
X38073881Y-101488688D01*
X38113486Y-101784450D01*
X38121401Y-101858490D01*
X38133244Y-101931996D01*
X38172850Y-102227762D01*
X38172851Y-102227763D01*
X38228142Y-102521002D01*
X38239983Y-102594496D01*
X38255720Y-102667264D01*
X38310775Y-102959251D01*
X38311013Y-102960510D01*
X38381835Y-103250404D01*
X38397573Y-103323172D01*
X38417156Y-103394980D01*
X38487977Y-103684866D01*
X38574131Y-103970591D01*
X38593715Y-104042401D01*
X38593715Y-104042402D01*
X38617094Y-104113074D01*
X38703246Y-104398787D01*
X38804477Y-104679499D01*
X38827860Y-104750181D01*
X38827860Y-104750182D01*
X38854976Y-104819531D01*
X38956206Y-105100237D01*
X38956205Y-105100236D01*
X39072232Y-105375161D01*
X39091734Y-105425037D01*
X39099341Y-105444491D01*
X39099349Y-105444510D01*
X39099349Y-105444509D01*
X39130108Y-105512296D01*
X39246138Y-105787228D01*
X39376644Y-106055612D01*
X39407404Y-106123399D01*
X39407405Y-106123399D01*
X39441717Y-106189432D01*
X39572223Y-106457814D01*
X39572222Y-106457814D01*
X39716819Y-106718856D01*
X39748619Y-106780053D01*
X39751146Y-106784915D01*
X39783773Y-106840286D01*
X39788940Y-106849055D01*
X39933539Y-107110100D01*
X39933539Y-107110101D01*
X40091815Y-107363061D01*
X40129616Y-107427213D01*
X40170773Y-107489254D01*
X40329053Y-107742221D01*
X40500557Y-107986384D01*
X40500575Y-107986410D01*
X40541731Y-108048450D01*
X40586124Y-108108203D01*
X40757650Y-108352399D01*
X40810185Y-108419313D01*
X40941921Y-108587108D01*
X40986323Y-108646873D01*
X40986332Y-108646885D01*
X41033850Y-108704199D01*
X41218119Y-108938905D01*
X41414635Y-109163491D01*
X41462142Y-109220793D01*
X41476614Y-109236470D01*
X41512639Y-109275495D01*
X41709144Y-109500067D01*
X41917329Y-109713870D01*
X41967827Y-109768571D01*
X42021167Y-109820510D01*
X42229349Y-110034309D01*
X42448612Y-110236723D01*
X42501955Y-110288665D01*
X42501954Y-110288664D01*
X42557975Y-110337683D01*
X42777238Y-110540098D01*
X42777239Y-110540098D01*
X42777243Y-110540102D01*
X43006981Y-110730570D01*
X43063002Y-110779590D01*
X43063001Y-110779589D01*
X43121543Y-110825551D01*
X43303508Y-110976411D01*
X43351282Y-111016019D01*
X43351285Y-111016021D01*
X43351292Y-111016027D01*
X43590816Y-111193979D01*
X43649380Y-111239957D01*
X43710304Y-111282751D01*
X43719544Y-111289616D01*
X43949833Y-111460707D01*
X44198487Y-111625658D01*
X44259427Y-111668463D01*
X44259432Y-111668466D01*
X44259433Y-111668467D01*
X44322555Y-111707961D01*
X44526135Y-111843011D01*
X44571219Y-111872919D01*
X44828297Y-112024400D01*
X44891413Y-112063892D01*
X44891414Y-112063892D01*
X44956549Y-112099972D01*
X45213645Y-112251465D01*
X45213645Y-112251464D01*
X45478458Y-112389068D01*
X45543561Y-112425131D01*
X45543565Y-112425133D01*
X45543576Y-112425139D01*
X45610514Y-112457688D01*
X45875313Y-112595285D01*
X46147042Y-112718586D01*
X46213997Y-112751144D01*
X46213998Y-112751144D01*
X46214004Y-112751147D01*
X46282599Y-112780096D01*
X46554337Y-112903401D01*
X46832261Y-113012071D01*
X46900848Y-113041018D01*
X46970890Y-113066276D01*
X47101325Y-113117278D01*
X47248801Y-113174943D01*
X47361498Y-113212224D01*
X47532141Y-113268676D01*
X47563720Y-113280064D01*
X47602145Y-113293922D01*
X47644848Y-113306797D01*
X47673397Y-113315405D01*
X47956736Y-113409139D01*
X48244649Y-113487655D01*
X48308851Y-113507015D01*
X48315914Y-113509145D01*
X48315913Y-113509145D01*
X48365914Y-113521360D01*
X48388232Y-113526812D01*
X48523406Y-113563675D01*
X48676121Y-113605323D01*
X48676129Y-113605324D01*
X48676130Y-113605325D01*
X48967795Y-113668403D01*
X49040119Y-113686073D01*
X49113266Y-113699864D01*
X49404946Y-113762946D01*
X49699564Y-113810413D01*
X49727109Y-113815607D01*
X49772709Y-113824206D01*
X49772714Y-113824206D01*
X49772716Y-113824207D01*
X49846500Y-113834086D01*
X50067923Y-113869761D01*
X50141115Y-113881554D01*
X50281385Y-113896548D01*
X50437823Y-113913271D01*
X50511627Y-113923155D01*
X50585844Y-113929095D01*
X50882559Y-113960814D01*
X51180576Y-113976697D01*
X51254757Y-113982636D01*
X51329153Y-113984616D01*
X51627167Y-114000500D01*
X51627170Y-114000500D01*
X51925573Y-114000500D01*
X52000000Y-114002482D01*
X52074427Y-114000500D01*
X52372830Y-114000500D01*
X52372833Y-114000500D01*
X52670849Y-113984616D01*
X52745243Y-113982636D01*
X52819426Y-113976697D01*
X53117441Y-113960814D01*
X53414170Y-113929093D01*
X53488373Y-113923155D01*
X53562154Y-113913274D01*
X53788800Y-113889045D01*
X53858885Y-113881554D01*
X53927562Y-113870488D01*
X54153497Y-113834087D01*
X54227284Y-113824207D01*
X54227285Y-113824206D01*
X54227291Y-113824206D01*
X54260639Y-113817917D01*
X54300426Y-113810414D01*
X54595054Y-113762946D01*
X54886722Y-113699866D01*
X54959881Y-113686073D01*
X55032193Y-113668405D01*
X55323870Y-113605325D01*
X55323870Y-113605324D01*
X55323879Y-113605323D01*
X55323878Y-113605323D01*
X55363772Y-113594443D01*
X55611782Y-113526808D01*
X55640117Y-113519886D01*
X55684092Y-113509144D01*
X55715183Y-113499767D01*
X55755330Y-113487661D01*
X56043264Y-113409139D01*
X56326633Y-113315395D01*
X56397853Y-113293922D01*
X56397854Y-113293921D01*
X56397854Y-113293922D01*
X56417066Y-113286993D01*
X56467845Y-113268680D01*
X56671610Y-113201271D01*
X56751199Y-113174943D01*
X56836193Y-113141708D01*
X57029132Y-113066267D01*
X57099152Y-113041018D01*
X57167742Y-113012070D01*
X57445660Y-112903402D01*
X57445660Y-112903403D01*
X57526582Y-112866682D01*
X57717410Y-112780091D01*
X57785996Y-112751147D01*
X57785997Y-112751146D01*
X57786010Y-112751141D01*
X57831063Y-112729232D01*
X57852939Y-112718593D01*
X58014107Y-112645461D01*
X58124688Y-112595285D01*
X58124687Y-112595285D01*
X58124691Y-112595283D01*
X58389512Y-112457674D01*
X58456439Y-112425131D01*
X58456440Y-112425131D01*
X58482890Y-112410478D01*
X58521532Y-112389072D01*
X58786355Y-112251464D01*
X58786355Y-112251465D01*
X58869121Y-112202694D01*
X59043473Y-112099958D01*
X59108572Y-112063900D01*
X59108573Y-112063900D01*
X59108586Y-112063892D01*
X59171703Y-112024400D01*
X59362910Y-111911731D01*
X59428781Y-111872919D01*
X59436410Y-111867858D01*
X59677464Y-111707948D01*
X59740573Y-111668463D01*
X59801494Y-111625670D01*
X60050164Y-111460709D01*
X60050167Y-111460707D01*
X60050176Y-111460701D01*
X60159208Y-111379695D01*
X60289704Y-111282745D01*
X60350623Y-111239955D01*
X60350624Y-111239954D01*
X60350630Y-111239950D01*
X60409183Y-111193979D01*
X60648717Y-111016020D01*
X60674894Y-110994316D01*
X60878472Y-110825537D01*
X60937002Y-110779586D01*
X60993019Y-110730570D01*
X61222757Y-110540102D01*
X61222762Y-110540098D01*
X61222761Y-110540098D01*
X61442040Y-110337668D01*
X61498049Y-110288661D01*
X61551388Y-110236723D01*
X61770652Y-110034308D01*
X61978855Y-109820486D01*
X62032172Y-109768572D01*
X62082648Y-109713892D01*
X62290852Y-109500071D01*
X62487367Y-109275486D01*
X62537846Y-109220806D01*
X62537846Y-109220805D01*
X62537858Y-109220793D01*
X62585356Y-109163500D01*
X62781881Y-108938905D01*
X62966149Y-108704199D01*
X63013677Y-108646873D01*
X63013677Y-108646874D01*
X63023574Y-108633551D01*
X63058079Y-108587106D01*
X63242343Y-108352407D01*
X63242344Y-108352407D01*
X63264624Y-108320686D01*
X63413881Y-108108195D01*
X63458269Y-108048450D01*
X63499398Y-107986447D01*
X63670947Y-107742221D01*
X63829234Y-107489241D01*
X63870386Y-107427209D01*
X63908167Y-107363089D01*
X64066461Y-107110100D01*
X64066461Y-107110101D01*
X64081811Y-107082388D01*
X64211080Y-106849017D01*
X64248852Y-106784919D01*
X64248852Y-106784920D01*
X64283181Y-106718855D01*
X64427773Y-106457821D01*
X64427777Y-106457814D01*
X64558286Y-106189424D01*
X64592610Y-106123370D01*
X64592610Y-106123369D01*
X64623355Y-106055612D01*
X64753859Y-105787235D01*
X64754902Y-105784764D01*
X64869897Y-105512283D01*
X64900654Y-105444503D01*
X64900653Y-105444503D01*
X64900659Y-105444492D01*
X64900659Y-105444491D01*
X64927767Y-105375161D01*
X65043792Y-105100242D01*
X65044577Y-105098066D01*
X65145026Y-104819523D01*
X65172134Y-104750194D01*
X65172136Y-104750193D01*
X65195522Y-104679499D01*
X65265508Y-104485430D01*
X65306768Y-104429044D01*
X65371962Y-104403916D01*
X65440393Y-104418023D01*
X65490334Y-104466887D01*
X65506155Y-104527496D01*
X65506155Y-119586140D01*
X65486470Y-119653179D01*
X65469836Y-119673821D01*
X55042367Y-130101289D01*
X54981044Y-130134774D01*
X54945840Y-130137292D01*
X54700001Y-130119709D01*
X54699999Y-130119709D01*
X54432405Y-130138848D01*
X54432398Y-130138849D01*
X54170265Y-130195872D01*
X53918897Y-130289627D01*
X53918893Y-130289629D01*
X53683443Y-130418195D01*
X53683435Y-130418200D01*
X53468678Y-130578964D01*
X53468660Y-130578980D01*
X53278980Y-130768660D01*
X53278964Y-130768678D01*
X53118200Y-130983435D01*
X53118195Y-130983443D01*
X52989629Y-131218893D01*
X52989627Y-131218897D01*
X52895872Y-131470265D01*
X52838849Y-131732398D01*
X52838848Y-131732405D01*
X52819709Y-131999998D01*
X52819709Y-132000001D01*
X52838848Y-132267594D01*
X52838849Y-132267601D01*
X52895872Y-132529734D01*
X52989627Y-132781102D01*
X52989629Y-132781106D01*
X53118195Y-133016556D01*
X53118200Y-133016564D01*
X53278964Y-133231321D01*
X53278980Y-133231339D01*
X53468660Y-133421019D01*
X53468678Y-133421035D01*
X53683435Y-133581799D01*
X53683443Y-133581804D01*
X53918893Y-133710370D01*
X53918897Y-133710372D01*
X53918899Y-133710373D01*
X54170261Y-133804126D01*
X54170264Y-133804126D01*
X54170265Y-133804127D01*
X54196399Y-133809812D01*
X54432407Y-133861152D01*
X54679385Y-133878816D01*
X54699999Y-133880291D01*
X54700000Y-133880291D01*
X54700001Y-133880291D01*
X54719140Y-133878922D01*
X54967593Y-133861152D01*
X55229739Y-133804126D01*
X55481101Y-133710373D01*
X55716562Y-133581801D01*
X55931329Y-133421029D01*
X56121029Y-133231329D01*
X56281801Y-133016562D01*
X56410373Y-132781101D01*
X56504126Y-132529739D01*
X56561152Y-132267593D01*
X56580291Y-132000001D01*
X58219709Y-132000001D01*
X58238848Y-132267594D01*
X58238849Y-132267601D01*
X58295872Y-132529734D01*
X58389627Y-132781102D01*
X58389629Y-132781106D01*
X58518195Y-133016556D01*
X58518200Y-133016564D01*
X58678964Y-133231321D01*
X58678980Y-133231339D01*
X58868660Y-133421019D01*
X58868678Y-133421035D01*
X59083435Y-133581799D01*
X59083443Y-133581804D01*
X59318893Y-133710370D01*
X59318897Y-133710372D01*
X59318899Y-133710373D01*
X59570261Y-133804126D01*
X59570264Y-133804126D01*
X59570265Y-133804127D01*
X59596399Y-133809812D01*
X59832407Y-133861152D01*
X60079385Y-133878816D01*
X60099999Y-133880291D01*
X60100000Y-133880291D01*
X60100001Y-133880291D01*
X60119139Y-133878922D01*
X60367593Y-133861152D01*
X60629739Y-133804126D01*
X60881101Y-133710373D01*
X61116562Y-133581801D01*
X61331329Y-133421029D01*
X61521029Y-133231329D01*
X61563195Y-133175001D01*
X63624500Y-133175001D01*
X63624501Y-133175018D01*
X63635000Y-133277796D01*
X63635001Y-133277799D01*
X63690185Y-133444331D01*
X63690187Y-133444336D01*
X63718857Y-133490817D01*
X63782288Y-133593656D01*
X63906344Y-133717712D01*
X64055666Y-133809814D01*
X64222203Y-133864999D01*
X64324991Y-133875500D01*
X66675008Y-133875499D01*
X66777797Y-133864999D01*
X66944334Y-133809814D01*
X67093656Y-133717712D01*
X67217712Y-133593656D01*
X67309814Y-133444334D01*
X67364999Y-133277797D01*
X67375500Y-133175009D01*
X67375500Y-132000002D01*
X73745227Y-132000002D01*
X73764306Y-132351900D01*
X73764308Y-132351917D01*
X73821319Y-132699667D01*
X73821325Y-132699693D01*
X73915600Y-133039243D01*
X73915602Y-133039250D01*
X74046043Y-133366634D01*
X74046052Y-133366652D01*
X74211124Y-133678011D01*
X74408896Y-133969702D01*
X74531914Y-134114532D01*
X75607413Y-133039032D01*
X75668736Y-133005547D01*
X75738427Y-133010531D01*
X75789381Y-133046179D01*
X75865130Y-133134870D01*
X75928855Y-133189296D01*
X75953816Y-133210615D01*
X75992009Y-133269122D01*
X75992507Y-133338990D01*
X75960965Y-133392586D01*
X74882625Y-134470926D01*
X74882625Y-134470928D01*
X74892900Y-134480660D01*
X75173460Y-134693938D01*
X75173464Y-134693941D01*
X75475445Y-134875635D01*
X75795273Y-135023603D01*
X76129256Y-135136136D01*
X76473437Y-135211896D01*
X76823788Y-135249999D01*
X76823795Y-135250000D01*
X77176205Y-135250000D01*
X77176211Y-135249999D01*
X77526562Y-135211896D01*
X77870743Y-135136136D01*
X78204726Y-135023603D01*
X78524554Y-134875635D01*
X78826535Y-134693941D01*
X78826539Y-134693938D01*
X79107093Y-134480665D01*
X79107105Y-134480654D01*
X79117373Y-134470927D01*
X79117373Y-134470926D01*
X78039033Y-133392586D01*
X78005548Y-133331263D01*
X78010532Y-133261571D01*
X78046180Y-133210617D01*
X78134870Y-133134870D01*
X78210617Y-133046180D01*
X78269121Y-133007990D01*
X78338989Y-133007490D01*
X78392586Y-133039033D01*
X79468084Y-134114532D01*
X79468085Y-134114531D01*
X79591102Y-133969704D01*
X79788875Y-133678011D01*
X79953947Y-133366652D01*
X79953956Y-133366634D01*
X80084397Y-133039250D01*
X80084399Y-133039243D01*
X80178674Y-132699693D01*
X80178680Y-132699667D01*
X80235691Y-132351917D01*
X80235693Y-132351900D01*
X80254773Y-132000002D01*
X80254773Y-131999997D01*
X80235693Y-131648099D01*
X80235691Y-131648082D01*
X80178680Y-131300332D01*
X80178674Y-131300306D01*
X80084399Y-130960756D01*
X80084397Y-130960749D01*
X79953956Y-130633365D01*
X79953947Y-130633347D01*
X79788875Y-130321988D01*
X79591099Y-130030291D01*
X79468085Y-129885467D01*
X79468084Y-129885466D01*
X78392586Y-130960965D01*
X78331263Y-130994450D01*
X78261571Y-130989466D01*
X78210615Y-130953816D01*
X78189296Y-130928855D01*
X78134870Y-130865130D01*
X78046179Y-130789381D01*
X78007989Y-130730878D01*
X78007489Y-130661010D01*
X78039032Y-130607413D01*
X79117374Y-129529072D01*
X79107099Y-129519340D01*
X79107087Y-129519330D01*
X78826539Y-129306061D01*
X78826535Y-129306058D01*
X78524554Y-129124364D01*
X78204726Y-128976396D01*
X77870743Y-128863863D01*
X77526562Y-128788103D01*
X77176211Y-128750000D01*
X76823788Y-128750000D01*
X76473437Y-128788103D01*
X76129256Y-128863863D01*
X75795273Y-128976396D01*
X75475445Y-129124364D01*
X75173464Y-129306058D01*
X75173460Y-129306061D01*
X74892906Y-129519334D01*
X74882625Y-129529071D01*
X74882625Y-129529073D01*
X75960966Y-130607413D01*
X75994451Y-130668736D01*
X75989467Y-130738428D01*
X75953817Y-130789384D01*
X75865130Y-130865130D01*
X75789384Y-130953817D01*
X75730877Y-130992010D01*
X75661009Y-130992508D01*
X75607413Y-130960966D01*
X74531914Y-129885466D01*
X74531913Y-129885466D01*
X74408896Y-130030296D01*
X74211124Y-130321988D01*
X74046052Y-130633347D01*
X74046043Y-130633365D01*
X73915602Y-130960749D01*
X73915600Y-130960756D01*
X73821325Y-131300306D01*
X73821319Y-131300332D01*
X73764308Y-131648082D01*
X73764306Y-131648099D01*
X73745227Y-131999997D01*
X73745227Y-132000002D01*
X67375500Y-132000002D01*
X67375499Y-130824992D01*
X67369746Y-130768678D01*
X67364999Y-130722203D01*
X67364998Y-130722200D01*
X67347282Y-130668736D01*
X67309814Y-130555666D01*
X67217712Y-130406344D01*
X67093656Y-130282288D01*
X66944334Y-130190186D01*
X66777797Y-130135001D01*
X66777795Y-130135000D01*
X66675010Y-130124500D01*
X64324998Y-130124500D01*
X64324981Y-130124501D01*
X64222203Y-130135000D01*
X64222200Y-130135001D01*
X64055668Y-130190185D01*
X64055663Y-130190187D01*
X63906342Y-130282289D01*
X63782289Y-130406342D01*
X63690187Y-130555663D01*
X63690185Y-130555666D01*
X63690186Y-130555666D01*
X63635001Y-130722203D01*
X63635001Y-130722204D01*
X63635000Y-130722204D01*
X63624500Y-130824983D01*
X63624500Y-133175001D01*
X61563195Y-133175001D01*
X61681801Y-133016562D01*
X61810373Y-132781101D01*
X61904126Y-132529739D01*
X61961152Y-132267593D01*
X61980291Y-132000000D01*
X61962707Y-131754155D01*
X61977559Y-131685885D01*
X61998707Y-131657633D01*
X70205879Y-123450461D01*
X70221631Y-123437138D01*
X70223952Y-123435486D01*
X70287427Y-123368914D01*
X70315241Y-123341101D01*
X70322203Y-123332667D01*
X70325107Y-123329395D01*
X70368986Y-123283378D01*
X70388364Y-123253223D01*
X70392700Y-123247285D01*
X70415523Y-123219645D01*
X70445988Y-123163851D01*
X70448243Y-123160051D01*
X70467680Y-123129807D01*
X70482613Y-123106572D01*
X70487531Y-123094285D01*
X70495933Y-123073300D01*
X70499074Y-123066630D01*
X70516247Y-123035183D01*
X70535610Y-122974605D01*
X70537081Y-122970513D01*
X70560725Y-122911457D01*
X70567507Y-122876264D01*
X70569328Y-122869129D01*
X70580242Y-122834992D01*
X70587792Y-122771833D01*
X70588464Y-122767528D01*
X70600500Y-122705085D01*
X70600500Y-122669248D01*
X70600939Y-122661882D01*
X70602070Y-122652419D01*
X70605192Y-122626309D01*
X70600658Y-122562913D01*
X70600500Y-122558489D01*
X70600500Y-78602238D01*
X70602218Y-78581671D01*
X70602687Y-78578877D01*
X70602689Y-78578867D01*
X70600500Y-78486917D01*
X70600500Y-78447575D01*
X70599462Y-78436708D01*
X70599199Y-78432298D01*
X70597687Y-78368756D01*
X70590069Y-78333742D01*
X70588934Y-78326463D01*
X70585528Y-78290782D01*
X70567617Y-78229784D01*
X70566525Y-78225505D01*
X70561816Y-78203858D01*
X70553013Y-78163388D01*
X70538902Y-78130437D01*
X70536413Y-78123513D01*
X70526316Y-78089125D01*
X70497188Y-78032625D01*
X70495309Y-78028638D01*
X70470282Y-77970192D01*
X70470277Y-77970184D01*
X70450194Y-77940510D01*
X70446433Y-77934173D01*
X70430011Y-77902318D01*
X70390716Y-77852351D01*
X70388110Y-77848782D01*
X70352479Y-77796138D01*
X70352478Y-77796136D01*
X70327130Y-77770788D01*
X70322245Y-77765283D01*
X70300092Y-77737114D01*
X70252048Y-77695483D01*
X70248808Y-77692466D01*
X69241104Y-76684762D01*
X69241094Y-76684753D01*
X69119650Y-76584479D01*
X69119649Y-76584478D01*
X68935181Y-76483750D01*
X68734998Y-76419759D01*
X68734988Y-76419757D01*
X68526309Y-76394808D01*
X68316679Y-76409799D01*
X68316669Y-76409800D01*
X68113664Y-76464196D01*
X68113652Y-76464201D01*
X67924622Y-76556026D01*
X67756366Y-76681982D01*
X67614995Y-76837496D01*
X67505611Y-77016951D01*
X67505608Y-77016959D01*
X67432163Y-77213872D01*
X67432161Y-77213881D01*
X67397312Y-77421124D01*
X67397311Y-77421132D01*
X67402313Y-77631245D01*
X67402314Y-77631253D01*
X67446984Y-77836602D01*
X67446987Y-77836613D01*
X67529719Y-78029809D01*
X67647517Y-78203858D01*
X67647525Y-78203867D01*
X68363181Y-78919523D01*
X68396666Y-78980846D01*
X68399500Y-79007204D01*
X68399500Y-122092794D01*
X68379815Y-122159833D01*
X68363181Y-122180475D01*
X60442367Y-130101289D01*
X60381044Y-130134774D01*
X60345840Y-130137292D01*
X60100001Y-130119709D01*
X60099999Y-130119709D01*
X59832405Y-130138848D01*
X59832398Y-130138849D01*
X59570265Y-130195872D01*
X59318897Y-130289627D01*
X59318893Y-130289629D01*
X59083443Y-130418195D01*
X59083435Y-130418200D01*
X58868678Y-130578964D01*
X58868660Y-130578980D01*
X58678980Y-130768660D01*
X58678964Y-130768678D01*
X58518200Y-130983435D01*
X58518195Y-130983443D01*
X58389629Y-131218893D01*
X58389627Y-131218897D01*
X58295872Y-131470265D01*
X58238849Y-131732398D01*
X58238848Y-131732405D01*
X58219709Y-131999998D01*
X58219709Y-132000001D01*
X56580291Y-132000001D01*
X56580291Y-132000000D01*
X56562707Y-131754155D01*
X56577559Y-131685885D01*
X56598707Y-131657633D01*
X67312534Y-120943806D01*
X67328286Y-120930483D01*
X67330607Y-120928831D01*
X67394082Y-120862259D01*
X67421896Y-120834446D01*
X67428858Y-120826012D01*
X67431762Y-120822740D01*
X67475641Y-120776723D01*
X67495011Y-120746581D01*
X67499365Y-120740620D01*
X67522177Y-120712992D01*
X67522179Y-120712990D01*
X67552643Y-120657198D01*
X67554903Y-120653389D01*
X67566601Y-120635185D01*
X67589268Y-120599917D01*
X67602585Y-120566651D01*
X67605724Y-120559986D01*
X67622903Y-120528527D01*
X67642270Y-120467939D01*
X67643744Y-120463840D01*
X67667380Y-120404802D01*
X67674162Y-120369610D01*
X67675985Y-120362471D01*
X67686896Y-120328339D01*
X67686897Y-120328337D01*
X67694447Y-120265178D01*
X67695119Y-120260873D01*
X67707155Y-120198430D01*
X67707155Y-120162593D01*
X67707594Y-120155227D01*
X67708257Y-120149679D01*
X67711847Y-120119654D01*
X67707312Y-120056252D01*
X67707155Y-120051830D01*
X67707155Y-81208892D01*
X67708873Y-81188325D01*
X67709342Y-81185531D01*
X67709344Y-81185521D01*
X67707155Y-81093571D01*
X67707155Y-81054230D01*
X67706117Y-81043363D01*
X67705854Y-81038953D01*
X67704342Y-80975410D01*
X67703466Y-80971385D01*
X67696726Y-80940402D01*
X67695588Y-80933107D01*
X67695511Y-80932298D01*
X67692183Y-80897437D01*
X67674268Y-80836427D01*
X67673179Y-80832158D01*
X67664179Y-80790782D01*
X67659668Y-80770043D01*
X67645556Y-80737089D01*
X67643066Y-80730162D01*
X67632971Y-80695780D01*
X67632968Y-80695775D01*
X67632967Y-80695770D01*
X67603841Y-80639275D01*
X67601960Y-80635282D01*
X67576934Y-80576842D01*
X67576933Y-80576840D01*
X67576932Y-80576838D01*
X67576931Y-80576837D01*
X67556850Y-80547166D01*
X67553084Y-80540819D01*
X67536671Y-80508983D01*
X67536666Y-80508973D01*
X67497361Y-80458994D01*
X67494754Y-80455422D01*
X67484673Y-80440527D01*
X67459132Y-80402790D01*
X67433785Y-80377443D01*
X67428900Y-80371938D01*
X67406747Y-80343769D01*
X67358703Y-80302138D01*
X67355463Y-80299121D01*
X61003743Y-73947401D01*
X73895746Y-73947401D01*
X73905745Y-74157327D01*
X73955296Y-74361578D01*
X73955298Y-74361582D01*
X74042598Y-74552743D01*
X74042601Y-74552748D01*
X74042602Y-74552750D01*
X74042604Y-74552753D01*
X74160285Y-74718013D01*
X74164515Y-74723953D01*
X74164520Y-74723959D01*
X74316620Y-74868985D01*
X74411578Y-74930011D01*
X74493428Y-74982613D01*
X74688543Y-75060725D01*
X74791728Y-75080612D01*
X74894914Y-75100500D01*
X74894915Y-75100500D01*
X79052419Y-75100500D01*
X79052425Y-75100500D01*
X79209218Y-75085528D01*
X79410875Y-75026316D01*
X79597682Y-74930011D01*
X79599492Y-74928588D01*
X79692534Y-74855418D01*
X79762886Y-74800092D01*
X79900519Y-74641256D01*
X79912416Y-74620651D01*
X79976861Y-74509028D01*
X80005604Y-74459244D01*
X80074344Y-74260633D01*
X80104254Y-74052602D01*
X80094254Y-73842670D01*
X80044704Y-73638424D01*
X80028679Y-73603334D01*
X79957401Y-73447256D01*
X79957398Y-73447251D01*
X79957397Y-73447250D01*
X79957396Y-73447247D01*
X79835486Y-73276048D01*
X79835484Y-73276046D01*
X79835479Y-73276040D01*
X79683379Y-73131014D01*
X79506574Y-73017388D01*
X79311455Y-72939274D01*
X79105086Y-72899500D01*
X79105085Y-72899500D01*
X74947575Y-72899500D01*
X74790781Y-72914472D01*
X74790782Y-72914472D01*
X74790778Y-72914473D01*
X74589127Y-72973683D01*
X74402313Y-73069991D01*
X74237116Y-73199905D01*
X74237112Y-73199909D01*
X74099478Y-73358746D01*
X73994398Y-73540750D01*
X73925656Y-73739365D01*
X73925656Y-73739367D01*
X73910804Y-73842670D01*
X73895746Y-73947401D01*
X61003743Y-73947401D01*
X58741104Y-71684762D01*
X58741094Y-71684753D01*
X58619650Y-71584479D01*
X58619649Y-71584478D01*
X58435181Y-71483750D01*
X58234998Y-71419759D01*
X58234988Y-71419757D01*
X58026309Y-71394808D01*
X57816679Y-71409799D01*
X57816669Y-71409800D01*
X57613664Y-71464196D01*
X57613652Y-71464201D01*
X57424622Y-71556026D01*
X57256366Y-71681982D01*
X57114995Y-71837496D01*
X57005611Y-72016951D01*
X57005608Y-72016959D01*
X56932163Y-72213872D01*
X56932161Y-72213881D01*
X56897312Y-72421124D01*
X56897311Y-72421132D01*
X56897311Y-72421134D01*
X56900732Y-72564817D01*
X56902313Y-72631245D01*
X56902314Y-72631253D01*
X56946984Y-72836602D01*
X56946987Y-72836613D01*
X57029719Y-73029809D01*
X57147517Y-73203858D01*
X57147522Y-73203863D01*
X57147523Y-73203865D01*
X65469836Y-81526179D01*
X65503320Y-81587500D01*
X65506154Y-81613858D01*
X65506154Y-95472502D01*
X65486469Y-95539541D01*
X65433665Y-95585296D01*
X65364507Y-95595240D01*
X65300951Y-95566215D01*
X65265507Y-95514567D01*
X65250337Y-95472502D01*
X65195521Y-95320497D01*
X65172138Y-95249812D01*
X65145023Y-95180468D01*
X65043792Y-94899758D01*
X64927768Y-94624839D01*
X64916283Y-94595468D01*
X64900654Y-94555497D01*
X64900648Y-94555484D01*
X64900649Y-94555484D01*
X64886347Y-94523968D01*
X64869892Y-94487703D01*
X64753862Y-94212772D01*
X64753861Y-94212771D01*
X64623356Y-93944387D01*
X64592596Y-93876601D01*
X64558282Y-93810567D01*
X64427777Y-93542186D01*
X64427778Y-93542187D01*
X64283180Y-93281143D01*
X64248856Y-93215088D01*
X64248854Y-93215085D01*
X64211054Y-93150935D01*
X64066461Y-92889900D01*
X64066461Y-92889899D01*
X63908184Y-92636938D01*
X63870392Y-92572800D01*
X63829226Y-92510745D01*
X63670947Y-92257779D01*
X63499420Y-92013582D01*
X63458264Y-91951543D01*
X63458264Y-91951542D01*
X63413875Y-91891796D01*
X63242344Y-91647593D01*
X63242343Y-91647593D01*
X63058078Y-91412892D01*
X63013674Y-91353123D01*
X63013673Y-91353122D01*
X63013668Y-91353115D01*
X62966143Y-91295793D01*
X62781877Y-91061090D01*
X62585375Y-90836521D01*
X62537862Y-90779212D01*
X62537858Y-90779207D01*
X62522848Y-90762947D01*
X62487360Y-90724504D01*
X62290856Y-90499933D01*
X62082670Y-90286129D01*
X62032173Y-90231429D01*
X61978832Y-90179489D01*
X61770651Y-89965691D01*
X61551387Y-89763276D01*
X61498045Y-89711335D01*
X61498046Y-89711335D01*
X61442024Y-89662316D01*
X61222762Y-89459902D01*
X61222761Y-89459902D01*
X61222757Y-89459898D01*
X60993015Y-89269426D01*
X60937002Y-89220414D01*
X60923442Y-89209768D01*
X60878455Y-89174448D01*
X60648708Y-88983973D01*
X60409183Y-88806020D01*
X60350624Y-88760046D01*
X60350623Y-88760045D01*
X60350617Y-88760041D01*
X60350611Y-88760036D01*
X60350612Y-88760036D01*
X60289696Y-88717248D01*
X60056731Y-88544170D01*
X60050164Y-88539291D01*
X60048508Y-88538192D01*
X59801512Y-88374340D01*
X59740586Y-88331545D01*
X59677440Y-88292035D01*
X59428781Y-88127081D01*
X59171702Y-87975599D01*
X59108579Y-87936103D01*
X59043451Y-87900027D01*
X58786369Y-87748544D01*
X58786370Y-87748544D01*
X58786359Y-87748538D01*
X58679703Y-87693116D01*
X58521564Y-87610942D01*
X58456439Y-87574868D01*
X58456439Y-87574869D01*
X58389485Y-87542311D01*
X58135012Y-87410080D01*
X58124691Y-87404717D01*
X58124687Y-87404715D01*
X57852956Y-87281413D01*
X57785996Y-87248853D01*
X57717397Y-87219902D01*
X57445663Y-87096599D01*
X57445660Y-87096597D01*
X57167751Y-86987933D01*
X57099157Y-86958984D01*
X57099155Y-86958983D01*
X57099152Y-86958982D01*
X57029109Y-86933723D01*
X56751197Y-86825057D01*
X56751192Y-86825055D01*
X56751193Y-86825055D01*
X56467871Y-86731328D01*
X56397850Y-86706077D01*
X56326591Y-86684590D01*
X56198401Y-86642182D01*
X56043264Y-86590861D01*
X55755381Y-86512352D01*
X55684099Y-86490859D01*
X55684100Y-86490859D01*
X55684094Y-86490857D01*
X55684089Y-86490856D01*
X55657176Y-86484281D01*
X55611760Y-86473185D01*
X55323878Y-86394677D01*
X55323879Y-86394677D01*
X55032218Y-86331599D01*
X54984584Y-86319962D01*
X54959881Y-86313927D01*
X54959876Y-86313926D01*
X54886706Y-86300129D01*
X54695850Y-86258853D01*
X54595054Y-86237054D01*
X54595048Y-86237053D01*
X54300460Y-86189590D01*
X54227285Y-86175793D01*
X54153474Y-86165909D01*
X53858885Y-86118446D01*
X53562181Y-86086728D01*
X53488368Y-86076844D01*
X53464864Y-86074963D01*
X53414147Y-86070903D01*
X53160452Y-86043783D01*
X53117441Y-86039186D01*
X53000055Y-86032929D01*
X52819453Y-86023303D01*
X52771915Y-86019498D01*
X52745243Y-86017364D01*
X52716953Y-86016610D01*
X52670824Y-86015382D01*
X52455548Y-86003908D01*
X52372833Y-85999500D01*
X52074393Y-85999500D01*
X52000000Y-85997519D01*
X51925607Y-85999500D01*
X51627167Y-85999500D01*
X51554532Y-86003371D01*
X51329175Y-86015382D01*
X51281589Y-86016649D01*
X51254757Y-86017364D01*
X51229592Y-86019378D01*
X51180546Y-86023303D01*
X50995798Y-86033150D01*
X50882559Y-86039186D01*
X50843704Y-86043339D01*
X50585852Y-86070903D01*
X50533735Y-86075075D01*
X50511632Y-86076844D01*
X50437818Y-86086728D01*
X50141115Y-86118446D01*
X49846525Y-86165909D01*
X49772715Y-86175793D01*
X49699539Y-86189590D01*
X49404952Y-86237053D01*
X49404946Y-86237054D01*
X49324384Y-86254477D01*
X49113293Y-86300129D01*
X49040128Y-86313925D01*
X49040126Y-86313925D01*
X49040119Y-86313927D01*
X49016537Y-86319688D01*
X48967780Y-86331599D01*
X48676121Y-86394677D01*
X48388239Y-86473185D01*
X48336756Y-86485763D01*
X48315911Y-86490856D01*
X48315905Y-86490857D01*
X48315900Y-86490859D01*
X48244631Y-86512349D01*
X48180748Y-86529770D01*
X47956736Y-86590861D01*
X47855690Y-86624288D01*
X47673408Y-86684590D01*
X47602156Y-86706075D01*
X47602157Y-86706075D01*
X47602147Y-86706078D01*
X47560257Y-86721184D01*
X47532128Y-86731328D01*
X47248807Y-86825055D01*
X47248808Y-86825055D01*
X46970889Y-86933723D01*
X46900848Y-86958982D01*
X46900849Y-86958981D01*
X46832248Y-86987933D01*
X46554340Y-87096597D01*
X46554337Y-87096599D01*
X46421163Y-87157028D01*
X46282602Y-87219902D01*
X46214004Y-87248853D01*
X46147043Y-87281413D01*
X46006660Y-87345114D01*
X45875309Y-87404717D01*
X45827472Y-87429574D01*
X45610515Y-87542310D01*
X45543547Y-87574876D01*
X45543546Y-87574877D01*
X45478435Y-87610943D01*
X45354118Y-87675542D01*
X45213641Y-87748538D01*
X45213629Y-87748544D01*
X45213631Y-87748544D01*
X44956549Y-87900027D01*
X44907397Y-87927254D01*
X44891419Y-87936105D01*
X44891414Y-87936107D01*
X44891416Y-87936107D01*
X44828297Y-87975599D01*
X44571214Y-88127084D01*
X44571215Y-88127084D01*
X44322559Y-88292035D01*
X44282786Y-88316921D01*
X44259427Y-88331537D01*
X44259423Y-88331540D01*
X44259424Y-88331539D01*
X44198487Y-88374341D01*
X43951980Y-88537868D01*
X43949836Y-88539291D01*
X43943269Y-88544170D01*
X43710304Y-88717248D01*
X43649376Y-88760046D01*
X43590816Y-88806020D01*
X43351292Y-88983973D01*
X43121544Y-89174447D01*
X43073706Y-89212006D01*
X43062998Y-89220414D01*
X43062992Y-89220418D01*
X43062991Y-89220420D01*
X43006981Y-89269429D01*
X42777239Y-89459901D01*
X42777238Y-89459902D01*
X42557975Y-89662316D01*
X42501944Y-89711345D01*
X42448611Y-89763276D01*
X42229349Y-89965691D01*
X42021167Y-90179489D01*
X41967827Y-90231429D01*
X41917329Y-90286129D01*
X41819891Y-90386197D01*
X41709148Y-90499929D01*
X41709136Y-90499943D01*
X41709135Y-90499943D01*
X41512639Y-90724505D01*
X41476614Y-90763529D01*
X41462142Y-90779207D01*
X41462138Y-90779212D01*
X41462137Y-90779213D01*
X41414624Y-90836521D01*
X41296619Y-90971381D01*
X41218119Y-91061095D01*
X41218116Y-91061099D01*
X41218116Y-91061098D01*
X41033856Y-91295793D01*
X40986325Y-91353124D01*
X40986325Y-91353125D01*
X40941915Y-91412899D01*
X40757650Y-91647601D01*
X40586124Y-91891796D01*
X40541733Y-91951547D01*
X40500580Y-92013582D01*
X40329053Y-92257779D01*
X40326991Y-92261075D01*
X40170773Y-92510745D01*
X40130944Y-92570785D01*
X40129614Y-92572791D01*
X40129609Y-92572800D01*
X40091815Y-92636938D01*
X39933539Y-92889899D01*
X39933539Y-92889900D01*
X39788940Y-93150946D01*
X39751147Y-93215082D01*
X39751147Y-93215081D01*
X39716819Y-93281143D01*
X39572223Y-93542186D01*
X39441717Y-93810567D01*
X39410704Y-93870251D01*
X39407399Y-93876612D01*
X39400291Y-93892276D01*
X39376644Y-93944387D01*
X39246138Y-94212772D01*
X39130108Y-94487703D01*
X39099346Y-94555497D01*
X39089029Y-94581880D01*
X39072232Y-94624838D01*
X38956205Y-94899764D01*
X38956206Y-94899763D01*
X38854976Y-95180468D01*
X38827860Y-95249818D01*
X38827860Y-95249819D01*
X38804477Y-95320500D01*
X38703246Y-95601213D01*
X38617094Y-95886924D01*
X38593713Y-95957604D01*
X38574131Y-96029408D01*
X38487977Y-96315134D01*
X38487977Y-96315135D01*
X38417156Y-96605019D01*
X38397573Y-96676828D01*
X38397573Y-96676829D01*
X38381835Y-96749595D01*
X38340030Y-96920712D01*
X38311013Y-97039488D01*
X38283630Y-97184710D01*
X38255720Y-97332735D01*
X38239983Y-97405504D01*
X38228142Y-97478997D01*
X38172851Y-97772237D01*
X38172850Y-97772238D01*
X38133244Y-98068003D01*
X38121401Y-98141510D01*
X38113486Y-98215549D01*
X38073881Y-98511312D01*
X38050073Y-98808754D01*
X38042158Y-98882797D01*
X38040594Y-98912136D01*
X38038194Y-98957153D01*
X38014387Y-99254604D01*
X38006443Y-99552908D01*
X38002481Y-99627249D01*
X38002481Y-99701689D01*
X37994537Y-100000000D01*
X37600500Y-100000000D01*
X37600500Y-83007203D01*
X37620185Y-82940164D01*
X37636819Y-82919522D01*
X44946342Y-75610000D01*
X47914785Y-75610000D01*
X47933602Y-75813082D01*
X47989417Y-76009247D01*
X47989422Y-76009260D01*
X48080327Y-76191821D01*
X48203237Y-76354581D01*
X48353958Y-76491980D01*
X48353960Y-76491982D01*
X48480148Y-76570113D01*
X48527363Y-76599348D01*
X48558863Y-76611551D01*
X48561927Y-76612844D01*
X48562002Y-76612870D01*
X48562004Y-76612871D01*
X48563021Y-76613223D01*
X48564499Y-76613735D01*
X48637113Y-76641865D01*
X48717544Y-76673024D01*
X48750395Y-76679165D01*
X48753608Y-76679854D01*
X48760070Y-76681422D01*
X48760075Y-76681424D01*
X48760079Y-76681424D01*
X48760081Y-76681425D01*
X48770493Y-76682922D01*
X48816035Y-76691435D01*
X48918024Y-76710500D01*
X48918026Y-76710500D01*
X48953437Y-76710500D01*
X48961643Y-76711086D01*
X48961649Y-76710972D01*
X48967537Y-76711252D01*
X48967541Y-76711253D01*
X48967544Y-76711252D01*
X48967548Y-76711253D01*
X48975954Y-76710853D01*
X48975964Y-76710855D01*
X48981938Y-76710570D01*
X48984891Y-76710500D01*
X49121975Y-76710500D01*
X49121976Y-76710500D01*
X49165198Y-76702420D01*
X49173646Y-76701435D01*
X49176902Y-76701280D01*
X49176904Y-76701279D01*
X49178781Y-76701190D01*
X49178827Y-76701185D01*
X49211914Y-76699608D01*
X49242294Y-76688008D01*
X49322456Y-76673024D01*
X49367381Y-76655619D01*
X49375145Y-76653186D01*
X49380593Y-76651865D01*
X49380596Y-76651863D01*
X49383340Y-76651198D01*
X49383370Y-76651190D01*
X49412586Y-76644101D01*
X49438999Y-76627875D01*
X49501313Y-76603735D01*
X49512635Y-76599349D01*
X49512640Y-76599346D01*
X49557244Y-76571728D01*
X49564092Y-76568064D01*
X49571251Y-76564795D01*
X49571254Y-76564792D01*
X49575575Y-76562820D01*
X49577528Y-76561928D01*
X49578782Y-76561747D01*
X49582029Y-76559872D01*
X49599245Y-76552010D01*
X49621028Y-76532234D01*
X49686041Y-76491981D01*
X49728053Y-76453681D01*
X49733809Y-76449036D01*
X49741985Y-76443215D01*
X49741989Y-76443210D01*
X49742077Y-76443148D01*
X49744906Y-76442168D01*
X49751622Y-76436350D01*
X49765296Y-76426612D01*
X49782053Y-76404453D01*
X49836764Y-76354579D01*
X49873691Y-76305678D01*
X49878278Y-76300278D01*
X49881207Y-76297203D01*
X49882284Y-76296074D01*
X49886302Y-76293752D01*
X49894799Y-76282949D01*
X49904839Y-76272419D01*
X49916455Y-76249050D01*
X49959673Y-76191821D01*
X49986822Y-76137297D01*
X49994339Y-76129189D01*
X49995541Y-76126187D01*
X50006342Y-76105235D01*
X50012993Y-76094884D01*
X50019607Y-76071455D01*
X50050582Y-76009250D01*
X50067598Y-75949443D01*
X50074343Y-75938750D01*
X50075596Y-75932253D01*
X50082240Y-75909626D01*
X50085947Y-75900365D01*
X50087948Y-75877921D01*
X50106397Y-75813083D01*
X50113368Y-75737845D01*
X50114217Y-75731880D01*
X50117510Y-75714799D01*
X50117510Y-75714794D01*
X50121179Y-75695758D01*
X50119173Y-75675195D01*
X50125215Y-75610000D01*
X50124288Y-75600000D01*
X53894785Y-75600000D01*
X53913602Y-75803082D01*
X53969417Y-75999247D01*
X53969422Y-75999260D01*
X54060327Y-76181821D01*
X54183237Y-76344581D01*
X54333958Y-76481980D01*
X54333960Y-76481982D01*
X54447060Y-76552010D01*
X54507363Y-76589348D01*
X54538863Y-76601551D01*
X54541927Y-76602844D01*
X54542002Y-76602870D01*
X54542004Y-76602871D01*
X54543021Y-76603223D01*
X54544499Y-76603735D01*
X54606808Y-76627873D01*
X54697544Y-76663024D01*
X54730395Y-76669165D01*
X54733608Y-76669854D01*
X54740070Y-76671422D01*
X54740075Y-76671424D01*
X54740079Y-76671424D01*
X54740081Y-76671425D01*
X54750493Y-76672922D01*
X54777696Y-76678007D01*
X54898024Y-76700500D01*
X54898026Y-76700500D01*
X54933437Y-76700500D01*
X54941643Y-76701086D01*
X54941649Y-76700972D01*
X54947537Y-76701252D01*
X54947541Y-76701253D01*
X54947544Y-76701252D01*
X54947548Y-76701253D01*
X54955954Y-76700853D01*
X54955964Y-76700855D01*
X54961938Y-76700570D01*
X54964891Y-76700500D01*
X55101975Y-76700500D01*
X55101976Y-76700500D01*
X55145198Y-76692420D01*
X55153646Y-76691435D01*
X55156902Y-76691280D01*
X55156904Y-76691279D01*
X55158781Y-76691190D01*
X55158827Y-76691185D01*
X55191914Y-76689608D01*
X55222294Y-76678008D01*
X55302456Y-76663024D01*
X55347381Y-76645619D01*
X55355145Y-76643186D01*
X55360593Y-76641865D01*
X55360596Y-76641863D01*
X55363340Y-76641198D01*
X55363370Y-76641190D01*
X55392586Y-76634101D01*
X55418999Y-76617875D01*
X55480030Y-76594232D01*
X55492635Y-76589349D01*
X55492640Y-76589346D01*
X55533893Y-76563802D01*
X55541801Y-76561552D01*
X55542965Y-76560880D01*
X55542408Y-76559988D01*
X55545827Y-76557852D01*
X55547829Y-76556774D01*
X55547672Y-76556430D01*
X55553786Y-76553638D01*
X55557528Y-76551928D01*
X55558782Y-76551747D01*
X55562029Y-76549872D01*
X55579245Y-76542010D01*
X55601028Y-76522234D01*
X55666041Y-76481981D01*
X55708053Y-76443681D01*
X55713809Y-76439036D01*
X55721985Y-76433215D01*
X55721989Y-76433210D01*
X55722077Y-76433148D01*
X55724906Y-76432168D01*
X55731622Y-76426350D01*
X55745296Y-76416612D01*
X55762053Y-76394453D01*
X55816764Y-76344579D01*
X55853691Y-76295678D01*
X55858278Y-76290278D01*
X55861207Y-76287203D01*
X55862284Y-76286074D01*
X55866302Y-76283752D01*
X55874799Y-76272949D01*
X55884839Y-76262419D01*
X55896455Y-76239050D01*
X55939673Y-76181821D01*
X55966822Y-76127297D01*
X55974339Y-76119189D01*
X55975541Y-76116187D01*
X55986342Y-76095235D01*
X55992993Y-76084884D01*
X55999607Y-76061455D01*
X56030582Y-75999250D01*
X56047598Y-75939443D01*
X56054343Y-75928750D01*
X56055596Y-75922253D01*
X56062240Y-75899626D01*
X56065947Y-75890365D01*
X56067948Y-75867921D01*
X56086397Y-75803083D01*
X56093368Y-75727845D01*
X56094217Y-75721880D01*
X56097510Y-75704799D01*
X56097510Y-75704794D01*
X56101179Y-75685758D01*
X56099173Y-75665195D01*
X56105215Y-75600000D01*
X56099173Y-75534804D01*
X56102180Y-75519433D01*
X56096147Y-75488132D01*
X56094219Y-75478127D01*
X56093368Y-75472148D01*
X56086397Y-75396917D01*
X56067948Y-75332076D01*
X56068091Y-75314986D01*
X56062239Y-75300369D01*
X56055597Y-75277746D01*
X56055152Y-75275440D01*
X56047599Y-75260558D01*
X56030582Y-75200750D01*
X56030581Y-75200747D01*
X56030580Y-75200744D01*
X55999608Y-75138546D01*
X55996365Y-75120359D01*
X55986342Y-75104762D01*
X55975891Y-75084490D01*
X55966824Y-75072705D01*
X55939673Y-75018179D01*
X55939670Y-75018175D01*
X55939669Y-75018173D01*
X55896456Y-74960949D01*
X55889456Y-74942420D01*
X55874797Y-74927047D01*
X55868144Y-74918588D01*
X55862316Y-74913957D01*
X55858299Y-74909744D01*
X55853692Y-74904322D01*
X55843043Y-74890220D01*
X55816766Y-74855422D01*
X55816764Y-74855420D01*
X55762055Y-74805547D01*
X55751101Y-74787519D01*
X55731623Y-74773649D01*
X55726369Y-74769096D01*
X55722065Y-74766842D01*
X55713832Y-74760978D01*
X55708024Y-74756291D01*
X55693766Y-74743293D01*
X55666041Y-74718019D01*
X55666034Y-74718015D01*
X55666032Y-74718013D01*
X55601029Y-74677765D01*
X55586113Y-74661124D01*
X55562029Y-74650126D01*
X55559533Y-74648685D01*
X55557586Y-74648097D01*
X55544104Y-74641940D01*
X55537214Y-74638253D01*
X55508789Y-74620653D01*
X55492637Y-74610652D01*
X55444805Y-74592122D01*
X55418993Y-74582122D01*
X55400320Y-74567772D01*
X55360264Y-74558055D01*
X55358216Y-74557558D01*
X55355155Y-74556815D01*
X55347370Y-74554375D01*
X55316645Y-74542473D01*
X55302456Y-74536976D01*
X55302447Y-74536974D01*
X55302446Y-74536974D01*
X55222284Y-74521988D01*
X55200247Y-74510783D01*
X55153641Y-74508563D01*
X55145191Y-74507577D01*
X55101980Y-74499500D01*
X55101976Y-74499500D01*
X54964834Y-74499500D01*
X54961884Y-74499430D01*
X54947540Y-74498746D01*
X54941649Y-74499028D01*
X54941643Y-74498913D01*
X54933437Y-74499500D01*
X54898024Y-74499500D01*
X54837999Y-74510720D01*
X54750491Y-74527078D01*
X54740072Y-74528576D01*
X54733593Y-74530148D01*
X54730373Y-74530839D01*
X54697548Y-74536975D01*
X54697538Y-74536977D01*
X54544496Y-74596266D01*
X54541915Y-74597159D01*
X54538811Y-74598468D01*
X54507363Y-74610651D01*
X54507361Y-74610652D01*
X54333957Y-74718020D01*
X54183237Y-74855418D01*
X54060327Y-75018178D01*
X53969422Y-75200739D01*
X53969417Y-75200752D01*
X53913602Y-75396917D01*
X53894785Y-75599999D01*
X53894785Y-75600000D01*
X50124288Y-75600000D01*
X50119173Y-75544804D01*
X50122180Y-75529433D01*
X50115582Y-75495201D01*
X50114219Y-75488127D01*
X50113368Y-75482148D01*
X50106397Y-75406917D01*
X50087948Y-75342076D01*
X50088091Y-75324986D01*
X50082239Y-75310369D01*
X50075597Y-75287746D01*
X50075152Y-75285440D01*
X50067599Y-75270558D01*
X50050582Y-75210750D01*
X50050581Y-75210747D01*
X50050580Y-75210744D01*
X50019608Y-75148546D01*
X50016365Y-75130359D01*
X50006342Y-75114762D01*
X49995891Y-75094490D01*
X49986824Y-75082705D01*
X49959673Y-75028179D01*
X49959670Y-75028175D01*
X49959669Y-75028173D01*
X49916456Y-74970949D01*
X49909456Y-74952420D01*
X49894797Y-74937047D01*
X49888144Y-74928588D01*
X49882316Y-74923957D01*
X49878299Y-74919744D01*
X49873692Y-74914322D01*
X49863043Y-74900220D01*
X49836766Y-74865422D01*
X49836764Y-74865420D01*
X49782055Y-74815547D01*
X49771101Y-74797519D01*
X49751623Y-74783649D01*
X49746369Y-74779096D01*
X49742065Y-74776842D01*
X49733832Y-74770978D01*
X49728024Y-74766291D01*
X49713766Y-74753293D01*
X49686041Y-74728019D01*
X49686034Y-74728015D01*
X49686032Y-74728013D01*
X49621029Y-74687765D01*
X49606113Y-74671124D01*
X49582029Y-74660126D01*
X49579533Y-74658685D01*
X49577586Y-74658097D01*
X49564104Y-74651940D01*
X49557214Y-74648253D01*
X49547018Y-74641940D01*
X49512637Y-74620652D01*
X49455373Y-74598468D01*
X49438993Y-74592122D01*
X49420320Y-74577772D01*
X49380264Y-74568055D01*
X49378216Y-74567558D01*
X49375155Y-74566815D01*
X49367370Y-74564375D01*
X49336645Y-74552473D01*
X49322456Y-74546976D01*
X49322447Y-74546974D01*
X49322446Y-74546974D01*
X49242284Y-74531988D01*
X49220247Y-74520783D01*
X49173641Y-74518563D01*
X49165191Y-74517577D01*
X49121980Y-74509500D01*
X49121976Y-74509500D01*
X48984834Y-74509500D01*
X48981884Y-74509430D01*
X48967540Y-74508746D01*
X48961649Y-74509028D01*
X48961643Y-74508913D01*
X48953437Y-74509500D01*
X48918024Y-74509500D01*
X48874816Y-74517577D01*
X48770491Y-74537078D01*
X48760072Y-74538576D01*
X48753593Y-74540148D01*
X48750373Y-74540839D01*
X48717548Y-74546975D01*
X48717538Y-74546977D01*
X48564496Y-74606266D01*
X48561915Y-74607159D01*
X48558811Y-74608468D01*
X48527363Y-74620651D01*
X48527361Y-74620652D01*
X48353957Y-74728020D01*
X48203237Y-74865418D01*
X48080327Y-75028178D01*
X47989422Y-75210739D01*
X47989417Y-75210752D01*
X47933602Y-75406917D01*
X47914785Y-75609999D01*
X47914785Y-75610000D01*
X44946342Y-75610000D01*
X46919523Y-73636819D01*
X46980846Y-73603334D01*
X47007204Y-73600500D01*
X51835451Y-73600500D01*
X51856014Y-73602216D01*
X51858822Y-73602689D01*
X51948774Y-73600547D01*
X51950773Y-73600500D01*
X51990105Y-73600500D01*
X51990113Y-73600500D01*
X51990122Y-73600499D01*
X51990124Y-73600499D01*
X51990993Y-73600415D01*
X52000979Y-73599462D01*
X52005380Y-73599199D01*
X52068933Y-73597687D01*
X52103948Y-73590069D01*
X52111224Y-73588934D01*
X52146906Y-73585528D01*
X52207920Y-73567611D01*
X52212176Y-73566525D01*
X52274300Y-73553013D01*
X52307245Y-73538904D01*
X52314176Y-73536412D01*
X52348563Y-73526316D01*
X52405073Y-73497182D01*
X52409063Y-73495303D01*
X52423483Y-73489127D01*
X52467500Y-73470279D01*
X52497183Y-73450187D01*
X52503503Y-73446438D01*
X52535370Y-73430011D01*
X52585351Y-73390702D01*
X52588909Y-73388105D01*
X52641553Y-73352477D01*
X52666899Y-73327129D01*
X52672408Y-73322240D01*
X52700574Y-73300092D01*
X52700576Y-73300088D01*
X52700578Y-73300088D01*
X52721415Y-73276040D01*
X52742212Y-73252038D01*
X52745194Y-73248834D01*
X54455879Y-71538149D01*
X54471631Y-71524826D01*
X54473952Y-71523174D01*
X54537427Y-71456602D01*
X54565241Y-71428789D01*
X54572203Y-71420355D01*
X54575107Y-71417083D01*
X54618986Y-71371066D01*
X54638358Y-71340921D01*
X54642701Y-71334974D01*
X54665524Y-71307333D01*
X54695996Y-71251523D01*
X54698238Y-71247746D01*
X54732613Y-71194260D01*
X54745932Y-71160989D01*
X54749069Y-71154328D01*
X54766247Y-71122871D01*
X54785613Y-71062284D01*
X54787081Y-71058201D01*
X54810725Y-70999145D01*
X54817507Y-70963952D01*
X54819328Y-70956817D01*
X54830242Y-70922680D01*
X54837792Y-70859521D01*
X54838464Y-70855216D01*
X54850500Y-70792773D01*
X54850500Y-70756936D01*
X54850939Y-70749570D01*
X54853283Y-70729964D01*
X54855192Y-70713997D01*
X54850658Y-70650601D01*
X54850500Y-70646177D01*
X54850500Y-69725859D01*
X54862118Y-69673454D01*
X54933347Y-69520703D01*
X54990161Y-69308674D01*
X55009292Y-69090000D01*
X54990161Y-68871326D01*
X54933347Y-68659297D01*
X54840579Y-68460354D01*
X54840577Y-68460351D01*
X54840576Y-68460349D01*
X54714677Y-68280547D01*
X54714672Y-68280541D01*
X54559458Y-68125327D01*
X54559452Y-68125322D01*
X54379647Y-67999421D01*
X54379643Y-67999419D01*
X54364321Y-67992274D01*
X54311882Y-67946100D01*
X54292732Y-67878906D01*
X54312949Y-67812026D01*
X54315103Y-67808844D01*
X54440579Y-67629646D01*
X54533347Y-67430703D01*
X54533349Y-67430695D01*
X54533351Y-67430690D01*
X54545870Y-67383966D01*
X54577962Y-67328378D01*
X55237522Y-66668819D01*
X55298846Y-66635334D01*
X55325204Y-66632500D01*
X56144079Y-66632500D01*
X56211118Y-66652185D01*
X56256873Y-66704989D01*
X56266817Y-66774147D01*
X56239623Y-66835540D01*
X56216973Y-66862918D01*
X56216971Y-66862921D01*
X56047880Y-67129367D01*
X55913509Y-67414920D01*
X55815992Y-67715047D01*
X55756855Y-68025049D01*
X55756854Y-68025053D01*
X55737041Y-68339994D01*
X55737041Y-68340005D01*
X55756854Y-68654946D01*
X55756855Y-68654950D01*
X55815992Y-68964952D01*
X55913509Y-69265079D01*
X56047880Y-69550632D01*
X56216969Y-69817075D01*
X56308603Y-69927841D01*
X56927100Y-69309344D01*
X56988423Y-69275859D01*
X57058114Y-69280843D01*
X57112633Y-69320861D01*
X57142632Y-69359404D01*
X57277441Y-69483505D01*
X57313430Y-69543390D01*
X57311330Y-69613228D01*
X57281138Y-69662414D01*
X56659245Y-70284306D01*
X56903490Y-70461761D01*
X56903501Y-70461768D01*
X57180034Y-70613793D01*
X57180042Y-70613797D01*
X57473449Y-70729964D01*
X57779118Y-70808447D01*
X57779127Y-70808449D01*
X58092198Y-70847999D01*
X58092212Y-70848000D01*
X58407788Y-70848000D01*
X58407801Y-70847999D01*
X58720872Y-70808449D01*
X58720881Y-70808447D01*
X59026550Y-70729964D01*
X59319957Y-70613797D01*
X59319965Y-70613793D01*
X59596498Y-70461768D01*
X59596509Y-70461761D01*
X59840752Y-70284306D01*
X59840753Y-70284306D01*
X59218861Y-69662415D01*
X59185376Y-69601092D01*
X59190360Y-69531401D01*
X59222556Y-69483507D01*
X59357368Y-69359404D01*
X59387367Y-69320861D01*
X59444071Y-69280051D01*
X59513844Y-69276375D01*
X59572898Y-69309344D01*
X60191395Y-69927842D01*
X60283033Y-69817070D01*
X60452119Y-69550632D01*
X60586490Y-69265079D01*
X60684007Y-68964952D01*
X60743144Y-68654950D01*
X60743145Y-68654946D01*
X60762959Y-68340005D01*
X60762959Y-68339994D01*
X60743145Y-68025053D01*
X60743144Y-68025049D01*
X60684007Y-67715047D01*
X60586490Y-67414920D01*
X60452119Y-67129367D01*
X60283028Y-66862921D01*
X60283026Y-66862918D01*
X60260377Y-66835540D01*
X60232812Y-66771338D01*
X60244333Y-66702425D01*
X60291283Y-66650680D01*
X60355921Y-66632500D01*
X63024796Y-66632500D01*
X63091835Y-66652185D01*
X63112477Y-66668819D01*
X64258901Y-67815243D01*
X64258908Y-67815249D01*
X64380351Y-67915521D01*
X64534001Y-67999421D01*
X64564818Y-68016248D01*
X64765008Y-68080242D01*
X64973692Y-68105193D01*
X65183327Y-68090200D01*
X65386335Y-68035804D01*
X65575381Y-67943972D01*
X65743631Y-67818021D01*
X65885004Y-67662506D01*
X65984056Y-67500000D01*
X65994388Y-67483049D01*
X65994391Y-67483041D01*
X66013910Y-67430709D01*
X66067837Y-67286126D01*
X66102690Y-67078867D01*
X66097687Y-66868756D01*
X66080589Y-66790156D01*
X66053015Y-66663396D01*
X66053011Y-66663384D01*
X66011646Y-66566788D01*
X65970280Y-66470188D01*
X65852478Y-66296136D01*
X64382466Y-64826124D01*
X64369137Y-64810366D01*
X64367488Y-64808050D01*
X64367485Y-64808047D01*
X64300915Y-64744572D01*
X64287003Y-64730661D01*
X64273101Y-64716759D01*
X64273095Y-64716754D01*
X64273092Y-64716751D01*
X64264679Y-64709804D01*
X64261369Y-64706866D01*
X64215379Y-64663015D01*
X64215371Y-64663009D01*
X64185244Y-64643647D01*
X64179286Y-64639297D01*
X64159715Y-64623139D01*
X64151645Y-64616476D01*
X64095837Y-64586002D01*
X64092050Y-64583755D01*
X64071645Y-64570642D01*
X64038575Y-64549388D01*
X64038576Y-64549388D01*
X64005305Y-64536068D01*
X63998630Y-64532923D01*
X63967184Y-64515752D01*
X63967185Y-64515752D01*
X63906625Y-64496393D01*
X63902461Y-64494896D01*
X63843453Y-64471273D01*
X63808272Y-64464492D01*
X63801125Y-64462668D01*
X63766991Y-64451757D01*
X63703867Y-64444209D01*
X63699495Y-64443527D01*
X63656350Y-64435212D01*
X63637085Y-64431500D01*
X63637083Y-64431500D01*
X63601248Y-64431500D01*
X63593882Y-64431061D01*
X63558310Y-64426808D01*
X63558309Y-64426808D01*
X63494907Y-64431342D01*
X63490487Y-64431500D01*
X55977311Y-64431500D01*
X55910272Y-64411815D01*
X55864517Y-64359011D01*
X55854573Y-64289853D01*
X55859380Y-64269182D01*
X55869205Y-64238939D01*
X55885674Y-64188256D01*
X55905460Y-64000000D01*
X55885674Y-63811744D01*
X55827179Y-63631716D01*
X55732533Y-63467784D01*
X55605871Y-63327112D01*
X55605629Y-63326936D01*
X55452734Y-63215851D01*
X55452729Y-63215848D01*
X55279807Y-63138857D01*
X55279802Y-63138855D01*
X55134000Y-63107865D01*
X55094646Y-63099500D01*
X54905354Y-63099500D01*
X54865999Y-63107865D01*
X54720198Y-63138855D01*
X54714014Y-63140865D01*
X54713790Y-63140178D01*
X54669933Y-63149500D01*
X54542952Y-63149500D01*
X54537917Y-63149295D01*
X54482700Y-63144798D01*
X54482693Y-63144799D01*
X54402472Y-63155729D01*
X54321957Y-63164485D01*
X54320996Y-63164697D01*
X54300336Y-63169538D01*
X54299399Y-63169771D01*
X54223378Y-63197700D01*
X54146649Y-63223553D01*
X54145785Y-63223953D01*
X54126586Y-63233152D01*
X54125746Y-63233569D01*
X54057524Y-63277176D01*
X53988133Y-63318927D01*
X53987354Y-63319519D01*
X53970629Y-63332595D01*
X53969878Y-63333198D01*
X53912634Y-63390441D01*
X53853821Y-63446153D01*
X53853211Y-63446871D01*
X53838956Y-63464119D01*
X51424829Y-65878245D01*
X51421126Y-65881659D01*
X51410074Y-65891047D01*
X51346236Y-65919445D01*
X51277392Y-65908922D01*
X51080533Y-65817125D01*
X51080524Y-65817121D01*
X50868592Y-65760335D01*
X50868582Y-65760333D01*
X50650001Y-65741210D01*
X50649999Y-65741210D01*
X50431417Y-65760333D01*
X50431404Y-65760336D01*
X50352591Y-65781453D01*
X50282741Y-65779790D01*
X50224879Y-65740626D01*
X50197376Y-65676398D01*
X50196500Y-65661694D01*
X50196500Y-64057646D01*
X50216184Y-63990611D01*
X50232813Y-63969974D01*
X52375026Y-61827760D01*
X52412266Y-61802166D01*
X52452730Y-61784151D01*
X52605871Y-61672888D01*
X52732533Y-61532216D01*
X52827179Y-61368284D01*
X52885674Y-61188256D01*
X52904247Y-61011536D01*
X52930832Y-60946924D01*
X52988129Y-60906939D01*
X53027568Y-60900500D01*
X60292796Y-60900500D01*
X60359835Y-60920185D01*
X60380477Y-60936819D01*
X61258895Y-61815238D01*
X61258903Y-61815245D01*
X61380350Y-61915520D01*
X61535978Y-62000500D01*
X61564817Y-62016247D01*
X61765008Y-62080242D01*
X61973691Y-62105192D01*
X61982658Y-62104550D01*
X62050929Y-62119400D01*
X62079186Y-62140553D01*
X64324767Y-64386134D01*
X64336548Y-64399766D01*
X64350890Y-64419030D01*
X64390920Y-64452619D01*
X64394892Y-64456259D01*
X64400723Y-64462090D01*
X64412340Y-64471275D01*
X64426439Y-64482423D01*
X64466158Y-64515752D01*
X64485286Y-64531802D01*
X64485288Y-64531803D01*
X64491323Y-64535772D01*
X64491289Y-64535822D01*
X64497644Y-64539870D01*
X64497677Y-64539818D01*
X64503819Y-64543607D01*
X64503823Y-64543610D01*
X64567682Y-64573388D01*
X64573414Y-64576061D01*
X64642058Y-64610536D01*
X64642061Y-64610537D01*
X64642067Y-64610540D01*
X64642072Y-64610541D01*
X64648855Y-64613010D01*
X64648834Y-64613067D01*
X64655951Y-64615540D01*
X64655970Y-64615484D01*
X64662830Y-64617757D01*
X64738031Y-64633283D01*
X64738032Y-64633284D01*
X64812779Y-64651000D01*
X64812788Y-64651000D01*
X64819952Y-64651838D01*
X64819945Y-64651897D01*
X64827446Y-64652663D01*
X64827452Y-64652604D01*
X64834640Y-64653233D01*
X64834643Y-64653232D01*
X64834644Y-64653233D01*
X64911398Y-64651000D01*
X69460663Y-64651000D01*
X69527702Y-64670685D01*
X69533548Y-64674682D01*
X69547265Y-64684648D01*
X69547270Y-64684651D01*
X69720192Y-64761642D01*
X69720197Y-64761644D01*
X69905354Y-64801000D01*
X69905355Y-64801000D01*
X70094644Y-64801000D01*
X70094646Y-64801000D01*
X70279803Y-64761644D01*
X70452730Y-64684651D01*
X70605871Y-64573388D01*
X70732533Y-64432716D01*
X70827179Y-64268784D01*
X70885674Y-64088756D01*
X70905460Y-63900500D01*
X70885674Y-63712244D01*
X70827179Y-63532216D01*
X70732533Y-63368284D01*
X70605871Y-63227612D01*
X70600835Y-63223953D01*
X70452734Y-63116351D01*
X70452729Y-63116348D01*
X70279807Y-63039357D01*
X70279802Y-63039355D01*
X70129884Y-63007490D01*
X70094646Y-63000000D01*
X69905354Y-63000000D01*
X69882847Y-63004784D01*
X69720197Y-63039355D01*
X69720192Y-63039357D01*
X69547270Y-63116348D01*
X69547265Y-63116351D01*
X69533548Y-63126318D01*
X69467742Y-63149798D01*
X69460663Y-63150000D01*
X67375800Y-63150000D01*
X67308761Y-63130315D01*
X67263006Y-63077511D01*
X67253062Y-63008353D01*
X67282087Y-62944797D01*
X67295030Y-62931914D01*
X67324121Y-62906938D01*
X67360682Y-62875553D01*
X67482122Y-62718666D01*
X67569495Y-62540544D01*
X67618334Y-62351917D01*
X67619222Y-62348488D01*
X67619223Y-62348482D01*
X67619224Y-62348480D01*
X67629272Y-62150337D01*
X67599230Y-61954227D01*
X67530325Y-61768180D01*
X67518327Y-61748931D01*
X67425383Y-61599815D01*
X67425378Y-61599809D01*
X67284625Y-61451735D01*
X67252705Y-61389584D01*
X67250500Y-61366304D01*
X67250500Y-60563705D01*
X67251809Y-60545735D01*
X67252129Y-60543547D01*
X67255289Y-60521977D01*
X67255088Y-60519685D01*
X67251057Y-60473604D01*
X67250735Y-60469931D01*
X67250500Y-60464528D01*
X67250500Y-60456297D01*
X67250500Y-60456291D01*
X67246693Y-60423724D01*
X67242249Y-60372920D01*
X67239999Y-60347201D01*
X67238539Y-60340129D01*
X67238597Y-60340116D01*
X67236965Y-60332757D01*
X67236906Y-60332772D01*
X67235242Y-60325753D01*
X67235241Y-60325745D01*
X67208974Y-60253576D01*
X67184814Y-60180666D01*
X67184809Y-60180659D01*
X67181760Y-60174118D01*
X67181815Y-60174091D01*
X67178533Y-60167313D01*
X67178480Y-60167340D01*
X67175235Y-60160880D01*
X67133028Y-60096708D01*
X67125674Y-60084786D01*
X67092712Y-60031345D01*
X67092711Y-60031344D01*
X67092710Y-60031342D01*
X67088234Y-60025682D01*
X67088281Y-60025644D01*
X67083519Y-60019799D01*
X67083474Y-60019838D01*
X67078834Y-60014309D01*
X67078832Y-60014307D01*
X67078830Y-60014304D01*
X67048061Y-59985275D01*
X67022965Y-59961597D01*
X66481819Y-59420451D01*
X66448334Y-59359128D01*
X66445500Y-59332770D01*
X66445500Y-59122048D01*
X66430922Y-58978689D01*
X66373358Y-58795222D01*
X66373356Y-58795218D01*
X66373355Y-58795214D01*
X66280034Y-58627080D01*
X66280029Y-58627074D01*
X66154779Y-58481174D01*
X66154778Y-58481173D01*
X66002718Y-58363471D01*
X66002716Y-58363470D01*
X66002715Y-58363469D01*
X65830071Y-58278783D01*
X65830069Y-58278782D01*
X65830066Y-58278781D01*
X65830068Y-58278781D01*
X65697824Y-58244541D01*
X65637858Y-58208681D01*
X65606800Y-58146094D01*
X65614509Y-58076651D01*
X65658538Y-58022400D01*
X65724908Y-58000564D01*
X65728905Y-58000500D01*
X72261892Y-58000500D01*
X72328931Y-58020185D01*
X72374686Y-58072989D01*
X72384630Y-58142147D01*
X72355605Y-58205703D01*
X72296827Y-58243477D01*
X72280669Y-58247070D01*
X72261793Y-58249961D01*
X72261781Y-58249964D01*
X72081464Y-58316746D01*
X72081460Y-58316748D01*
X71918267Y-58418467D01*
X71778895Y-58550949D01*
X71669041Y-58708781D01*
X71593209Y-58885491D01*
X71554500Y-59073851D01*
X71554500Y-59332769D01*
X71534815Y-59399808D01*
X71518181Y-59420450D01*
X71014358Y-59924272D01*
X71000729Y-59936051D01*
X70981468Y-59950390D01*
X70947898Y-59990397D01*
X70944253Y-59994376D01*
X70938409Y-60000222D01*
X70918059Y-60025959D01*
X70868695Y-60084789D01*
X70864729Y-60090819D01*
X70864682Y-60090788D01*
X70860630Y-60097147D01*
X70860679Y-60097177D01*
X70856889Y-60103321D01*
X70824424Y-60172941D01*
X70789960Y-60241566D01*
X70787488Y-60248357D01*
X70787432Y-60248336D01*
X70784960Y-60255450D01*
X70785015Y-60255469D01*
X70782742Y-60262327D01*
X70774974Y-60299945D01*
X70767207Y-60337565D01*
X70758829Y-60372917D01*
X70749498Y-60412286D01*
X70748661Y-60419454D01*
X70748601Y-60419447D01*
X70747835Y-60426945D01*
X70747895Y-60426951D01*
X70747265Y-60434140D01*
X70749500Y-60510916D01*
X70749500Y-61372883D01*
X70729815Y-61439922D01*
X70706271Y-61466968D01*
X70639320Y-61524444D01*
X70639317Y-61524446D01*
X70517879Y-61681331D01*
X70517877Y-61681335D01*
X70430503Y-61859459D01*
X70380777Y-62051511D01*
X70380776Y-62051517D01*
X70370728Y-62249662D01*
X70370728Y-62249663D01*
X70400768Y-62445764D01*
X70400771Y-62445777D01*
X70469673Y-62631815D01*
X70469677Y-62631824D01*
X70574616Y-62800184D01*
X70574621Y-62800191D01*
X70699834Y-62931914D01*
X70711309Y-62943986D01*
X70874146Y-63057324D01*
X71056465Y-63135563D01*
X71250801Y-63175500D01*
X71699474Y-63175500D01*
X71847380Y-63160459D01*
X71919478Y-63137838D01*
X72036678Y-63101067D01*
X72210146Y-63004784D01*
X72360682Y-62875553D01*
X72482122Y-62718666D01*
X72569495Y-62540544D01*
X72618334Y-62351917D01*
X72619222Y-62348488D01*
X72619223Y-62348482D01*
X72619224Y-62348480D01*
X72629272Y-62150337D01*
X72606242Y-62000002D01*
X73745227Y-62000002D01*
X73764306Y-62351900D01*
X73764308Y-62351917D01*
X73821319Y-62699667D01*
X73821325Y-62699693D01*
X73915600Y-63039243D01*
X73915602Y-63039250D01*
X74046043Y-63366634D01*
X74046052Y-63366652D01*
X74211124Y-63678011D01*
X74408896Y-63969702D01*
X74531914Y-64114532D01*
X75607413Y-63039032D01*
X75668736Y-63005547D01*
X75738427Y-63010531D01*
X75789381Y-63046179D01*
X75865130Y-63134870D01*
X75909762Y-63172989D01*
X75953816Y-63210615D01*
X75992009Y-63269122D01*
X75992507Y-63338990D01*
X75960965Y-63392586D01*
X74882625Y-64470926D01*
X74882625Y-64470928D01*
X74892900Y-64480660D01*
X75173460Y-64693938D01*
X75173464Y-64693941D01*
X75475445Y-64875635D01*
X75795273Y-65023603D01*
X76129256Y-65136136D01*
X76473437Y-65211896D01*
X76823788Y-65249999D01*
X76823795Y-65250000D01*
X77176205Y-65250000D01*
X77176211Y-65249999D01*
X77526562Y-65211896D01*
X77870743Y-65136136D01*
X78204726Y-65023603D01*
X78524554Y-64875635D01*
X78826535Y-64693941D01*
X78826539Y-64693938D01*
X79107093Y-64480665D01*
X79107105Y-64480654D01*
X79117373Y-64470927D01*
X79117373Y-64470926D01*
X78039033Y-63392586D01*
X78005548Y-63331263D01*
X78010532Y-63261571D01*
X78046180Y-63210617D01*
X78134870Y-63134870D01*
X78210617Y-63046180D01*
X78269121Y-63007990D01*
X78338989Y-63007490D01*
X78392586Y-63039033D01*
X79468084Y-64114532D01*
X79468085Y-64114531D01*
X79591102Y-63969704D01*
X79788875Y-63678011D01*
X79953947Y-63366652D01*
X79953956Y-63366634D01*
X80084397Y-63039250D01*
X80084399Y-63039243D01*
X80178674Y-62699693D01*
X80178680Y-62699667D01*
X80235691Y-62351917D01*
X80235693Y-62351900D01*
X80254773Y-62000002D01*
X80254773Y-61999997D01*
X80235693Y-61648099D01*
X80235691Y-61648082D01*
X80178680Y-61300332D01*
X80178674Y-61300306D01*
X80084399Y-60960756D01*
X80084397Y-60960749D01*
X79953956Y-60633365D01*
X79953947Y-60633347D01*
X79788875Y-60321988D01*
X79591099Y-60030291D01*
X79468085Y-59885467D01*
X79468084Y-59885466D01*
X78392586Y-60960965D01*
X78331263Y-60994450D01*
X78261571Y-60989466D01*
X78210615Y-60953816D01*
X78169336Y-60905485D01*
X78134870Y-60865130D01*
X78046179Y-60789381D01*
X78007989Y-60730878D01*
X78007489Y-60661010D01*
X78039032Y-60607413D01*
X79117374Y-59529072D01*
X79107099Y-59519340D01*
X79107087Y-59519330D01*
X78826539Y-59306061D01*
X78826535Y-59306058D01*
X78524554Y-59124364D01*
X78204726Y-58976396D01*
X77870743Y-58863863D01*
X77526562Y-58788103D01*
X77176211Y-58750000D01*
X76823788Y-58750000D01*
X76473437Y-58788103D01*
X76129256Y-58863863D01*
X75795273Y-58976396D01*
X75475445Y-59124364D01*
X75173464Y-59306058D01*
X75173460Y-59306061D01*
X74892906Y-59519334D01*
X74882625Y-59529071D01*
X74882625Y-59529073D01*
X75960966Y-60607413D01*
X75994451Y-60668736D01*
X75989467Y-60738428D01*
X75953817Y-60789384D01*
X75865130Y-60865130D01*
X75789384Y-60953817D01*
X75730877Y-60992010D01*
X75661009Y-60992508D01*
X75607413Y-60960966D01*
X74531914Y-59885466D01*
X74531913Y-59885466D01*
X74408896Y-60030296D01*
X74211124Y-60321988D01*
X74046052Y-60633347D01*
X74046043Y-60633365D01*
X73915602Y-60960749D01*
X73915600Y-60960756D01*
X73821325Y-61300306D01*
X73821319Y-61300332D01*
X73764308Y-61648082D01*
X73764306Y-61648099D01*
X73745227Y-61999997D01*
X73745227Y-62000002D01*
X72606242Y-62000002D01*
X72599230Y-61954227D01*
X72530325Y-61768180D01*
X72518327Y-61748931D01*
X72425383Y-61599815D01*
X72425378Y-61599809D01*
X72284625Y-61451735D01*
X72252705Y-61389584D01*
X72250500Y-61366304D01*
X72250500Y-60894509D01*
X72270185Y-60827470D01*
X72322989Y-60781715D01*
X72380775Y-60770668D01*
X72548136Y-60779156D01*
X72738214Y-60750037D01*
X72918540Y-60683252D01*
X73081731Y-60581534D01*
X73221106Y-60449049D01*
X73330958Y-60291219D01*
X73406791Y-60114508D01*
X73445500Y-59926148D01*
X73445500Y-59122050D01*
X73444011Y-59107402D01*
X73430922Y-58978689D01*
X73373358Y-58795222D01*
X73373356Y-58795218D01*
X73373355Y-58795214D01*
X73280034Y-58627080D01*
X73280029Y-58627074D01*
X73154779Y-58481174D01*
X73154778Y-58481173D01*
X73002718Y-58363471D01*
X73002716Y-58363470D01*
X73002715Y-58363469D01*
X72830071Y-58278783D01*
X72830069Y-58278782D01*
X72830066Y-58278781D01*
X72830068Y-58278781D01*
X72697824Y-58244541D01*
X72637858Y-58208681D01*
X72606800Y-58146094D01*
X72614509Y-58076651D01*
X72658538Y-58022400D01*
X72724908Y-58000564D01*
X72728905Y-58000500D01*
X76998560Y-58000500D01*
X77001423Y-58000566D01*
X77040986Y-58002394D01*
X77172950Y-58008495D01*
X77372549Y-58018302D01*
X77378048Y-58018819D01*
X77563357Y-58044668D01*
X77749828Y-58072329D01*
X77754871Y-58073294D01*
X77939341Y-58116681D01*
X78120221Y-58161989D01*
X78124797Y-58163327D01*
X78305568Y-58223916D01*
X78480339Y-58286450D01*
X78484471Y-58288100D01*
X78542986Y-58313936D01*
X78659474Y-58365370D01*
X78826973Y-58444592D01*
X78830601Y-58446457D01*
X78998128Y-58539770D01*
X78998142Y-58539778D01*
X79156964Y-58634972D01*
X79160119Y-58636996D01*
X79318603Y-58745559D01*
X79467377Y-58855897D01*
X79470001Y-58857957D01*
X79618027Y-58980876D01*
X79755321Y-59105314D01*
X79757514Y-59107402D01*
X79892596Y-59242484D01*
X79894687Y-59244680D01*
X79950320Y-59306061D01*
X80019129Y-59381980D01*
X80142034Y-59529989D01*
X80144109Y-59532632D01*
X80254443Y-59681400D01*
X80363002Y-59839879D01*
X80365032Y-59843044D01*
X80460221Y-60001857D01*
X80509756Y-60090788D01*
X80552380Y-60167313D01*
X80553527Y-60169371D01*
X80555410Y-60173034D01*
X80634638Y-60340547D01*
X80711899Y-60515527D01*
X80713558Y-60519685D01*
X80776093Y-60694459D01*
X80836662Y-60875173D01*
X80838018Y-60879812D01*
X80883317Y-61060654D01*
X80926696Y-61245090D01*
X80927672Y-61250189D01*
X80955337Y-61436689D01*
X80981177Y-61621933D01*
X80981697Y-61627459D01*
X80991512Y-61827238D01*
X80999434Y-61998575D01*
X80999500Y-62001439D01*
X80999500Y-82875500D01*
X80979815Y-82942539D01*
X80927011Y-82988294D01*
X80875500Y-82999500D01*
X72024760Y-82999500D01*
X72024554Y-82999459D01*
X72000000Y-82999459D01*
X71999901Y-82999500D01*
X71999617Y-82999616D01*
X71999615Y-82999618D01*
X71999459Y-82999999D01*
X71999476Y-83024616D01*
X71999471Y-83024616D01*
X71999500Y-83024759D01*
X71999500Y-112975467D01*
X71999416Y-112975889D01*
X71999459Y-113000001D01*
X71999500Y-113000099D01*
X71999616Y-113000382D01*
X71999618Y-113000384D01*
X71999808Y-113000462D01*
X72000000Y-113000541D01*
X72000002Y-113000539D01*
X72024616Y-113000524D01*
X72024616Y-113000528D01*
X72024760Y-113000500D01*
X80875500Y-113000500D01*
X80942539Y-113020185D01*
X80988294Y-113072989D01*
X80999500Y-113124500D01*
X80999500Y-131998560D01*
X80999434Y-132001424D01*
X80991512Y-132172761D01*
X80981697Y-132372539D01*
X80981177Y-132378065D01*
X80955337Y-132563310D01*
X80927672Y-132749809D01*
X80926696Y-132754908D01*
X80883317Y-132939345D01*
X80838018Y-133120186D01*
X80836662Y-133124825D01*
X80776093Y-133305540D01*
X80713557Y-133480314D01*
X80711899Y-133484470D01*
X80634638Y-133659452D01*
X80555410Y-133826964D01*
X80553527Y-133830627D01*
X80460221Y-133998142D01*
X80365032Y-134156954D01*
X80363002Y-134160118D01*
X80254437Y-134318608D01*
X80144121Y-134467350D01*
X80142021Y-134470025D01*
X80019132Y-134618016D01*
X79894695Y-134755310D01*
X79892596Y-134757514D01*
X79757514Y-134892596D01*
X79755310Y-134894695D01*
X79618016Y-135019132D01*
X79470025Y-135142021D01*
X79467350Y-135144121D01*
X79318608Y-135254437D01*
X79160118Y-135363002D01*
X79156954Y-135365032D01*
X78998142Y-135460221D01*
X78830627Y-135553527D01*
X78826964Y-135555410D01*
X78659452Y-135634638D01*
X78484470Y-135711899D01*
X78480314Y-135713557D01*
X78305540Y-135776093D01*
X78124825Y-135836662D01*
X78120186Y-135838018D01*
X77939345Y-135883317D01*
X77754908Y-135926696D01*
X77749809Y-135927672D01*
X77563310Y-135955337D01*
X77378065Y-135981177D01*
X77372539Y-135981697D01*
X77172761Y-135991512D01*
X77001424Y-135999434D01*
X76998560Y-135999500D01*
X27001440Y-135999500D01*
X26998576Y-135999434D01*
X26827238Y-135991512D01*
X26627459Y-135981697D01*
X26621933Y-135981177D01*
X26436689Y-135955337D01*
X26250189Y-135927672D01*
X26245090Y-135926696D01*
X26060654Y-135883317D01*
X25879812Y-135838018D01*
X25875173Y-135836662D01*
X25694459Y-135776093D01*
X25519685Y-135713558D01*
X25515527Y-135711899D01*
X25340547Y-135634638D01*
X25173034Y-135555410D01*
X25169371Y-135553527D01*
X25001857Y-135460221D01*
X24843044Y-135365032D01*
X24839879Y-135363002D01*
X24730371Y-135287989D01*
X24681392Y-135254437D01*
X24532632Y-135144109D01*
X24529989Y-135142034D01*
X24381980Y-135019129D01*
X24244688Y-134894695D01*
X24242484Y-134892596D01*
X24107402Y-134757514D01*
X24105314Y-134755321D01*
X23980867Y-134618016D01*
X23857957Y-134470001D01*
X23855897Y-134467377D01*
X23745559Y-134318603D01*
X23636995Y-134160118D01*
X23634966Y-134156954D01*
X23609539Y-134114532D01*
X23539778Y-133998142D01*
X23512261Y-133948740D01*
X23446457Y-133830601D01*
X23444588Y-133826964D01*
X23389443Y-133710370D01*
X23365370Y-133659474D01*
X23288100Y-133484471D01*
X23286450Y-133480339D01*
X23223906Y-133305540D01*
X23163327Y-133124797D01*
X23161989Y-133120221D01*
X23116675Y-132939315D01*
X23111402Y-132916895D01*
X23073294Y-132754871D01*
X23072329Y-132749828D01*
X23044662Y-132563310D01*
X23018819Y-132378048D01*
X23018302Y-132372549D01*
X23008487Y-132172761D01*
X23000566Y-132001423D01*
X23000533Y-132000002D01*
X23745227Y-132000002D01*
X23764306Y-132351900D01*
X23764308Y-132351917D01*
X23821319Y-132699667D01*
X23821325Y-132699693D01*
X23915600Y-133039243D01*
X23915602Y-133039250D01*
X24046043Y-133366634D01*
X24046052Y-133366652D01*
X24211124Y-133678011D01*
X24408896Y-133969702D01*
X24531914Y-134114532D01*
X25607413Y-133039032D01*
X25668736Y-133005547D01*
X25738427Y-133010531D01*
X25789381Y-133046179D01*
X25865130Y-133134870D01*
X25928855Y-133189296D01*
X25953816Y-133210615D01*
X25992009Y-133269122D01*
X25992507Y-133338990D01*
X25960965Y-133392586D01*
X24882625Y-134470926D01*
X24882625Y-134470928D01*
X24892900Y-134480660D01*
X25173460Y-134693938D01*
X25173464Y-134693941D01*
X25475445Y-134875635D01*
X25795273Y-135023603D01*
X26129256Y-135136136D01*
X26473437Y-135211896D01*
X26823788Y-135249999D01*
X26823795Y-135250000D01*
X27176205Y-135250000D01*
X27176211Y-135249999D01*
X27526562Y-135211896D01*
X27870743Y-135136136D01*
X28204726Y-135023603D01*
X28524554Y-134875635D01*
X28826535Y-134693941D01*
X28826539Y-134693938D01*
X29107093Y-134480665D01*
X29107105Y-134480654D01*
X29117373Y-134470927D01*
X29117373Y-134470926D01*
X28039033Y-133392586D01*
X28005548Y-133331263D01*
X28010532Y-133261571D01*
X28046180Y-133210617D01*
X28134870Y-133134870D01*
X28210617Y-133046180D01*
X28269121Y-133007990D01*
X28338989Y-133007490D01*
X28392586Y-133039033D01*
X29468084Y-134114532D01*
X29468085Y-134114531D01*
X29591102Y-133969704D01*
X29788875Y-133678011D01*
X29953947Y-133366652D01*
X29953956Y-133366634D01*
X30084397Y-133039250D01*
X30084399Y-133039243D01*
X30178674Y-132699693D01*
X30178680Y-132699667D01*
X30235691Y-132351917D01*
X30235693Y-132351900D01*
X30254773Y-132000002D01*
X30254773Y-132000001D01*
X36620211Y-132000001D01*
X36639345Y-132267523D01*
X36639346Y-132267530D01*
X36696354Y-132529593D01*
X36790084Y-132780894D01*
X36790086Y-132780898D01*
X36918617Y-133016285D01*
X36918622Y-133016293D01*
X37009180Y-133137264D01*
X37009181Y-133137265D01*
X37621739Y-132524706D01*
X37683062Y-132491221D01*
X37752753Y-132496205D01*
X37803928Y-132532111D01*
X37894713Y-132638991D01*
X37963348Y-132691166D01*
X38004805Y-132747407D01*
X38009275Y-132817134D01*
X37975988Y-132877563D01*
X37362733Y-133490817D01*
X37362734Y-133490818D01*
X37483706Y-133581377D01*
X37483714Y-133581382D01*
X37719101Y-133709913D01*
X37719105Y-133709915D01*
X37970406Y-133803645D01*
X38232469Y-133860653D01*
X38232476Y-133860654D01*
X38499999Y-133879789D01*
X38500001Y-133879789D01*
X38767523Y-133860654D01*
X38767530Y-133860653D01*
X39029593Y-133803645D01*
X39280894Y-133709915D01*
X39280898Y-133709913D01*
X39516294Y-133581377D01*
X39637264Y-133490818D01*
X39637265Y-133490817D01*
X39027468Y-132881021D01*
X38993983Y-132819698D01*
X38998967Y-132750007D01*
X39029875Y-132703316D01*
X39032645Y-132700691D01*
X39032650Y-132700689D01*
X39170825Y-132569804D01*
X39188652Y-132543510D01*
X39242566Y-132499068D01*
X39311949Y-132490830D01*
X39374771Y-132521409D01*
X39378968Y-132525415D01*
X39990817Y-133137265D01*
X39990818Y-133137264D01*
X40081377Y-133016294D01*
X40209913Y-132780898D01*
X40209915Y-132780894D01*
X40303645Y-132529593D01*
X40360653Y-132267530D01*
X40360654Y-132267523D01*
X40379789Y-132000001D01*
X40379789Y-131999998D01*
X40360654Y-131732476D01*
X40360653Y-131732469D01*
X40303645Y-131470406D01*
X40209915Y-131219105D01*
X40209913Y-131219101D01*
X40081382Y-130983714D01*
X40081377Y-130983706D01*
X39990818Y-130862734D01*
X39990817Y-130862733D01*
X39378259Y-131475292D01*
X39316936Y-131508777D01*
X39247244Y-131503793D01*
X39196070Y-131467887D01*
X39105288Y-131361010D01*
X39105287Y-131361009D01*
X39105286Y-131361008D01*
X39036648Y-131308831D01*
X38995192Y-131252590D01*
X38990723Y-131182864D01*
X39024010Y-131122435D01*
X39637265Y-130509181D01*
X39637264Y-130509180D01*
X39516293Y-130418622D01*
X39516285Y-130418617D01*
X39280898Y-130290086D01*
X39280894Y-130290084D01*
X39029593Y-130196354D01*
X38767530Y-130139346D01*
X38767523Y-130139345D01*
X38500001Y-130120211D01*
X38499999Y-130120211D01*
X38232476Y-130139345D01*
X38232469Y-130139346D01*
X37970406Y-130196354D01*
X37719105Y-130290084D01*
X37719101Y-130290086D01*
X37483714Y-130418617D01*
X37483706Y-130418622D01*
X37362733Y-130509180D01*
X37972530Y-131118977D01*
X38006015Y-131180300D01*
X38001031Y-131249992D01*
X37970124Y-131296681D01*
X37829175Y-131430195D01*
X37811346Y-131456492D01*
X37757431Y-131500933D01*
X37688049Y-131509170D01*
X37625227Y-131478589D01*
X37621032Y-131474585D01*
X37009180Y-130862733D01*
X36918622Y-130983706D01*
X36918617Y-130983714D01*
X36790086Y-131219101D01*
X36790084Y-131219105D01*
X36696354Y-131470406D01*
X36639346Y-131732469D01*
X36639345Y-131732476D01*
X36620211Y-131999998D01*
X36620211Y-132000001D01*
X30254773Y-132000001D01*
X30254773Y-131999997D01*
X30235693Y-131648099D01*
X30235691Y-131648082D01*
X30178680Y-131300332D01*
X30178674Y-131300306D01*
X30084399Y-130960756D01*
X30084397Y-130960749D01*
X29953956Y-130633365D01*
X29953947Y-130633347D01*
X29788875Y-130321988D01*
X29591099Y-130030291D01*
X29468085Y-129885467D01*
X29468084Y-129885466D01*
X28392586Y-130960965D01*
X28331263Y-130994450D01*
X28261571Y-130989466D01*
X28210615Y-130953816D01*
X28189296Y-130928855D01*
X28134870Y-130865130D01*
X28046179Y-130789381D01*
X28007989Y-130730878D01*
X28007489Y-130661010D01*
X28039032Y-130607413D01*
X29117374Y-129529072D01*
X29107099Y-129519340D01*
X29107087Y-129519330D01*
X28826539Y-129306061D01*
X28826535Y-129306058D01*
X28524554Y-129124364D01*
X28204726Y-128976396D01*
X27870743Y-128863863D01*
X27526562Y-128788103D01*
X27176211Y-128750000D01*
X26823788Y-128750000D01*
X26473437Y-128788103D01*
X26129256Y-128863863D01*
X25795273Y-128976396D01*
X25475445Y-129124364D01*
X25173464Y-129306058D01*
X25173460Y-129306061D01*
X24892906Y-129519334D01*
X24882625Y-129529071D01*
X24882625Y-129529073D01*
X25960966Y-130607413D01*
X25994451Y-130668736D01*
X25989467Y-130738428D01*
X25953817Y-130789384D01*
X25865130Y-130865130D01*
X25789384Y-130953817D01*
X25730877Y-130992010D01*
X25661009Y-130992508D01*
X25607413Y-130960966D01*
X24531914Y-129885466D01*
X24531913Y-129885466D01*
X24408896Y-130030296D01*
X24211124Y-130321988D01*
X24046052Y-130633347D01*
X24046043Y-130633365D01*
X23915602Y-130960749D01*
X23915600Y-130960756D01*
X23821325Y-131300306D01*
X23821319Y-131300332D01*
X23764308Y-131648082D01*
X23764306Y-131648099D01*
X23745227Y-131999997D01*
X23745227Y-132000002D01*
X23000533Y-132000002D01*
X23000500Y-131998560D01*
X23000500Y-113124500D01*
X23020185Y-113057461D01*
X23072989Y-113011706D01*
X23124500Y-113000500D01*
X31975240Y-113000500D01*
X31975383Y-113000528D01*
X31975384Y-113000524D01*
X31999997Y-113000539D01*
X32000000Y-113000541D01*
X32000383Y-113000383D01*
X32000500Y-113000099D01*
X32000499Y-113000099D01*
X32000541Y-113000000D01*
X32000540Y-112999998D01*
X32006892Y-112985028D01*
X32000521Y-112964747D01*
X32000499Y-112962417D01*
X32000499Y-83008338D01*
X32000539Y-83000002D01*
X32000541Y-83000000D01*
X32000383Y-82999617D01*
X32000382Y-82999616D01*
X32000099Y-82999500D01*
X32000000Y-82999459D01*
X31975446Y-82999459D01*
X31975240Y-82999500D01*
X23124500Y-82999500D01*
X23057461Y-82979815D01*
X23011706Y-82927011D01*
X23000500Y-82875500D01*
X23000500Y-62001439D01*
X23000533Y-62000002D01*
X23745227Y-62000002D01*
X23764306Y-62351900D01*
X23764308Y-62351917D01*
X23821319Y-62699667D01*
X23821325Y-62699693D01*
X23915600Y-63039243D01*
X23915602Y-63039250D01*
X24046043Y-63366634D01*
X24046052Y-63366652D01*
X24211124Y-63678011D01*
X24408896Y-63969702D01*
X24531914Y-64114532D01*
X25607413Y-63039032D01*
X25668736Y-63005547D01*
X25738427Y-63010531D01*
X25789381Y-63046179D01*
X25865130Y-63134870D01*
X25909762Y-63172989D01*
X25953816Y-63210615D01*
X25992009Y-63269122D01*
X25992507Y-63338990D01*
X25960965Y-63392586D01*
X24882625Y-64470926D01*
X24882625Y-64470928D01*
X24892900Y-64480660D01*
X25173460Y-64693938D01*
X25173464Y-64693941D01*
X25475445Y-64875635D01*
X25795273Y-65023603D01*
X26129256Y-65136136D01*
X26473437Y-65211896D01*
X26823788Y-65249999D01*
X26823795Y-65250000D01*
X27176205Y-65250000D01*
X27176211Y-65249999D01*
X27526562Y-65211896D01*
X27870743Y-65136136D01*
X28204726Y-65023603D01*
X28524554Y-64875635D01*
X28826535Y-64693941D01*
X28826539Y-64693938D01*
X29107093Y-64480665D01*
X29107105Y-64480654D01*
X29117373Y-64470927D01*
X29117373Y-64470926D01*
X28039033Y-63392586D01*
X28005548Y-63331263D01*
X28010532Y-63261571D01*
X28046180Y-63210617D01*
X28134870Y-63134870D01*
X28210617Y-63046180D01*
X28269121Y-63007990D01*
X28338989Y-63007490D01*
X28392586Y-63039033D01*
X29468084Y-64114532D01*
X29468085Y-64114531D01*
X29591102Y-63969704D01*
X29788875Y-63678011D01*
X29953947Y-63366652D01*
X29953956Y-63366634D01*
X30084397Y-63039250D01*
X30084399Y-63039243D01*
X30178674Y-62699693D01*
X30178680Y-62699667D01*
X30235691Y-62351917D01*
X30235693Y-62351900D01*
X30254773Y-62000002D01*
X30254773Y-61999997D01*
X30235693Y-61648099D01*
X30235691Y-61648082D01*
X30178680Y-61300332D01*
X30178674Y-61300306D01*
X30084399Y-60960756D01*
X30084397Y-60960749D01*
X29953956Y-60633365D01*
X29953947Y-60633347D01*
X29788875Y-60321988D01*
X29591099Y-60030291D01*
X29468085Y-59885467D01*
X29468084Y-59885466D01*
X28392586Y-60960965D01*
X28331263Y-60994450D01*
X28261571Y-60989466D01*
X28210615Y-60953816D01*
X28169336Y-60905485D01*
X28134870Y-60865130D01*
X28046179Y-60789381D01*
X28007989Y-60730878D01*
X28007489Y-60661010D01*
X28039032Y-60607413D01*
X29117374Y-59529072D01*
X29107099Y-59519340D01*
X29107087Y-59519330D01*
X28826539Y-59306061D01*
X28826535Y-59306058D01*
X28524554Y-59124364D01*
X28204726Y-58976396D01*
X27870743Y-58863863D01*
X27526562Y-58788103D01*
X27176211Y-58750000D01*
X26823788Y-58750000D01*
X26473437Y-58788103D01*
X26129256Y-58863863D01*
X25795273Y-58976396D01*
X25475445Y-59124364D01*
X25173464Y-59306058D01*
X25173460Y-59306061D01*
X24892906Y-59519334D01*
X24882625Y-59529071D01*
X24882625Y-59529073D01*
X25960966Y-60607413D01*
X25994451Y-60668736D01*
X25989467Y-60738428D01*
X25953817Y-60789384D01*
X25865130Y-60865130D01*
X25789384Y-60953817D01*
X25730877Y-60992010D01*
X25661009Y-60992508D01*
X25607413Y-60960966D01*
X24531914Y-59885466D01*
X24531913Y-59885466D01*
X24408896Y-60030296D01*
X24211124Y-60321988D01*
X24046052Y-60633347D01*
X24046043Y-60633365D01*
X23915602Y-60960749D01*
X23915600Y-60960756D01*
X23821325Y-61300306D01*
X23821319Y-61300332D01*
X23764308Y-61648082D01*
X23764306Y-61648099D01*
X23745227Y-61999997D01*
X23745227Y-62000002D01*
X23000533Y-62000002D01*
X23000566Y-61998576D01*
X23004406Y-61915520D01*
X23008490Y-61827168D01*
X23009076Y-61815245D01*
X23018302Y-61627446D01*
X23018818Y-61621955D01*
X23044670Y-61436633D01*
X23072331Y-61250162D01*
X23073292Y-61245137D01*
X23116689Y-61060626D01*
X23161993Y-60879764D01*
X23163323Y-60875216D01*
X23223915Y-60694431D01*
X23286457Y-60519641D01*
X23288100Y-60515527D01*
X23308118Y-60470191D01*
X23365368Y-60340530D01*
X23444615Y-60172977D01*
X23446444Y-60169423D01*
X23539781Y-60001852D01*
X23634990Y-59843005D01*
X23636979Y-59839904D01*
X23745570Y-59681381D01*
X23855924Y-59532586D01*
X23857928Y-59530033D01*
X23980875Y-59381973D01*
X24105351Y-59244636D01*
X24107361Y-59242526D01*
X24242526Y-59107361D01*
X24244636Y-59105351D01*
X24381973Y-58980875D01*
X24530033Y-58857928D01*
X24532586Y-58855924D01*
X24681381Y-58745570D01*
X24839904Y-58636979D01*
X24843005Y-58634990D01*
X25001858Y-58539778D01*
X25169423Y-58446444D01*
X25172977Y-58444615D01*
X25340530Y-58365368D01*
X25515538Y-58288095D01*
X25519641Y-58286457D01*
X25694431Y-58223915D01*
X25875216Y-58163323D01*
X25879764Y-58161993D01*
X26060626Y-58116689D01*
X26245137Y-58073292D01*
X26250162Y-58072331D01*
X26436651Y-58044667D01*
X26621955Y-58018818D01*
X26627446Y-58018302D01*
X26826958Y-58008500D01*
X26968945Y-58001935D01*
X26998577Y-58000566D01*
X27001440Y-58000500D01*
X65261892Y-58000500D01*
X65328931Y-58020185D01*
G37*
%TD.AperFunction*%
%TD*%
M02*
