M48
; DRILL file {KiCad 7.0.7-rc1} date 2024 April 11, Thursday 15:55:17
; FORMAT={-:-/ absolute / inch / decimal}
; #@! TF.CreationDate,2024-04-11T15:55:17-04:00
; #@! TF.GenerationSoftware,Kicad,Pcbnew,7.0.7-rc1
; #@! TF.FileFunction,Plated,1,2,PTH
FMAT,2
INCH
; #@! TA.AperFunction,Plated,PTH,ViaDrill
T1C0.0157
; #@! TA.AperFunction,Plated,PTH,ComponentDrill
T2C0.0276
; #@! TA.AperFunction,Plated,PTH,ComponentDrill
T3C0.0394
; #@! TA.AperFunction,Plated,PTH,ComponentDrill
T4C0.0689
%
G90
G05
T1
X4.4882Y-4.6885
X4.5039Y-4.2441
X4.5197Y-4.3583
X4.5228Y-4.4233
X4.5276Y-4.4882
X4.5414Y-4.6854
X4.5582Y-4.3721
X4.5669Y-4.5669
X4.5906Y-4.311
X4.6063Y-4.6811
X4.6299Y-4.3622
X4.6299Y-4.4016
X4.6457Y-2.5591
X4.6693Y-4.3622
X4.6693Y-4.4016
X4.6753Y-4.7628
X4.7008Y-2.2362
X4.7543Y-4.4583
X4.7677Y-4.3977
X4.7814Y-4.5646
X4.8346Y-4.6457
X4.8425Y-4.7638
X4.874Y-4.6772
X4.8976Y-4.5984
X4.9134Y-2.5591
X4.9189Y-4.6952
X4.9203Y-4.4937
X4.9291Y-4.6299
X4.9606Y-4.4252
X4.9606Y-4.6614
X5.0236Y-4.3465
X5.0394Y-4.4646
X5.0709Y-4.2362
X5.0866Y-4.5039
X5.126Y-4.5512
X5.1417Y-4.3858
X5.2205Y-4.2362
X5.7485Y-2.4999
X5.76Y-2.362
X6.2008Y-2.4173
X6.2717Y-2.5945
X6.5551Y-2.874
X6.5551Y-2.9921
T2
X4.4685Y-4.3291
X4.4685Y-4.3791
X4.4685Y-4.4291
X4.7087Y-2.4921
X4.7402Y-2.3898
X4.7717Y-2.4921
X4.8031Y-2.3898
X4.8346Y-2.4921
T3
X6.2278Y-2.8303
X6.2278Y-2.9303
X6.2278Y-3.0303
X6.2278Y-3.1303
X6.2278Y-3.2303
X6.2278Y-3.3303
X6.2278Y-3.4303
X6.2278Y-3.5303
X6.2278Y-3.6303
X6.2278Y-3.7303
X6.2278Y-3.8303
X6.2278Y-3.9303
X6.2278Y-4.0303
X6.2278Y-4.1303
X6.2278Y-4.2303
X6.8278Y-2.8303
X6.8278Y-2.9303
X6.8278Y-3.0303
X6.8278Y-3.1303
X6.8278Y-3.2303
X6.8278Y-3.3303
X6.8278Y-3.4303
X6.8278Y-3.5303
X6.8278Y-3.6303
X6.8278Y-3.7303
X6.8278Y-3.8303
X6.8278Y-3.9303
X6.8278Y-4.0303
X6.8278Y-4.1303
X6.8278Y-4.2303
T4
X5.0748Y-4.778
X5.2874Y-4.778
X5.5Y-4.778
X5.7Y-4.778
X5.9126Y-4.778
X6.1252Y-4.778
T2
G00X4.628Y-2.4754
M15
G01X4.628Y-2.4065
M16
G05
G00X4.9154Y-2.4754
M15
G01X4.9154Y-2.4065
M16
G05
T0
M30
