%TF.GenerationSoftware,KiCad,Pcbnew,7.0.7-rc1*%
%TF.CreationDate,2024-04-11T15:56:59-04:00*%
%TF.ProjectId,Moving_PCB,4d6f7669-6e67-45f5-9043-422e6b696361,rev?*%
%TF.SameCoordinates,Original*%
%TF.FileFunction,Legend,Bot*%
%TF.FilePolarity,Positive*%
%FSLAX46Y46*%
G04 Gerber Fmt 4.6, Leading zero omitted, Abs format (unit mm)*
G04 Created by KiCad (PCBNEW 7.0.7-rc1) date 2024-04-11 15:56:59*
%MOMM*%
%LPD*%
G01*
G04 APERTURE LIST*
%ADD10C,0.150000*%
%ADD11C,0.254000*%
%ADD12C,0.120000*%
%ADD13C,0.200000*%
%ADD14C,0.152400*%
G04 APERTURE END LIST*
D10*
X130377506Y-124042676D02*
X130567982Y-123947438D01*
X130567982Y-123947438D02*
X130853696Y-123947438D01*
X130853696Y-123947438D02*
X131139411Y-124042676D01*
X131139411Y-124042676D02*
X131329887Y-124233152D01*
X131329887Y-124233152D02*
X131425125Y-124423628D01*
X131425125Y-124423628D02*
X131520363Y-124804580D01*
X131520363Y-124804580D02*
X131520363Y-125090295D01*
X131520363Y-125090295D02*
X131425125Y-125471247D01*
X131425125Y-125471247D02*
X131329887Y-125661723D01*
X131329887Y-125661723D02*
X131139411Y-125852200D01*
X131139411Y-125852200D02*
X130853696Y-125947438D01*
X130853696Y-125947438D02*
X130663220Y-125947438D01*
X130663220Y-125947438D02*
X130377506Y-125852200D01*
X130377506Y-125852200D02*
X130282268Y-125756961D01*
X130282268Y-125756961D02*
X130282268Y-125090295D01*
X130282268Y-125090295D02*
X130663220Y-125090295D01*
X129425125Y-125947438D02*
X129425125Y-123947438D01*
X129425125Y-123947438D02*
X128282268Y-125947438D01*
X128282268Y-125947438D02*
X128282268Y-123947438D01*
X127329887Y-125947438D02*
X127329887Y-123947438D01*
X127329887Y-123947438D02*
X126853697Y-123947438D01*
X126853697Y-123947438D02*
X126567982Y-124042676D01*
X126567982Y-124042676D02*
X126377506Y-124233152D01*
X126377506Y-124233152D02*
X126282268Y-124423628D01*
X126282268Y-124423628D02*
X126187030Y-124804580D01*
X126187030Y-124804580D02*
X126187030Y-125090295D01*
X126187030Y-125090295D02*
X126282268Y-125471247D01*
X126282268Y-125471247D02*
X126377506Y-125661723D01*
X126377506Y-125661723D02*
X126567982Y-125852200D01*
X126567982Y-125852200D02*
X126853697Y-125947438D01*
X126853697Y-125947438D02*
X127329887Y-125947438D01*
X144338458Y-124699819D02*
X144052744Y-124795057D01*
X144052744Y-124795057D02*
X143957506Y-124890295D01*
X143957506Y-124890295D02*
X143862268Y-125080771D01*
X143862268Y-125080771D02*
X143862268Y-125366485D01*
X143862268Y-125366485D02*
X143957506Y-125556961D01*
X143957506Y-125556961D02*
X144052744Y-125652200D01*
X144052744Y-125652200D02*
X144243220Y-125747438D01*
X144243220Y-125747438D02*
X145005125Y-125747438D01*
X145005125Y-125747438D02*
X145005125Y-123747438D01*
X145005125Y-123747438D02*
X144338458Y-123747438D01*
X144338458Y-123747438D02*
X144147982Y-123842676D01*
X144147982Y-123842676D02*
X144052744Y-123937914D01*
X144052744Y-123937914D02*
X143957506Y-124128390D01*
X143957506Y-124128390D02*
X143957506Y-124318866D01*
X143957506Y-124318866D02*
X144052744Y-124509342D01*
X144052744Y-124509342D02*
X144147982Y-124604580D01*
X144147982Y-124604580D02*
X144338458Y-124699819D01*
X144338458Y-124699819D02*
X145005125Y-124699819D01*
X150914285Y-126859819D02*
X150914285Y-127669342D01*
X150914285Y-127669342D02*
X150866666Y-127764580D01*
X150866666Y-127764580D02*
X150819047Y-127812200D01*
X150819047Y-127812200D02*
X150723809Y-127859819D01*
X150723809Y-127859819D02*
X150533333Y-127859819D01*
X150533333Y-127859819D02*
X150438095Y-127812200D01*
X150438095Y-127812200D02*
X150390476Y-127764580D01*
X150390476Y-127764580D02*
X150342857Y-127669342D01*
X150342857Y-127669342D02*
X150342857Y-126859819D01*
X150009523Y-126859819D02*
X149676190Y-127859819D01*
X149676190Y-127859819D02*
X149342857Y-126859819D01*
X150842857Y-129469819D02*
X151319047Y-129469819D01*
X151319047Y-129469819D02*
X151319047Y-128469819D01*
X150509523Y-128946009D02*
X150176190Y-128946009D01*
X150033333Y-129469819D02*
X150509523Y-129469819D01*
X150509523Y-129469819D02*
X150509523Y-128469819D01*
X150509523Y-128469819D02*
X150033333Y-128469819D01*
X149604761Y-129469819D02*
X149604761Y-128469819D01*
X149604761Y-128469819D02*
X149366666Y-128469819D01*
X149366666Y-128469819D02*
X149223809Y-128517438D01*
X149223809Y-128517438D02*
X149128571Y-128612676D01*
X149128571Y-128612676D02*
X149080952Y-128707914D01*
X149080952Y-128707914D02*
X149033333Y-128898390D01*
X149033333Y-128898390D02*
X149033333Y-129041247D01*
X149033333Y-129041247D02*
X149080952Y-129231723D01*
X149080952Y-129231723D02*
X149128571Y-129326961D01*
X149128571Y-129326961D02*
X149223809Y-129422200D01*
X149223809Y-129422200D02*
X149366666Y-129469819D01*
X149366666Y-129469819D02*
X149604761Y-129469819D01*
X150425125Y-125907438D02*
X150425125Y-123907438D01*
X150425125Y-123907438D02*
X149948935Y-123907438D01*
X149948935Y-123907438D02*
X149663220Y-124002676D01*
X149663220Y-124002676D02*
X149472744Y-124193152D01*
X149472744Y-124193152D02*
X149377506Y-124383628D01*
X149377506Y-124383628D02*
X149282268Y-124764580D01*
X149282268Y-124764580D02*
X149282268Y-125050295D01*
X149282268Y-125050295D02*
X149377506Y-125431247D01*
X149377506Y-125431247D02*
X149472744Y-125621723D01*
X149472744Y-125621723D02*
X149663220Y-125812200D01*
X149663220Y-125812200D02*
X149948935Y-125907438D01*
X149948935Y-125907438D02*
X150425125Y-125907438D01*
X134720363Y-125176009D02*
X133767982Y-125176009D01*
X134910839Y-125747438D02*
X134244173Y-123747438D01*
X134244173Y-123747438D02*
X133577506Y-125747438D01*
X145099999Y-127859819D02*
X145099999Y-126859819D01*
X144052381Y-127859819D02*
X144385714Y-127383628D01*
X144623809Y-127859819D02*
X144623809Y-126859819D01*
X144623809Y-126859819D02*
X144242857Y-126859819D01*
X144242857Y-126859819D02*
X144147619Y-126907438D01*
X144147619Y-126907438D02*
X144100000Y-126955057D01*
X144100000Y-126955057D02*
X144052381Y-127050295D01*
X144052381Y-127050295D02*
X144052381Y-127193152D01*
X144052381Y-127193152D02*
X144100000Y-127288390D01*
X144100000Y-127288390D02*
X144147619Y-127336009D01*
X144147619Y-127336009D02*
X144242857Y-127383628D01*
X144242857Y-127383628D02*
X144623809Y-127383628D01*
X145361904Y-129469819D02*
X145361904Y-128469819D01*
X145361904Y-128469819D02*
X144980952Y-128469819D01*
X144980952Y-128469819D02*
X144885714Y-128517438D01*
X144885714Y-128517438D02*
X144838095Y-128565057D01*
X144838095Y-128565057D02*
X144790476Y-128660295D01*
X144790476Y-128660295D02*
X144790476Y-128803152D01*
X144790476Y-128803152D02*
X144838095Y-128898390D01*
X144838095Y-128898390D02*
X144885714Y-128946009D01*
X144885714Y-128946009D02*
X144980952Y-128993628D01*
X144980952Y-128993628D02*
X145361904Y-128993628D01*
X144361904Y-129469819D02*
X144361904Y-128469819D01*
X144361904Y-128469819D02*
X144123809Y-128469819D01*
X144123809Y-128469819D02*
X143980952Y-128517438D01*
X143980952Y-128517438D02*
X143885714Y-128612676D01*
X143885714Y-128612676D02*
X143838095Y-128707914D01*
X143838095Y-128707914D02*
X143790476Y-128898390D01*
X143790476Y-128898390D02*
X143790476Y-129041247D01*
X143790476Y-129041247D02*
X143838095Y-129231723D01*
X143838095Y-129231723D02*
X143885714Y-129326961D01*
X143885714Y-129326961D02*
X143980952Y-129422200D01*
X143980952Y-129422200D02*
X144123809Y-129469819D01*
X144123809Y-129469819D02*
X144361904Y-129469819D01*
X140299999Y-127859819D02*
X140299999Y-126859819D01*
X139252381Y-127859819D02*
X139585714Y-127383628D01*
X139823809Y-127859819D02*
X139823809Y-126859819D01*
X139823809Y-126859819D02*
X139442857Y-126859819D01*
X139442857Y-126859819D02*
X139347619Y-126907438D01*
X139347619Y-126907438D02*
X139300000Y-126955057D01*
X139300000Y-126955057D02*
X139252381Y-127050295D01*
X139252381Y-127050295D02*
X139252381Y-127193152D01*
X139252381Y-127193152D02*
X139300000Y-127288390D01*
X139300000Y-127288390D02*
X139347619Y-127336009D01*
X139347619Y-127336009D02*
X139442857Y-127383628D01*
X139442857Y-127383628D02*
X139823809Y-127383628D01*
X140442857Y-129469819D02*
X140919047Y-129469819D01*
X140919047Y-129469819D02*
X140919047Y-128469819D01*
X140109523Y-128946009D02*
X139776190Y-128946009D01*
X139633333Y-129469819D02*
X140109523Y-129469819D01*
X140109523Y-129469819D02*
X140109523Y-128469819D01*
X140109523Y-128469819D02*
X139633333Y-128469819D01*
X139204761Y-129469819D02*
X139204761Y-128469819D01*
X139204761Y-128469819D02*
X138966666Y-128469819D01*
X138966666Y-128469819D02*
X138823809Y-128517438D01*
X138823809Y-128517438D02*
X138728571Y-128612676D01*
X138728571Y-128612676D02*
X138680952Y-128707914D01*
X138680952Y-128707914D02*
X138633333Y-128898390D01*
X138633333Y-128898390D02*
X138633333Y-129041247D01*
X138633333Y-129041247D02*
X138680952Y-129231723D01*
X138680952Y-129231723D02*
X138728571Y-129326961D01*
X138728571Y-129326961D02*
X138823809Y-129422200D01*
X138823809Y-129422200D02*
X138966666Y-129469819D01*
X138966666Y-129469819D02*
X139204761Y-129469819D01*
X155952744Y-123907438D02*
X156905125Y-123907438D01*
X156905125Y-123907438D02*
X157000363Y-124859819D01*
X157000363Y-124859819D02*
X156905125Y-124764580D01*
X156905125Y-124764580D02*
X156714649Y-124669342D01*
X156714649Y-124669342D02*
X156238458Y-124669342D01*
X156238458Y-124669342D02*
X156047982Y-124764580D01*
X156047982Y-124764580D02*
X155952744Y-124859819D01*
X155952744Y-124859819D02*
X155857506Y-125050295D01*
X155857506Y-125050295D02*
X155857506Y-125526485D01*
X155857506Y-125526485D02*
X155952744Y-125716961D01*
X155952744Y-125716961D02*
X156047982Y-125812200D01*
X156047982Y-125812200D02*
X156238458Y-125907438D01*
X156238458Y-125907438D02*
X156714649Y-125907438D01*
X156714649Y-125907438D02*
X156905125Y-125812200D01*
X156905125Y-125812200D02*
X157000363Y-125716961D01*
X155286077Y-123907438D02*
X154619411Y-125907438D01*
X154619411Y-125907438D02*
X153952744Y-123907438D01*
X135447618Y-126859819D02*
X135114285Y-127859819D01*
X135114285Y-127859819D02*
X134780952Y-126859819D01*
X134447618Y-127859819D02*
X134447618Y-126859819D01*
X134019047Y-127812200D02*
X133876190Y-127859819D01*
X133876190Y-127859819D02*
X133638095Y-127859819D01*
X133638095Y-127859819D02*
X133542857Y-127812200D01*
X133542857Y-127812200D02*
X133495238Y-127764580D01*
X133495238Y-127764580D02*
X133447619Y-127669342D01*
X133447619Y-127669342D02*
X133447619Y-127574104D01*
X133447619Y-127574104D02*
X133495238Y-127478866D01*
X133495238Y-127478866D02*
X133542857Y-127431247D01*
X133542857Y-127431247D02*
X133638095Y-127383628D01*
X133638095Y-127383628D02*
X133828571Y-127336009D01*
X133828571Y-127336009D02*
X133923809Y-127288390D01*
X133923809Y-127288390D02*
X133971428Y-127240771D01*
X133971428Y-127240771D02*
X134019047Y-127145533D01*
X134019047Y-127145533D02*
X134019047Y-127050295D01*
X134019047Y-127050295D02*
X133971428Y-126955057D01*
X133971428Y-126955057D02*
X133923809Y-126907438D01*
X133923809Y-126907438D02*
X133828571Y-126859819D01*
X133828571Y-126859819D02*
X133590476Y-126859819D01*
X133590476Y-126859819D02*
X133447619Y-126907438D01*
X135161904Y-129469819D02*
X135161904Y-128469819D01*
X135161904Y-128469819D02*
X134780952Y-128469819D01*
X134780952Y-128469819D02*
X134685714Y-128517438D01*
X134685714Y-128517438D02*
X134638095Y-128565057D01*
X134638095Y-128565057D02*
X134590476Y-128660295D01*
X134590476Y-128660295D02*
X134590476Y-128803152D01*
X134590476Y-128803152D02*
X134638095Y-128898390D01*
X134638095Y-128898390D02*
X134685714Y-128946009D01*
X134685714Y-128946009D02*
X134780952Y-128993628D01*
X134780952Y-128993628D02*
X135161904Y-128993628D01*
X134161904Y-129469819D02*
X134161904Y-128469819D01*
X134161904Y-128469819D02*
X133923809Y-128469819D01*
X133923809Y-128469819D02*
X133780952Y-128517438D01*
X133780952Y-128517438D02*
X133685714Y-128612676D01*
X133685714Y-128612676D02*
X133638095Y-128707914D01*
X133638095Y-128707914D02*
X133590476Y-128898390D01*
X133590476Y-128898390D02*
X133590476Y-129041247D01*
X133590476Y-129041247D02*
X133638095Y-129231723D01*
X133638095Y-129231723D02*
X133685714Y-129326961D01*
X133685714Y-129326961D02*
X133780952Y-129422200D01*
X133780952Y-129422200D02*
X133923809Y-129469819D01*
X133923809Y-129469819D02*
X134161904Y-129469819D01*
X139282268Y-125556961D02*
X139377506Y-125652200D01*
X139377506Y-125652200D02*
X139663220Y-125747438D01*
X139663220Y-125747438D02*
X139853696Y-125747438D01*
X139853696Y-125747438D02*
X140139411Y-125652200D01*
X140139411Y-125652200D02*
X140329887Y-125461723D01*
X140329887Y-125461723D02*
X140425125Y-125271247D01*
X140425125Y-125271247D02*
X140520363Y-124890295D01*
X140520363Y-124890295D02*
X140520363Y-124604580D01*
X140520363Y-124604580D02*
X140425125Y-124223628D01*
X140425125Y-124223628D02*
X140329887Y-124033152D01*
X140329887Y-124033152D02*
X140139411Y-123842676D01*
X140139411Y-123842676D02*
X139853696Y-123747438D01*
X139853696Y-123747438D02*
X139663220Y-123747438D01*
X139663220Y-123747438D02*
X139377506Y-123842676D01*
X139377506Y-123842676D02*
X139282268Y-123937914D01*
X113833333Y-114089819D02*
X113833333Y-114804104D01*
X113833333Y-114804104D02*
X113880952Y-114946961D01*
X113880952Y-114946961D02*
X113976190Y-115042200D01*
X113976190Y-115042200D02*
X114119047Y-115089819D01*
X114119047Y-115089819D02*
X114214285Y-115089819D01*
X113404761Y-114185057D02*
X113357142Y-114137438D01*
X113357142Y-114137438D02*
X113261904Y-114089819D01*
X113261904Y-114089819D02*
X113023809Y-114089819D01*
X113023809Y-114089819D02*
X112928571Y-114137438D01*
X112928571Y-114137438D02*
X112880952Y-114185057D01*
X112880952Y-114185057D02*
X112833333Y-114280295D01*
X112833333Y-114280295D02*
X112833333Y-114375533D01*
X112833333Y-114375533D02*
X112880952Y-114518390D01*
X112880952Y-114518390D02*
X113452380Y-115089819D01*
X113452380Y-115089819D02*
X112833333Y-115089819D01*
X117766666Y-124054819D02*
X118099999Y-123578628D01*
X118338094Y-124054819D02*
X118338094Y-123054819D01*
X118338094Y-123054819D02*
X117957142Y-123054819D01*
X117957142Y-123054819D02*
X117861904Y-123102438D01*
X117861904Y-123102438D02*
X117814285Y-123150057D01*
X117814285Y-123150057D02*
X117766666Y-123245295D01*
X117766666Y-123245295D02*
X117766666Y-123388152D01*
X117766666Y-123388152D02*
X117814285Y-123483390D01*
X117814285Y-123483390D02*
X117861904Y-123531009D01*
X117861904Y-123531009D02*
X117957142Y-123578628D01*
X117957142Y-123578628D02*
X118338094Y-123578628D01*
X116814285Y-124054819D02*
X117385713Y-124054819D01*
X117099999Y-124054819D02*
X117099999Y-123054819D01*
X117099999Y-123054819D02*
X117195237Y-123197676D01*
X117195237Y-123197676D02*
X117290475Y-123292914D01*
X117290475Y-123292914D02*
X117385713Y-123340533D01*
X166519285Y-66979104D02*
X166043095Y-66979104D01*
X166614523Y-67264819D02*
X166281190Y-66264819D01*
X166281190Y-66264819D02*
X165947857Y-67264819D01*
X165090714Y-67264819D02*
X165662142Y-67264819D01*
X165376428Y-67264819D02*
X165376428Y-66264819D01*
X165376428Y-66264819D02*
X165471666Y-66407676D01*
X165471666Y-66407676D02*
X165566904Y-66502914D01*
X165566904Y-66502914D02*
X165662142Y-66550533D01*
X176986905Y-94245180D02*
X176986905Y-95245180D01*
X176986905Y-95245180D02*
X177225000Y-95245180D01*
X177225000Y-95245180D02*
X177367857Y-95197561D01*
X177367857Y-95197561D02*
X177463095Y-95102323D01*
X177463095Y-95102323D02*
X177510714Y-95007085D01*
X177510714Y-95007085D02*
X177558333Y-94816609D01*
X177558333Y-94816609D02*
X177558333Y-94673752D01*
X177558333Y-94673752D02*
X177510714Y-94483276D01*
X177510714Y-94483276D02*
X177463095Y-94388038D01*
X177463095Y-94388038D02*
X177367857Y-94292800D01*
X177367857Y-94292800D02*
X177225000Y-94245180D01*
X177225000Y-94245180D02*
X176986905Y-94245180D01*
X177891667Y-95245180D02*
X178558333Y-95245180D01*
X178558333Y-95245180D02*
X178129762Y-94245180D01*
X159915952Y-102110895D02*
X160392142Y-102110895D01*
X159820714Y-101825180D02*
X160154047Y-102825180D01*
X160154047Y-102825180D02*
X160487380Y-101825180D01*
X161392142Y-101825180D02*
X161058809Y-102301371D01*
X160820714Y-101825180D02*
X160820714Y-102825180D01*
X160820714Y-102825180D02*
X161201666Y-102825180D01*
X161201666Y-102825180D02*
X161296904Y-102777561D01*
X161296904Y-102777561D02*
X161344523Y-102729942D01*
X161344523Y-102729942D02*
X161392142Y-102634704D01*
X161392142Y-102634704D02*
X161392142Y-102491847D01*
X161392142Y-102491847D02*
X161344523Y-102396609D01*
X161344523Y-102396609D02*
X161296904Y-102348990D01*
X161296904Y-102348990D02*
X161201666Y-102301371D01*
X161201666Y-102301371D02*
X160820714Y-102301371D01*
X161820714Y-102348990D02*
X162154047Y-102348990D01*
X162296904Y-101825180D02*
X161820714Y-101825180D01*
X161820714Y-101825180D02*
X161820714Y-102825180D01*
X161820714Y-102825180D02*
X162296904Y-102825180D01*
X163058809Y-102348990D02*
X162725476Y-102348990D01*
X162725476Y-101825180D02*
X162725476Y-102825180D01*
X162725476Y-102825180D02*
X163201666Y-102825180D01*
X176138095Y-72320180D02*
X176709523Y-72320180D01*
X176423809Y-71320180D02*
X176423809Y-72320180D01*
X176947619Y-72320180D02*
X177614285Y-71320180D01*
X177614285Y-72320180D02*
X176947619Y-71320180D01*
X177458333Y-73975180D02*
X177125000Y-74451371D01*
X176886905Y-73975180D02*
X176886905Y-74975180D01*
X176886905Y-74975180D02*
X177267857Y-74975180D01*
X177267857Y-74975180D02*
X177363095Y-74927561D01*
X177363095Y-74927561D02*
X177410714Y-74879942D01*
X177410714Y-74879942D02*
X177458333Y-74784704D01*
X177458333Y-74784704D02*
X177458333Y-74641847D01*
X177458333Y-74641847D02*
X177410714Y-74546609D01*
X177410714Y-74546609D02*
X177363095Y-74498990D01*
X177363095Y-74498990D02*
X177267857Y-74451371D01*
X177267857Y-74451371D02*
X176886905Y-74451371D01*
X177791667Y-74975180D02*
X178458333Y-73975180D01*
X178458333Y-74975180D02*
X177791667Y-73975180D01*
X160010714Y-81880895D02*
X160486904Y-81880895D01*
X159915476Y-81595180D02*
X160248809Y-82595180D01*
X160248809Y-82595180D02*
X160582142Y-81595180D01*
X160820238Y-82595180D02*
X161486904Y-82595180D01*
X161486904Y-82595180D02*
X161058333Y-81595180D01*
X159789762Y-72525180D02*
X160123095Y-71525180D01*
X160123095Y-71525180D02*
X160456428Y-72525180D01*
X160789762Y-71525180D02*
X160789762Y-72525180D01*
X161265952Y-71525180D02*
X161265952Y-72525180D01*
X161265952Y-72525180D02*
X161837380Y-71525180D01*
X161837380Y-71525180D02*
X161837380Y-72525180D01*
X177402380Y-76470180D02*
X177069047Y-76946371D01*
X176830952Y-76470180D02*
X176830952Y-77470180D01*
X176830952Y-77470180D02*
X177211904Y-77470180D01*
X177211904Y-77470180D02*
X177307142Y-77422561D01*
X177307142Y-77422561D02*
X177354761Y-77374942D01*
X177354761Y-77374942D02*
X177402380Y-77279704D01*
X177402380Y-77279704D02*
X177402380Y-77136847D01*
X177402380Y-77136847D02*
X177354761Y-77041609D01*
X177354761Y-77041609D02*
X177307142Y-76993990D01*
X177307142Y-76993990D02*
X177211904Y-76946371D01*
X177211904Y-76946371D02*
X176830952Y-76946371D01*
X177783333Y-76517800D02*
X177926190Y-76470180D01*
X177926190Y-76470180D02*
X178164285Y-76470180D01*
X178164285Y-76470180D02*
X178259523Y-76517800D01*
X178259523Y-76517800D02*
X178307142Y-76565419D01*
X178307142Y-76565419D02*
X178354761Y-76660657D01*
X178354761Y-76660657D02*
X178354761Y-76755895D01*
X178354761Y-76755895D02*
X178307142Y-76851133D01*
X178307142Y-76851133D02*
X178259523Y-76898752D01*
X178259523Y-76898752D02*
X178164285Y-76946371D01*
X178164285Y-76946371D02*
X177973809Y-76993990D01*
X177973809Y-76993990D02*
X177878571Y-77041609D01*
X177878571Y-77041609D02*
X177830952Y-77089228D01*
X177830952Y-77089228D02*
X177783333Y-77184466D01*
X177783333Y-77184466D02*
X177783333Y-77279704D01*
X177783333Y-77279704D02*
X177830952Y-77374942D01*
X177830952Y-77374942D02*
X177878571Y-77422561D01*
X177878571Y-77422561D02*
X177973809Y-77470180D01*
X177973809Y-77470180D02*
X178211904Y-77470180D01*
X178211904Y-77470180D02*
X178354761Y-77422561D01*
X178640476Y-77470180D02*
X179211904Y-77470180D01*
X178926190Y-76470180D02*
X178926190Y-77470180D01*
X160085714Y-84330895D02*
X160561904Y-84330895D01*
X159990476Y-84045180D02*
X160323809Y-85045180D01*
X160323809Y-85045180D02*
X160657142Y-84045180D01*
X161419047Y-85045180D02*
X161228571Y-85045180D01*
X161228571Y-85045180D02*
X161133333Y-84997561D01*
X161133333Y-84997561D02*
X161085714Y-84949942D01*
X161085714Y-84949942D02*
X160990476Y-84807085D01*
X160990476Y-84807085D02*
X160942857Y-84616609D01*
X160942857Y-84616609D02*
X160942857Y-84235657D01*
X160942857Y-84235657D02*
X160990476Y-84140419D01*
X160990476Y-84140419D02*
X161038095Y-84092800D01*
X161038095Y-84092800D02*
X161133333Y-84045180D01*
X161133333Y-84045180D02*
X161323809Y-84045180D01*
X161323809Y-84045180D02*
X161419047Y-84092800D01*
X161419047Y-84092800D02*
X161466666Y-84140419D01*
X161466666Y-84140419D02*
X161514285Y-84235657D01*
X161514285Y-84235657D02*
X161514285Y-84473752D01*
X161514285Y-84473752D02*
X161466666Y-84568990D01*
X161466666Y-84568990D02*
X161419047Y-84616609D01*
X161419047Y-84616609D02*
X161323809Y-84664228D01*
X161323809Y-84664228D02*
X161133333Y-84664228D01*
X161133333Y-84664228D02*
X161038095Y-84616609D01*
X161038095Y-84616609D02*
X160990476Y-84568990D01*
X160990476Y-84568990D02*
X160942857Y-84473752D01*
X160085714Y-97030895D02*
X160561904Y-97030895D01*
X159990476Y-96745180D02*
X160323809Y-97745180D01*
X160323809Y-97745180D02*
X160657142Y-96745180D01*
X161514285Y-96745180D02*
X160942857Y-96745180D01*
X161228571Y-96745180D02*
X161228571Y-97745180D01*
X161228571Y-97745180D02*
X161133333Y-97602323D01*
X161133333Y-97602323D02*
X161038095Y-97507085D01*
X161038095Y-97507085D02*
X160942857Y-97459466D01*
X159910714Y-99655895D02*
X160386904Y-99655895D01*
X159815476Y-99370180D02*
X160148809Y-100370180D01*
X160148809Y-100370180D02*
X160482142Y-99370180D01*
X161005952Y-100370180D02*
X161101190Y-100370180D01*
X161101190Y-100370180D02*
X161196428Y-100322561D01*
X161196428Y-100322561D02*
X161244047Y-100274942D01*
X161244047Y-100274942D02*
X161291666Y-100179704D01*
X161291666Y-100179704D02*
X161339285Y-99989228D01*
X161339285Y-99989228D02*
X161339285Y-99751133D01*
X161339285Y-99751133D02*
X161291666Y-99560657D01*
X161291666Y-99560657D02*
X161244047Y-99465419D01*
X161244047Y-99465419D02*
X161196428Y-99417800D01*
X161196428Y-99417800D02*
X161101190Y-99370180D01*
X161101190Y-99370180D02*
X161005952Y-99370180D01*
X161005952Y-99370180D02*
X160910714Y-99417800D01*
X160910714Y-99417800D02*
X160863095Y-99465419D01*
X160863095Y-99465419D02*
X160815476Y-99560657D01*
X160815476Y-99560657D02*
X160767857Y-99751133D01*
X160767857Y-99751133D02*
X160767857Y-99989228D01*
X160767857Y-99989228D02*
X160815476Y-100179704D01*
X160815476Y-100179704D02*
X160863095Y-100274942D01*
X160863095Y-100274942D02*
X160910714Y-100322561D01*
X160910714Y-100322561D02*
X161005952Y-100370180D01*
X159835714Y-89167800D02*
X159978571Y-89120180D01*
X159978571Y-89120180D02*
X160216666Y-89120180D01*
X160216666Y-89120180D02*
X160311904Y-89167800D01*
X160311904Y-89167800D02*
X160359523Y-89215419D01*
X160359523Y-89215419D02*
X160407142Y-89310657D01*
X160407142Y-89310657D02*
X160407142Y-89405895D01*
X160407142Y-89405895D02*
X160359523Y-89501133D01*
X160359523Y-89501133D02*
X160311904Y-89548752D01*
X160311904Y-89548752D02*
X160216666Y-89596371D01*
X160216666Y-89596371D02*
X160026190Y-89643990D01*
X160026190Y-89643990D02*
X159930952Y-89691609D01*
X159930952Y-89691609D02*
X159883333Y-89739228D01*
X159883333Y-89739228D02*
X159835714Y-89834466D01*
X159835714Y-89834466D02*
X159835714Y-89929704D01*
X159835714Y-89929704D02*
X159883333Y-90024942D01*
X159883333Y-90024942D02*
X159930952Y-90072561D01*
X159930952Y-90072561D02*
X160026190Y-90120180D01*
X160026190Y-90120180D02*
X160264285Y-90120180D01*
X160264285Y-90120180D02*
X160407142Y-90072561D01*
X160835714Y-89120180D02*
X160835714Y-90120180D01*
X160835714Y-90120180D02*
X161073809Y-90120180D01*
X161073809Y-90120180D02*
X161216666Y-90072561D01*
X161216666Y-90072561D02*
X161311904Y-89977323D01*
X161311904Y-89977323D02*
X161359523Y-89882085D01*
X161359523Y-89882085D02*
X161407142Y-89691609D01*
X161407142Y-89691609D02*
X161407142Y-89548752D01*
X161407142Y-89548752D02*
X161359523Y-89358276D01*
X161359523Y-89358276D02*
X161311904Y-89263038D01*
X161311904Y-89263038D02*
X161216666Y-89167800D01*
X161216666Y-89167800D02*
X161073809Y-89120180D01*
X161073809Y-89120180D02*
X160835714Y-89120180D01*
X161788095Y-89405895D02*
X162264285Y-89405895D01*
X161692857Y-89120180D02*
X162026190Y-90120180D01*
X162026190Y-90120180D02*
X162359523Y-89120180D01*
X176886905Y-81595180D02*
X176886905Y-82595180D01*
X176886905Y-82595180D02*
X177125000Y-82595180D01*
X177125000Y-82595180D02*
X177267857Y-82547561D01*
X177267857Y-82547561D02*
X177363095Y-82452323D01*
X177363095Y-82452323D02*
X177410714Y-82357085D01*
X177410714Y-82357085D02*
X177458333Y-82166609D01*
X177458333Y-82166609D02*
X177458333Y-82023752D01*
X177458333Y-82023752D02*
X177410714Y-81833276D01*
X177410714Y-81833276D02*
X177363095Y-81738038D01*
X177363095Y-81738038D02*
X177267857Y-81642800D01*
X177267857Y-81642800D02*
X177125000Y-81595180D01*
X177125000Y-81595180D02*
X176886905Y-81595180D01*
X177839286Y-82499942D02*
X177886905Y-82547561D01*
X177886905Y-82547561D02*
X177982143Y-82595180D01*
X177982143Y-82595180D02*
X178220238Y-82595180D01*
X178220238Y-82595180D02*
X178315476Y-82547561D01*
X178315476Y-82547561D02*
X178363095Y-82499942D01*
X178363095Y-82499942D02*
X178410714Y-82404704D01*
X178410714Y-82404704D02*
X178410714Y-82309466D01*
X178410714Y-82309466D02*
X178363095Y-82166609D01*
X178363095Y-82166609D02*
X177791667Y-81595180D01*
X177791667Y-81595180D02*
X178410714Y-81595180D01*
X159714286Y-79351133D02*
X160476191Y-79351133D01*
X160095238Y-78970180D02*
X160095238Y-79732085D01*
X161428571Y-79970180D02*
X160952381Y-79970180D01*
X160952381Y-79970180D02*
X160904762Y-79493990D01*
X160904762Y-79493990D02*
X160952381Y-79541609D01*
X160952381Y-79541609D02*
X161047619Y-79589228D01*
X161047619Y-79589228D02*
X161285714Y-79589228D01*
X161285714Y-79589228D02*
X161380952Y-79541609D01*
X161380952Y-79541609D02*
X161428571Y-79493990D01*
X161428571Y-79493990D02*
X161476190Y-79398752D01*
X161476190Y-79398752D02*
X161476190Y-79160657D01*
X161476190Y-79160657D02*
X161428571Y-79065419D01*
X161428571Y-79065419D02*
X161380952Y-79017800D01*
X161380952Y-79017800D02*
X161285714Y-78970180D01*
X161285714Y-78970180D02*
X161047619Y-78970180D01*
X161047619Y-78970180D02*
X160952381Y-79017800D01*
X160952381Y-79017800D02*
X160904762Y-79065419D01*
X161761905Y-79970180D02*
X162095238Y-78970180D01*
X162095238Y-78970180D02*
X162428571Y-79970180D01*
X157420714Y-109425180D02*
X157420714Y-110425180D01*
X157420714Y-110425180D02*
X157658809Y-110425180D01*
X157658809Y-110425180D02*
X157801666Y-110377561D01*
X157801666Y-110377561D02*
X157896904Y-110282323D01*
X157896904Y-110282323D02*
X157944523Y-110187085D01*
X157944523Y-110187085D02*
X157992142Y-109996609D01*
X157992142Y-109996609D02*
X157992142Y-109853752D01*
X157992142Y-109853752D02*
X157944523Y-109663276D01*
X157944523Y-109663276D02*
X157896904Y-109568038D01*
X157896904Y-109568038D02*
X157801666Y-109472800D01*
X157801666Y-109472800D02*
X157658809Y-109425180D01*
X157658809Y-109425180D02*
X157420714Y-109425180D01*
X158944523Y-109425180D02*
X158373095Y-109425180D01*
X158658809Y-109425180D02*
X158658809Y-110425180D01*
X158658809Y-110425180D02*
X158563571Y-110282323D01*
X158563571Y-110282323D02*
X158468333Y-110187085D01*
X158468333Y-110187085D02*
X158373095Y-110139466D01*
X159277857Y-110425180D02*
X159896904Y-110425180D01*
X159896904Y-110425180D02*
X159563571Y-110044228D01*
X159563571Y-110044228D02*
X159706428Y-110044228D01*
X159706428Y-110044228D02*
X159801666Y-109996609D01*
X159801666Y-109996609D02*
X159849285Y-109948990D01*
X159849285Y-109948990D02*
X159896904Y-109853752D01*
X159896904Y-109853752D02*
X159896904Y-109615657D01*
X159896904Y-109615657D02*
X159849285Y-109520419D01*
X159849285Y-109520419D02*
X159801666Y-109472800D01*
X159801666Y-109472800D02*
X159706428Y-109425180D01*
X159706428Y-109425180D02*
X159420714Y-109425180D01*
X159420714Y-109425180D02*
X159325476Y-109472800D01*
X159325476Y-109472800D02*
X159277857Y-109520419D01*
X176886905Y-96835180D02*
X176886905Y-97835180D01*
X176886905Y-97835180D02*
X177125000Y-97835180D01*
X177125000Y-97835180D02*
X177267857Y-97787561D01*
X177267857Y-97787561D02*
X177363095Y-97692323D01*
X177363095Y-97692323D02*
X177410714Y-97597085D01*
X177410714Y-97597085D02*
X177458333Y-97406609D01*
X177458333Y-97406609D02*
X177458333Y-97263752D01*
X177458333Y-97263752D02*
X177410714Y-97073276D01*
X177410714Y-97073276D02*
X177363095Y-96978038D01*
X177363095Y-96978038D02*
X177267857Y-96882800D01*
X177267857Y-96882800D02*
X177125000Y-96835180D01*
X177125000Y-96835180D02*
X176886905Y-96835180D01*
X178029762Y-97406609D02*
X177934524Y-97454228D01*
X177934524Y-97454228D02*
X177886905Y-97501847D01*
X177886905Y-97501847D02*
X177839286Y-97597085D01*
X177839286Y-97597085D02*
X177839286Y-97644704D01*
X177839286Y-97644704D02*
X177886905Y-97739942D01*
X177886905Y-97739942D02*
X177934524Y-97787561D01*
X177934524Y-97787561D02*
X178029762Y-97835180D01*
X178029762Y-97835180D02*
X178220238Y-97835180D01*
X178220238Y-97835180D02*
X178315476Y-97787561D01*
X178315476Y-97787561D02*
X178363095Y-97739942D01*
X178363095Y-97739942D02*
X178410714Y-97644704D01*
X178410714Y-97644704D02*
X178410714Y-97597085D01*
X178410714Y-97597085D02*
X178363095Y-97501847D01*
X178363095Y-97501847D02*
X178315476Y-97454228D01*
X178315476Y-97454228D02*
X178220238Y-97406609D01*
X178220238Y-97406609D02*
X178029762Y-97406609D01*
X178029762Y-97406609D02*
X177934524Y-97358990D01*
X177934524Y-97358990D02*
X177886905Y-97311371D01*
X177886905Y-97311371D02*
X177839286Y-97216133D01*
X177839286Y-97216133D02*
X177839286Y-97025657D01*
X177839286Y-97025657D02*
X177886905Y-96930419D01*
X177886905Y-96930419D02*
X177934524Y-96882800D01*
X177934524Y-96882800D02*
X178029762Y-96835180D01*
X178029762Y-96835180D02*
X178220238Y-96835180D01*
X178220238Y-96835180D02*
X178315476Y-96882800D01*
X178315476Y-96882800D02*
X178363095Y-96930419D01*
X178363095Y-96930419D02*
X178410714Y-97025657D01*
X178410714Y-97025657D02*
X178410714Y-97216133D01*
X178410714Y-97216133D02*
X178363095Y-97311371D01*
X178363095Y-97311371D02*
X178315476Y-97358990D01*
X178315476Y-97358990D02*
X178220238Y-97406609D01*
X160423095Y-74827561D02*
X160327857Y-74875180D01*
X160327857Y-74875180D02*
X160185000Y-74875180D01*
X160185000Y-74875180D02*
X160042143Y-74827561D01*
X160042143Y-74827561D02*
X159946905Y-74732323D01*
X159946905Y-74732323D02*
X159899286Y-74637085D01*
X159899286Y-74637085D02*
X159851667Y-74446609D01*
X159851667Y-74446609D02*
X159851667Y-74303752D01*
X159851667Y-74303752D02*
X159899286Y-74113276D01*
X159899286Y-74113276D02*
X159946905Y-74018038D01*
X159946905Y-74018038D02*
X160042143Y-73922800D01*
X160042143Y-73922800D02*
X160185000Y-73875180D01*
X160185000Y-73875180D02*
X160280238Y-73875180D01*
X160280238Y-73875180D02*
X160423095Y-73922800D01*
X160423095Y-73922800D02*
X160470714Y-73970419D01*
X160470714Y-73970419D02*
X160470714Y-74303752D01*
X160470714Y-74303752D02*
X160280238Y-74303752D01*
X160899286Y-73875180D02*
X160899286Y-74875180D01*
X160899286Y-74875180D02*
X161470714Y-73875180D01*
X161470714Y-73875180D02*
X161470714Y-74875180D01*
X161946905Y-73875180D02*
X161946905Y-74875180D01*
X161946905Y-74875180D02*
X162185000Y-74875180D01*
X162185000Y-74875180D02*
X162327857Y-74827561D01*
X162327857Y-74827561D02*
X162423095Y-74732323D01*
X162423095Y-74732323D02*
X162470714Y-74637085D01*
X162470714Y-74637085D02*
X162518333Y-74446609D01*
X162518333Y-74446609D02*
X162518333Y-74303752D01*
X162518333Y-74303752D02*
X162470714Y-74113276D01*
X162470714Y-74113276D02*
X162423095Y-74018038D01*
X162423095Y-74018038D02*
X162327857Y-73922800D01*
X162327857Y-73922800D02*
X162185000Y-73875180D01*
X162185000Y-73875180D02*
X161946905Y-73875180D01*
X176735714Y-104545180D02*
X176735714Y-105545180D01*
X176735714Y-105545180D02*
X176973809Y-105545180D01*
X176973809Y-105545180D02*
X177116666Y-105497561D01*
X177116666Y-105497561D02*
X177211904Y-105402323D01*
X177211904Y-105402323D02*
X177259523Y-105307085D01*
X177259523Y-105307085D02*
X177307142Y-105116609D01*
X177307142Y-105116609D02*
X177307142Y-104973752D01*
X177307142Y-104973752D02*
X177259523Y-104783276D01*
X177259523Y-104783276D02*
X177211904Y-104688038D01*
X177211904Y-104688038D02*
X177116666Y-104592800D01*
X177116666Y-104592800D02*
X176973809Y-104545180D01*
X176973809Y-104545180D02*
X176735714Y-104545180D01*
X178259523Y-104545180D02*
X177688095Y-104545180D01*
X177973809Y-104545180D02*
X177973809Y-105545180D01*
X177973809Y-105545180D02*
X177878571Y-105402323D01*
X177878571Y-105402323D02*
X177783333Y-105307085D01*
X177783333Y-105307085D02*
X177688095Y-105259466D01*
X179211904Y-104545180D02*
X178640476Y-104545180D01*
X178926190Y-104545180D02*
X178926190Y-105545180D01*
X178926190Y-105545180D02*
X178830952Y-105402323D01*
X178830952Y-105402323D02*
X178735714Y-105307085D01*
X178735714Y-105307085D02*
X178640476Y-105259466D01*
X177463095Y-80007561D02*
X177367857Y-80055180D01*
X177367857Y-80055180D02*
X177225000Y-80055180D01*
X177225000Y-80055180D02*
X177082143Y-80007561D01*
X177082143Y-80007561D02*
X176986905Y-79912323D01*
X176986905Y-79912323D02*
X176939286Y-79817085D01*
X176939286Y-79817085D02*
X176891667Y-79626609D01*
X176891667Y-79626609D02*
X176891667Y-79483752D01*
X176891667Y-79483752D02*
X176939286Y-79293276D01*
X176939286Y-79293276D02*
X176986905Y-79198038D01*
X176986905Y-79198038D02*
X177082143Y-79102800D01*
X177082143Y-79102800D02*
X177225000Y-79055180D01*
X177225000Y-79055180D02*
X177320238Y-79055180D01*
X177320238Y-79055180D02*
X177463095Y-79102800D01*
X177463095Y-79102800D02*
X177510714Y-79150419D01*
X177510714Y-79150419D02*
X177510714Y-79483752D01*
X177510714Y-79483752D02*
X177320238Y-79483752D01*
X177939286Y-79055180D02*
X177939286Y-80055180D01*
X177939286Y-80055180D02*
X178510714Y-79055180D01*
X178510714Y-79055180D02*
X178510714Y-80055180D01*
X178986905Y-79055180D02*
X178986905Y-80055180D01*
X178986905Y-80055180D02*
X179225000Y-80055180D01*
X179225000Y-80055180D02*
X179367857Y-80007561D01*
X179367857Y-80007561D02*
X179463095Y-79912323D01*
X179463095Y-79912323D02*
X179510714Y-79817085D01*
X179510714Y-79817085D02*
X179558333Y-79626609D01*
X179558333Y-79626609D02*
X179558333Y-79483752D01*
X179558333Y-79483752D02*
X179510714Y-79293276D01*
X179510714Y-79293276D02*
X179463095Y-79198038D01*
X179463095Y-79198038D02*
X179367857Y-79102800D01*
X179367857Y-79102800D02*
X179225000Y-79055180D01*
X179225000Y-79055180D02*
X178986905Y-79055180D01*
X176860714Y-101795180D02*
X176860714Y-102795180D01*
X176860714Y-102795180D02*
X177098809Y-102795180D01*
X177098809Y-102795180D02*
X177241666Y-102747561D01*
X177241666Y-102747561D02*
X177336904Y-102652323D01*
X177336904Y-102652323D02*
X177384523Y-102557085D01*
X177384523Y-102557085D02*
X177432142Y-102366609D01*
X177432142Y-102366609D02*
X177432142Y-102223752D01*
X177432142Y-102223752D02*
X177384523Y-102033276D01*
X177384523Y-102033276D02*
X177336904Y-101938038D01*
X177336904Y-101938038D02*
X177241666Y-101842800D01*
X177241666Y-101842800D02*
X177098809Y-101795180D01*
X177098809Y-101795180D02*
X176860714Y-101795180D01*
X178384523Y-101795180D02*
X177813095Y-101795180D01*
X178098809Y-101795180D02*
X178098809Y-102795180D01*
X178098809Y-102795180D02*
X178003571Y-102652323D01*
X178003571Y-102652323D02*
X177908333Y-102557085D01*
X177908333Y-102557085D02*
X177813095Y-102509466D01*
X179003571Y-102795180D02*
X179098809Y-102795180D01*
X179098809Y-102795180D02*
X179194047Y-102747561D01*
X179194047Y-102747561D02*
X179241666Y-102699942D01*
X179241666Y-102699942D02*
X179289285Y-102604704D01*
X179289285Y-102604704D02*
X179336904Y-102414228D01*
X179336904Y-102414228D02*
X179336904Y-102176133D01*
X179336904Y-102176133D02*
X179289285Y-101985657D01*
X179289285Y-101985657D02*
X179241666Y-101890419D01*
X179241666Y-101890419D02*
X179194047Y-101842800D01*
X179194047Y-101842800D02*
X179098809Y-101795180D01*
X179098809Y-101795180D02*
X179003571Y-101795180D01*
X179003571Y-101795180D02*
X178908333Y-101842800D01*
X178908333Y-101842800D02*
X178860714Y-101890419D01*
X178860714Y-101890419D02*
X178813095Y-101985657D01*
X178813095Y-101985657D02*
X178765476Y-102176133D01*
X178765476Y-102176133D02*
X178765476Y-102414228D01*
X178765476Y-102414228D02*
X178813095Y-102604704D01*
X178813095Y-102604704D02*
X178860714Y-102699942D01*
X178860714Y-102699942D02*
X178908333Y-102747561D01*
X178908333Y-102747561D02*
X179003571Y-102795180D01*
X176761905Y-84095180D02*
X176761905Y-85095180D01*
X176761905Y-85095180D02*
X177000000Y-85095180D01*
X177000000Y-85095180D02*
X177142857Y-85047561D01*
X177142857Y-85047561D02*
X177238095Y-84952323D01*
X177238095Y-84952323D02*
X177285714Y-84857085D01*
X177285714Y-84857085D02*
X177333333Y-84666609D01*
X177333333Y-84666609D02*
X177333333Y-84523752D01*
X177333333Y-84523752D02*
X177285714Y-84333276D01*
X177285714Y-84333276D02*
X177238095Y-84238038D01*
X177238095Y-84238038D02*
X177142857Y-84142800D01*
X177142857Y-84142800D02*
X177000000Y-84095180D01*
X177000000Y-84095180D02*
X176761905Y-84095180D01*
X177666667Y-85095180D02*
X178285714Y-85095180D01*
X178285714Y-85095180D02*
X177952381Y-84714228D01*
X177952381Y-84714228D02*
X178095238Y-84714228D01*
X178095238Y-84714228D02*
X178190476Y-84666609D01*
X178190476Y-84666609D02*
X178238095Y-84618990D01*
X178238095Y-84618990D02*
X178285714Y-84523752D01*
X178285714Y-84523752D02*
X178285714Y-84285657D01*
X178285714Y-84285657D02*
X178238095Y-84190419D01*
X178238095Y-84190419D02*
X178190476Y-84142800D01*
X178190476Y-84142800D02*
X178095238Y-84095180D01*
X178095238Y-84095180D02*
X177809524Y-84095180D01*
X177809524Y-84095180D02*
X177714286Y-84142800D01*
X177714286Y-84142800D02*
X177666667Y-84190419D01*
X167066904Y-106904819D02*
X167066904Y-107714342D01*
X167066904Y-107714342D02*
X167019285Y-107809580D01*
X167019285Y-107809580D02*
X166971666Y-107857200D01*
X166971666Y-107857200D02*
X166876428Y-107904819D01*
X166876428Y-107904819D02*
X166685952Y-107904819D01*
X166685952Y-107904819D02*
X166590714Y-107857200D01*
X166590714Y-107857200D02*
X166543095Y-107809580D01*
X166543095Y-107809580D02*
X166495476Y-107714342D01*
X166495476Y-107714342D02*
X166495476Y-106904819D01*
X166066904Y-107857200D02*
X165924047Y-107904819D01*
X165924047Y-107904819D02*
X165685952Y-107904819D01*
X165685952Y-107904819D02*
X165590714Y-107857200D01*
X165590714Y-107857200D02*
X165543095Y-107809580D01*
X165543095Y-107809580D02*
X165495476Y-107714342D01*
X165495476Y-107714342D02*
X165495476Y-107619104D01*
X165495476Y-107619104D02*
X165543095Y-107523866D01*
X165543095Y-107523866D02*
X165590714Y-107476247D01*
X165590714Y-107476247D02*
X165685952Y-107428628D01*
X165685952Y-107428628D02*
X165876428Y-107381009D01*
X165876428Y-107381009D02*
X165971666Y-107333390D01*
X165971666Y-107333390D02*
X166019285Y-107285771D01*
X166019285Y-107285771D02*
X166066904Y-107190533D01*
X166066904Y-107190533D02*
X166066904Y-107095295D01*
X166066904Y-107095295D02*
X166019285Y-107000057D01*
X166019285Y-107000057D02*
X165971666Y-106952438D01*
X165971666Y-106952438D02*
X165876428Y-106904819D01*
X165876428Y-106904819D02*
X165638333Y-106904819D01*
X165638333Y-106904819D02*
X165495476Y-106952438D01*
X164733571Y-107381009D02*
X164590714Y-107428628D01*
X164590714Y-107428628D02*
X164543095Y-107476247D01*
X164543095Y-107476247D02*
X164495476Y-107571485D01*
X164495476Y-107571485D02*
X164495476Y-107714342D01*
X164495476Y-107714342D02*
X164543095Y-107809580D01*
X164543095Y-107809580D02*
X164590714Y-107857200D01*
X164590714Y-107857200D02*
X164685952Y-107904819D01*
X164685952Y-107904819D02*
X165066904Y-107904819D01*
X165066904Y-107904819D02*
X165066904Y-106904819D01*
X165066904Y-106904819D02*
X164733571Y-106904819D01*
X164733571Y-106904819D02*
X164638333Y-106952438D01*
X164638333Y-106952438D02*
X164590714Y-107000057D01*
X164590714Y-107000057D02*
X164543095Y-107095295D01*
X164543095Y-107095295D02*
X164543095Y-107190533D01*
X164543095Y-107190533D02*
X164590714Y-107285771D01*
X164590714Y-107285771D02*
X164638333Y-107333390D01*
X164638333Y-107333390D02*
X164733571Y-107381009D01*
X164733571Y-107381009D02*
X165066904Y-107381009D01*
X170520180Y-108739285D02*
X171520180Y-108739285D01*
X171520180Y-108739285D02*
X171520180Y-108501190D01*
X171520180Y-108501190D02*
X171472561Y-108358333D01*
X171472561Y-108358333D02*
X171377323Y-108263095D01*
X171377323Y-108263095D02*
X171282085Y-108215476D01*
X171282085Y-108215476D02*
X171091609Y-108167857D01*
X171091609Y-108167857D02*
X170948752Y-108167857D01*
X170948752Y-108167857D02*
X170758276Y-108215476D01*
X170758276Y-108215476D02*
X170663038Y-108263095D01*
X170663038Y-108263095D02*
X170567800Y-108358333D01*
X170567800Y-108358333D02*
X170520180Y-108501190D01*
X170520180Y-108501190D02*
X170520180Y-108739285D01*
X170520180Y-107215476D02*
X170520180Y-107786904D01*
X170520180Y-107501190D02*
X171520180Y-107501190D01*
X171520180Y-107501190D02*
X171377323Y-107596428D01*
X171377323Y-107596428D02*
X171282085Y-107691666D01*
X171282085Y-107691666D02*
X171234466Y-107786904D01*
X171424942Y-106834523D02*
X171472561Y-106786904D01*
X171472561Y-106786904D02*
X171520180Y-106691666D01*
X171520180Y-106691666D02*
X171520180Y-106453571D01*
X171520180Y-106453571D02*
X171472561Y-106358333D01*
X171472561Y-106358333D02*
X171424942Y-106310714D01*
X171424942Y-106310714D02*
X171329704Y-106263095D01*
X171329704Y-106263095D02*
X171234466Y-106263095D01*
X171234466Y-106263095D02*
X171091609Y-106310714D01*
X171091609Y-106310714D02*
X170520180Y-106882142D01*
X170520180Y-106882142D02*
X170520180Y-106263095D01*
X176761905Y-89120180D02*
X176761905Y-90120180D01*
X176761905Y-90120180D02*
X177000000Y-90120180D01*
X177000000Y-90120180D02*
X177142857Y-90072561D01*
X177142857Y-90072561D02*
X177238095Y-89977323D01*
X177238095Y-89977323D02*
X177285714Y-89882085D01*
X177285714Y-89882085D02*
X177333333Y-89691609D01*
X177333333Y-89691609D02*
X177333333Y-89548752D01*
X177333333Y-89548752D02*
X177285714Y-89358276D01*
X177285714Y-89358276D02*
X177238095Y-89263038D01*
X177238095Y-89263038D02*
X177142857Y-89167800D01*
X177142857Y-89167800D02*
X177000000Y-89120180D01*
X177000000Y-89120180D02*
X176761905Y-89120180D01*
X178238095Y-90120180D02*
X177761905Y-90120180D01*
X177761905Y-90120180D02*
X177714286Y-89643990D01*
X177714286Y-89643990D02*
X177761905Y-89691609D01*
X177761905Y-89691609D02*
X177857143Y-89739228D01*
X177857143Y-89739228D02*
X178095238Y-89739228D01*
X178095238Y-89739228D02*
X178190476Y-89691609D01*
X178190476Y-89691609D02*
X178238095Y-89643990D01*
X178238095Y-89643990D02*
X178285714Y-89548752D01*
X178285714Y-89548752D02*
X178285714Y-89310657D01*
X178285714Y-89310657D02*
X178238095Y-89215419D01*
X178238095Y-89215419D02*
X178190476Y-89167800D01*
X178190476Y-89167800D02*
X178095238Y-89120180D01*
X178095238Y-89120180D02*
X177857143Y-89120180D01*
X177857143Y-89120180D02*
X177761905Y-89167800D01*
X177761905Y-89167800D02*
X177714286Y-89215419D01*
X159784524Y-86642800D02*
X159927381Y-86595180D01*
X159927381Y-86595180D02*
X160165476Y-86595180D01*
X160165476Y-86595180D02*
X160260714Y-86642800D01*
X160260714Y-86642800D02*
X160308333Y-86690419D01*
X160308333Y-86690419D02*
X160355952Y-86785657D01*
X160355952Y-86785657D02*
X160355952Y-86880895D01*
X160355952Y-86880895D02*
X160308333Y-86976133D01*
X160308333Y-86976133D02*
X160260714Y-87023752D01*
X160260714Y-87023752D02*
X160165476Y-87071371D01*
X160165476Y-87071371D02*
X159975000Y-87118990D01*
X159975000Y-87118990D02*
X159879762Y-87166609D01*
X159879762Y-87166609D02*
X159832143Y-87214228D01*
X159832143Y-87214228D02*
X159784524Y-87309466D01*
X159784524Y-87309466D02*
X159784524Y-87404704D01*
X159784524Y-87404704D02*
X159832143Y-87499942D01*
X159832143Y-87499942D02*
X159879762Y-87547561D01*
X159879762Y-87547561D02*
X159975000Y-87595180D01*
X159975000Y-87595180D02*
X160213095Y-87595180D01*
X160213095Y-87595180D02*
X160355952Y-87547561D01*
X161355952Y-86690419D02*
X161308333Y-86642800D01*
X161308333Y-86642800D02*
X161165476Y-86595180D01*
X161165476Y-86595180D02*
X161070238Y-86595180D01*
X161070238Y-86595180D02*
X160927381Y-86642800D01*
X160927381Y-86642800D02*
X160832143Y-86738038D01*
X160832143Y-86738038D02*
X160784524Y-86833276D01*
X160784524Y-86833276D02*
X160736905Y-87023752D01*
X160736905Y-87023752D02*
X160736905Y-87166609D01*
X160736905Y-87166609D02*
X160784524Y-87357085D01*
X160784524Y-87357085D02*
X160832143Y-87452323D01*
X160832143Y-87452323D02*
X160927381Y-87547561D01*
X160927381Y-87547561D02*
X161070238Y-87595180D01*
X161070238Y-87595180D02*
X161165476Y-87595180D01*
X161165476Y-87595180D02*
X161308333Y-87547561D01*
X161308333Y-87547561D02*
X161355952Y-87499942D01*
X162260714Y-86595180D02*
X161784524Y-86595180D01*
X161784524Y-86595180D02*
X161784524Y-87595180D01*
X176886905Y-99435180D02*
X176886905Y-100435180D01*
X176886905Y-100435180D02*
X177125000Y-100435180D01*
X177125000Y-100435180D02*
X177267857Y-100387561D01*
X177267857Y-100387561D02*
X177363095Y-100292323D01*
X177363095Y-100292323D02*
X177410714Y-100197085D01*
X177410714Y-100197085D02*
X177458333Y-100006609D01*
X177458333Y-100006609D02*
X177458333Y-99863752D01*
X177458333Y-99863752D02*
X177410714Y-99673276D01*
X177410714Y-99673276D02*
X177363095Y-99578038D01*
X177363095Y-99578038D02*
X177267857Y-99482800D01*
X177267857Y-99482800D02*
X177125000Y-99435180D01*
X177125000Y-99435180D02*
X176886905Y-99435180D01*
X177934524Y-99435180D02*
X178125000Y-99435180D01*
X178125000Y-99435180D02*
X178220238Y-99482800D01*
X178220238Y-99482800D02*
X178267857Y-99530419D01*
X178267857Y-99530419D02*
X178363095Y-99673276D01*
X178363095Y-99673276D02*
X178410714Y-99863752D01*
X178410714Y-99863752D02*
X178410714Y-100244704D01*
X178410714Y-100244704D02*
X178363095Y-100339942D01*
X178363095Y-100339942D02*
X178315476Y-100387561D01*
X178315476Y-100387561D02*
X178220238Y-100435180D01*
X178220238Y-100435180D02*
X178029762Y-100435180D01*
X178029762Y-100435180D02*
X177934524Y-100387561D01*
X177934524Y-100387561D02*
X177886905Y-100339942D01*
X177886905Y-100339942D02*
X177839286Y-100244704D01*
X177839286Y-100244704D02*
X177839286Y-100006609D01*
X177839286Y-100006609D02*
X177886905Y-99911371D01*
X177886905Y-99911371D02*
X177934524Y-99863752D01*
X177934524Y-99863752D02*
X178029762Y-99816133D01*
X178029762Y-99816133D02*
X178220238Y-99816133D01*
X178220238Y-99816133D02*
X178315476Y-99863752D01*
X178315476Y-99863752D02*
X178363095Y-99911371D01*
X178363095Y-99911371D02*
X178410714Y-100006609D01*
X159910714Y-92030895D02*
X160386904Y-92030895D01*
X159815476Y-91745180D02*
X160148809Y-92745180D01*
X160148809Y-92745180D02*
X160482142Y-91745180D01*
X160720238Y-92745180D02*
X161339285Y-92745180D01*
X161339285Y-92745180D02*
X161005952Y-92364228D01*
X161005952Y-92364228D02*
X161148809Y-92364228D01*
X161148809Y-92364228D02*
X161244047Y-92316609D01*
X161244047Y-92316609D02*
X161291666Y-92268990D01*
X161291666Y-92268990D02*
X161339285Y-92173752D01*
X161339285Y-92173752D02*
X161339285Y-91935657D01*
X161339285Y-91935657D02*
X161291666Y-91840419D01*
X161291666Y-91840419D02*
X161244047Y-91792800D01*
X161244047Y-91792800D02*
X161148809Y-91745180D01*
X161148809Y-91745180D02*
X160863095Y-91745180D01*
X160863095Y-91745180D02*
X160767857Y-91792800D01*
X160767857Y-91792800D02*
X160720238Y-91840419D01*
X160237380Y-76425180D02*
X159904047Y-76901371D01*
X159665952Y-76425180D02*
X159665952Y-77425180D01*
X159665952Y-77425180D02*
X160046904Y-77425180D01*
X160046904Y-77425180D02*
X160142142Y-77377561D01*
X160142142Y-77377561D02*
X160189761Y-77329942D01*
X160189761Y-77329942D02*
X160237380Y-77234704D01*
X160237380Y-77234704D02*
X160237380Y-77091847D01*
X160237380Y-77091847D02*
X160189761Y-76996609D01*
X160189761Y-76996609D02*
X160142142Y-76948990D01*
X160142142Y-76948990D02*
X160046904Y-76901371D01*
X160046904Y-76901371D02*
X159665952Y-76901371D01*
X160618333Y-76472800D02*
X160761190Y-76425180D01*
X160761190Y-76425180D02*
X160999285Y-76425180D01*
X160999285Y-76425180D02*
X161094523Y-76472800D01*
X161094523Y-76472800D02*
X161142142Y-76520419D01*
X161142142Y-76520419D02*
X161189761Y-76615657D01*
X161189761Y-76615657D02*
X161189761Y-76710895D01*
X161189761Y-76710895D02*
X161142142Y-76806133D01*
X161142142Y-76806133D02*
X161094523Y-76853752D01*
X161094523Y-76853752D02*
X160999285Y-76901371D01*
X160999285Y-76901371D02*
X160808809Y-76948990D01*
X160808809Y-76948990D02*
X160713571Y-76996609D01*
X160713571Y-76996609D02*
X160665952Y-77044228D01*
X160665952Y-77044228D02*
X160618333Y-77139466D01*
X160618333Y-77139466D02*
X160618333Y-77234704D01*
X160618333Y-77234704D02*
X160665952Y-77329942D01*
X160665952Y-77329942D02*
X160713571Y-77377561D01*
X160713571Y-77377561D02*
X160808809Y-77425180D01*
X160808809Y-77425180D02*
X161046904Y-77425180D01*
X161046904Y-77425180D02*
X161189761Y-77377561D01*
X161475476Y-77425180D02*
X162046904Y-77425180D01*
X161761190Y-76425180D02*
X161761190Y-77425180D01*
X160085714Y-94705895D02*
X160561904Y-94705895D01*
X159990476Y-94420180D02*
X160323809Y-95420180D01*
X160323809Y-95420180D02*
X160657142Y-94420180D01*
X160942857Y-95324942D02*
X160990476Y-95372561D01*
X160990476Y-95372561D02*
X161085714Y-95420180D01*
X161085714Y-95420180D02*
X161323809Y-95420180D01*
X161323809Y-95420180D02*
X161419047Y-95372561D01*
X161419047Y-95372561D02*
X161466666Y-95324942D01*
X161466666Y-95324942D02*
X161514285Y-95229704D01*
X161514285Y-95229704D02*
X161514285Y-95134466D01*
X161514285Y-95134466D02*
X161466666Y-94991609D01*
X161466666Y-94991609D02*
X160895238Y-94420180D01*
X160895238Y-94420180D02*
X161514285Y-94420180D01*
X176811905Y-86545180D02*
X176811905Y-87545180D01*
X176811905Y-87545180D02*
X177050000Y-87545180D01*
X177050000Y-87545180D02*
X177192857Y-87497561D01*
X177192857Y-87497561D02*
X177288095Y-87402323D01*
X177288095Y-87402323D02*
X177335714Y-87307085D01*
X177335714Y-87307085D02*
X177383333Y-87116609D01*
X177383333Y-87116609D02*
X177383333Y-86973752D01*
X177383333Y-86973752D02*
X177335714Y-86783276D01*
X177335714Y-86783276D02*
X177288095Y-86688038D01*
X177288095Y-86688038D02*
X177192857Y-86592800D01*
X177192857Y-86592800D02*
X177050000Y-86545180D01*
X177050000Y-86545180D02*
X176811905Y-86545180D01*
X178240476Y-87211847D02*
X178240476Y-86545180D01*
X178002381Y-87592800D02*
X177764286Y-86878514D01*
X177764286Y-86878514D02*
X178383333Y-86878514D01*
X160658866Y-103218095D02*
X160658866Y-103980000D01*
X161039819Y-103599047D02*
X160277914Y-103599047D01*
X160039819Y-104360952D02*
X160039819Y-104979999D01*
X160039819Y-104979999D02*
X160420771Y-104646666D01*
X160420771Y-104646666D02*
X160420771Y-104789523D01*
X160420771Y-104789523D02*
X160468390Y-104884761D01*
X160468390Y-104884761D02*
X160516009Y-104932380D01*
X160516009Y-104932380D02*
X160611247Y-104979999D01*
X160611247Y-104979999D02*
X160849342Y-104979999D01*
X160849342Y-104979999D02*
X160944580Y-104932380D01*
X160944580Y-104932380D02*
X160992200Y-104884761D01*
X160992200Y-104884761D02*
X161039819Y-104789523D01*
X161039819Y-104789523D02*
X161039819Y-104503809D01*
X161039819Y-104503809D02*
X160992200Y-104408571D01*
X160992200Y-104408571D02*
X160944580Y-104360952D01*
X160039819Y-105265714D02*
X161039819Y-105599047D01*
X161039819Y-105599047D02*
X160039819Y-105932380D01*
X160039819Y-106170476D02*
X160039819Y-106789523D01*
X160039819Y-106789523D02*
X160420771Y-106456190D01*
X160420771Y-106456190D02*
X160420771Y-106599047D01*
X160420771Y-106599047D02*
X160468390Y-106694285D01*
X160468390Y-106694285D02*
X160516009Y-106741904D01*
X160516009Y-106741904D02*
X160611247Y-106789523D01*
X160611247Y-106789523D02*
X160849342Y-106789523D01*
X160849342Y-106789523D02*
X160944580Y-106741904D01*
X160944580Y-106741904D02*
X160992200Y-106694285D01*
X160992200Y-106694285D02*
X161039819Y-106599047D01*
X161039819Y-106599047D02*
X161039819Y-106313333D01*
X161039819Y-106313333D02*
X160992200Y-106218095D01*
X160992200Y-106218095D02*
X160944580Y-106170476D01*
X176861905Y-91620180D02*
X176861905Y-92620180D01*
X176861905Y-92620180D02*
X177100000Y-92620180D01*
X177100000Y-92620180D02*
X177242857Y-92572561D01*
X177242857Y-92572561D02*
X177338095Y-92477323D01*
X177338095Y-92477323D02*
X177385714Y-92382085D01*
X177385714Y-92382085D02*
X177433333Y-92191609D01*
X177433333Y-92191609D02*
X177433333Y-92048752D01*
X177433333Y-92048752D02*
X177385714Y-91858276D01*
X177385714Y-91858276D02*
X177338095Y-91763038D01*
X177338095Y-91763038D02*
X177242857Y-91667800D01*
X177242857Y-91667800D02*
X177100000Y-91620180D01*
X177100000Y-91620180D02*
X176861905Y-91620180D01*
X178290476Y-92620180D02*
X178100000Y-92620180D01*
X178100000Y-92620180D02*
X178004762Y-92572561D01*
X178004762Y-92572561D02*
X177957143Y-92524942D01*
X177957143Y-92524942D02*
X177861905Y-92382085D01*
X177861905Y-92382085D02*
X177814286Y-92191609D01*
X177814286Y-92191609D02*
X177814286Y-91810657D01*
X177814286Y-91810657D02*
X177861905Y-91715419D01*
X177861905Y-91715419D02*
X177909524Y-91667800D01*
X177909524Y-91667800D02*
X178004762Y-91620180D01*
X178004762Y-91620180D02*
X178195238Y-91620180D01*
X178195238Y-91620180D02*
X178290476Y-91667800D01*
X178290476Y-91667800D02*
X178338095Y-91715419D01*
X178338095Y-91715419D02*
X178385714Y-91810657D01*
X178385714Y-91810657D02*
X178385714Y-92048752D01*
X178385714Y-92048752D02*
X178338095Y-92143990D01*
X178338095Y-92143990D02*
X178290476Y-92191609D01*
X178290476Y-92191609D02*
X178195238Y-92239228D01*
X178195238Y-92239228D02*
X178004762Y-92239228D01*
X178004762Y-92239228D02*
X177909524Y-92191609D01*
X177909524Y-92191609D02*
X177861905Y-92143990D01*
X177861905Y-92143990D02*
X177814286Y-92048752D01*
D11*
X141539762Y-65874318D02*
X141539762Y-64604318D01*
X140209285Y-65753365D02*
X140269761Y-65813842D01*
X140269761Y-65813842D02*
X140451190Y-65874318D01*
X140451190Y-65874318D02*
X140572142Y-65874318D01*
X140572142Y-65874318D02*
X140753571Y-65813842D01*
X140753571Y-65813842D02*
X140874523Y-65692889D01*
X140874523Y-65692889D02*
X140935000Y-65571937D01*
X140935000Y-65571937D02*
X140995476Y-65330032D01*
X140995476Y-65330032D02*
X140995476Y-65148603D01*
X140995476Y-65148603D02*
X140935000Y-64906699D01*
X140935000Y-64906699D02*
X140874523Y-64785746D01*
X140874523Y-64785746D02*
X140753571Y-64664794D01*
X140753571Y-64664794D02*
X140572142Y-64604318D01*
X140572142Y-64604318D02*
X140451190Y-64604318D01*
X140451190Y-64604318D02*
X140269761Y-64664794D01*
X140269761Y-64664794D02*
X140209285Y-64725270D01*
X138999761Y-65874318D02*
X139725476Y-65874318D01*
X139362619Y-65874318D02*
X139362619Y-64604318D01*
X139362619Y-64604318D02*
X139483571Y-64785746D01*
X139483571Y-64785746D02*
X139604523Y-64906699D01*
X139604523Y-64906699D02*
X139725476Y-64967175D01*
D10*
X140266666Y-58359580D02*
X140314285Y-58407200D01*
X140314285Y-58407200D02*
X140457142Y-58454819D01*
X140457142Y-58454819D02*
X140552380Y-58454819D01*
X140552380Y-58454819D02*
X140695237Y-58407200D01*
X140695237Y-58407200D02*
X140790475Y-58311961D01*
X140790475Y-58311961D02*
X140838094Y-58216723D01*
X140838094Y-58216723D02*
X140885713Y-58026247D01*
X140885713Y-58026247D02*
X140885713Y-57883390D01*
X140885713Y-57883390D02*
X140838094Y-57692914D01*
X140838094Y-57692914D02*
X140790475Y-57597676D01*
X140790475Y-57597676D02*
X140695237Y-57502438D01*
X140695237Y-57502438D02*
X140552380Y-57454819D01*
X140552380Y-57454819D02*
X140457142Y-57454819D01*
X140457142Y-57454819D02*
X140314285Y-57502438D01*
X140314285Y-57502438D02*
X140266666Y-57550057D01*
X139361904Y-57454819D02*
X139838094Y-57454819D01*
X139838094Y-57454819D02*
X139885713Y-57931009D01*
X139885713Y-57931009D02*
X139838094Y-57883390D01*
X139838094Y-57883390D02*
X139742856Y-57835771D01*
X139742856Y-57835771D02*
X139504761Y-57835771D01*
X139504761Y-57835771D02*
X139409523Y-57883390D01*
X139409523Y-57883390D02*
X139361904Y-57931009D01*
X139361904Y-57931009D02*
X139314285Y-58026247D01*
X139314285Y-58026247D02*
X139314285Y-58264342D01*
X139314285Y-58264342D02*
X139361904Y-58359580D01*
X139361904Y-58359580D02*
X139409523Y-58407200D01*
X139409523Y-58407200D02*
X139504761Y-58454819D01*
X139504761Y-58454819D02*
X139742856Y-58454819D01*
X139742856Y-58454819D02*
X139838094Y-58407200D01*
X139838094Y-58407200D02*
X139885713Y-58359580D01*
X126279166Y-115454819D02*
X126612499Y-114978628D01*
X126850594Y-115454819D02*
X126850594Y-114454819D01*
X126850594Y-114454819D02*
X126469642Y-114454819D01*
X126469642Y-114454819D02*
X126374404Y-114502438D01*
X126374404Y-114502438D02*
X126326785Y-114550057D01*
X126326785Y-114550057D02*
X126279166Y-114645295D01*
X126279166Y-114645295D02*
X126279166Y-114788152D01*
X126279166Y-114788152D02*
X126326785Y-114883390D01*
X126326785Y-114883390D02*
X126374404Y-114931009D01*
X126374404Y-114931009D02*
X126469642Y-114978628D01*
X126469642Y-114978628D02*
X126850594Y-114978628D01*
X125422023Y-114454819D02*
X125612499Y-114454819D01*
X125612499Y-114454819D02*
X125707737Y-114502438D01*
X125707737Y-114502438D02*
X125755356Y-114550057D01*
X125755356Y-114550057D02*
X125850594Y-114692914D01*
X125850594Y-114692914D02*
X125898213Y-114883390D01*
X125898213Y-114883390D02*
X125898213Y-115264342D01*
X125898213Y-115264342D02*
X125850594Y-115359580D01*
X125850594Y-115359580D02*
X125802975Y-115407200D01*
X125802975Y-115407200D02*
X125707737Y-115454819D01*
X125707737Y-115454819D02*
X125517261Y-115454819D01*
X125517261Y-115454819D02*
X125422023Y-115407200D01*
X125422023Y-115407200D02*
X125374404Y-115359580D01*
X125374404Y-115359580D02*
X125326785Y-115264342D01*
X125326785Y-115264342D02*
X125326785Y-115026247D01*
X125326785Y-115026247D02*
X125374404Y-114931009D01*
X125374404Y-114931009D02*
X125422023Y-114883390D01*
X125422023Y-114883390D02*
X125517261Y-114835771D01*
X125517261Y-114835771D02*
X125707737Y-114835771D01*
X125707737Y-114835771D02*
X125802975Y-114883390D01*
X125802975Y-114883390D02*
X125850594Y-114931009D01*
X125850594Y-114931009D02*
X125898213Y-115026247D01*
X121166666Y-119859580D02*
X121214285Y-119907200D01*
X121214285Y-119907200D02*
X121357142Y-119954819D01*
X121357142Y-119954819D02*
X121452380Y-119954819D01*
X121452380Y-119954819D02*
X121595237Y-119907200D01*
X121595237Y-119907200D02*
X121690475Y-119811961D01*
X121690475Y-119811961D02*
X121738094Y-119716723D01*
X121738094Y-119716723D02*
X121785713Y-119526247D01*
X121785713Y-119526247D02*
X121785713Y-119383390D01*
X121785713Y-119383390D02*
X121738094Y-119192914D01*
X121738094Y-119192914D02*
X121690475Y-119097676D01*
X121690475Y-119097676D02*
X121595237Y-119002438D01*
X121595237Y-119002438D02*
X121452380Y-118954819D01*
X121452380Y-118954819D02*
X121357142Y-118954819D01*
X121357142Y-118954819D02*
X121214285Y-119002438D01*
X121214285Y-119002438D02*
X121166666Y-119050057D01*
X120833332Y-118954819D02*
X120214285Y-118954819D01*
X120214285Y-118954819D02*
X120547618Y-119335771D01*
X120547618Y-119335771D02*
X120404761Y-119335771D01*
X120404761Y-119335771D02*
X120309523Y-119383390D01*
X120309523Y-119383390D02*
X120261904Y-119431009D01*
X120261904Y-119431009D02*
X120214285Y-119526247D01*
X120214285Y-119526247D02*
X120214285Y-119764342D01*
X120214285Y-119764342D02*
X120261904Y-119859580D01*
X120261904Y-119859580D02*
X120309523Y-119907200D01*
X120309523Y-119907200D02*
X120404761Y-119954819D01*
X120404761Y-119954819D02*
X120690475Y-119954819D01*
X120690475Y-119954819D02*
X120785713Y-119907200D01*
X120785713Y-119907200D02*
X120833332Y-119859580D01*
X114166666Y-122867319D02*
X114499999Y-122391128D01*
X114738094Y-122867319D02*
X114738094Y-121867319D01*
X114738094Y-121867319D02*
X114357142Y-121867319D01*
X114357142Y-121867319D02*
X114261904Y-121914938D01*
X114261904Y-121914938D02*
X114214285Y-121962557D01*
X114214285Y-121962557D02*
X114166666Y-122057795D01*
X114166666Y-122057795D02*
X114166666Y-122200652D01*
X114166666Y-122200652D02*
X114214285Y-122295890D01*
X114214285Y-122295890D02*
X114261904Y-122343509D01*
X114261904Y-122343509D02*
X114357142Y-122391128D01*
X114357142Y-122391128D02*
X114738094Y-122391128D01*
X113785713Y-121962557D02*
X113738094Y-121914938D01*
X113738094Y-121914938D02*
X113642856Y-121867319D01*
X113642856Y-121867319D02*
X113404761Y-121867319D01*
X113404761Y-121867319D02*
X113309523Y-121914938D01*
X113309523Y-121914938D02*
X113261904Y-121962557D01*
X113261904Y-121962557D02*
X113214285Y-122057795D01*
X113214285Y-122057795D02*
X113214285Y-122153033D01*
X113214285Y-122153033D02*
X113261904Y-122295890D01*
X113261904Y-122295890D02*
X113833332Y-122867319D01*
X113833332Y-122867319D02*
X113214285Y-122867319D01*
X121533333Y-64404819D02*
X121533333Y-65119104D01*
X121533333Y-65119104D02*
X121580952Y-65261961D01*
X121580952Y-65261961D02*
X121676190Y-65357200D01*
X121676190Y-65357200D02*
X121819047Y-65404819D01*
X121819047Y-65404819D02*
X121914285Y-65404819D01*
X121152380Y-64404819D02*
X120533333Y-64404819D01*
X120533333Y-64404819D02*
X120866666Y-64785771D01*
X120866666Y-64785771D02*
X120723809Y-64785771D01*
X120723809Y-64785771D02*
X120628571Y-64833390D01*
X120628571Y-64833390D02*
X120580952Y-64881009D01*
X120580952Y-64881009D02*
X120533333Y-64976247D01*
X120533333Y-64976247D02*
X120533333Y-65214342D01*
X120533333Y-65214342D02*
X120580952Y-65309580D01*
X120580952Y-65309580D02*
X120628571Y-65357200D01*
X120628571Y-65357200D02*
X120723809Y-65404819D01*
X120723809Y-65404819D02*
X121009523Y-65404819D01*
X121009523Y-65404819D02*
X121104761Y-65357200D01*
X121104761Y-65357200D02*
X121152380Y-65309580D01*
X145066666Y-56354819D02*
X145399999Y-55878628D01*
X145638094Y-56354819D02*
X145638094Y-55354819D01*
X145638094Y-55354819D02*
X145257142Y-55354819D01*
X145257142Y-55354819D02*
X145161904Y-55402438D01*
X145161904Y-55402438D02*
X145114285Y-55450057D01*
X145114285Y-55450057D02*
X145066666Y-55545295D01*
X145066666Y-55545295D02*
X145066666Y-55688152D01*
X145066666Y-55688152D02*
X145114285Y-55783390D01*
X145114285Y-55783390D02*
X145161904Y-55831009D01*
X145161904Y-55831009D02*
X145257142Y-55878628D01*
X145257142Y-55878628D02*
X145638094Y-55878628D01*
X144590475Y-56354819D02*
X144399999Y-56354819D01*
X144399999Y-56354819D02*
X144304761Y-56307200D01*
X144304761Y-56307200D02*
X144257142Y-56259580D01*
X144257142Y-56259580D02*
X144161904Y-56116723D01*
X144161904Y-56116723D02*
X144114285Y-55926247D01*
X144114285Y-55926247D02*
X144114285Y-55545295D01*
X144114285Y-55545295D02*
X144161904Y-55450057D01*
X144161904Y-55450057D02*
X144209523Y-55402438D01*
X144209523Y-55402438D02*
X144304761Y-55354819D01*
X144304761Y-55354819D02*
X144495237Y-55354819D01*
X144495237Y-55354819D02*
X144590475Y-55402438D01*
X144590475Y-55402438D02*
X144638094Y-55450057D01*
X144638094Y-55450057D02*
X144685713Y-55545295D01*
X144685713Y-55545295D02*
X144685713Y-55783390D01*
X144685713Y-55783390D02*
X144638094Y-55878628D01*
X144638094Y-55878628D02*
X144590475Y-55926247D01*
X144590475Y-55926247D02*
X144495237Y-55973866D01*
X144495237Y-55973866D02*
X144304761Y-55973866D01*
X144304761Y-55973866D02*
X144209523Y-55926247D01*
X144209523Y-55926247D02*
X144161904Y-55878628D01*
X144161904Y-55878628D02*
X144114285Y-55783390D01*
X109166666Y-117454819D02*
X109499999Y-116978628D01*
X109738094Y-117454819D02*
X109738094Y-116454819D01*
X109738094Y-116454819D02*
X109357142Y-116454819D01*
X109357142Y-116454819D02*
X109261904Y-116502438D01*
X109261904Y-116502438D02*
X109214285Y-116550057D01*
X109214285Y-116550057D02*
X109166666Y-116645295D01*
X109166666Y-116645295D02*
X109166666Y-116788152D01*
X109166666Y-116788152D02*
X109214285Y-116883390D01*
X109214285Y-116883390D02*
X109261904Y-116931009D01*
X109261904Y-116931009D02*
X109357142Y-116978628D01*
X109357142Y-116978628D02*
X109738094Y-116978628D01*
X108833332Y-116454819D02*
X108214285Y-116454819D01*
X108214285Y-116454819D02*
X108547618Y-116835771D01*
X108547618Y-116835771D02*
X108404761Y-116835771D01*
X108404761Y-116835771D02*
X108309523Y-116883390D01*
X108309523Y-116883390D02*
X108261904Y-116931009D01*
X108261904Y-116931009D02*
X108214285Y-117026247D01*
X108214285Y-117026247D02*
X108214285Y-117264342D01*
X108214285Y-117264342D02*
X108261904Y-117359580D01*
X108261904Y-117359580D02*
X108309523Y-117407200D01*
X108309523Y-117407200D02*
X108404761Y-117454819D01*
X108404761Y-117454819D02*
X108690475Y-117454819D01*
X108690475Y-117454819D02*
X108785713Y-117407200D01*
X108785713Y-117407200D02*
X108833332Y-117359580D01*
X114444919Y-112738096D02*
X115254442Y-112738096D01*
X115254442Y-112738096D02*
X115349680Y-112785715D01*
X115349680Y-112785715D02*
X115397300Y-112833334D01*
X115397300Y-112833334D02*
X115444919Y-112928572D01*
X115444919Y-112928572D02*
X115444919Y-113119048D01*
X115444919Y-113119048D02*
X115397300Y-113214286D01*
X115397300Y-113214286D02*
X115349680Y-113261905D01*
X115349680Y-113261905D02*
X115254442Y-113309524D01*
X115254442Y-113309524D02*
X114444919Y-113309524D01*
X115444919Y-114309524D02*
X115444919Y-113738096D01*
X115444919Y-114023810D02*
X114444919Y-114023810D01*
X114444919Y-114023810D02*
X114587776Y-113928572D01*
X114587776Y-113928572D02*
X114683014Y-113833334D01*
X114683014Y-113833334D02*
X114730633Y-113738096D01*
X116882420Y-108050000D02*
X117120515Y-108050000D01*
X117025277Y-107811905D02*
X117120515Y-108050000D01*
X117120515Y-108050000D02*
X117025277Y-108288095D01*
X117310991Y-107907143D02*
X117120515Y-108050000D01*
X117120515Y-108050000D02*
X117310991Y-108192857D01*
X116732419Y-108709201D02*
X116970514Y-108709201D01*
X116875276Y-108471106D02*
X116970514Y-108709201D01*
X116970514Y-108709201D02*
X116875276Y-108947296D01*
X117160990Y-108566344D02*
X116970514Y-108709201D01*
X116970514Y-108709201D02*
X117160990Y-108852058D01*
X114666666Y-116954819D02*
X114999999Y-116478628D01*
X115238094Y-116954819D02*
X115238094Y-115954819D01*
X115238094Y-115954819D02*
X114857142Y-115954819D01*
X114857142Y-115954819D02*
X114761904Y-116002438D01*
X114761904Y-116002438D02*
X114714285Y-116050057D01*
X114714285Y-116050057D02*
X114666666Y-116145295D01*
X114666666Y-116145295D02*
X114666666Y-116288152D01*
X114666666Y-116288152D02*
X114714285Y-116383390D01*
X114714285Y-116383390D02*
X114761904Y-116431009D01*
X114761904Y-116431009D02*
X114857142Y-116478628D01*
X114857142Y-116478628D02*
X115238094Y-116478628D01*
X114333332Y-115954819D02*
X113666666Y-115954819D01*
X113666666Y-115954819D02*
X114095237Y-116954819D01*
X121166666Y-125359580D02*
X121214285Y-125407200D01*
X121214285Y-125407200D02*
X121357142Y-125454819D01*
X121357142Y-125454819D02*
X121452380Y-125454819D01*
X121452380Y-125454819D02*
X121595237Y-125407200D01*
X121595237Y-125407200D02*
X121690475Y-125311961D01*
X121690475Y-125311961D02*
X121738094Y-125216723D01*
X121738094Y-125216723D02*
X121785713Y-125026247D01*
X121785713Y-125026247D02*
X121785713Y-124883390D01*
X121785713Y-124883390D02*
X121738094Y-124692914D01*
X121738094Y-124692914D02*
X121690475Y-124597676D01*
X121690475Y-124597676D02*
X121595237Y-124502438D01*
X121595237Y-124502438D02*
X121452380Y-124454819D01*
X121452380Y-124454819D02*
X121357142Y-124454819D01*
X121357142Y-124454819D02*
X121214285Y-124502438D01*
X121214285Y-124502438D02*
X121166666Y-124550057D01*
X120785713Y-124550057D02*
X120738094Y-124502438D01*
X120738094Y-124502438D02*
X120642856Y-124454819D01*
X120642856Y-124454819D02*
X120404761Y-124454819D01*
X120404761Y-124454819D02*
X120309523Y-124502438D01*
X120309523Y-124502438D02*
X120261904Y-124550057D01*
X120261904Y-124550057D02*
X120214285Y-124645295D01*
X120214285Y-124645295D02*
X120214285Y-124740533D01*
X120214285Y-124740533D02*
X120261904Y-124883390D01*
X120261904Y-124883390D02*
X120833332Y-125454819D01*
X120833332Y-125454819D02*
X120214285Y-125454819D01*
X145266666Y-67959819D02*
X145599999Y-67483628D01*
X145838094Y-67959819D02*
X145838094Y-66959819D01*
X145838094Y-66959819D02*
X145457142Y-66959819D01*
X145457142Y-66959819D02*
X145361904Y-67007438D01*
X145361904Y-67007438D02*
X145314285Y-67055057D01*
X145314285Y-67055057D02*
X145266666Y-67150295D01*
X145266666Y-67150295D02*
X145266666Y-67293152D01*
X145266666Y-67293152D02*
X145314285Y-67388390D01*
X145314285Y-67388390D02*
X145361904Y-67436009D01*
X145361904Y-67436009D02*
X145457142Y-67483628D01*
X145457142Y-67483628D02*
X145838094Y-67483628D01*
X144695237Y-67388390D02*
X144790475Y-67340771D01*
X144790475Y-67340771D02*
X144838094Y-67293152D01*
X144838094Y-67293152D02*
X144885713Y-67197914D01*
X144885713Y-67197914D02*
X144885713Y-67150295D01*
X144885713Y-67150295D02*
X144838094Y-67055057D01*
X144838094Y-67055057D02*
X144790475Y-67007438D01*
X144790475Y-67007438D02*
X144695237Y-66959819D01*
X144695237Y-66959819D02*
X144504761Y-66959819D01*
X144504761Y-66959819D02*
X144409523Y-67007438D01*
X144409523Y-67007438D02*
X144361904Y-67055057D01*
X144361904Y-67055057D02*
X144314285Y-67150295D01*
X144314285Y-67150295D02*
X144314285Y-67197914D01*
X144314285Y-67197914D02*
X144361904Y-67293152D01*
X144361904Y-67293152D02*
X144409523Y-67340771D01*
X144409523Y-67340771D02*
X144504761Y-67388390D01*
X144504761Y-67388390D02*
X144695237Y-67388390D01*
X144695237Y-67388390D02*
X144790475Y-67436009D01*
X144790475Y-67436009D02*
X144838094Y-67483628D01*
X144838094Y-67483628D02*
X144885713Y-67578866D01*
X144885713Y-67578866D02*
X144885713Y-67769342D01*
X144885713Y-67769342D02*
X144838094Y-67864580D01*
X144838094Y-67864580D02*
X144790475Y-67912200D01*
X144790475Y-67912200D02*
X144695237Y-67959819D01*
X144695237Y-67959819D02*
X144504761Y-67959819D01*
X144504761Y-67959819D02*
X144409523Y-67912200D01*
X144409523Y-67912200D02*
X144361904Y-67864580D01*
X144361904Y-67864580D02*
X144314285Y-67769342D01*
X144314285Y-67769342D02*
X144314285Y-67578866D01*
X144314285Y-67578866D02*
X144361904Y-67483628D01*
X144361904Y-67483628D02*
X144409523Y-67436009D01*
X144409523Y-67436009D02*
X144504761Y-67388390D01*
X135666666Y-61359580D02*
X135714285Y-61407200D01*
X135714285Y-61407200D02*
X135857142Y-61454819D01*
X135857142Y-61454819D02*
X135952380Y-61454819D01*
X135952380Y-61454819D02*
X136095237Y-61407200D01*
X136095237Y-61407200D02*
X136190475Y-61311961D01*
X136190475Y-61311961D02*
X136238094Y-61216723D01*
X136238094Y-61216723D02*
X136285713Y-61026247D01*
X136285713Y-61026247D02*
X136285713Y-60883390D01*
X136285713Y-60883390D02*
X136238094Y-60692914D01*
X136238094Y-60692914D02*
X136190475Y-60597676D01*
X136190475Y-60597676D02*
X136095237Y-60502438D01*
X136095237Y-60502438D02*
X135952380Y-60454819D01*
X135952380Y-60454819D02*
X135857142Y-60454819D01*
X135857142Y-60454819D02*
X135714285Y-60502438D01*
X135714285Y-60502438D02*
X135666666Y-60550057D01*
X134809523Y-60788152D02*
X134809523Y-61454819D01*
X135047618Y-60407200D02*
X135285713Y-61121485D01*
X135285713Y-61121485D02*
X134666666Y-61121485D01*
X126279166Y-111254819D02*
X126612499Y-110778628D01*
X126850594Y-111254819D02*
X126850594Y-110254819D01*
X126850594Y-110254819D02*
X126469642Y-110254819D01*
X126469642Y-110254819D02*
X126374404Y-110302438D01*
X126374404Y-110302438D02*
X126326785Y-110350057D01*
X126326785Y-110350057D02*
X126279166Y-110445295D01*
X126279166Y-110445295D02*
X126279166Y-110588152D01*
X126279166Y-110588152D02*
X126326785Y-110683390D01*
X126326785Y-110683390D02*
X126374404Y-110731009D01*
X126374404Y-110731009D02*
X126469642Y-110778628D01*
X126469642Y-110778628D02*
X126850594Y-110778628D01*
X125422023Y-110588152D02*
X125422023Y-111254819D01*
X125660118Y-110207200D02*
X125898213Y-110921485D01*
X125898213Y-110921485D02*
X125279166Y-110921485D01*
X126179166Y-113354819D02*
X126512499Y-112878628D01*
X126750594Y-113354819D02*
X126750594Y-112354819D01*
X126750594Y-112354819D02*
X126369642Y-112354819D01*
X126369642Y-112354819D02*
X126274404Y-112402438D01*
X126274404Y-112402438D02*
X126226785Y-112450057D01*
X126226785Y-112450057D02*
X126179166Y-112545295D01*
X126179166Y-112545295D02*
X126179166Y-112688152D01*
X126179166Y-112688152D02*
X126226785Y-112783390D01*
X126226785Y-112783390D02*
X126274404Y-112831009D01*
X126274404Y-112831009D02*
X126369642Y-112878628D01*
X126369642Y-112878628D02*
X126750594Y-112878628D01*
X125274404Y-112354819D02*
X125750594Y-112354819D01*
X125750594Y-112354819D02*
X125798213Y-112831009D01*
X125798213Y-112831009D02*
X125750594Y-112783390D01*
X125750594Y-112783390D02*
X125655356Y-112735771D01*
X125655356Y-112735771D02*
X125417261Y-112735771D01*
X125417261Y-112735771D02*
X125322023Y-112783390D01*
X125322023Y-112783390D02*
X125274404Y-112831009D01*
X125274404Y-112831009D02*
X125226785Y-112926247D01*
X125226785Y-112926247D02*
X125226785Y-113164342D01*
X125226785Y-113164342D02*
X125274404Y-113259580D01*
X125274404Y-113259580D02*
X125322023Y-113307200D01*
X125322023Y-113307200D02*
X125417261Y-113354819D01*
X125417261Y-113354819D02*
X125655356Y-113354819D01*
X125655356Y-113354819D02*
X125750594Y-113307200D01*
X125750594Y-113307200D02*
X125798213Y-113259580D01*
X118166666Y-118359580D02*
X118214285Y-118407200D01*
X118214285Y-118407200D02*
X118357142Y-118454819D01*
X118357142Y-118454819D02*
X118452380Y-118454819D01*
X118452380Y-118454819D02*
X118595237Y-118407200D01*
X118595237Y-118407200D02*
X118690475Y-118311961D01*
X118690475Y-118311961D02*
X118738094Y-118216723D01*
X118738094Y-118216723D02*
X118785713Y-118026247D01*
X118785713Y-118026247D02*
X118785713Y-117883390D01*
X118785713Y-117883390D02*
X118738094Y-117692914D01*
X118738094Y-117692914D02*
X118690475Y-117597676D01*
X118690475Y-117597676D02*
X118595237Y-117502438D01*
X118595237Y-117502438D02*
X118452380Y-117454819D01*
X118452380Y-117454819D02*
X118357142Y-117454819D01*
X118357142Y-117454819D02*
X118214285Y-117502438D01*
X118214285Y-117502438D02*
X118166666Y-117550057D01*
X117214285Y-118454819D02*
X117785713Y-118454819D01*
X117499999Y-118454819D02*
X117499999Y-117454819D01*
X117499999Y-117454819D02*
X117595237Y-117597676D01*
X117595237Y-117597676D02*
X117690475Y-117692914D01*
X117690475Y-117692914D02*
X117785713Y-117740533D01*
D12*
%TO.C,J2*%
X112170000Y-111865000D02*
X112170000Y-109265000D01*
X112170000Y-111865000D02*
X112740000Y-111865000D01*
X112170000Y-109265000D02*
X113192470Y-109265000D01*
X113500000Y-113260000D02*
X114830000Y-113260000D01*
X113807530Y-109265000D02*
X114830000Y-109265000D01*
X114260000Y-111865000D02*
X114830000Y-111865000D01*
X114830000Y-113260000D02*
X114830000Y-112500000D01*
X114830000Y-111865000D02*
X114830000Y-109265000D01*
%TO.C,R1*%
X118335000Y-120860436D02*
X118335000Y-121314564D01*
X116865000Y-120860436D02*
X116865000Y-121314564D01*
%TO.C,A1*%
X156785000Y-111190000D02*
X156785000Y-108720000D01*
X161865000Y-110890000D02*
X169745000Y-110890000D01*
X169745000Y-110890000D02*
X169745000Y-103510000D01*
X159455000Y-108720000D02*
X156785000Y-108720000D01*
X172155000Y-108720000D02*
X174825000Y-108720000D01*
X174825000Y-108720000D02*
X174825000Y-111190000D01*
X161865000Y-103510000D02*
X161865000Y-110890000D01*
X169745000Y-103510000D02*
X161865000Y-103510000D01*
X172155000Y-73160000D02*
X172155000Y-108720000D01*
X172155000Y-73160000D02*
X174825000Y-73160000D01*
X172155000Y-73160000D02*
X172155000Y-70620000D01*
X156785000Y-70620000D02*
X156785000Y-67950000D01*
X159455000Y-70620000D02*
X159455000Y-108720000D01*
X159455000Y-70620000D02*
X156785000Y-70620000D01*
X172155000Y-70620000D02*
X174825000Y-70620000D01*
X156785000Y-67950000D02*
X174825000Y-67950000D01*
X174825000Y-67950000D02*
X174825000Y-70620000D01*
D13*
%TO.C,IC1*%
X141550000Y-64180000D02*
X143050000Y-64180000D01*
X143400000Y-59150000D02*
X143400000Y-64050000D01*
X143400000Y-64050000D02*
X146600000Y-64050000D01*
X146600000Y-59150000D02*
X143400000Y-59150000D01*
X146600000Y-64050000D02*
X146600000Y-59150000D01*
D12*
%TO.C,C5*%
X139365000Y-60966252D02*
X139365000Y-60443748D01*
X140835000Y-60966252D02*
X140835000Y-60443748D01*
%TO.C,R6*%
X122960436Y-114265000D02*
X123414564Y-114265000D01*
X122960436Y-115735000D02*
X123414564Y-115735000D01*
%TO.C,C3*%
X121161252Y-121635000D02*
X120638748Y-121635000D01*
X121161252Y-120165000D02*
X120638748Y-120165000D01*
%TO.C,R2*%
X114735000Y-119772936D02*
X114735000Y-120227064D01*
X113265000Y-119772936D02*
X113265000Y-120227064D01*
%TO.C,J3*%
X115665000Y-58190000D02*
X117515000Y-58190000D01*
X115665000Y-59990000D02*
X115665000Y-58190000D01*
X115665000Y-63310000D02*
X115665000Y-63860000D01*
X115665000Y-63860000D02*
X126735000Y-63860000D01*
X117515000Y-58190000D02*
X117515000Y-57450000D01*
X126735000Y-58190000D02*
X124885000Y-58190000D01*
X126735000Y-59990000D02*
X126735000Y-58190000D01*
X126735000Y-63860000D02*
X126735000Y-63310000D01*
%TO.C,R9*%
X145127064Y-58440000D02*
X144672936Y-58440000D01*
X145127064Y-56970000D02*
X144672936Y-56970000D01*
%TO.C,R3*%
X111735000Y-117772936D02*
X111735000Y-118227064D01*
X110265000Y-117772936D02*
X110265000Y-118227064D01*
D14*
%TO.C,U1*%
X119703200Y-109674401D02*
X119703200Y-110065660D01*
X119311941Y-109674401D02*
X119703200Y-109674401D01*
X116452000Y-109674401D02*
X116843259Y-109674401D01*
X116452000Y-110065660D02*
X116452000Y-109674401D01*
X119703200Y-112534342D02*
X119703200Y-112925601D01*
X119703200Y-112925601D02*
X119311941Y-112925601D01*
X116843259Y-112925601D02*
X116452000Y-112925601D01*
X116452000Y-112925601D02*
X116452000Y-112534342D01*
G36*
X116020200Y-110690500D02*
G01*
X115766200Y-110690500D01*
X115766200Y-110309500D01*
X116020200Y-110309500D01*
X116020200Y-110690500D01*
G37*
G36*
X120389000Y-112290502D02*
G01*
X120135000Y-112290502D01*
X120135000Y-111909502D01*
X120389000Y-111909502D01*
X120389000Y-112290502D01*
G37*
D12*
%TO.C,R7*%
X116272936Y-113765000D02*
X116727064Y-113765000D01*
X116272936Y-115235000D02*
X116727064Y-115235000D01*
%TO.C,C2*%
X121211252Y-123735000D02*
X120688748Y-123735000D01*
X121211252Y-122265000D02*
X120688748Y-122265000D01*
%TO.C,R8*%
X145327064Y-66240000D02*
X144872936Y-66240000D01*
X145327064Y-64770000D02*
X144872936Y-64770000D01*
%TO.C,C4*%
X137165000Y-60966252D02*
X137165000Y-60443748D01*
X138635000Y-60966252D02*
X138635000Y-60443748D01*
%TO.C,R4*%
X122985436Y-109965000D02*
X123439564Y-109965000D01*
X122985436Y-111435000D02*
X123439564Y-111435000D01*
%TO.C,R5*%
X122985436Y-112165000D02*
X123439564Y-112165000D01*
X122985436Y-113635000D02*
X123439564Y-113635000D01*
%TO.C,C1*%
X118261252Y-117235000D02*
X117738748Y-117235000D01*
X118261252Y-115765000D02*
X117738748Y-115765000D01*
%TD*%
M02*
