%TF.GenerationSoftware,KiCad,Pcbnew,7.0.7-rc1*%
%TF.CreationDate,2024-04-11T15:56:59-04:00*%
%TF.ProjectId,Moving_PCB,4d6f7669-6e67-45f5-9043-422e6b696361,rev?*%
%TF.SameCoordinates,Original*%
%TF.FileFunction,Soldermask,Bot*%
%TF.FilePolarity,Negative*%
%FSLAX46Y46*%
G04 Gerber Fmt 4.6, Leading zero omitted, Abs format (unit mm)*
G04 Created by KiCad (PCBNEW 7.0.7-rc1) date 2024-04-11 15:56:59*
%MOMM*%
%LPD*%
G01*
G04 APERTURE LIST*
G04 Aperture macros list*
%AMRoundRect*
0 Rectangle with rounded corners*
0 $1 Rounding radius*
0 $2 $3 $4 $5 $6 $7 $8 $9 X,Y pos of 4 corners*
0 Add a 4 corners polygon primitive as box body*
4,1,4,$2,$3,$4,$5,$6,$7,$8,$9,$2,$3,0*
0 Add four circle primitives for the rounded corners*
1,1,$1+$1,$2,$3*
1,1,$1+$1,$4,$5*
1,1,$1+$1,$6,$7*
1,1,$1+$1,$8,$9*
0 Add four rect primitives between the rounded corners*
20,1,$1+$1,$2,$3,$4,$5,0*
20,1,$1+$1,$4,$5,$6,$7,0*
20,1,$1+$1,$6,$7,$8,$9,0*
20,1,$1+$1,$8,$9,$2,$3,0*%
G04 Aperture macros list end*
%ADD10C,0.010000*%
%ADD11R,1.000000X1.000000*%
%ADD12O,1.000000X1.000000*%
%ADD13O,1.704000X4.204000*%
%ADD14RoundRect,0.250000X-1.125000X-1.125000X1.125000X-1.125000X1.125000X1.125000X-1.125000X1.125000X0*%
%ADD15C,2.750000*%
%ADD16RoundRect,0.250000X-0.450000X0.262500X-0.450000X-0.262500X0.450000X-0.262500X0.450000X0.262500X0*%
%ADD17R,1.600000X1.600000*%
%ADD18RoundRect,0.317500X1.112500X0.317500X-1.112500X0.317500X-1.112500X-0.317500X1.112500X-0.317500X0*%
%ADD19O,1.600000X1.600000*%
%ADD20R,1.500000X0.650000*%
%ADD21RoundRect,0.250000X0.475000X-0.250000X0.475000X0.250000X-0.475000X0.250000X-0.475000X-0.250000X0*%
%ADD22RoundRect,0.250000X-0.262500X-0.450000X0.262500X-0.450000X0.262500X0.450000X-0.262500X0.450000X0*%
%ADD23RoundRect,0.250000X0.250000X0.475000X-0.250000X0.475000X-0.250000X-0.475000X0.250000X-0.475000X0*%
%ADD24RoundRect,0.150000X-0.150000X-0.700000X0.150000X-0.700000X0.150000X0.700000X-0.150000X0.700000X0*%
%ADD25RoundRect,0.250000X-0.250000X-1.150000X0.250000X-1.150000X0.250000X1.150000X-0.250000X1.150000X0*%
%ADD26RoundRect,0.250000X0.262500X0.450000X-0.262500X0.450000X-0.262500X-0.450000X0.262500X-0.450000X0*%
%ADD27R,0.203200X0.762000*%
%ADD28R,0.762000X0.203200*%
%ADD29R,1.803400X1.803400*%
G04 APERTURE END LIST*
%TO.C,J7*%
D10*
X122837000Y-62301000D02*
X122873000Y-62304000D01*
X122910000Y-62309000D01*
X122946000Y-62315000D01*
X122981000Y-62324000D01*
X123016000Y-62334000D01*
X123051000Y-62346000D01*
X123085000Y-62361000D01*
X123118000Y-62376000D01*
X123150000Y-62394000D01*
X123181000Y-62413000D01*
X123211000Y-62434000D01*
X123241000Y-62456000D01*
X123268000Y-62480000D01*
X123295000Y-62505000D01*
X123320000Y-62532000D01*
X123344000Y-62559000D01*
X123366000Y-62589000D01*
X123387000Y-62619000D01*
X123406000Y-62650000D01*
X123424000Y-62682000D01*
X123439000Y-62715000D01*
X123454000Y-62749000D01*
X123466000Y-62784000D01*
X123476000Y-62819000D01*
X123485000Y-62854000D01*
X123491000Y-62890000D01*
X123496000Y-62927000D01*
X123499000Y-62963000D01*
X123500000Y-63000000D01*
X123500000Y-63600000D01*
X123499000Y-63637000D01*
X123496000Y-63673000D01*
X123491000Y-63710000D01*
X123485000Y-63746000D01*
X123476000Y-63781000D01*
X123466000Y-63816000D01*
X123454000Y-63851000D01*
X123439000Y-63885000D01*
X123424000Y-63918000D01*
X123406000Y-63950000D01*
X123387000Y-63981000D01*
X123366000Y-64011000D01*
X123344000Y-64041000D01*
X123320000Y-64068000D01*
X123295000Y-64095000D01*
X123268000Y-64120000D01*
X123241000Y-64144000D01*
X123211000Y-64166000D01*
X123181000Y-64187000D01*
X123150000Y-64206000D01*
X123118000Y-64224000D01*
X123085000Y-64239000D01*
X123051000Y-64254000D01*
X123016000Y-64266000D01*
X122981000Y-64276000D01*
X122946000Y-64285000D01*
X122910000Y-64291000D01*
X122873000Y-64296000D01*
X122837000Y-64299000D01*
X122800000Y-64300000D01*
X122763000Y-64299000D01*
X122727000Y-64296000D01*
X122690000Y-64291000D01*
X122654000Y-64285000D01*
X122619000Y-64276000D01*
X122584000Y-64266000D01*
X122549000Y-64254000D01*
X122515000Y-64239000D01*
X122482000Y-64224000D01*
X122450000Y-64206000D01*
X122419000Y-64187000D01*
X122389000Y-64166000D01*
X122359000Y-64144000D01*
X122332000Y-64120000D01*
X122305000Y-64095000D01*
X122280000Y-64068000D01*
X122256000Y-64041000D01*
X122234000Y-64011000D01*
X122213000Y-63981000D01*
X122194000Y-63950000D01*
X122176000Y-63918000D01*
X122161000Y-63885000D01*
X122146000Y-63851000D01*
X122134000Y-63816000D01*
X122124000Y-63781000D01*
X122115000Y-63746000D01*
X122109000Y-63710000D01*
X122104000Y-63673000D01*
X122101000Y-63637000D01*
X122100000Y-63600000D01*
X122100000Y-63000000D01*
X122101000Y-62963000D01*
X122104000Y-62927000D01*
X122109000Y-62890000D01*
X122115000Y-62854000D01*
X122124000Y-62819000D01*
X122134000Y-62784000D01*
X122146000Y-62749000D01*
X122161000Y-62715000D01*
X122176000Y-62682000D01*
X122194000Y-62650000D01*
X122213000Y-62619000D01*
X122234000Y-62589000D01*
X122256000Y-62559000D01*
X122280000Y-62532000D01*
X122305000Y-62505000D01*
X122332000Y-62480000D01*
X122359000Y-62456000D01*
X122389000Y-62434000D01*
X122419000Y-62413000D01*
X122450000Y-62394000D01*
X122482000Y-62376000D01*
X122515000Y-62361000D01*
X122549000Y-62346000D01*
X122584000Y-62334000D01*
X122619000Y-62324000D01*
X122654000Y-62315000D01*
X122690000Y-62309000D01*
X122727000Y-62304000D01*
X122763000Y-62301000D01*
X122800000Y-62300000D01*
X122837000Y-62301000D01*
G36*
X122837000Y-62301000D02*
G01*
X122873000Y-62304000D01*
X122910000Y-62309000D01*
X122946000Y-62315000D01*
X122981000Y-62324000D01*
X123016000Y-62334000D01*
X123051000Y-62346000D01*
X123085000Y-62361000D01*
X123118000Y-62376000D01*
X123150000Y-62394000D01*
X123181000Y-62413000D01*
X123211000Y-62434000D01*
X123241000Y-62456000D01*
X123268000Y-62480000D01*
X123295000Y-62505000D01*
X123320000Y-62532000D01*
X123344000Y-62559000D01*
X123366000Y-62589000D01*
X123387000Y-62619000D01*
X123406000Y-62650000D01*
X123424000Y-62682000D01*
X123439000Y-62715000D01*
X123454000Y-62749000D01*
X123466000Y-62784000D01*
X123476000Y-62819000D01*
X123485000Y-62854000D01*
X123491000Y-62890000D01*
X123496000Y-62927000D01*
X123499000Y-62963000D01*
X123500000Y-63000000D01*
X123500000Y-63600000D01*
X123499000Y-63637000D01*
X123496000Y-63673000D01*
X123491000Y-63710000D01*
X123485000Y-63746000D01*
X123476000Y-63781000D01*
X123466000Y-63816000D01*
X123454000Y-63851000D01*
X123439000Y-63885000D01*
X123424000Y-63918000D01*
X123406000Y-63950000D01*
X123387000Y-63981000D01*
X123366000Y-64011000D01*
X123344000Y-64041000D01*
X123320000Y-64068000D01*
X123295000Y-64095000D01*
X123268000Y-64120000D01*
X123241000Y-64144000D01*
X123211000Y-64166000D01*
X123181000Y-64187000D01*
X123150000Y-64206000D01*
X123118000Y-64224000D01*
X123085000Y-64239000D01*
X123051000Y-64254000D01*
X123016000Y-64266000D01*
X122981000Y-64276000D01*
X122946000Y-64285000D01*
X122910000Y-64291000D01*
X122873000Y-64296000D01*
X122837000Y-64299000D01*
X122800000Y-64300000D01*
X122763000Y-64299000D01*
X122727000Y-64296000D01*
X122690000Y-64291000D01*
X122654000Y-64285000D01*
X122619000Y-64276000D01*
X122584000Y-64266000D01*
X122549000Y-64254000D01*
X122515000Y-64239000D01*
X122482000Y-64224000D01*
X122450000Y-64206000D01*
X122419000Y-64187000D01*
X122389000Y-64166000D01*
X122359000Y-64144000D01*
X122332000Y-64120000D01*
X122305000Y-64095000D01*
X122280000Y-64068000D01*
X122256000Y-64041000D01*
X122234000Y-64011000D01*
X122213000Y-63981000D01*
X122194000Y-63950000D01*
X122176000Y-63918000D01*
X122161000Y-63885000D01*
X122146000Y-63851000D01*
X122134000Y-63816000D01*
X122124000Y-63781000D01*
X122115000Y-63746000D01*
X122109000Y-63710000D01*
X122104000Y-63673000D01*
X122101000Y-63637000D01*
X122100000Y-63600000D01*
X122100000Y-63000000D01*
X122101000Y-62963000D01*
X122104000Y-62927000D01*
X122109000Y-62890000D01*
X122115000Y-62854000D01*
X122124000Y-62819000D01*
X122134000Y-62784000D01*
X122146000Y-62749000D01*
X122161000Y-62715000D01*
X122176000Y-62682000D01*
X122194000Y-62650000D01*
X122213000Y-62619000D01*
X122234000Y-62589000D01*
X122256000Y-62559000D01*
X122280000Y-62532000D01*
X122305000Y-62505000D01*
X122332000Y-62480000D01*
X122359000Y-62456000D01*
X122389000Y-62434000D01*
X122419000Y-62413000D01*
X122450000Y-62394000D01*
X122482000Y-62376000D01*
X122515000Y-62361000D01*
X122549000Y-62346000D01*
X122584000Y-62334000D01*
X122619000Y-62324000D01*
X122654000Y-62315000D01*
X122690000Y-62309000D01*
X122727000Y-62304000D01*
X122763000Y-62301000D01*
X122800000Y-62300000D01*
X122837000Y-62301000D01*
G37*
X122037000Y-59701000D02*
X122073000Y-59704000D01*
X122110000Y-59709000D01*
X122146000Y-59715000D01*
X122181000Y-59724000D01*
X122216000Y-59734000D01*
X122251000Y-59746000D01*
X122285000Y-59761000D01*
X122318000Y-59776000D01*
X122350000Y-59794000D01*
X122381000Y-59813000D01*
X122411000Y-59834000D01*
X122441000Y-59856000D01*
X122468000Y-59880000D01*
X122495000Y-59905000D01*
X122520000Y-59932000D01*
X122544000Y-59959000D01*
X122566000Y-59989000D01*
X122587000Y-60019000D01*
X122606000Y-60050000D01*
X122624000Y-60082000D01*
X122639000Y-60115000D01*
X122654000Y-60149000D01*
X122666000Y-60184000D01*
X122676000Y-60219000D01*
X122685000Y-60254000D01*
X122691000Y-60290000D01*
X122696000Y-60327000D01*
X122699000Y-60363000D01*
X122700000Y-60400000D01*
X122700000Y-61000000D01*
X122699000Y-61037000D01*
X122696000Y-61073000D01*
X122691000Y-61110000D01*
X122685000Y-61146000D01*
X122676000Y-61181000D01*
X122666000Y-61216000D01*
X122654000Y-61251000D01*
X122639000Y-61285000D01*
X122624000Y-61318000D01*
X122606000Y-61350000D01*
X122587000Y-61381000D01*
X122566000Y-61411000D01*
X122544000Y-61441000D01*
X122520000Y-61468000D01*
X122495000Y-61495000D01*
X122468000Y-61520000D01*
X122441000Y-61544000D01*
X122411000Y-61566000D01*
X122381000Y-61587000D01*
X122350000Y-61606000D01*
X122318000Y-61624000D01*
X122285000Y-61639000D01*
X122251000Y-61654000D01*
X122216000Y-61666000D01*
X122181000Y-61676000D01*
X122146000Y-61685000D01*
X122110000Y-61691000D01*
X122073000Y-61696000D01*
X122037000Y-61699000D01*
X122000000Y-61700000D01*
X121963000Y-61699000D01*
X121927000Y-61696000D01*
X121890000Y-61691000D01*
X121854000Y-61685000D01*
X121819000Y-61676000D01*
X121784000Y-61666000D01*
X121749000Y-61654000D01*
X121715000Y-61639000D01*
X121682000Y-61624000D01*
X121650000Y-61606000D01*
X121619000Y-61587000D01*
X121589000Y-61566000D01*
X121559000Y-61544000D01*
X121532000Y-61520000D01*
X121505000Y-61495000D01*
X121480000Y-61468000D01*
X121456000Y-61441000D01*
X121434000Y-61411000D01*
X121413000Y-61381000D01*
X121394000Y-61350000D01*
X121376000Y-61318000D01*
X121361000Y-61285000D01*
X121346000Y-61251000D01*
X121334000Y-61216000D01*
X121324000Y-61181000D01*
X121315000Y-61146000D01*
X121309000Y-61110000D01*
X121304000Y-61073000D01*
X121301000Y-61037000D01*
X121300000Y-61000000D01*
X121300000Y-60400000D01*
X121301000Y-60363000D01*
X121304000Y-60327000D01*
X121309000Y-60290000D01*
X121315000Y-60254000D01*
X121324000Y-60219000D01*
X121334000Y-60184000D01*
X121346000Y-60149000D01*
X121361000Y-60115000D01*
X121376000Y-60082000D01*
X121394000Y-60050000D01*
X121413000Y-60019000D01*
X121434000Y-59989000D01*
X121456000Y-59959000D01*
X121480000Y-59932000D01*
X121505000Y-59905000D01*
X121532000Y-59880000D01*
X121559000Y-59856000D01*
X121589000Y-59834000D01*
X121619000Y-59813000D01*
X121650000Y-59794000D01*
X121682000Y-59776000D01*
X121715000Y-59761000D01*
X121749000Y-59746000D01*
X121784000Y-59734000D01*
X121819000Y-59724000D01*
X121854000Y-59715000D01*
X121890000Y-59709000D01*
X121927000Y-59704000D01*
X121963000Y-59701000D01*
X122000000Y-59700000D01*
X122037000Y-59701000D01*
G36*
X122037000Y-59701000D02*
G01*
X122073000Y-59704000D01*
X122110000Y-59709000D01*
X122146000Y-59715000D01*
X122181000Y-59724000D01*
X122216000Y-59734000D01*
X122251000Y-59746000D01*
X122285000Y-59761000D01*
X122318000Y-59776000D01*
X122350000Y-59794000D01*
X122381000Y-59813000D01*
X122411000Y-59834000D01*
X122441000Y-59856000D01*
X122468000Y-59880000D01*
X122495000Y-59905000D01*
X122520000Y-59932000D01*
X122544000Y-59959000D01*
X122566000Y-59989000D01*
X122587000Y-60019000D01*
X122606000Y-60050000D01*
X122624000Y-60082000D01*
X122639000Y-60115000D01*
X122654000Y-60149000D01*
X122666000Y-60184000D01*
X122676000Y-60219000D01*
X122685000Y-60254000D01*
X122691000Y-60290000D01*
X122696000Y-60327000D01*
X122699000Y-60363000D01*
X122700000Y-60400000D01*
X122700000Y-61000000D01*
X122699000Y-61037000D01*
X122696000Y-61073000D01*
X122691000Y-61110000D01*
X122685000Y-61146000D01*
X122676000Y-61181000D01*
X122666000Y-61216000D01*
X122654000Y-61251000D01*
X122639000Y-61285000D01*
X122624000Y-61318000D01*
X122606000Y-61350000D01*
X122587000Y-61381000D01*
X122566000Y-61411000D01*
X122544000Y-61441000D01*
X122520000Y-61468000D01*
X122495000Y-61495000D01*
X122468000Y-61520000D01*
X122441000Y-61544000D01*
X122411000Y-61566000D01*
X122381000Y-61587000D01*
X122350000Y-61606000D01*
X122318000Y-61624000D01*
X122285000Y-61639000D01*
X122251000Y-61654000D01*
X122216000Y-61666000D01*
X122181000Y-61676000D01*
X122146000Y-61685000D01*
X122110000Y-61691000D01*
X122073000Y-61696000D01*
X122037000Y-61699000D01*
X122000000Y-61700000D01*
X121963000Y-61699000D01*
X121927000Y-61696000D01*
X121890000Y-61691000D01*
X121854000Y-61685000D01*
X121819000Y-61676000D01*
X121784000Y-61666000D01*
X121749000Y-61654000D01*
X121715000Y-61639000D01*
X121682000Y-61624000D01*
X121650000Y-61606000D01*
X121619000Y-61587000D01*
X121589000Y-61566000D01*
X121559000Y-61544000D01*
X121532000Y-61520000D01*
X121505000Y-61495000D01*
X121480000Y-61468000D01*
X121456000Y-61441000D01*
X121434000Y-61411000D01*
X121413000Y-61381000D01*
X121394000Y-61350000D01*
X121376000Y-61318000D01*
X121361000Y-61285000D01*
X121346000Y-61251000D01*
X121334000Y-61216000D01*
X121324000Y-61181000D01*
X121315000Y-61146000D01*
X121309000Y-61110000D01*
X121304000Y-61073000D01*
X121301000Y-61037000D01*
X121300000Y-61000000D01*
X121300000Y-60400000D01*
X121301000Y-60363000D01*
X121304000Y-60327000D01*
X121309000Y-60290000D01*
X121315000Y-60254000D01*
X121324000Y-60219000D01*
X121334000Y-60184000D01*
X121346000Y-60149000D01*
X121361000Y-60115000D01*
X121376000Y-60082000D01*
X121394000Y-60050000D01*
X121413000Y-60019000D01*
X121434000Y-59989000D01*
X121456000Y-59959000D01*
X121480000Y-59932000D01*
X121505000Y-59905000D01*
X121532000Y-59880000D01*
X121559000Y-59856000D01*
X121589000Y-59834000D01*
X121619000Y-59813000D01*
X121650000Y-59794000D01*
X121682000Y-59776000D01*
X121715000Y-59761000D01*
X121749000Y-59746000D01*
X121784000Y-59734000D01*
X121819000Y-59724000D01*
X121854000Y-59715000D01*
X121890000Y-59709000D01*
X121927000Y-59704000D01*
X121963000Y-59701000D01*
X122000000Y-59700000D01*
X122037000Y-59701000D01*
G37*
X121237000Y-62301000D02*
X121273000Y-62304000D01*
X121310000Y-62309000D01*
X121346000Y-62315000D01*
X121381000Y-62324000D01*
X121416000Y-62334000D01*
X121451000Y-62346000D01*
X121485000Y-62361000D01*
X121518000Y-62376000D01*
X121550000Y-62394000D01*
X121581000Y-62413000D01*
X121611000Y-62434000D01*
X121641000Y-62456000D01*
X121668000Y-62480000D01*
X121695000Y-62505000D01*
X121720000Y-62532000D01*
X121744000Y-62559000D01*
X121766000Y-62589000D01*
X121787000Y-62619000D01*
X121806000Y-62650000D01*
X121824000Y-62682000D01*
X121839000Y-62715000D01*
X121854000Y-62749000D01*
X121866000Y-62784000D01*
X121876000Y-62819000D01*
X121885000Y-62854000D01*
X121891000Y-62890000D01*
X121896000Y-62927000D01*
X121899000Y-62963000D01*
X121900000Y-63000000D01*
X121900000Y-63600000D01*
X121899000Y-63637000D01*
X121896000Y-63673000D01*
X121891000Y-63710000D01*
X121885000Y-63746000D01*
X121876000Y-63781000D01*
X121866000Y-63816000D01*
X121854000Y-63851000D01*
X121839000Y-63885000D01*
X121824000Y-63918000D01*
X121806000Y-63950000D01*
X121787000Y-63981000D01*
X121766000Y-64011000D01*
X121744000Y-64041000D01*
X121720000Y-64068000D01*
X121695000Y-64095000D01*
X121668000Y-64120000D01*
X121641000Y-64144000D01*
X121611000Y-64166000D01*
X121581000Y-64187000D01*
X121550000Y-64206000D01*
X121518000Y-64224000D01*
X121485000Y-64239000D01*
X121451000Y-64254000D01*
X121416000Y-64266000D01*
X121381000Y-64276000D01*
X121346000Y-64285000D01*
X121310000Y-64291000D01*
X121273000Y-64296000D01*
X121237000Y-64299000D01*
X121200000Y-64300000D01*
X121163000Y-64299000D01*
X121127000Y-64296000D01*
X121090000Y-64291000D01*
X121054000Y-64285000D01*
X121019000Y-64276000D01*
X120984000Y-64266000D01*
X120949000Y-64254000D01*
X120915000Y-64239000D01*
X120882000Y-64224000D01*
X120850000Y-64206000D01*
X120819000Y-64187000D01*
X120789000Y-64166000D01*
X120759000Y-64144000D01*
X120732000Y-64120000D01*
X120705000Y-64095000D01*
X120680000Y-64068000D01*
X120656000Y-64041000D01*
X120634000Y-64011000D01*
X120613000Y-63981000D01*
X120594000Y-63950000D01*
X120576000Y-63918000D01*
X120561000Y-63885000D01*
X120546000Y-63851000D01*
X120534000Y-63816000D01*
X120524000Y-63781000D01*
X120515000Y-63746000D01*
X120509000Y-63710000D01*
X120504000Y-63673000D01*
X120501000Y-63637000D01*
X120500000Y-63600000D01*
X120500000Y-63000000D01*
X120501000Y-62963000D01*
X120504000Y-62927000D01*
X120509000Y-62890000D01*
X120515000Y-62854000D01*
X120524000Y-62819000D01*
X120534000Y-62784000D01*
X120546000Y-62749000D01*
X120561000Y-62715000D01*
X120576000Y-62682000D01*
X120594000Y-62650000D01*
X120613000Y-62619000D01*
X120634000Y-62589000D01*
X120656000Y-62559000D01*
X120680000Y-62532000D01*
X120705000Y-62505000D01*
X120732000Y-62480000D01*
X120759000Y-62456000D01*
X120789000Y-62434000D01*
X120819000Y-62413000D01*
X120850000Y-62394000D01*
X120882000Y-62376000D01*
X120915000Y-62361000D01*
X120949000Y-62346000D01*
X120984000Y-62334000D01*
X121019000Y-62324000D01*
X121054000Y-62315000D01*
X121090000Y-62309000D01*
X121127000Y-62304000D01*
X121163000Y-62301000D01*
X121200000Y-62300000D01*
X121237000Y-62301000D01*
G36*
X121237000Y-62301000D02*
G01*
X121273000Y-62304000D01*
X121310000Y-62309000D01*
X121346000Y-62315000D01*
X121381000Y-62324000D01*
X121416000Y-62334000D01*
X121451000Y-62346000D01*
X121485000Y-62361000D01*
X121518000Y-62376000D01*
X121550000Y-62394000D01*
X121581000Y-62413000D01*
X121611000Y-62434000D01*
X121641000Y-62456000D01*
X121668000Y-62480000D01*
X121695000Y-62505000D01*
X121720000Y-62532000D01*
X121744000Y-62559000D01*
X121766000Y-62589000D01*
X121787000Y-62619000D01*
X121806000Y-62650000D01*
X121824000Y-62682000D01*
X121839000Y-62715000D01*
X121854000Y-62749000D01*
X121866000Y-62784000D01*
X121876000Y-62819000D01*
X121885000Y-62854000D01*
X121891000Y-62890000D01*
X121896000Y-62927000D01*
X121899000Y-62963000D01*
X121900000Y-63000000D01*
X121900000Y-63600000D01*
X121899000Y-63637000D01*
X121896000Y-63673000D01*
X121891000Y-63710000D01*
X121885000Y-63746000D01*
X121876000Y-63781000D01*
X121866000Y-63816000D01*
X121854000Y-63851000D01*
X121839000Y-63885000D01*
X121824000Y-63918000D01*
X121806000Y-63950000D01*
X121787000Y-63981000D01*
X121766000Y-64011000D01*
X121744000Y-64041000D01*
X121720000Y-64068000D01*
X121695000Y-64095000D01*
X121668000Y-64120000D01*
X121641000Y-64144000D01*
X121611000Y-64166000D01*
X121581000Y-64187000D01*
X121550000Y-64206000D01*
X121518000Y-64224000D01*
X121485000Y-64239000D01*
X121451000Y-64254000D01*
X121416000Y-64266000D01*
X121381000Y-64276000D01*
X121346000Y-64285000D01*
X121310000Y-64291000D01*
X121273000Y-64296000D01*
X121237000Y-64299000D01*
X121200000Y-64300000D01*
X121163000Y-64299000D01*
X121127000Y-64296000D01*
X121090000Y-64291000D01*
X121054000Y-64285000D01*
X121019000Y-64276000D01*
X120984000Y-64266000D01*
X120949000Y-64254000D01*
X120915000Y-64239000D01*
X120882000Y-64224000D01*
X120850000Y-64206000D01*
X120819000Y-64187000D01*
X120789000Y-64166000D01*
X120759000Y-64144000D01*
X120732000Y-64120000D01*
X120705000Y-64095000D01*
X120680000Y-64068000D01*
X120656000Y-64041000D01*
X120634000Y-64011000D01*
X120613000Y-63981000D01*
X120594000Y-63950000D01*
X120576000Y-63918000D01*
X120561000Y-63885000D01*
X120546000Y-63851000D01*
X120534000Y-63816000D01*
X120524000Y-63781000D01*
X120515000Y-63746000D01*
X120509000Y-63710000D01*
X120504000Y-63673000D01*
X120501000Y-63637000D01*
X120500000Y-63600000D01*
X120500000Y-63000000D01*
X120501000Y-62963000D01*
X120504000Y-62927000D01*
X120509000Y-62890000D01*
X120515000Y-62854000D01*
X120524000Y-62819000D01*
X120534000Y-62784000D01*
X120546000Y-62749000D01*
X120561000Y-62715000D01*
X120576000Y-62682000D01*
X120594000Y-62650000D01*
X120613000Y-62619000D01*
X120634000Y-62589000D01*
X120656000Y-62559000D01*
X120680000Y-62532000D01*
X120705000Y-62505000D01*
X120732000Y-62480000D01*
X120759000Y-62456000D01*
X120789000Y-62434000D01*
X120819000Y-62413000D01*
X120850000Y-62394000D01*
X120882000Y-62376000D01*
X120915000Y-62361000D01*
X120949000Y-62346000D01*
X120984000Y-62334000D01*
X121019000Y-62324000D01*
X121054000Y-62315000D01*
X121090000Y-62309000D01*
X121127000Y-62304000D01*
X121163000Y-62301000D01*
X121200000Y-62300000D01*
X121237000Y-62301000D01*
G37*
X120437000Y-59701000D02*
X120473000Y-59704000D01*
X120510000Y-59709000D01*
X120546000Y-59715000D01*
X120581000Y-59724000D01*
X120616000Y-59734000D01*
X120651000Y-59746000D01*
X120685000Y-59761000D01*
X120718000Y-59776000D01*
X120750000Y-59794000D01*
X120781000Y-59813000D01*
X120811000Y-59834000D01*
X120841000Y-59856000D01*
X120868000Y-59880000D01*
X120895000Y-59905000D01*
X120920000Y-59932000D01*
X120944000Y-59959000D01*
X120966000Y-59989000D01*
X120987000Y-60019000D01*
X121006000Y-60050000D01*
X121024000Y-60082000D01*
X121039000Y-60115000D01*
X121054000Y-60149000D01*
X121066000Y-60184000D01*
X121076000Y-60219000D01*
X121085000Y-60254000D01*
X121091000Y-60290000D01*
X121096000Y-60327000D01*
X121099000Y-60363000D01*
X121100000Y-60400000D01*
X121100000Y-61000000D01*
X121099000Y-61037000D01*
X121096000Y-61073000D01*
X121091000Y-61110000D01*
X121085000Y-61146000D01*
X121076000Y-61181000D01*
X121066000Y-61216000D01*
X121054000Y-61251000D01*
X121039000Y-61285000D01*
X121024000Y-61318000D01*
X121006000Y-61350000D01*
X120987000Y-61381000D01*
X120966000Y-61411000D01*
X120944000Y-61441000D01*
X120920000Y-61468000D01*
X120895000Y-61495000D01*
X120868000Y-61520000D01*
X120841000Y-61544000D01*
X120811000Y-61566000D01*
X120781000Y-61587000D01*
X120750000Y-61606000D01*
X120718000Y-61624000D01*
X120685000Y-61639000D01*
X120651000Y-61654000D01*
X120616000Y-61666000D01*
X120581000Y-61676000D01*
X120546000Y-61685000D01*
X120510000Y-61691000D01*
X120473000Y-61696000D01*
X120437000Y-61699000D01*
X120400000Y-61700000D01*
X120363000Y-61699000D01*
X120327000Y-61696000D01*
X120290000Y-61691000D01*
X120254000Y-61685000D01*
X120219000Y-61676000D01*
X120184000Y-61666000D01*
X120149000Y-61654000D01*
X120115000Y-61639000D01*
X120082000Y-61624000D01*
X120050000Y-61606000D01*
X120019000Y-61587000D01*
X119989000Y-61566000D01*
X119959000Y-61544000D01*
X119932000Y-61520000D01*
X119905000Y-61495000D01*
X119880000Y-61468000D01*
X119856000Y-61441000D01*
X119834000Y-61411000D01*
X119813000Y-61381000D01*
X119794000Y-61350000D01*
X119776000Y-61318000D01*
X119761000Y-61285000D01*
X119746000Y-61251000D01*
X119734000Y-61216000D01*
X119724000Y-61181000D01*
X119715000Y-61146000D01*
X119709000Y-61110000D01*
X119704000Y-61073000D01*
X119701000Y-61037000D01*
X119700000Y-61000000D01*
X119700000Y-60400000D01*
X119701000Y-60363000D01*
X119704000Y-60327000D01*
X119709000Y-60290000D01*
X119715000Y-60254000D01*
X119724000Y-60219000D01*
X119734000Y-60184000D01*
X119746000Y-60149000D01*
X119761000Y-60115000D01*
X119776000Y-60082000D01*
X119794000Y-60050000D01*
X119813000Y-60019000D01*
X119834000Y-59989000D01*
X119856000Y-59959000D01*
X119880000Y-59932000D01*
X119905000Y-59905000D01*
X119932000Y-59880000D01*
X119959000Y-59856000D01*
X119989000Y-59834000D01*
X120019000Y-59813000D01*
X120050000Y-59794000D01*
X120082000Y-59776000D01*
X120115000Y-59761000D01*
X120149000Y-59746000D01*
X120184000Y-59734000D01*
X120219000Y-59724000D01*
X120254000Y-59715000D01*
X120290000Y-59709000D01*
X120327000Y-59704000D01*
X120363000Y-59701000D01*
X120400000Y-59700000D01*
X120437000Y-59701000D01*
G36*
X120437000Y-59701000D02*
G01*
X120473000Y-59704000D01*
X120510000Y-59709000D01*
X120546000Y-59715000D01*
X120581000Y-59724000D01*
X120616000Y-59734000D01*
X120651000Y-59746000D01*
X120685000Y-59761000D01*
X120718000Y-59776000D01*
X120750000Y-59794000D01*
X120781000Y-59813000D01*
X120811000Y-59834000D01*
X120841000Y-59856000D01*
X120868000Y-59880000D01*
X120895000Y-59905000D01*
X120920000Y-59932000D01*
X120944000Y-59959000D01*
X120966000Y-59989000D01*
X120987000Y-60019000D01*
X121006000Y-60050000D01*
X121024000Y-60082000D01*
X121039000Y-60115000D01*
X121054000Y-60149000D01*
X121066000Y-60184000D01*
X121076000Y-60219000D01*
X121085000Y-60254000D01*
X121091000Y-60290000D01*
X121096000Y-60327000D01*
X121099000Y-60363000D01*
X121100000Y-60400000D01*
X121100000Y-61000000D01*
X121099000Y-61037000D01*
X121096000Y-61073000D01*
X121091000Y-61110000D01*
X121085000Y-61146000D01*
X121076000Y-61181000D01*
X121066000Y-61216000D01*
X121054000Y-61251000D01*
X121039000Y-61285000D01*
X121024000Y-61318000D01*
X121006000Y-61350000D01*
X120987000Y-61381000D01*
X120966000Y-61411000D01*
X120944000Y-61441000D01*
X120920000Y-61468000D01*
X120895000Y-61495000D01*
X120868000Y-61520000D01*
X120841000Y-61544000D01*
X120811000Y-61566000D01*
X120781000Y-61587000D01*
X120750000Y-61606000D01*
X120718000Y-61624000D01*
X120685000Y-61639000D01*
X120651000Y-61654000D01*
X120616000Y-61666000D01*
X120581000Y-61676000D01*
X120546000Y-61685000D01*
X120510000Y-61691000D01*
X120473000Y-61696000D01*
X120437000Y-61699000D01*
X120400000Y-61700000D01*
X120363000Y-61699000D01*
X120327000Y-61696000D01*
X120290000Y-61691000D01*
X120254000Y-61685000D01*
X120219000Y-61676000D01*
X120184000Y-61666000D01*
X120149000Y-61654000D01*
X120115000Y-61639000D01*
X120082000Y-61624000D01*
X120050000Y-61606000D01*
X120019000Y-61587000D01*
X119989000Y-61566000D01*
X119959000Y-61544000D01*
X119932000Y-61520000D01*
X119905000Y-61495000D01*
X119880000Y-61468000D01*
X119856000Y-61441000D01*
X119834000Y-61411000D01*
X119813000Y-61381000D01*
X119794000Y-61350000D01*
X119776000Y-61318000D01*
X119761000Y-61285000D01*
X119746000Y-61251000D01*
X119734000Y-61216000D01*
X119724000Y-61181000D01*
X119715000Y-61146000D01*
X119709000Y-61110000D01*
X119704000Y-61073000D01*
X119701000Y-61037000D01*
X119700000Y-61000000D01*
X119700000Y-60400000D01*
X119701000Y-60363000D01*
X119704000Y-60327000D01*
X119709000Y-60290000D01*
X119715000Y-60254000D01*
X119724000Y-60219000D01*
X119734000Y-60184000D01*
X119746000Y-60149000D01*
X119761000Y-60115000D01*
X119776000Y-60082000D01*
X119794000Y-60050000D01*
X119813000Y-60019000D01*
X119834000Y-59989000D01*
X119856000Y-59959000D01*
X119880000Y-59932000D01*
X119905000Y-59905000D01*
X119932000Y-59880000D01*
X119959000Y-59856000D01*
X119989000Y-59834000D01*
X120019000Y-59813000D01*
X120050000Y-59794000D01*
X120082000Y-59776000D01*
X120115000Y-59761000D01*
X120149000Y-59746000D01*
X120184000Y-59734000D01*
X120219000Y-59724000D01*
X120254000Y-59715000D01*
X120290000Y-59709000D01*
X120327000Y-59704000D01*
X120363000Y-59701000D01*
X120400000Y-59700000D01*
X120437000Y-59701000D01*
G37*
X119637000Y-62301000D02*
X119673000Y-62304000D01*
X119710000Y-62309000D01*
X119746000Y-62315000D01*
X119781000Y-62324000D01*
X119816000Y-62334000D01*
X119851000Y-62346000D01*
X119885000Y-62361000D01*
X119918000Y-62376000D01*
X119950000Y-62394000D01*
X119981000Y-62413000D01*
X120011000Y-62434000D01*
X120041000Y-62456000D01*
X120068000Y-62480000D01*
X120095000Y-62505000D01*
X120120000Y-62532000D01*
X120144000Y-62559000D01*
X120166000Y-62589000D01*
X120187000Y-62619000D01*
X120206000Y-62650000D01*
X120224000Y-62682000D01*
X120239000Y-62715000D01*
X120254000Y-62749000D01*
X120266000Y-62784000D01*
X120276000Y-62819000D01*
X120285000Y-62854000D01*
X120291000Y-62890000D01*
X120296000Y-62927000D01*
X120299000Y-62963000D01*
X120300000Y-63000000D01*
X120300000Y-63600000D01*
X120299000Y-63637000D01*
X120296000Y-63673000D01*
X120291000Y-63710000D01*
X120285000Y-63746000D01*
X120276000Y-63781000D01*
X120266000Y-63816000D01*
X120254000Y-63851000D01*
X120239000Y-63885000D01*
X120224000Y-63918000D01*
X120206000Y-63950000D01*
X120187000Y-63981000D01*
X120166000Y-64011000D01*
X120144000Y-64041000D01*
X120120000Y-64068000D01*
X120095000Y-64095000D01*
X120068000Y-64120000D01*
X120041000Y-64144000D01*
X120011000Y-64166000D01*
X119981000Y-64187000D01*
X119950000Y-64206000D01*
X119918000Y-64224000D01*
X119885000Y-64239000D01*
X119851000Y-64254000D01*
X119816000Y-64266000D01*
X119781000Y-64276000D01*
X119746000Y-64285000D01*
X119710000Y-64291000D01*
X119673000Y-64296000D01*
X119637000Y-64299000D01*
X119600000Y-64300000D01*
X119563000Y-64299000D01*
X119527000Y-64296000D01*
X119490000Y-64291000D01*
X119454000Y-64285000D01*
X119419000Y-64276000D01*
X119384000Y-64266000D01*
X119349000Y-64254000D01*
X119315000Y-64239000D01*
X119282000Y-64224000D01*
X119250000Y-64206000D01*
X119219000Y-64187000D01*
X119189000Y-64166000D01*
X119159000Y-64144000D01*
X119132000Y-64120000D01*
X119105000Y-64095000D01*
X119080000Y-64068000D01*
X119056000Y-64041000D01*
X119034000Y-64011000D01*
X119013000Y-63981000D01*
X118994000Y-63950000D01*
X118976000Y-63918000D01*
X118961000Y-63885000D01*
X118946000Y-63851000D01*
X118934000Y-63816000D01*
X118924000Y-63781000D01*
X118915000Y-63746000D01*
X118909000Y-63710000D01*
X118904000Y-63673000D01*
X118901000Y-63637000D01*
X118900000Y-63600000D01*
X118900000Y-63000000D01*
X118901000Y-62963000D01*
X118904000Y-62927000D01*
X118909000Y-62890000D01*
X118915000Y-62854000D01*
X118924000Y-62819000D01*
X118934000Y-62784000D01*
X118946000Y-62749000D01*
X118961000Y-62715000D01*
X118976000Y-62682000D01*
X118994000Y-62650000D01*
X119013000Y-62619000D01*
X119034000Y-62589000D01*
X119056000Y-62559000D01*
X119080000Y-62532000D01*
X119105000Y-62505000D01*
X119132000Y-62480000D01*
X119159000Y-62456000D01*
X119189000Y-62434000D01*
X119219000Y-62413000D01*
X119250000Y-62394000D01*
X119282000Y-62376000D01*
X119315000Y-62361000D01*
X119349000Y-62346000D01*
X119384000Y-62334000D01*
X119419000Y-62324000D01*
X119454000Y-62315000D01*
X119490000Y-62309000D01*
X119527000Y-62304000D01*
X119563000Y-62301000D01*
X119600000Y-62300000D01*
X119637000Y-62301000D01*
G36*
X119637000Y-62301000D02*
G01*
X119673000Y-62304000D01*
X119710000Y-62309000D01*
X119746000Y-62315000D01*
X119781000Y-62324000D01*
X119816000Y-62334000D01*
X119851000Y-62346000D01*
X119885000Y-62361000D01*
X119918000Y-62376000D01*
X119950000Y-62394000D01*
X119981000Y-62413000D01*
X120011000Y-62434000D01*
X120041000Y-62456000D01*
X120068000Y-62480000D01*
X120095000Y-62505000D01*
X120120000Y-62532000D01*
X120144000Y-62559000D01*
X120166000Y-62589000D01*
X120187000Y-62619000D01*
X120206000Y-62650000D01*
X120224000Y-62682000D01*
X120239000Y-62715000D01*
X120254000Y-62749000D01*
X120266000Y-62784000D01*
X120276000Y-62819000D01*
X120285000Y-62854000D01*
X120291000Y-62890000D01*
X120296000Y-62927000D01*
X120299000Y-62963000D01*
X120300000Y-63000000D01*
X120300000Y-63600000D01*
X120299000Y-63637000D01*
X120296000Y-63673000D01*
X120291000Y-63710000D01*
X120285000Y-63746000D01*
X120276000Y-63781000D01*
X120266000Y-63816000D01*
X120254000Y-63851000D01*
X120239000Y-63885000D01*
X120224000Y-63918000D01*
X120206000Y-63950000D01*
X120187000Y-63981000D01*
X120166000Y-64011000D01*
X120144000Y-64041000D01*
X120120000Y-64068000D01*
X120095000Y-64095000D01*
X120068000Y-64120000D01*
X120041000Y-64144000D01*
X120011000Y-64166000D01*
X119981000Y-64187000D01*
X119950000Y-64206000D01*
X119918000Y-64224000D01*
X119885000Y-64239000D01*
X119851000Y-64254000D01*
X119816000Y-64266000D01*
X119781000Y-64276000D01*
X119746000Y-64285000D01*
X119710000Y-64291000D01*
X119673000Y-64296000D01*
X119637000Y-64299000D01*
X119600000Y-64300000D01*
X119563000Y-64299000D01*
X119527000Y-64296000D01*
X119490000Y-64291000D01*
X119454000Y-64285000D01*
X119419000Y-64276000D01*
X119384000Y-64266000D01*
X119349000Y-64254000D01*
X119315000Y-64239000D01*
X119282000Y-64224000D01*
X119250000Y-64206000D01*
X119219000Y-64187000D01*
X119189000Y-64166000D01*
X119159000Y-64144000D01*
X119132000Y-64120000D01*
X119105000Y-64095000D01*
X119080000Y-64068000D01*
X119056000Y-64041000D01*
X119034000Y-64011000D01*
X119013000Y-63981000D01*
X118994000Y-63950000D01*
X118976000Y-63918000D01*
X118961000Y-63885000D01*
X118946000Y-63851000D01*
X118934000Y-63816000D01*
X118924000Y-63781000D01*
X118915000Y-63746000D01*
X118909000Y-63710000D01*
X118904000Y-63673000D01*
X118901000Y-63637000D01*
X118900000Y-63600000D01*
X118900000Y-63000000D01*
X118901000Y-62963000D01*
X118904000Y-62927000D01*
X118909000Y-62890000D01*
X118915000Y-62854000D01*
X118924000Y-62819000D01*
X118934000Y-62784000D01*
X118946000Y-62749000D01*
X118961000Y-62715000D01*
X118976000Y-62682000D01*
X118994000Y-62650000D01*
X119013000Y-62619000D01*
X119034000Y-62589000D01*
X119056000Y-62559000D01*
X119080000Y-62532000D01*
X119105000Y-62505000D01*
X119132000Y-62480000D01*
X119159000Y-62456000D01*
X119189000Y-62434000D01*
X119219000Y-62413000D01*
X119250000Y-62394000D01*
X119282000Y-62376000D01*
X119315000Y-62361000D01*
X119349000Y-62346000D01*
X119384000Y-62334000D01*
X119419000Y-62324000D01*
X119454000Y-62315000D01*
X119490000Y-62309000D01*
X119527000Y-62304000D01*
X119563000Y-62301000D01*
X119600000Y-62300000D01*
X119637000Y-62301000D01*
G37*
%TD*%
D11*
%TO.C,J2*%
X113500000Y-112500000D03*
D12*
X113500000Y-111230000D03*
X113500000Y-109960000D03*
%TD*%
D13*
%TO.C,J7*%
X124850000Y-62000000D03*
X117550000Y-62000000D03*
%TD*%
D14*
%TO.C,J8*%
X128900000Y-121360000D03*
D15*
X134300000Y-121360000D03*
X139700000Y-121360000D03*
%TD*%
D14*
%TO.C,J6*%
X144780000Y-121360000D03*
D15*
X150180000Y-121360000D03*
X155580000Y-121360000D03*
%TD*%
D16*
%TO.C,R1*%
X117600000Y-120175000D03*
X117600000Y-122000000D03*
%TD*%
D17*
%TO.C,A1*%
X173425000Y-71890000D03*
D18*
X174925000Y-71890000D03*
D19*
X173425000Y-74430000D03*
D18*
X174925000Y-74430000D03*
D19*
X173425000Y-76970000D03*
D18*
X174925000Y-76970000D03*
D19*
X173425000Y-79510000D03*
D18*
X174925000Y-79510000D03*
D19*
X173425000Y-82050000D03*
D18*
X174925000Y-82050000D03*
D19*
X173425000Y-84590000D03*
D18*
X174925000Y-84590000D03*
D19*
X173425000Y-87130000D03*
D18*
X174925000Y-87130000D03*
D19*
X173425000Y-89670000D03*
D18*
X174925000Y-89670000D03*
D19*
X173425000Y-92210000D03*
D18*
X174925000Y-92210000D03*
D19*
X173425000Y-94750000D03*
D18*
X174925000Y-94750000D03*
D19*
X173425000Y-97290000D03*
D18*
X174925000Y-97290000D03*
D19*
X173425000Y-99830000D03*
D18*
X174925000Y-99830000D03*
D19*
X173425000Y-102370000D03*
D18*
X174925000Y-102370000D03*
D19*
X173425000Y-104910000D03*
D18*
X174925000Y-104910000D03*
D19*
X173425000Y-107450000D03*
D18*
X174925000Y-107450000D03*
X156685000Y-107450000D03*
D19*
X158185000Y-107450000D03*
D18*
X156685000Y-104910000D03*
D19*
X158185000Y-104910000D03*
D18*
X156685000Y-102370000D03*
D19*
X158185000Y-102370000D03*
D18*
X156685000Y-99830000D03*
D19*
X158185000Y-99830000D03*
D18*
X156685000Y-97290000D03*
D19*
X158185000Y-97290000D03*
D18*
X156685000Y-94750000D03*
D19*
X158185000Y-94750000D03*
D18*
X156685000Y-92210000D03*
D19*
X158185000Y-92210000D03*
D18*
X156685000Y-89670000D03*
D19*
X158185000Y-89670000D03*
D18*
X156685000Y-87130000D03*
D19*
X158185000Y-87130000D03*
D18*
X156685000Y-84590000D03*
D19*
X158185000Y-84590000D03*
D18*
X156685000Y-82050000D03*
D19*
X158185000Y-82050000D03*
D18*
X156685000Y-79510000D03*
D19*
X158185000Y-79510000D03*
D18*
X156685000Y-76970000D03*
D19*
X158185000Y-76970000D03*
D18*
X156685000Y-74430000D03*
D19*
X158185000Y-74430000D03*
D18*
X156685000Y-71890000D03*
D19*
X158185000Y-71890000D03*
%TD*%
D20*
%TO.C,IC1*%
X142300000Y-63505000D03*
X142300000Y-62235000D03*
X142300000Y-60965000D03*
X142300000Y-59695000D03*
X147700000Y-59695000D03*
X147700000Y-60965000D03*
X147700000Y-62235000D03*
X147700000Y-63505000D03*
%TD*%
D21*
%TO.C,C5*%
X140100000Y-61655000D03*
X140100000Y-59755000D03*
%TD*%
D22*
%TO.C,R6*%
X122275000Y-115000000D03*
X124100000Y-115000000D03*
%TD*%
D23*
%TO.C,C3*%
X121850000Y-120900000D03*
X119950000Y-120900000D03*
%TD*%
D16*
%TO.C,R2*%
X114000000Y-119087500D03*
X114000000Y-120912500D03*
%TD*%
D24*
%TO.C,J3*%
X118075000Y-58300000D03*
X119325000Y-58300000D03*
X120575000Y-58300000D03*
X121825000Y-58300000D03*
X123075000Y-58300000D03*
X124325000Y-58300000D03*
D25*
X116225000Y-61650000D03*
X126175000Y-61650000D03*
%TD*%
D26*
%TO.C,R9*%
X145812500Y-57705000D03*
X143987500Y-57705000D03*
%TD*%
D16*
%TO.C,R3*%
X111000000Y-117087500D03*
X111000000Y-118912500D03*
%TD*%
D27*
%TO.C,U1*%
X117277599Y-109877601D03*
X117677601Y-109877601D03*
X118077600Y-109877601D03*
X118477599Y-109877601D03*
X118877601Y-109877601D03*
D28*
X119500000Y-110500000D03*
X119500000Y-110900002D03*
X119500000Y-111300001D03*
X119500000Y-111700000D03*
X119500000Y-112100002D03*
D27*
X118877601Y-112722401D03*
X118477599Y-112722401D03*
X118077600Y-112722401D03*
X117677601Y-112722401D03*
X117277599Y-112722401D03*
D28*
X116655200Y-112100002D03*
X116655200Y-111700000D03*
X116655200Y-111300001D03*
X116655200Y-110900002D03*
X116655200Y-110500000D03*
D29*
X118077600Y-111300001D03*
%TD*%
D22*
%TO.C,R7*%
X115587500Y-114500000D03*
X117412500Y-114500000D03*
%TD*%
D23*
%TO.C,C2*%
X121900000Y-123000000D03*
X120000000Y-123000000D03*
%TD*%
D26*
%TO.C,R8*%
X146012500Y-65505000D03*
X144187500Y-65505000D03*
%TD*%
D21*
%TO.C,C4*%
X137900000Y-61655000D03*
X137900000Y-59755000D03*
%TD*%
D22*
%TO.C,R4*%
X122300000Y-110700000D03*
X124125000Y-110700000D03*
%TD*%
%TO.C,R5*%
X122300000Y-112900000D03*
X124125000Y-112900000D03*
%TD*%
D23*
%TO.C,C1*%
X118950000Y-116500000D03*
X117050000Y-116500000D03*
%TD*%
M02*
