%TF.GenerationSoftware,KiCad,Pcbnew,7.0.7-rc1*%
%TF.CreationDate,2024-04-11T15:56:59-04:00*%
%TF.ProjectId,Moving_PCB,4d6f7669-6e67-45f5-9043-422e6b696361,rev?*%
%TF.SameCoordinates,Original*%
%TF.FileFunction,Paste,Bot*%
%TF.FilePolarity,Positive*%
%FSLAX46Y46*%
G04 Gerber Fmt 4.6, Leading zero omitted, Abs format (unit mm)*
G04 Created by KiCad (PCBNEW 7.0.7-rc1) date 2024-04-11 15:56:59*
%MOMM*%
%LPD*%
G01*
G04 APERTURE LIST*
G04 Aperture macros list*
%AMRoundRect*
0 Rectangle with rounded corners*
0 $1 Rounding radius*
0 $2 $3 $4 $5 $6 $7 $8 $9 X,Y pos of 4 corners*
0 Add a 4 corners polygon primitive as box body*
4,1,4,$2,$3,$4,$5,$6,$7,$8,$9,$2,$3,0*
0 Add four circle primitives for the rounded corners*
1,1,$1+$1,$2,$3*
1,1,$1+$1,$4,$5*
1,1,$1+$1,$6,$7*
1,1,$1+$1,$8,$9*
0 Add four rect primitives between the rounded corners*
20,1,$1+$1,$2,$3,$4,$5,0*
20,1,$1+$1,$4,$5,$6,$7,0*
20,1,$1+$1,$6,$7,$8,$9,0*
20,1,$1+$1,$8,$9,$2,$3,0*%
G04 Aperture macros list end*
%ADD10RoundRect,0.250000X-0.450000X0.262500X-0.450000X-0.262500X0.450000X-0.262500X0.450000X0.262500X0*%
%ADD11R,1.500000X0.650000*%
%ADD12RoundRect,0.250000X0.475000X-0.250000X0.475000X0.250000X-0.475000X0.250000X-0.475000X-0.250000X0*%
%ADD13RoundRect,0.250000X-0.262500X-0.450000X0.262500X-0.450000X0.262500X0.450000X-0.262500X0.450000X0*%
%ADD14RoundRect,0.250000X0.250000X0.475000X-0.250000X0.475000X-0.250000X-0.475000X0.250000X-0.475000X0*%
%ADD15RoundRect,0.150000X-0.150000X-0.700000X0.150000X-0.700000X0.150000X0.700000X-0.150000X0.700000X0*%
%ADD16RoundRect,0.250000X-0.250000X-1.150000X0.250000X-1.150000X0.250000X1.150000X-0.250000X1.150000X0*%
%ADD17RoundRect,0.250000X0.262500X0.450000X-0.262500X0.450000X-0.262500X-0.450000X0.262500X-0.450000X0*%
%ADD18R,0.203200X0.762000*%
%ADD19R,0.762000X0.203200*%
%ADD20R,1.803400X1.803400*%
G04 APERTURE END LIST*
D10*
%TO.C,R1*%
X117600000Y-120175000D03*
X117600000Y-122000000D03*
%TD*%
D11*
%TO.C,IC1*%
X142300000Y-63505000D03*
X142300000Y-62235000D03*
X142300000Y-60965000D03*
X142300000Y-59695000D03*
X147700000Y-59695000D03*
X147700000Y-60965000D03*
X147700000Y-62235000D03*
X147700000Y-63505000D03*
%TD*%
D12*
%TO.C,C5*%
X140100000Y-61655000D03*
X140100000Y-59755000D03*
%TD*%
D13*
%TO.C,R6*%
X122275000Y-115000000D03*
X124100000Y-115000000D03*
%TD*%
D14*
%TO.C,C3*%
X121850000Y-120900000D03*
X119950000Y-120900000D03*
%TD*%
D10*
%TO.C,R2*%
X114000000Y-119087500D03*
X114000000Y-120912500D03*
%TD*%
D15*
%TO.C,J3*%
X118075000Y-58300000D03*
X119325000Y-58300000D03*
X120575000Y-58300000D03*
X121825000Y-58300000D03*
X123075000Y-58300000D03*
X124325000Y-58300000D03*
D16*
X116225000Y-61650000D03*
X126175000Y-61650000D03*
%TD*%
D17*
%TO.C,R9*%
X145812500Y-57705000D03*
X143987500Y-57705000D03*
%TD*%
D10*
%TO.C,R3*%
X111000000Y-117087500D03*
X111000000Y-118912500D03*
%TD*%
D18*
%TO.C,U1*%
X117277599Y-109877601D03*
X117677601Y-109877601D03*
X118077600Y-109877601D03*
X118477599Y-109877601D03*
X118877601Y-109877601D03*
D19*
X119500000Y-110500000D03*
X119500000Y-110900002D03*
X119500000Y-111300001D03*
X119500000Y-111700000D03*
X119500000Y-112100002D03*
D18*
X118877601Y-112722401D03*
X118477599Y-112722401D03*
X118077600Y-112722401D03*
X117677601Y-112722401D03*
X117277599Y-112722401D03*
D19*
X116655200Y-112100002D03*
X116655200Y-111700000D03*
X116655200Y-111300001D03*
X116655200Y-110900002D03*
X116655200Y-110500000D03*
D20*
X118077600Y-111300001D03*
%TD*%
D13*
%TO.C,R7*%
X115587500Y-114500000D03*
X117412500Y-114500000D03*
%TD*%
D14*
%TO.C,C2*%
X121900000Y-123000000D03*
X120000000Y-123000000D03*
%TD*%
D17*
%TO.C,R8*%
X146012500Y-65505000D03*
X144187500Y-65505000D03*
%TD*%
D12*
%TO.C,C4*%
X137900000Y-61655000D03*
X137900000Y-59755000D03*
%TD*%
D13*
%TO.C,R4*%
X122300000Y-110700000D03*
X124125000Y-110700000D03*
%TD*%
%TO.C,R5*%
X122300000Y-112900000D03*
X124125000Y-112900000D03*
%TD*%
D14*
%TO.C,C1*%
X118950000Y-116500000D03*
X117050000Y-116500000D03*
%TD*%
M02*
